<?xml version="1.0" encoding="UTF-8" standalone="no"?><!DOCTYPE svg PUBLIC "-//W3C//DTD SVG 1.1//EN" "http://www.w3.org/Graphics/SVG/1.1/DTD/svg11.dtd"><svg width="97" height="97" viewBox="0 0 97 97" version="1.1" xmlns="http://www.w3.org/2000/svg" xmlns:xlink="http://www.w3.org/1999/xlink" xml:space="preserve" xmlns:serif="http://www.serif.com/" style="fill-rule:evenodd;clip-rule:evenodd;stroke-linejoin:round;stroke-miterlimit:1.41421;"><rect id="aluminium-mine-1" x="0.246" y="0.083" width="96" height="96" style="fill:none;"/><clipPath id="_clip1"><rect x="0.246" y="0.083" width="96" height="96"/></clipPath><g clip-path="url(#_clip1)"><g><path d="M28.287,6.812c0,-2.116 -1.717,-3.833 -3.833,-3.833c-2.116,0 -3.833,1.717 -3.833,3.833l0,10.542c0,2.115 1.717,3.833 3.833,3.833c2.116,0 3.833,-1.718 3.833,-3.833l0,-10.542Z" style="fill:#fff;"/><path d="M24.503,2.979l0.05,0.001l0.049,0.002l0.049,0.002l0.049,0.003l0.049,0.003l0.048,0.004l0.049,0.005l0.048,0.005l0.048,0.006l0.048,0.006l0.047,0.007l0.048,0.008l0.047,0.008l0.047,0.008l0.047,0.01l0.047,0.01l0.046,0.01l0.046,0.011l0.046,0.012l0.046,0.012l0.046,0.012l0.045,0.014l0.045,0.013l0.045,0.015l0.045,0.014l0.044,0.016l0.044,0.016l0.044,0.016l0.044,0.017l0.043,0.017l0.043,0.018l0.043,0.019l0.043,0.019l0.042,0.019l0.042,0.02l0.042,0.02l0.041,0.021l0.042,0.022l0.04,0.022l0.041,0.022l0.04,0.023l0.04,0.023l0.04,0.024l0.039,0.024l0.039,0.025l0.039,0.025l0.038,0.026l0.039,0.026l0.037,0.026l0.038,0.027l0.037,0.028l0.037,0.028l0.036,0.028l0.036,0.028l0.036,0.03l0.035,0.029l0.035,0.03l0.034,0.03l0.035,0.031l0.034,0.031l0.033,0.032l0.033,0.032l0.033,0.032l0.032,0.033l0.032,0.033l0.032,0.033l0.031,0.034l0.031,0.034l0.03,0.035l0.03,0.035l0.029,0.035l0.029,0.036l0.029,0.036l0.028,0.036l0.028,0.037l0.028,0.037l0.027,0.038l0.026,0.037l0.026,0.038l0.026,0.039l0.025,0.039l0.025,0.039l0.024,0.039l0.024,0.04l0.023,0.04l0.023,0.04l0.022,0.041l0.022,0.04l0.022,0.042l0.02,0.041l0.021,0.042l0.02,0.042l0.019,0.042l0.019,0.043l0.019,0.043l0.018,0.043l0.017,0.043l0.017,0.044l0.016,0.044l0.016,0.044l0.016,0.044l0.014,0.045l0.015,0.045l0.013,0.045l0.014,0.045l0.012,0.046l0.012,0.046l0.012,0.046l0.011,0.046l0.01,0.046l0.01,0.047l0.01,0.047l0.008,0.047l0.008,0.047l0.008,0.048l0.007,0.047l0.006,0.048l0.006,0.048l0.005,0.048l0.005,0.049l0.004,0.048l0.003,0.049l0.003,0.049l0.002,0.049l0.002,0.049l0.001,0.05l0,0.049l0,10.542l0,0.049l-0.001,0.05l-0.002,0.049l-0.002,0.049l-0.003,0.049l-0.003,0.049l-0.004,0.048l-0.005,0.048l-0.005,0.049l-0.006,0.048l-0.006,0.048l-0.007,0.047l-0.008,0.048l-0.008,0.047l-0.008,0.047l-0.01,0.047l-0.01,0.047l-0.01,0.046l-0.011,0.046l-0.012,0.046l-0.012,0.046l-0.012,0.046l-0.014,0.045l-0.013,0.045l-0.015,0.045l-0.014,0.045l-0.016,0.044l-0.016,0.044l-0.016,0.044l-0.017,0.044l-0.017,0.043l-0.018,0.043l-0.019,0.043l-0.019,0.043l-0.019,0.042l-0.02,0.042l-0.021,0.042l-0.02,0.041l-0.022,0.041l-0.022,0.041l-0.022,0.041l-0.023,0.04l-0.023,0.04l-0.024,0.04l-0.024,0.039l-0.025,0.039l-0.025,0.039l-0.026,0.038l-0.026,0.038l-0.026,0.038l-0.027,0.038l-0.028,0.037l-0.028,0.036l-0.028,0.037l-0.029,0.036l-0.029,0.036l-0.029,0.035l-0.03,0.035l-0.03,0.034l-0.031,0.035l-0.031,0.034l-0.032,0.033l-0.032,0.033l-0.032,0.033l-0.033,0.032l-0.033,0.032l-0.033,0.032l-0.034,0.031l-0.035,0.031l-0.034,0.03l-0.035,0.03l-0.035,0.029l-0.036,0.029l-0.036,0.029l-0.036,0.028l-0.037,0.028l-0.037,0.028l-0.038,0.026l-0.037,0.027l-0.039,0.026l-0.038,0.026l-0.039,0.025l-0.039,0.025l-0.039,0.024l-0.04,0.024l-0.04,0.023l-0.04,0.023l-0.041,0.022l-0.04,0.022l-0.042,0.021l-0.041,0.021l-0.042,0.021l-0.042,0.02l-0.042,0.019l-0.043,0.019l-0.043,0.019l-0.043,0.018l-0.043,0.017l-0.044,0.017l-0.044,0.016l-0.044,0.016l-0.044,0.016l-0.045,0.014l-0.045,0.015l-0.045,0.013l-0.045,0.014l-0.046,0.012l-0.046,0.012l-0.046,0.012l-0.046,0.011l-0.046,0.01l-0.047,0.01l-0.047,0.009l-0.047,0.009l-0.047,0.008l-0.048,0.008l-0.047,0.007l-0.048,0.006l-0.048,0.006l-0.048,0.005l-0.049,0.005l-0.048,0.004l-0.049,0.003l-0.049,0.003l-0.049,0.002l-0.049,0.002l-0.05,0.001l-0.049,0l-0.05,0l-0.049,-0.001l-0.049,-0.002l-0.049,-0.002l-0.049,-0.003l-0.049,-0.003l-0.048,-0.004l-0.049,-0.005l-0.048,-0.005l-0.048,-0.006l-0.048,-0.006l-0.048,-0.007l-0.047,-0.008l-0.047,-0.008l-0.047,-0.009l-0.047,-0.009l-0.047,-0.01l-0.046,-0.01l-0.047,-0.011l-0.046,-0.012l-0.045,-0.012l-0.046,-0.012l-0.045,-0.014l-0.046,-0.013l-0.044,-0.015l-0.045,-0.014l-0.044,-0.016l-0.045,-0.016l-0.044,-0.016l-0.043,-0.017l-0.044,-0.017l-0.043,-0.018l-0.043,-0.019l-0.042,-0.019l-0.042,-0.019l-0.042,-0.02l-0.042,-0.021l-0.042,-0.021l-0.041,-0.021l-0.041,-0.022l-0.04,-0.022l-0.041,-0.023l-0.04,-0.023l-0.039,-0.024l-0.04,-0.024l-0.039,-0.025l-0.038,-0.025l-0.039,-0.026l-0.038,-0.026l-0.038,-0.027l-0.037,-0.026l-0.037,-0.028l-0.037,-0.028l-0.036,-0.028l-0.036,-0.029l-0.036,-0.029l-0.035,-0.029l-0.035,-0.03l-0.035,-0.03l-0.034,-0.031l-0.034,-0.031l-0.033,-0.032l-0.033,-0.032l-0.033,-0.032l-0.033,-0.033l-0.031,-0.033l-0.032,-0.033l-0.031,-0.034l-0.031,-0.035l-0.03,-0.034l-0.03,-0.035l-0.03,-0.035l-0.029,-0.036l-0.028,-0.036l-0.029,-0.037l-0.028,-0.036l-0.027,-0.037l-0.027,-0.038l-0.026,-0.038l-0.026,-0.038l-0.026,-0.038l-0.025,-0.039l-0.025,-0.039l-0.024,-0.039l-0.024,-0.04l-0.023,-0.04l-0.023,-0.04l-0.023,-0.041l-0.021,-0.041l-0.022,-0.041l-0.021,-0.041l-0.02,-0.042l-0.02,-0.042l-0.02,-0.042l-0.019,-0.043l-0.018,-0.043l-0.018,-0.043l-0.017,-0.043l-0.017,-0.044l-0.017,-0.044l-0.016,-0.044l-0.015,-0.044l-0.015,-0.045l-0.014,-0.045l-0.014,-0.045l-0.013,-0.045l-0.013,-0.046l-0.012,-0.046l-0.011,-0.046l-0.011,-0.046l-0.011,-0.046l-0.01,-0.047l-0.009,-0.047l-0.009,-0.047l-0.008,-0.047l-0.007,-0.048l-0.007,-0.047l-0.007,-0.048l-0.005,-0.048l-0.006,-0.049l-0.004,-0.048l-0.004,-0.048l-0.004,-0.049l-0.002,-0.049l-0.003,-0.049l-0.001,-0.049l-0.001,-0.05l0,-0.049l0,-10.542l0,-0.049l0.001,-0.05l0.001,-0.049l0.003,-0.049l0.002,-0.049l0.004,-0.049l0.004,-0.048l0.004,-0.049l0.006,-0.048l0.005,-0.048l0.007,-0.048l0.007,-0.047l0.007,-0.048l0.008,-0.047l0.009,-0.047l0.009,-0.047l0.01,-0.047l0.011,-0.046l0.011,-0.046l0.011,-0.046l0.012,-0.046l0.013,-0.046l0.013,-0.045l0.014,-0.045l0.014,-0.045l0.015,-0.045l0.015,-0.044l0.016,-0.044l0.017,-0.044l0.017,-0.044l0.017,-0.043l0.018,-0.043l0.018,-0.043l0.019,-0.043l0.02,-0.042l0.02,-0.042l0.02,-0.042l0.021,-0.041l0.022,-0.042l0.021,-0.04l0.023,-0.041l0.023,-0.04l0.023,-0.04l0.024,-0.04l0.024,-0.039l0.025,-0.039l0.025,-0.039l0.026,-0.039l0.026,-0.038l0.026,-0.037l0.027,-0.038l0.027,-0.037l0.028,-0.037l0.029,-0.036l0.028,-0.036l0.029,-0.036l0.03,-0.035l0.03,-0.035l0.03,-0.035l0.031,-0.034l0.031,-0.034l0.032,-0.033l0.031,-0.033l0.033,-0.033l0.033,-0.032l0.033,-0.032l0.033,-0.032l0.034,-0.031l0.034,-0.031l0.035,-0.03l0.035,-0.03l0.035,-0.029l0.036,-0.03l0.036,-0.028l0.036,-0.028l0.037,-0.028l0.037,-0.028l0.037,-0.027l0.038,-0.026l0.038,-0.026l0.039,-0.026l0.038,-0.025l0.039,-0.025l0.04,-0.024l0.039,-0.024l0.04,-0.023l0.041,-0.023l0.04,-0.022l0.041,-0.022l0.041,-0.022l0.042,-0.021l0.042,-0.02l0.042,-0.02l0.042,-0.019l0.042,-0.019l0.043,-0.019l0.043,-0.018l0.044,-0.017l0.043,-0.017l0.044,-0.016l0.045,-0.016l0.044,-0.016l0.045,-0.014l0.044,-0.015l0.046,-0.013l0.045,-0.014l0.046,-0.012l0.045,-0.012l0.046,-0.012l0.047,-0.011l0.046,-0.01l0.047,-0.01l0.047,-0.01l0.047,-0.008l0.047,-0.008l0.047,-0.008l0.048,-0.007l0.048,-0.006l0.048,-0.006l0.048,-0.005l0.049,-0.005l0.048,-0.004l0.049,-0.003l0.049,-0.003l0.049,-0.002l0.049,-0.002l0.049,-0.001l0.05,0l0.049,0Zm-0.08,1.5l-0.03,0.001l-0.03,0.001l-0.03,0.001l-0.03,0.002l-0.03,0.002l-0.03,0.002l-0.029,0.003l-0.03,0.003l-0.029,0.004l-0.029,0.004l-0.029,0.004l-0.029,0.004l-0.028,0.005l-0.029,0.006l-0.028,0.005l-0.028,0.006l-0.029,0.007l-0.028,0.006l-0.028,0.007l-0.027,0.008l-0.028,0.007l-0.027,0.008l-0.028,0.008l-0.027,0.009l-0.027,0.009l-0.027,0.009l-0.027,0.01l-0.026,0.01l-0.026,0.01l-0.027,0.011l-0.026,0.011l-0.026,0.011l-0.026,0.011l-0.026,0.012l-0.025,0.012l-0.025,0.013l-0.025,0.012l-0.026,0.013l-0.025,0.014l-0.024,0.013l-0.024,0.014l-0.025,0.014l-0.024,0.015l-0.024,0.015l-0.024,0.015l-0.023,0.015l-0.024,0.016l-0.023,0.016l-0.023,0.016l-0.023,0.016l-0.023,0.017l-0.022,0.017l-0.022,0.017l-0.022,0.018l-0.022,0.017l-0.022,0.019l-0.021,0.018l-0.021,0.018l-0.021,0.019l-0.021,0.019l-0.02,0.019l-0.02,0.02l-0.021,0.02l-0.019,0.02l-0.02,0.02l-0.019,0.021l-0.019,0.02l-0.019,0.021l-0.019,0.021l-0.018,0.022l-0.018,0.021l-0.018,0.022l-0.017,0.022l-0.017,0.022l-0.017,0.023l-0.017,0.022l-0.016,0.023l-0.017,0.023l-0.016,0.024l-0.015,0.023l-0.016,0.023l-0.015,0.024l-0.014,0.024l-0.015,0.024l-0.014,0.025l-0.014,0.024l-0.014,0.025l-0.013,0.025l-0.013,0.025l-0.013,0.025l-0.012,0.025l-0.012,0.026l-0.012,0.025l-0.011,0.026l-0.012,0.026l-0.011,0.026l-0.01,0.027l-0.01,0.026l-0.01,0.027l-0.01,0.027l-0.009,0.026l-0.009,0.028l-0.009,0.027l-0.008,0.027l-0.008,0.027l-0.008,0.028l-0.007,0.028l-0.007,0.027l-0.007,0.029l-0.006,0.028l-0.006,0.028l-0.006,0.028l-0.005,0.029l-0.005,0.029l-0.004,0.028l-0.005,0.029l-0.004,0.03l-0.003,0.029l-0.003,0.029l-0.003,0.03l-0.003,0.03l-0.002,0.029l-0.001,0.03l-0.002,0.03l-0.001,0.03l0,0.031l-0.001,0.035l0,10.532l0.001,0.035l0,0.031l0.001,0.03l0.002,0.03l0.001,0.03l0.002,0.029l0.003,0.03l0.003,0.03l0.003,0.029l0.003,0.029l0.004,0.03l0.005,0.029l0.004,0.028l0.005,0.029l0.005,0.029l0.006,0.028l0.006,0.028l0.006,0.028l0.007,0.028l0.007,0.028l0.007,0.028l0.008,0.028l0.008,0.027l0.008,0.027l0.009,0.027l0.009,0.027l0.009,0.027l0.01,0.027l0.01,0.027l0.01,0.026l0.01,0.027l0.011,0.026l0.012,0.026l0.011,0.025l0.012,0.026l0.012,0.026l0.012,0.025l0.013,0.025l0.013,0.025l0.014,0.025l0.013,0.025l0.014,0.024l0.014,0.024l0.015,0.025l0.014,0.024l0.015,0.024l0.016,0.023l0.015,0.023l0.016,0.024l0.016,0.023l0.017,0.023l0.017,0.022l0.017,0.023l0.017,0.022l0.017,0.022l0.018,0.022l0.018,0.021l0.018,0.021l0.019,0.022l0.019,0.021l0.019,0.02l0.019,0.021l0.02,0.02l0.019,0.02l0.021,0.02l0.02,0.019l0.02,0.02l0.021,0.019l0.021,0.019l0.021,0.018l0.021,0.018l0.022,0.018l0.022,0.018l0.022,0.018l0.022,0.017l0.022,0.017l0.023,0.017l0.023,0.016l0.023,0.016l0.023,0.016l0.024,0.016l0.023,0.015l0.024,0.015l0.024,0.015l0.024,0.015l0.024,0.014l0.025,0.014l0.025,0.013l0.024,0.014l0.025,0.013l0.026,0.012l0.025,0.013l0.025,0.012l0.026,0.012l0.026,0.011l0.026,0.011l0.026,0.011l0.026,0.011l0.027,0.01l0.026,0.01l0.027,0.01l0.027,0.009l0.027,0.009l0.027,0.008l0.027,0.009l0.028,0.008l0.028,0.007l0.027,0.008l0.028,0.007l0.028,0.006l0.028,0.007l0.029,0.006l0.028,0.005l0.029,0.006l0.028,0.005l0.029,0.004l0.029,0.004l0.029,0.004l0.03,0.004l0.029,0.003l0.029,0.003l0.03,0.002l0.03,0.002l0.03,0.002l0.03,0.001l0.03,0.001l0.03,0.001l0.031,0l0.03,0l0.031,-0.001l0.03,-0.001l0.03,-0.001l0.03,-0.002l0.03,-0.002l0.029,-0.002l0.03,-0.003l0.029,-0.003l0.029,-0.004l0.03,-0.004l0.028,-0.004l0.029,-0.004l0.029,-0.005l0.028,-0.006l0.029,-0.005l0.028,-0.006l0.028,-0.007l0.028,-0.006l0.028,-0.007l0.028,-0.008l0.027,-0.007l0.028,-0.008l0.027,-0.009l0.028,-0.008l0.027,-0.009l0.026,-0.009l0.027,-0.01l0.027,-0.01l0.026,-0.01l0.027,-0.011l0.026,-0.011l0.026,-0.011l0.025,-0.011l0.026,-0.012l0.026,-0.012l0.025,-0.013l0.025,-0.012l0.025,-0.013l0.025,-0.014l0.025,-0.013l0.024,-0.014l0.025,-0.015l0.024,-0.014l0.024,-0.015l0.023,-0.015l0.024,-0.015l0.024,-0.016l0.023,-0.016l0.023,-0.016l0.023,-0.016l0.022,-0.017l0.023,-0.017l0.022,-0.017l0.022,-0.018l0.022,-0.017l0.021,-0.019l0.022,-0.018l0.021,-0.019l0.021,-0.018l0.02,-0.019l0.021,-0.02l0.02,-0.019l0.02,-0.02l0.02,-0.02l0.02,-0.02l0.019,-0.021l0.019,-0.02l0.018,-0.021l0.019,-0.021l0.019,-0.022l0.017,-0.021l0.018,-0.022l0.018,-0.022l0.017,-0.022l0.017,-0.023l0.017,-0.022l0.016,-0.023l0.016,-0.023l0.016,-0.024l0.016,-0.023l0.015,-0.023l0.015,-0.024l0.015,-0.024l0.015,-0.025l0.014,-0.024l0.014,-0.024l0.013,-0.025l0.014,-0.025l0.013,-0.025l0.012,-0.025l0.013,-0.025l0.012,-0.026l0.012,-0.026l0.011,-0.026l0.011,-0.025l0.011,-0.026l0.011,-0.027l0.01,-0.026l0.01,-0.027l0.01,-0.027l0.009,-0.027l0.009,-0.026l0.008,-0.027l0.009,-0.028l0.008,-0.028l0.007,-0.027l0.008,-0.028l0.007,-0.028l0.006,-0.028l0.007,-0.028l0.006,-0.028l0.005,-0.028l0.006,-0.029l0.005,-0.029l0.004,-0.028l0.004,-0.029l0.004,-0.03l0.004,-0.029l0.003,-0.029l0.003,-0.03l0.002,-0.03l0.002,-0.029l0.002,-0.03l0.001,-0.03l0.001,-0.03l0.001,-0.031l0,-0.035l0,-10.532l0,-0.035l-0.001,-0.031l-0.001,-0.03l-0.001,-0.03l-0.002,-0.03l-0.002,-0.029l-0.002,-0.03l-0.003,-0.03l-0.003,-0.029l-0.004,-0.029l-0.004,-0.03l-0.004,-0.029l-0.004,-0.028l-0.005,-0.029l-0.006,-0.029l-0.005,-0.028l-0.006,-0.028l-0.007,-0.028l-0.006,-0.029l-0.007,-0.027l-0.008,-0.028l-0.007,-0.027l-0.008,-0.028l-0.009,-0.028l-0.008,-0.027l-0.009,-0.027l-0.009,-0.026l-0.01,-0.027l-0.01,-0.027l-0.01,-0.026l-0.011,-0.027l-0.011,-0.026l-0.011,-0.026l-0.011,-0.026l-0.012,-0.025l-0.012,-0.026l-0.013,-0.025l-0.012,-0.025l-0.013,-0.025l-0.014,-0.025l-0.013,-0.025l-0.014,-0.024l-0.014,-0.025l-0.015,-0.024l-0.015,-0.024l-0.015,-0.024l-0.015,-0.023l-0.016,-0.023l-0.016,-0.024l-0.016,-0.023l-0.016,-0.023l-0.017,-0.022l-0.017,-0.023l-0.017,-0.022l-0.018,-0.022l-0.017,-0.022l-0.018,-0.021l-0.019,-0.022l-0.019,-0.021l-0.018,-0.021l-0.019,-0.02l-0.019,-0.021l-0.02,-0.02l-0.02,-0.02l-0.02,-0.02l-0.02,-0.02l-0.021,-0.019l-0.02,-0.019l-0.021,-0.018l-0.021,-0.019l-0.022,-0.019l-0.021,-0.018l-0.022,-0.017l-0.022,-0.018l-0.022,-0.017l-0.023,-0.017l-0.022,-0.017l-0.023,-0.016l-0.023,-0.016l-0.024,-0.016l-0.023,-0.016l-0.024,-0.015l-0.023,-0.015l-0.024,-0.015l-0.024,-0.015l-0.025,-0.014l-0.024,-0.014l-0.025,-0.013l-0.025,-0.014l-0.025,-0.013l-0.025,-0.012l-0.025,-0.013l-0.026,-0.012l-0.026,-0.012l-0.025,-0.011l-0.026,-0.011l-0.027,-0.011l-0.026,-0.011l-0.026,-0.01l-0.027,-0.01l-0.027,-0.01l-0.026,-0.009l-0.027,-0.009l-0.028,-0.009l-0.027,-0.008l-0.027,-0.008l-0.028,-0.007l-0.028,-0.008l-0.027,-0.007l-0.029,-0.006l-0.028,-0.007l-0.028,-0.006l-0.029,-0.005l-0.028,-0.006l-0.029,-0.005l-0.028,-0.004l-0.029,-0.004l-0.03,-0.004l-0.029,-0.004l-0.029,-0.003l-0.03,-0.003l-0.029,-0.002l-0.03,-0.002l-0.03,-0.002l-0.03,-0.001l-0.03,-0.001l-0.031,-0.001l-0.03,0l-0.031,0Z" style="fill:#404040;"/><path d="M34.454,6.812c0,-2.116 -1.718,-3.833 -3.833,-3.833c-2.116,0 -3.834,1.717 -3.834,3.833l0,10.542c0,2.115 1.718,3.833 3.834,3.833c2.115,0 3.833,-1.718 3.833,-3.833l0,-10.542Z" style="fill:#fff;"/><path d="M30.67,2.979l0.049,0.001l0.05,0.002l0.049,0.002l0.049,0.003l0.048,0.003l0.049,0.004l0.048,0.005l0.048,0.005l0.048,0.006l0.048,0.006l0.048,0.007l0.047,0.008l0.048,0.008l0.047,0.008l0.047,0.01l0.046,0.01l0.047,0.01l0.046,0.011l0.046,0.012l0.046,0.012l0.045,0.012l0.046,0.014l0.045,0.013l0.045,0.015l0.044,0.014l0.045,0.016l0.044,0.016l0.044,0.016l0.044,0.017l0.043,0.017l0.043,0.018l0.043,0.019l0.042,0.019l0.043,0.019l0.042,0.02l0.042,0.02l0.041,0.021l0.041,0.022l0.041,0.022l0.041,0.022l0.04,0.023l0.04,0.023l0.04,0.024l0.039,0.024l0.039,0.025l0.039,0.025l0.038,0.026l0.038,0.026l0.038,0.026l0.037,0.027l0.037,0.028l0.037,0.028l0.037,0.028l0.036,0.028l0.035,0.03l0.036,0.029l0.035,0.03l0.034,0.03l0.034,0.031l0.034,0.031l0.034,0.032l0.033,0.032l0.033,0.032l0.032,0.033l0.032,0.033l0.031,0.033l0.032,0.034l0.03,0.034l0.031,0.035l0.03,0.035l0.029,0.035l0.029,0.036l0.029,0.036l0.028,0.036l0.028,0.037l0.027,0.037l0.027,0.038l0.027,0.037l0.026,0.038l0.025,0.039l0.026,0.039l0.024,0.039l0.025,0.039l0.023,0.04l0.024,0.04l0.023,0.04l0.022,0.041l0.022,0.04l0.021,0.042l0.021,0.041l0.021,0.042l0.02,0.042l0.019,0.042l0.019,0.043l0.018,0.043l0.018,0.043l0.018,0.043l0.017,0.044l0.016,0.044l0.016,0.044l0.015,0.044l0.015,0.045l0.014,0.045l0.014,0.045l0.013,0.045l0.013,0.046l0.012,0.046l0.012,0.046l0.011,0.046l0.01,0.046l0.01,0.047l0.009,0.047l0.009,0.047l0.008,0.047l0.008,0.048l0.007,0.047l0.006,0.048l0.006,0.048l0.005,0.048l0.005,0.049l0.004,0.048l0.003,0.049l0.003,0.049l0.002,0.049l0.002,0.049l0.001,0.05l0,0.049l0,10.542l0,0.049l-0.001,0.05l-0.002,0.049l-0.002,0.049l-0.003,0.049l-0.003,0.049l-0.004,0.048l-0.005,0.048l-0.005,0.049l-0.006,0.048l-0.006,0.048l-0.007,0.047l-0.008,0.048l-0.008,0.047l-0.009,0.047l-0.009,0.047l-0.01,0.047l-0.01,0.046l-0.011,0.046l-0.012,0.046l-0.012,0.046l-0.013,0.046l-0.013,0.045l-0.014,0.045l-0.014,0.045l-0.015,0.045l-0.015,0.044l-0.016,0.044l-0.016,0.044l-0.017,0.044l-0.018,0.043l-0.018,0.043l-0.018,0.043l-0.019,0.043l-0.019,0.042l-0.02,0.042l-0.021,0.042l-0.021,0.041l-0.021,0.041l-0.022,0.041l-0.022,0.041l-0.023,0.04l-0.024,0.04l-0.023,0.04l-0.025,0.039l-0.024,0.039l-0.026,0.039l-0.025,0.038l-0.026,0.038l-0.027,0.038l-0.027,0.038l-0.027,0.037l-0.028,0.036l-0.028,0.037l-0.029,0.036l-0.029,0.036l-0.029,0.035l-0.03,0.035l-0.031,0.034l-0.03,0.035l-0.032,0.034l-0.031,0.033l-0.032,0.033l-0.032,0.033l-0.033,0.032l-0.033,0.032l-0.034,0.032l-0.034,0.031l-0.034,0.031l-0.034,0.03l-0.035,0.03l-0.036,0.029l-0.035,0.029l-0.036,0.029l-0.037,0.028l-0.037,0.028l-0.037,0.028l-0.037,0.026l-0.038,0.027l-0.038,0.026l-0.038,0.026l-0.039,0.025l-0.039,0.025l-0.039,0.024l-0.04,0.024l-0.04,0.023l-0.04,0.023l-0.041,0.022l-0.041,0.022l-0.041,0.021l-0.041,0.021l-0.042,0.021l-0.042,0.02l-0.043,0.019l-0.042,0.019l-0.043,0.019l-0.043,0.018l-0.043,0.017l-0.044,0.017l-0.044,0.016l-0.044,0.016l-0.045,0.016l-0.044,0.014l-0.045,0.015l-0.045,0.013l-0.046,0.014l-0.045,0.012l-0.046,0.012l-0.046,0.012l-0.046,0.011l-0.047,0.01l-0.046,0.01l-0.047,0.009l-0.047,0.009l-0.048,0.008l-0.047,0.008l-0.048,0.007l-0.048,0.006l-0.048,0.006l-0.048,0.005l-0.048,0.005l-0.049,0.004l-0.048,0.003l-0.049,0.003l-0.049,0.002l-0.05,0.002l-0.049,0.001l-0.049,0l-0.05,0l-0.049,-0.001l-0.05,-0.002l-0.049,-0.002l-0.049,-0.003l-0.048,-0.003l-0.049,-0.004l-0.048,-0.005l-0.048,-0.005l-0.048,-0.006l-0.048,-0.006l-0.048,-0.007l-0.047,-0.008l-0.048,-0.008l-0.047,-0.009l-0.047,-0.009l-0.046,-0.01l-0.047,-0.01l-0.046,-0.011l-0.046,-0.012l-0.046,-0.012l-0.045,-0.012l-0.046,-0.014l-0.045,-0.013l-0.045,-0.015l-0.044,-0.014l-0.045,-0.016l-0.044,-0.016l-0.044,-0.016l-0.043,-0.017l-0.044,-0.017l-0.043,-0.018l-0.043,-0.019l-0.042,-0.019l-0.043,-0.019l-0.042,-0.02l-0.042,-0.021l-0.041,-0.021l-0.041,-0.021l-0.041,-0.022l-0.041,-0.022l-0.04,-0.023l-0.04,-0.023l-0.04,-0.024l-0.039,-0.024l-0.039,-0.025l-0.039,-0.025l-0.038,-0.026l-0.038,-0.026l-0.038,-0.027l-0.037,-0.026l-0.037,-0.028l-0.037,-0.028l-0.037,-0.028l-0.036,-0.029l-0.035,-0.029l-0.036,-0.029l-0.035,-0.03l-0.034,-0.03l-0.034,-0.031l-0.034,-0.031l-0.034,-0.032l-0.033,-0.032l-0.033,-0.032l-0.032,-0.033l-0.032,-0.033l-0.031,-0.033l-0.031,-0.034l-0.031,-0.035l-0.031,-0.034l-0.03,-0.035l-0.029,-0.035l-0.029,-0.036l-0.029,-0.036l-0.028,-0.037l-0.028,-0.036l-0.027,-0.037l-0.027,-0.038l-0.027,-0.038l-0.026,-0.038l-0.025,-0.038l-0.026,-0.039l-0.024,-0.039l-0.025,-0.039l-0.023,-0.04l-0.024,-0.04l-0.022,-0.04l-0.023,-0.041l-0.022,-0.041l-0.021,-0.041l-0.021,-0.041l-0.021,-0.042l-0.02,-0.042l-0.019,-0.042l-0.019,-0.043l-0.018,-0.043l-0.018,-0.043l-0.018,-0.043l-0.017,-0.044l-0.016,-0.044l-0.016,-0.044l-0.015,-0.044l-0.015,-0.045l-0.014,-0.045l-0.014,-0.045l-0.013,-0.045l-0.013,-0.046l-0.012,-0.046l-0.012,-0.046l-0.011,-0.046l-0.01,-0.046l-0.01,-0.047l-0.009,-0.047l-0.009,-0.047l-0.008,-0.047l-0.008,-0.048l-0.007,-0.047l-0.006,-0.048l-0.006,-0.048l-0.005,-0.049l-0.005,-0.048l-0.004,-0.048l-0.003,-0.049l-0.003,-0.049l-0.002,-0.049l-0.002,-0.049l-0.001,-0.05l0,-0.049l0,-10.542l0,-0.049l0.001,-0.05l0.002,-0.049l0.002,-0.049l0.003,-0.049l0.003,-0.049l0.004,-0.048l0.005,-0.049l0.005,-0.048l0.006,-0.048l0.006,-0.048l0.007,-0.047l0.008,-0.048l0.008,-0.047l0.009,-0.047l0.009,-0.047l0.01,-0.047l0.01,-0.046l0.011,-0.046l0.012,-0.046l0.012,-0.046l0.013,-0.046l0.013,-0.045l0.014,-0.045l0.014,-0.045l0.015,-0.045l0.015,-0.044l0.016,-0.044l0.016,-0.044l0.017,-0.044l0.018,-0.043l0.018,-0.043l0.018,-0.043l0.019,-0.043l0.019,-0.042l0.02,-0.042l0.021,-0.042l0.021,-0.041l0.021,-0.042l0.022,-0.04l0.023,-0.041l0.022,-0.04l0.024,-0.04l0.023,-0.04l0.025,-0.039l0.024,-0.039l0.026,-0.039l0.025,-0.039l0.026,-0.038l0.027,-0.037l0.027,-0.038l0.027,-0.037l0.028,-0.037l0.028,-0.036l0.029,-0.036l0.029,-0.036l0.029,-0.035l0.03,-0.035l0.031,-0.035l0.031,-0.034l0.031,-0.034l0.031,-0.033l0.032,-0.033l0.032,-0.033l0.033,-0.032l0.033,-0.032l0.034,-0.032l0.034,-0.031l0.034,-0.031l0.034,-0.03l0.035,-0.03l0.036,-0.029l0.035,-0.03l0.036,-0.028l0.037,-0.028l0.037,-0.028l0.037,-0.028l0.037,-0.027l0.038,-0.026l0.038,-0.026l0.038,-0.026l0.039,-0.025l0.039,-0.025l0.039,-0.024l0.04,-0.024l0.04,-0.023l0.04,-0.023l0.041,-0.022l0.041,-0.022l0.041,-0.022l0.041,-0.021l0.042,-0.02l0.042,-0.02l0.043,-0.019l0.042,-0.019l0.043,-0.019l0.043,-0.018l0.044,-0.017l0.043,-0.017l0.044,-0.016l0.044,-0.016l0.045,-0.016l0.044,-0.014l0.045,-0.015l0.045,-0.013l0.046,-0.014l0.045,-0.012l0.046,-0.012l0.046,-0.012l0.046,-0.011l0.047,-0.01l0.046,-0.01l0.047,-0.01l0.047,-0.008l0.048,-0.008l0.047,-0.008l0.048,-0.007l0.048,-0.006l0.048,-0.006l0.048,-0.005l0.048,-0.005l0.049,-0.004l0.048,-0.003l0.049,-0.003l0.049,-0.002l0.05,-0.002l0.049,-0.001l0.05,0l0.049,0Zm-0.08,1.5l-0.03,0.001l-0.03,0.001l-0.031,0.001l-0.029,0.002l-0.03,0.002l-0.03,0.002l-0.029,0.003l-0.03,0.003l-0.029,0.004l-0.029,0.004l-0.029,0.004l-0.029,0.004l-0.029,0.005l-0.028,0.006l-0.029,0.005l-0.028,0.006l-0.028,0.007l-0.028,0.006l-0.028,0.007l-0.028,0.008l-0.027,0.007l-0.028,0.008l-0.027,0.009l-0.027,0.008l-0.027,0.009l-0.027,0.009l-0.027,0.01l-0.027,0.01l-0.026,0.01l-0.026,0.011l-0.026,0.011l-0.026,0.011l-0.026,0.011l-0.026,0.012l-0.025,0.012l-0.026,0.013l-0.025,0.012l-0.025,0.013l-0.025,0.014l-0.024,0.013l-0.025,0.014l-0.024,0.014l-0.024,0.015l-0.024,0.015l-0.024,0.015l-0.024,0.015l-0.023,0.016l-0.023,0.016l-0.024,0.016l-0.022,0.016l-0.023,0.017l-0.022,0.017l-0.022,0.017l-0.023,0.018l-0.021,0.017l-0.022,0.018l-0.021,0.019l-0.022,0.018l-0.02,0.019l-0.021,0.019l-0.021,0.02l-0.02,0.019l-0.02,0.02l-0.02,0.02l-0.019,0.02l-0.019,0.02l-0.019,0.021l-0.019,0.021l-0.019,0.021l-0.018,0.022l-0.018,0.021l-0.018,0.022l-0.018,0.022l-0.017,0.022l-0.017,0.023l-0.016,0.022l-0.017,0.023l-0.016,0.023l-0.016,0.023l-0.016,0.024l-0.015,0.024l-0.015,0.023l-0.015,0.024l-0.014,0.024l-0.014,0.025l-0.014,0.024l-0.014,0.025l-0.013,0.025l-0.013,0.025l-0.013,0.025l-0.012,0.025l-0.012,0.026l-0.012,0.025l-0.012,0.026l-0.011,0.026l-0.011,0.026l-0.01,0.027l-0.011,0.026l-0.01,0.027l-0.009,0.026l-0.01,0.027l-0.008,0.027l-0.009,0.028l-0.008,0.027l-0.008,0.028l-0.008,0.027l-0.007,0.028l-0.007,0.027l-0.007,0.029l-0.006,0.028l-0.006,0.028l-0.006,0.028l-0.005,0.029l-0.005,0.028l-0.005,0.03l-0.004,0.029l-0.004,0.029l-0.004,0.029l-0.003,0.029l-0.002,0.03l-0.003,0.029l-0.002,0.03l-0.002,0.03l-0.001,0.03l-0.001,0.03l-0.001,0.031l0,0.035l0,10.532l0,0.035l0.001,0.031l0.001,0.03l0.001,0.03l0.002,0.03l0.002,0.03l0.003,0.029l0.002,0.03l0.003,0.029l0.004,0.029l0.004,0.029l0.004,0.029l0.005,0.029l0.005,0.029l0.005,0.029l0.006,0.028l0.006,0.028l0.006,0.028l0.007,0.028l0.007,0.028l0.007,0.028l0.008,0.027l0.008,0.028l0.008,0.027l0.009,0.028l0.008,0.026l0.01,0.027l0.009,0.027l0.01,0.027l0.011,0.026l0.01,0.027l0.011,0.026l0.011,0.025l0.012,0.026l0.012,0.026l0.012,0.026l0.012,0.025l0.013,0.025l0.013,0.025l0.013,0.025l0.014,0.025l0.014,0.024l0.014,0.024l0.014,0.025l0.015,0.024l0.015,0.023l0.015,0.024l0.016,0.024l0.016,0.023l0.016,0.023l0.017,0.023l0.016,0.022l0.017,0.023l0.017,0.022l0.018,0.022l0.018,0.022l0.018,0.021l0.018,0.022l0.019,0.021l0.019,0.021l0.019,0.021l0.019,0.02l0.019,0.02l0.02,0.02l0.02,0.02l0.02,0.019l0.021,0.02l0.021,0.019l0.021,0.019l0.021,0.018l0.021,0.018l0.022,0.018l0.021,0.018l0.022,0.018l0.023,0.017l0.022,0.017l0.023,0.017l0.023,0.016l0.023,0.016l0.023,0.016l0.023,0.016l0.024,0.015l0.024,0.015l0.024,0.015l0.024,0.014l0.024,0.015l0.025,0.014l0.024,0.013l0.025,0.013l0.025,0.014l0.025,0.012l0.026,0.013l0.025,0.012l0.026,0.012l0.026,0.011l0.026,0.011l0.026,0.011l0.026,0.011l0.026,0.01l0.027,0.01l0.027,0.01l0.027,0.009l0.027,0.009l0.027,0.008l0.027,0.009l0.028,0.008l0.027,0.007l0.028,0.008l0.028,0.007l0.028,0.006l0.028,0.007l0.028,0.006l0.029,0.005l0.028,0.006l0.029,0.005l0.029,0.004l0.029,0.004l0.029,0.004l0.029,0.004l0.029,0.003l0.03,0.003l0.03,0.002l0.029,0.002l0.03,0.002l0.031,0.001l0.03,0.001l0.03,0.001l0.031,0l0.03,0l0.03,-0.001l0.031,-0.001l0.03,-0.001l0.03,-0.002l0.029,-0.002l0.03,-0.002l0.03,-0.003l0.029,-0.003l0.029,-0.004l0.029,-0.004l0.029,-0.004l0.029,-0.004l0.029,-0.005l0.028,-0.006l0.029,-0.005l0.028,-0.006l0.028,-0.007l0.028,-0.006l0.028,-0.007l0.028,-0.008l0.027,-0.007l0.028,-0.008l0.027,-0.009l0.027,-0.008l0.027,-0.009l0.027,-0.009l0.027,-0.01l0.027,-0.01l0.026,-0.01l0.026,-0.011l0.026,-0.011l0.026,-0.011l0.026,-0.011l0.026,-0.012l0.025,-0.012l0.026,-0.013l0.025,-0.012l0.025,-0.013l0.025,-0.014l0.024,-0.013l0.025,-0.014l0.024,-0.015l0.024,-0.014l0.024,-0.015l0.024,-0.015l0.024,-0.015l0.023,-0.016l0.023,-0.016l0.023,-0.016l0.023,-0.016l0.023,-0.017l0.022,-0.017l0.023,-0.017l0.021,-0.018l0.022,-0.018l0.022,-0.018l0.021,-0.018l0.021,-0.018l0.021,-0.019l0.021,-0.019l0.021,-0.02l0.02,-0.019l0.02,-0.02l0.02,-0.02l0.019,-0.02l0.019,-0.02l0.02,-0.021l0.018,-0.021l0.019,-0.021l0.018,-0.022l0.018,-0.021l0.018,-0.022l0.018,-0.022l0.017,-0.022l0.017,-0.023l0.016,-0.022l0.017,-0.023l0.016,-0.023l0.016,-0.024l0.016,-0.023l0.015,-0.023l0.015,-0.024l0.015,-0.024l0.014,-0.025l0.014,-0.024l0.014,-0.024l0.014,-0.025l0.013,-0.025l0.013,-0.025l0.013,-0.025l0.012,-0.025l0.013,-0.026l0.011,-0.026l0.012,-0.025l0.011,-0.026l0.011,-0.027l0.01,-0.026l0.011,-0.026l0.01,-0.027l0.009,-0.027l0.01,-0.027l0.009,-0.027l0.008,-0.027l0.008,-0.027l0.008,-0.027l0.008,-0.028l0.008,-0.028l0.006,-0.028l0.007,-0.028l0.006,-0.028l0.006,-0.028l0.006,-0.029l0.005,-0.028l0.005,-0.029l0.005,-0.029l0.004,-0.028l0.004,-0.029l0.004,-0.03l0.003,-0.03l0.003,-0.029l0.002,-0.029l0.002,-0.03l0.002,-0.03l0.001,-0.03l0.001,-0.03l0.001,-0.031l0,-0.035l0,-10.532l0,-0.035l-0.001,-0.031l-0.001,-0.03l-0.001,-0.03l-0.002,-0.03l-0.002,-0.03l-0.002,-0.029l-0.003,-0.03l-0.003,-0.029l-0.004,-0.03l-0.004,-0.029l-0.004,-0.028l-0.005,-0.03l-0.005,-0.028l-0.005,-0.028l-0.006,-0.029l-0.006,-0.028l-0.006,-0.028l-0.007,-0.029l-0.006,-0.027l-0.008,-0.028l-0.008,-0.028l-0.007,-0.027l-0.009,-0.027l-0.008,-0.027l-0.009,-0.028l-0.01,-0.026l-0.009,-0.027l-0.01,-0.027l-0.011,-0.026l-0.01,-0.026l-0.011,-0.027l-0.011,-0.026l-0.012,-0.026l-0.011,-0.025l-0.013,-0.026l-0.012,-0.025l-0.013,-0.025l-0.013,-0.025l-0.013,-0.025l-0.014,-0.025l-0.014,-0.024l-0.014,-0.025l-0.014,-0.024l-0.015,-0.024l-0.015,-0.024l-0.015,-0.023l-0.016,-0.023l-0.016,-0.024l-0.016,-0.023l-0.017,-0.023l-0.016,-0.022l-0.017,-0.023l-0.017,-0.022l-0.018,-0.022l-0.018,-0.022l-0.018,-0.021l-0.018,-0.022l-0.019,-0.021l-0.018,-0.021l-0.02,-0.021l-0.019,-0.02l-0.019,-0.02l-0.02,-0.02l-0.02,-0.02l-0.02,-0.019l-0.021,-0.02l-0.021,-0.019l-0.02,-0.019l-0.022,-0.018l-0.021,-0.018l-0.022,-0.019l-0.022,-0.017l-0.022,-0.018l-0.022,-0.017l-0.022,-0.017l-0.023,-0.017l-0.022,-0.016l-0.024,-0.016l-0.023,-0.016l-0.023,-0.016l-0.024,-0.015l-0.024,-0.015l-0.024,-0.015l-0.024,-0.015l-0.024,-0.014l-0.025,-0.014l-0.024,-0.013l-0.025,-0.014l-0.025,-0.013l-0.025,-0.012l-0.026,-0.013l-0.025,-0.012l-0.026,-0.012l-0.026,-0.011l-0.026,-0.011l-0.026,-0.011l-0.026,-0.011l-0.026,-0.01l-0.027,-0.01l-0.027,-0.01l-0.027,-0.009l-0.027,-0.009l-0.027,-0.008l-0.027,-0.009l-0.028,-0.008l-0.027,-0.007l-0.028,-0.008l-0.028,-0.007l-0.028,-0.006l-0.028,-0.007l-0.028,-0.006l-0.029,-0.005l-0.028,-0.006l-0.029,-0.005l-0.029,-0.004l-0.029,-0.004l-0.029,-0.004l-0.029,-0.004l-0.03,-0.003l-0.029,-0.003l-0.03,-0.002l-0.03,-0.002l-0.029,-0.002l-0.03,-0.001l-0.031,-0.001l-0.03,-0.001l-0.03,0l-0.031,0Z" style="fill:#404040;"/><path d="M40.621,6.812c0,-2.116 -1.718,-3.833 -3.834,-3.833c-2.115,0 -3.833,1.717 -3.833,3.833l0,10.542c0,2.115 1.718,3.833 3.833,3.833c2.116,0 3.834,-1.718 3.834,-3.833l0,-10.542Z" style="fill:#fff;"/><path d="M36.837,2.979l0.049,0.001l0.049,0.002l0.049,0.002l0.049,0.003l0.049,0.003l0.048,0.004l0.049,0.005l0.048,0.005l0.048,0.006l0.048,0.006l0.048,0.007l0.047,0.008l0.047,0.008l0.047,0.008l0.047,0.01l0.047,0.01l0.046,0.01l0.047,0.011l0.046,0.012l0.046,0.012l0.045,0.012l0.045,0.014l0.046,0.013l0.044,0.015l0.045,0.014l0.044,0.016l0.045,0.016l0.044,0.016l0.043,0.017l0.044,0.017l0.043,0.018l0.043,0.019l0.042,0.019l0.042,0.019l0.042,0.02l0.042,0.02l0.042,0.021l0.041,0.022l0.041,0.022l0.04,0.022l0.041,0.023l0.04,0.023l0.039,0.024l0.04,0.024l0.039,0.025l0.038,0.025l0.039,0.026l0.038,0.026l0.038,0.026l0.037,0.027l0.037,0.028l0.037,0.028l0.036,0.028l0.036,0.028l0.036,0.03l0.035,0.029l0.035,0.03l0.035,0.03l0.034,0.031l0.034,0.031l0.033,0.032l0.034,0.032l0.032,0.032l0.033,0.033l0.031,0.033l0.032,0.033l0.031,0.034l0.031,0.034l0.03,0.035l0.03,0.035l0.03,0.035l0.029,0.036l0.028,0.036l0.029,0.036l0.028,0.037l0.027,0.037l0.027,0.038l0.026,0.037l0.026,0.038l0.026,0.039l0.025,0.039l0.025,0.039l0.024,0.039l0.024,0.04l0.023,0.04l0.023,0.04l0.023,0.041l0.021,0.04l0.022,0.042l0.021,0.041l0.02,0.042l0.02,0.042l0.02,0.042l0.019,0.043l0.018,0.043l0.018,0.043l0.017,0.043l0.017,0.044l0.017,0.044l0.016,0.044l0.015,0.044l0.015,0.045l0.014,0.045l0.014,0.045l0.013,0.045l0.013,0.046l0.012,0.046l0.011,0.046l0.011,0.046l0.011,0.046l0.01,0.047l0.009,0.047l0.009,0.047l0.008,0.047l0.007,0.048l0.007,0.047l0.007,0.048l0.005,0.048l0.006,0.048l0.004,0.049l0.004,0.048l0.004,0.049l0.003,0.049l0.002,0.049l0.001,0.049l0.001,0.05l0.001,0.049l0,10.542l-0.001,0.049l-0.001,0.05l-0.001,0.049l-0.002,0.049l-0.003,0.049l-0.004,0.049l-0.004,0.048l-0.004,0.048l-0.006,0.049l-0.005,0.048l-0.007,0.048l-0.007,0.047l-0.007,0.048l-0.008,0.047l-0.009,0.047l-0.009,0.047l-0.01,0.047l-0.011,0.046l-0.011,0.046l-0.011,0.046l-0.012,0.046l-0.013,0.046l-0.013,0.045l-0.014,0.045l-0.014,0.045l-0.015,0.045l-0.015,0.044l-0.016,0.044l-0.017,0.044l-0.017,0.044l-0.017,0.043l-0.018,0.043l-0.018,0.043l-0.019,0.043l-0.02,0.042l-0.02,0.042l-0.02,0.042l-0.021,0.041l-0.022,0.041l-0.021,0.041l-0.023,0.041l-0.023,0.04l-0.023,0.04l-0.024,0.04l-0.024,0.039l-0.025,0.039l-0.025,0.039l-0.026,0.038l-0.026,0.038l-0.026,0.038l-0.027,0.038l-0.027,0.037l-0.028,0.036l-0.029,0.037l-0.028,0.036l-0.029,0.036l-0.03,0.035l-0.03,0.035l-0.03,0.034l-0.031,0.035l-0.031,0.034l-0.032,0.033l-0.031,0.033l-0.033,0.033l-0.032,0.032l-0.034,0.032l-0.033,0.032l-0.034,0.031l-0.034,0.031l-0.035,0.03l-0.035,0.03l-0.035,0.029l-0.036,0.029l-0.036,0.029l-0.036,0.028l-0.037,0.028l-0.037,0.028l-0.037,0.026l-0.038,0.027l-0.038,0.026l-0.039,0.026l-0.038,0.025l-0.039,0.025l-0.04,0.024l-0.039,0.024l-0.04,0.023l-0.041,0.023l-0.04,0.022l-0.041,0.022l-0.041,0.021l-0.042,0.021l-0.042,0.021l-0.042,0.02l-0.042,0.019l-0.042,0.019l-0.043,0.019l-0.043,0.018l-0.044,0.017l-0.043,0.017l-0.044,0.016l-0.045,0.016l-0.044,0.016l-0.045,0.014l-0.044,0.015l-0.046,0.013l-0.045,0.014l-0.045,0.012l-0.046,0.012l-0.046,0.012l-0.047,0.011l-0.046,0.01l-0.047,0.01l-0.047,0.009l-0.047,0.009l-0.047,0.008l-0.047,0.008l-0.048,0.007l-0.048,0.006l-0.048,0.006l-0.048,0.005l-0.049,0.005l-0.048,0.004l-0.049,0.003l-0.049,0.003l-0.049,0.002l-0.049,0.002l-0.049,0.001l-0.05,0l-0.049,0l-0.05,-0.001l-0.049,-0.002l-0.049,-0.002l-0.049,-0.003l-0.049,-0.003l-0.048,-0.004l-0.049,-0.005l-0.048,-0.005l-0.048,-0.006l-0.048,-0.006l-0.047,-0.007l-0.048,-0.008l-0.047,-0.008l-0.047,-0.009l-0.047,-0.009l-0.047,-0.01l-0.046,-0.01l-0.046,-0.011l-0.046,-0.012l-0.046,-0.012l-0.046,-0.012l-0.045,-0.014l-0.045,-0.013l-0.045,-0.015l-0.045,-0.014l-0.044,-0.016l-0.044,-0.016l-0.044,-0.016l-0.044,-0.017l-0.043,-0.017l-0.043,-0.018l-0.043,-0.019l-0.043,-0.019l-0.042,-0.019l-0.042,-0.02l-0.042,-0.021l-0.041,-0.021l-0.042,-0.021l-0.04,-0.022l-0.041,-0.022l-0.04,-0.023l-0.04,-0.023l-0.04,-0.024l-0.039,-0.024l-0.039,-0.025l-0.039,-0.025l-0.038,-0.026l-0.039,-0.026l-0.037,-0.027l-0.038,-0.026l-0.037,-0.028l-0.036,-0.028l-0.037,-0.028l-0.036,-0.029l-0.036,-0.029l-0.035,-0.029l-0.035,-0.03l-0.034,-0.03l-0.035,-0.031l-0.034,-0.031l-0.033,-0.032l-0.033,-0.032l-0.033,-0.032l-0.032,-0.033l-0.032,-0.033l-0.032,-0.033l-0.031,-0.034l-0.031,-0.035l-0.03,-0.034l-0.03,-0.035l-0.029,-0.035l-0.029,-0.036l-0.029,-0.036l-0.028,-0.037l-0.028,-0.036l-0.028,-0.037l-0.027,-0.038l-0.026,-0.038l-0.026,-0.038l-0.026,-0.038l-0.025,-0.039l-0.025,-0.039l-0.024,-0.039l-0.024,-0.04l-0.023,-0.04l-0.023,-0.04l-0.022,-0.041l-0.022,-0.041l-0.022,-0.041l-0.02,-0.041l-0.021,-0.042l-0.02,-0.042l-0.019,-0.042l-0.019,-0.043l-0.019,-0.043l-0.018,-0.043l-0.017,-0.043l-0.017,-0.044l-0.016,-0.044l-0.016,-0.044l-0.016,-0.044l-0.014,-0.045l-0.015,-0.045l-0.013,-0.045l-0.014,-0.045l-0.012,-0.046l-0.012,-0.046l-0.012,-0.046l-0.011,-0.046l-0.01,-0.046l-0.01,-0.047l-0.01,-0.047l-0.008,-0.047l-0.008,-0.047l-0.008,-0.048l-0.007,-0.047l-0.006,-0.048l-0.006,-0.048l-0.005,-0.049l-0.005,-0.048l-0.004,-0.048l-0.003,-0.049l-0.003,-0.049l-0.002,-0.049l-0.002,-0.049l-0.001,-0.05l0,-0.049l0,-10.542l0,-0.049l0.001,-0.05l0.002,-0.049l0.002,-0.049l0.003,-0.049l0.003,-0.049l0.004,-0.048l0.005,-0.049l0.005,-0.048l0.006,-0.048l0.006,-0.048l0.007,-0.047l0.008,-0.048l0.008,-0.047l0.008,-0.047l0.01,-0.047l0.01,-0.047l0.01,-0.046l0.011,-0.046l0.012,-0.046l0.012,-0.046l0.012,-0.046l0.014,-0.045l0.013,-0.045l0.015,-0.045l0.014,-0.045l0.016,-0.044l0.016,-0.044l0.016,-0.044l0.017,-0.044l0.017,-0.043l0.018,-0.043l0.019,-0.043l0.019,-0.043l0.019,-0.042l0.02,-0.042l0.021,-0.042l0.02,-0.041l0.022,-0.042l0.022,-0.04l0.022,-0.041l0.023,-0.04l0.023,-0.04l0.024,-0.04l0.024,-0.039l0.025,-0.039l0.025,-0.039l0.026,-0.039l0.026,-0.038l0.026,-0.037l0.027,-0.038l0.028,-0.037l0.028,-0.037l0.028,-0.036l0.029,-0.036l0.029,-0.036l0.029,-0.035l0.03,-0.035l0.03,-0.035l0.031,-0.034l0.031,-0.034l0.032,-0.033l0.032,-0.033l0.032,-0.033l0.033,-0.032l0.033,-0.032l0.033,-0.032l0.034,-0.031l0.035,-0.031l0.034,-0.03l0.035,-0.03l0.035,-0.029l0.036,-0.03l0.036,-0.028l0.037,-0.028l0.036,-0.028l0.037,-0.028l0.038,-0.027l0.037,-0.026l0.039,-0.026l0.038,-0.026l0.039,-0.025l0.039,-0.025l0.039,-0.024l0.04,-0.024l0.04,-0.023l0.04,-0.023l0.041,-0.022l0.04,-0.022l0.042,-0.022l0.041,-0.021l0.042,-0.02l0.042,-0.02l0.042,-0.019l0.043,-0.019l0.043,-0.019l0.043,-0.018l0.043,-0.017l0.044,-0.017l0.044,-0.016l0.044,-0.016l0.044,-0.016l0.045,-0.014l0.045,-0.015l0.045,-0.013l0.045,-0.014l0.046,-0.012l0.046,-0.012l0.046,-0.012l0.046,-0.011l0.046,-0.01l0.047,-0.01l0.047,-0.01l0.047,-0.008l0.047,-0.008l0.048,-0.008l0.047,-0.007l0.048,-0.006l0.048,-0.006l0.048,-0.005l0.049,-0.005l0.048,-0.004l0.049,-0.003l0.049,-0.003l0.049,-0.002l0.049,-0.002l0.05,-0.001l0.049,0l0.05,0Zm-0.08,1.5l-0.031,0.001l-0.03,0.001l-0.03,0.001l-0.03,0.002l-0.03,0.002l-0.029,0.002l-0.03,0.003l-0.029,0.003l-0.029,0.004l-0.03,0.004l-0.029,0.004l-0.028,0.004l-0.029,0.005l-0.028,0.006l-0.029,0.005l-0.028,0.006l-0.028,0.007l-0.028,0.006l-0.028,0.007l-0.028,0.008l-0.028,0.007l-0.027,0.008l-0.027,0.008l-0.027,0.009l-0.028,0.009l-0.027,0.009l-0.026,0.01l-0.027,0.01l-0.026,0.01l-0.026,0.011l-0.027,0.011l-0.026,0.011l-0.025,0.011l-0.026,0.012l-0.026,0.012l-0.025,0.013l-0.025,0.012l-0.025,0.013l-0.025,0.014l-0.025,0.013l-0.024,0.014l-0.024,0.014l-0.025,0.015l-0.024,0.015l-0.023,0.015l-0.024,0.015l-0.024,0.016l-0.023,0.016l-0.023,0.016l-0.023,0.016l-0.022,0.017l-0.023,0.017l-0.022,0.017l-0.022,0.018l-0.022,0.017l-0.021,0.019l-0.022,0.018l-0.021,0.018l-0.021,0.019l-0.02,0.019l-0.021,0.019l-0.02,0.02l-0.02,0.02l-0.02,0.02l-0.019,0.02l-0.02,0.021l-0.019,0.02l-0.019,0.021l-0.018,0.021l-0.018,0.022l-0.019,0.021l-0.017,0.022l-0.018,0.022l-0.017,0.022l-0.017,0.023l-0.017,0.022l-0.016,0.023l-0.016,0.023l-0.016,0.024l-0.016,0.023l-0.015,0.023l-0.015,0.024l-0.015,0.024l-0.015,0.024l-0.014,0.025l-0.014,0.024l-0.013,0.025l-0.014,0.025l-0.013,0.025l-0.012,0.025l-0.013,0.025l-0.012,0.026l-0.012,0.025l-0.011,0.026l-0.011,0.026l-0.011,0.026l-0.011,0.027l-0.01,0.026l-0.01,0.027l-0.01,0.027l-0.009,0.026l-0.009,0.028l-0.009,0.027l-0.008,0.027l-0.008,0.027l-0.007,0.028l-0.008,0.028l-0.007,0.028l-0.006,0.028l-0.007,0.028l-0.006,0.028l-0.005,0.028l-0.006,0.029l-0.005,0.029l-0.004,0.028l-0.004,0.029l-0.004,0.03l-0.004,0.029l-0.003,0.029l-0.003,0.03l-0.002,0.03l-0.002,0.029l-0.002,0.03l-0.001,0.03l-0.001,0.03l-0.001,0.031l0,0.035l0,10.532l0,0.035l0.001,0.031l0.001,0.03l0.001,0.03l0.002,0.03l0.002,0.029l0.002,0.03l0.003,0.03l0.003,0.029l0.004,0.029l0.004,0.03l0.004,0.029l0.004,0.028l0.005,0.029l0.006,0.029l0.005,0.028l0.006,0.028l0.007,0.028l0.006,0.028l0.007,0.028l0.008,0.028l0.007,0.028l0.008,0.027l0.009,0.027l0.008,0.027l0.009,0.027l0.009,0.027l0.01,0.027l0.01,0.027l0.01,0.026l0.011,0.027l0.011,0.026l0.011,0.025l0.011,0.026l0.012,0.026l0.012,0.026l0.013,0.025l0.012,0.025l0.013,0.025l0.014,0.025l0.013,0.025l0.014,0.024l0.014,0.024l0.015,0.025l0.015,0.024l0.015,0.024l0.015,0.023l0.016,0.023l0.016,0.024l0.016,0.023l0.016,0.023l0.017,0.022l0.017,0.023l0.017,0.022l0.018,0.022l0.018,0.022l0.018,0.021l0.018,0.021l0.018,0.022l0.019,0.021l0.019,0.02l0.02,0.021l0.019,0.02l0.02,0.02l0.02,0.02l0.02,0.019l0.021,0.02l0.02,0.019l0.021,0.019l0.021,0.018l0.022,0.018l0.021,0.018l0.022,0.018l0.022,0.018l0.022,0.017l0.023,0.017l0.022,0.017l0.023,0.016l0.023,0.016l0.023,0.016l0.024,0.016l0.024,0.015l0.023,0.015l0.024,0.015l0.025,0.015l0.024,0.014l0.024,0.014l0.025,0.013l0.025,0.014l0.025,0.013l0.025,0.012l0.025,0.013l0.026,0.012l0.026,0.012l0.026,0.011l0.025,0.011l0.026,0.011l0.027,0.011l0.026,0.01l0.027,0.01l0.027,0.01l0.026,0.009l0.028,0.009l0.027,0.008l0.027,0.009l0.028,0.008l0.027,0.007l0.028,0.008l0.028,0.007l0.028,0.006l0.028,0.007l0.028,0.006l0.029,0.005l0.028,0.006l0.029,0.005l0.029,0.004l0.028,0.004l0.03,0.004l0.029,0.004l0.029,0.003l0.03,0.003l0.029,0.002l0.03,0.002l0.03,0.002l0.03,0.001l0.03,0.001l0.031,0.001l0.03,0l0.031,0l0.03,-0.001l0.03,-0.001l0.03,-0.001l0.03,-0.002l0.03,-0.002l0.03,-0.002l0.029,-0.003l0.029,-0.003l0.03,-0.004l0.029,-0.004l0.029,-0.004l0.029,-0.004l0.028,-0.005l0.029,-0.006l0.028,-0.005l0.029,-0.006l0.028,-0.007l0.028,-0.006l0.028,-0.007l0.027,-0.008l0.028,-0.007l0.028,-0.008l0.027,-0.009l0.027,-0.008l0.027,-0.009l0.027,-0.009l0.027,-0.01l0.026,-0.01l0.026,-0.01l0.027,-0.011l0.026,-0.011l0.026,-0.011l0.026,-0.011l0.026,-0.012l0.025,-0.012l0.025,-0.013l0.026,-0.012l0.025,-0.013l0.024,-0.014l0.025,-0.013l0.025,-0.014l0.024,-0.014l0.024,-0.015l0.024,-0.015l0.024,-0.015l0.023,-0.015l0.024,-0.016l0.023,-0.016l0.023,-0.016l0.023,-0.016l0.023,-0.017l0.022,-0.017l0.022,-0.017l0.022,-0.018l0.022,-0.018l0.022,-0.018l0.021,-0.018l0.021,-0.019l0.021,-0.018l0.021,-0.019l0.02,-0.02l0.02,-0.019l0.021,-0.02l0.019,-0.02l0.02,-0.02l0.019,-0.021l0.019,-0.02l0.019,-0.021l0.019,-0.022l0.018,-0.021l0.018,-0.021l0.018,-0.022l0.017,-0.022l0.017,-0.022l0.018,-0.023l0.016,-0.022l0.017,-0.023l0.016,-0.023l0.016,-0.024l0.015,-0.023l0.016,-0.023l0.015,-0.024l0.014,-0.024l0.015,-0.025l0.014,-0.024l0.014,-0.024l0.013,-0.025l0.014,-0.025l0.013,-0.025l0.013,-0.025l0.012,-0.025l0.012,-0.026l0.012,-0.026l0.012,-0.026l0.011,-0.025l0.011,-0.026l0.01,-0.027l0.01,-0.026l0.01,-0.027l0.01,-0.027l0.009,-0.027l0.009,-0.027l0.009,-0.026l0.008,-0.028l0.008,-0.028l0.008,-0.027l0.007,-0.028l0.007,-0.028l0.007,-0.028l0.006,-0.028l0.006,-0.028l0.006,-0.028l0.005,-0.029l0.005,-0.029l0.005,-0.028l0.004,-0.029l0.004,-0.03l0.003,-0.029l0.003,-0.029l0.003,-0.03l0.003,-0.03l0.002,-0.029l0.001,-0.03l0.002,-0.03l0.001,-0.03l0,-0.031l0.001,-0.035l0,-10.532l-0.001,-0.035l0,-0.031l-0.001,-0.03l-0.002,-0.03l-0.001,-0.03l-0.002,-0.029l-0.003,-0.03l-0.003,-0.03l-0.003,-0.029l-0.003,-0.029l-0.004,-0.03l-0.004,-0.029l-0.005,-0.028l-0.005,-0.029l-0.005,-0.029l-0.006,-0.028l-0.006,-0.028l-0.006,-0.028l-0.007,-0.028l-0.007,-0.028l-0.007,-0.028l-0.008,-0.027l-0.008,-0.028l-0.008,-0.028l-0.009,-0.026l-0.009,-0.028l-0.009,-0.026l-0.01,-0.027l-0.01,-0.027l-0.01,-0.026l-0.01,-0.027l-0.011,-0.026l-0.011,-0.026l-0.012,-0.026l-0.012,-0.025l-0.012,-0.026l-0.012,-0.025l-0.013,-0.025l-0.013,-0.025l-0.013,-0.025l-0.014,-0.025l-0.014,-0.024l-0.014,-0.025l-0.015,-0.024l-0.014,-0.024l-0.015,-0.024l-0.016,-0.023l-0.015,-0.023l-0.016,-0.024l-0.017,-0.023l-0.016,-0.023l-0.016,-0.022l-0.018,-0.023l-0.017,-0.022l-0.017,-0.022l-0.018,-0.022l-0.018,-0.021l-0.018,-0.022l-0.019,-0.021l-0.019,-0.021l-0.019,-0.02l-0.019,-0.021l-0.02,-0.02l-0.019,-0.02l-0.021,-0.02l-0.02,-0.02l-0.02,-0.019l-0.021,-0.019l-0.021,-0.018l-0.021,-0.019l-0.022,-0.019l-0.021,-0.018l-0.022,-0.017l-0.022,-0.018l-0.022,-0.017l-0.022,-0.017l-0.023,-0.017l-0.023,-0.016l-0.023,-0.016l-0.023,-0.016l-0.024,-0.016l-0.023,-0.015l-0.024,-0.015l-0.024,-0.015l-0.024,-0.015l-0.025,-0.014l-0.024,-0.014l-0.024,-0.013l-0.025,-0.014l-0.026,-0.013l-0.025,-0.012l-0.025,-0.013l-0.025,-0.012l-0.026,-0.012l-0.026,-0.011l-0.026,-0.011l-0.026,-0.011l-0.027,-0.011l-0.026,-0.01l-0.026,-0.01l-0.027,-0.01l-0.027,-0.009l-0.027,-0.009l-0.027,-0.009l-0.028,-0.008l-0.027,-0.008l-0.028,-0.007l-0.027,-0.008l-0.028,-0.007l-0.028,-0.006l-0.028,-0.007l-0.029,-0.006l-0.028,-0.005l-0.029,-0.006l-0.028,-0.005l-0.029,-0.004l-0.029,-0.004l-0.029,-0.004l-0.029,-0.004l-0.03,-0.003l-0.029,-0.003l-0.03,-0.002l-0.03,-0.002l-0.03,-0.002l-0.03,-0.001l-0.03,-0.001l-0.03,-0.001l-0.031,0l-0.03,0Z" style="fill:#404040;"/></g><g><rect x="50.246" y="0.083" width="8" height="30" style="fill:#272727;"/><path d="M58.246,30.083l-8,0l0,-30l8,0l0,30Zm-6.501,-28.5l0,27l5.001,0l0,-27l-5.001,0Z" style="fill:#404040;"/><rect x="60.246" y="10.671" width="8" height="19.412" style="fill:#272727;"/><path d="M68.246,30.083l-8,0l0,-19.412l8,0l0,19.412Zm-6.5,-17.912l0,16.412l5,0l0,-16.412l-5,0Z" style="fill:#404040;"/></g><g><path d="M6.246,43.583l9.625,0l0,-30.5l29.5,0l0,30.5l0.25,0l0,-19l38,0l0,19l6.625,0l0,52.5l-84,0l0,-52.5Z" style="fill:#4d4d4d;"/><path d="M45.371,43.583l0.25,0l0,-19l38,0l0,19l6.625,0l0,52.5l-84,0l0,-52.5l9.625,0l0,-30.5l29.5,0l0,30.5Zm-28,-29l0,30.5l-9.625,0l0,49.5l81,0l0,-49.5l-6.625,0l0,-19l-35,0l0,19l-3.25,0l0,-30.5l-26.5,0Z" style="fill:#404040;"/></g><path d="M36.798,7.328c0,-0.648 0.526,-1.174 1.174,-1.174c0.648,0 1.174,0.526 1.174,1.174l0,3.944c0,0.648 -0.526,1.174 -1.174,1.174c-0.648,0 -1.174,-0.526 -1.174,-1.174l0,-3.944Z" style="fill:#f3f3f3;"/><path d="M30.605,7.328c0,-0.648 0.526,-1.174 1.174,-1.174c0.649,0 1.175,0.526 1.175,1.174l0,3.944c0,0.648 -0.526,1.174 -1.175,1.174c-0.648,0 -1.174,-0.526 -1.174,-1.174l0,-3.944Z" style="fill:#f3f3f3;"/><path d="M24.454,7.328c0,-0.648 0.526,-1.174 1.174,-1.174c0.648,0 1.175,0.526 1.175,1.174l0,3.944c0,0.648 -0.527,1.174 -1.175,1.174c-0.648,0 -1.174,-0.526 -1.174,-1.174l0,-3.944Z" style="fill:#f3f3f3;"/><g><rect x="50.93" y="4.378" width="6.621" height="3.135" style="fill:#d72234;"/><path d="M57.551,7.513l-6.621,0l0,-3.135l6.621,0l0,3.135Zm-5.721,-2.235l0,1.335l4.821,0l0,-1.335l-4.821,0Z" style="fill:#404040;"/><rect x="50.93" y="11.948" width="6.621" height="3.135" style="fill:#d72234;"/><path d="M57.551,15.083l-6.621,0l0,-3.135l6.621,0l0,3.135Zm-5.721,-2.235l0,1.335l4.821,0l0,-1.335l-4.821,0Z" style="fill:#404040;"/><rect x="60.935" y="13.515" width="6.621" height="3.135" style="fill:#d72234;"/><path d="M67.556,16.651l-6.621,0l0,-3.136l6.621,0l0,3.136Zm-5.721,-2.236l0,1.336l4.821,0l0,-1.336l-4.821,0Z" style="fill:#404040;"/><rect x="60.935" y="21.085" width="6.621" height="3.135" style="fill:#d72234;"/><path d="M67.556,24.22l-6.621,0l0,-3.135l6.621,0l0,3.135Zm-5.721,-2.235l0,1.335l4.821,0l0,-1.335l-4.821,0Z" style="fill:#404040;"/><rect x="46.385" y="34.684" width="36.635" height="2.691" style="fill:#d72234;"/><path d="M83.02,37.374l-36.635,0l0,-2.69l36.635,0l0,2.69Zm-35.735,-1.79l0,0.89l34.835,0l0,-0.89l-34.835,0Z" style="fill:#404040;"/><rect x="46.385" y="38.791" width="36.635" height="2.691" style="fill:#d72234;"/><path d="M83.02,41.482l-36.635,0l0,-2.691l36.635,0l0,2.691Zm-35.735,-1.791l0,0.891l34.835,0l0,-0.891l-34.835,0Z" style="fill:#404040;"/><rect x="16.639" y="28.79" width="28.179" height="2.691" style="fill:#d72234;"/><path d="M44.818,31.481l-28.179,0l0,-2.691l28.179,0l0,2.691Zm-27.279,-1.791l0,0.891l26.379,0l0,-0.891l-26.379,0Z" style="fill:#404040;"/></g><g><path d="M25.598,19.291c0,-0.839 -0.682,-1.521 -1.521,-1.521l-3.004,0c-0.839,0 -1.521,0.682 -1.521,1.521c0,0.84 0.682,1.521 1.521,1.521l3.004,0c0.839,0 1.521,-0.681 1.521,-1.521Z" style="fill:#39a4ef;"/><path d="M33.643,19.291c0,-0.839 -0.681,-1.521 -1.521,-1.521l-3.003,0c-0.84,0 -1.521,0.682 -1.521,1.521c0,0.84 0.681,1.521 1.521,1.521l3.003,0c0.84,0 1.521,-0.681 1.521,-1.521Z" style="fill:#39a4ef;"/><path d="M41.689,19.291c0,-0.839 -0.682,-1.521 -1.521,-1.521l-3.004,0c-0.839,0 -1.521,0.682 -1.521,1.521c0,0.84 0.682,1.521 1.521,1.521l3.004,0c0.839,0 1.521,-0.681 1.521,-1.521Z" style="fill:#39a4ef;"/></g><g><path d="M25.598,25.741c0,-0.839 -0.682,-1.521 -1.521,-1.521l-3.004,0c-0.839,0 -1.521,0.682 -1.521,1.521c0,0.839 0.682,1.521 1.521,1.521l3.004,0c0.839,0 1.521,-0.682 1.521,-1.521Z" style="fill:#39a4ef;"/><path d="M33.643,25.741c0,-0.839 -0.681,-1.521 -1.521,-1.521l-3.003,0c-0.84,0 -1.521,0.682 -1.521,1.521c0,0.839 0.681,1.521 1.521,1.521l3.003,0c0.84,0 1.521,-0.682 1.521,-1.521Z" style="fill:#39a4ef;"/><path d="M41.689,25.741c0,-0.839 -0.682,-1.521 -1.521,-1.521l-3.004,0c-0.839,0 -1.521,0.682 -1.521,1.521c0,0.839 0.682,1.521 1.521,1.521l3.004,0c0.839,0 1.521,-0.682 1.521,-1.521Z" style="fill:#39a4ef;"/></g><g><path d="M55.598,30.791c0,-0.839 -0.682,-1.521 -1.521,-1.521l-3.004,0c-0.839,0 -1.521,0.682 -1.521,1.521c0,0.84 0.682,1.521 1.521,1.521l3.004,0c0.839,0 1.521,-0.681 1.521,-1.521Z" style="fill:#39a4ef;"/><path d="M63.643,30.791c0,-0.839 -0.681,-1.521 -1.521,-1.521l-3.003,0c-0.84,0 -1.521,0.682 -1.521,1.521c0,0.84 0.681,1.521 1.521,1.521l3.003,0c0.84,0 1.521,-0.681 1.521,-1.521Z" style="fill:#39a4ef;"/><path d="M71.689,30.791c0,-0.839 -0.682,-1.521 -1.521,-1.521l-3.004,0c-0.839,0 -1.521,0.682 -1.521,1.521c0,0.84 0.682,1.521 1.521,1.521l3.004,0c0.839,0 1.521,-0.681 1.521,-1.521Z" style="fill:#39a4ef;"/><path d="M79.689,30.791c0,-0.839 -0.682,-1.521 -1.521,-1.521l-3.004,0c-0.839,0 -1.521,0.682 -1.521,1.521c0,0.84 0.682,1.521 1.521,1.521l3.004,0c0.839,0 1.521,-0.681 1.521,-1.521Z" style="fill:#39a4ef;"/></g><path d="M69.989,30.881c0,-0.437 -0.355,-0.791 -0.791,-0.791l-2.189,0c-0.436,0 -0.791,0.354 -0.791,0.791c0,0.436 0.355,0.791 0.791,0.791l2.189,0c0.436,0 0.791,-0.355 0.791,-0.791Z" style="fill:#58b5f6;"/><path d="M61.844,30.881c0,-0.437 -0.355,-0.791 -0.792,-0.791l-2.188,0c-0.437,0 -0.791,0.354 -0.791,0.791c0,0.436 0.354,0.791 0.791,0.791l2.188,0c0.437,0 0.792,-0.355 0.792,-0.791Z" style="fill:#58b5f6;"/><path d="M53.793,30.881c0,-0.437 -0.354,-0.791 -0.791,-0.791l-2.188,0c-0.437,0 -0.792,0.354 -0.792,0.791c0,0.436 0.355,0.791 0.792,0.791l2.188,0c0.437,0 0.791,-0.355 0.791,-0.791Z" style="fill:#58b5f6;"/><path d="M39.857,25.741c0,-0.437 -0.354,-0.791 -0.791,-0.791l-2.188,0c-0.437,0 -0.791,0.354 -0.791,0.791c0,0.437 0.354,0.791 0.791,0.791l2.188,0c0.437,0 0.791,-0.354 0.791,-0.791Z" style="fill:#58b5f6;"/><path d="M31.712,25.741c0,-0.437 -0.354,-0.791 -0.791,-0.791l-2.189,0c-0.436,0 -0.791,0.354 -0.791,0.791c0,0.437 0.355,0.791 0.791,0.791l2.189,0c0.437,0 0.791,-0.354 0.791,-0.791Z" style="fill:#58b5f6;"/><path d="M23.662,25.741c0,-0.437 -0.355,-0.791 -0.792,-0.791l-2.188,0c-0.437,0 -0.791,0.354 -0.791,0.791c0,0.437 0.354,0.791 0.791,0.791l2.188,0c0.437,0 0.792,-0.354 0.792,-0.791Z" style="fill:#58b5f6;"/><path d="M39.857,19.336c0,-0.437 -0.354,-0.792 -0.791,-0.792l-2.188,0c-0.437,0 -0.791,0.355 -0.791,0.792c0,0.436 0.354,0.791 0.791,0.791l2.188,0c0.437,0 0.791,-0.355 0.791,-0.791Z" style="fill:#58b5f6;"/><path d="M31.712,19.336c0,-0.437 -0.354,-0.792 -0.791,-0.792l-2.189,0c-0.436,0 -0.791,0.355 -0.791,0.792c0,0.436 0.355,0.791 0.791,0.791l2.189,0c0.437,0 0.791,-0.355 0.791,-0.791Z" style="fill:#58b5f6;"/><path d="M23.662,19.336c0,-0.437 -0.355,-0.792 -0.792,-0.792l-2.188,0c-0.437,0 -0.791,0.355 -0.791,0.792c0,0.436 0.354,0.791 0.791,0.791l2.188,0c0.437,0 0.792,-0.355 0.792,-0.791Z" style="fill:#58b5f6;"/><path d="M82.054,45.057l0,-19.005l-13.931,0l0,19.005l13.931,0Z" style="fill-opacity:0.145098;"/><path d="M82.054,38.296l0,-0.922l-34.836,0l0,0.922l34.836,0Z" style="fill-opacity:0.145098;"/><path d="M66.71,17.64l0,-0.921l-4.964,0l0,0.921l4.964,0Z" style="fill-opacity:0.145098;"/><path d="M56.728,17.18l0,-2.097l-4.965,0l0,2.097l4.965,0Z" style="fill-opacity:0.145098;"/><path d="M56.728,9.623l0,-2.097l-4.965,0l0,2.097l4.965,0Z" style="fill-opacity:0.145098;"/><path d="M82.054,40.958l0,-3.695l-13.931,0l0,3.695l13.931,0Z" style="fill-opacity:0.145098;"/><path d="M68.104,45.057l0,-3.695l-20.886,0l0,3.695l20.886,0Z" style="fill-opacity:0.145098;"/></g></svg>
