<?xml version="1.0" encoding="UTF-8" standalone="no"?><!DOCTYPE svg PUBLIC "-//W3C//DTD SVG 1.1//EN" "http://www.w3.org/Graphics/SVG/1.1/DTD/svg11.dtd"><svg width="128" height="128" viewBox="0 0 128 128" version="1.1" xmlns="http://www.w3.org/2000/svg" xmlns:xlink="http://www.w3.org/1999/xlink" xml:space="preserve" xmlns:serif="http://www.serif.com/" style="fill-rule:evenodd;clip-rule:evenodd;stroke-miterlimit:1.5;"><rect id="city-1" x="0" y="0" width="128" height="128" style="fill:none;"/><clipPath id="_clip1"><rect x="0" y="0" width="128" height="128"/></clipPath><g clip-path="url(#_clip1)"><g><path d="M32.5,51c0,-4.967 -4.033,-9 -9,-9c-4.967,0 -9,4.033 -9,9l0,101.046c0,4.967 4.033,9 9,9c4.967,0 9,-4.033 9,-9l0,-101.046Z" style="fill:#fff;stroke:#646464;stroke-width:1.5px;"/><path d="M19.617,50.435c0,-1.184 -0.961,-2.144 -2.144,-2.144c-1.183,0 -2.144,0.96 -2.144,2.144l0,111.799c0,1.183 0.961,2.144 2.144,2.144c1.183,0 2.144,-0.961 2.144,-2.144l0,-111.799Z" style="fill:#f3f3f3;"/><g><circle cx="23.685" cy="57.502" r="2" style="fill:#39a4ef;stroke:#646464;stroke-width:0.5px;stroke-linejoin:round;stroke-miterlimit:1.41421;"/><circle cx="23.685" cy="63.502" r="2" style="fill:#39a4ef;stroke:#646464;stroke-width:0.5px;stroke-linejoin:round;stroke-miterlimit:1.41421;"/></g></g><g><path d="M32.5,51c0,-4.967 -4.033,-9 -9,-9c-4.967,0 -9,4.033 -9,9l0,101.046c0,4.967 4.033,9 9,9c4.967,0 9,-4.033 9,-9l0,-101.046Z" style="fill:#fff;stroke:#d9d9d9;stroke-width:1.5px;"/><path d="M27.424,50.435c0,-1.184 0.961,-2.144 2.144,-2.144c1.183,0 2.144,0.96 2.144,2.144l0,111.799c0,1.183 -0.961,2.144 -2.144,2.144c-1.183,0 -2.144,-0.961 -2.144,-2.144l0,-111.799Z" style="fill:#f3f3f3;"/><g><circle cx="23.685" cy="57.502" r="2" style="fill:#39a4ef;stroke:#dfdfdf;stroke-width:0.5px;stroke-linejoin:round;stroke-miterlimit:1.41421;"/><circle cx="23.685" cy="63.502" r="2" style="fill:#39a4ef;stroke:#dfdfdf;stroke-width:0.5px;stroke-linejoin:round;stroke-miterlimit:1.41421;"/></g></g><path d="M18.943,45.079c-1.49,0.86 -2.257,2.325 -1.712,3.269c0.545,0.944 2.197,1.012 3.687,0.152c1.49,-0.861 2.258,-2.325 1.713,-3.269c-0.545,-0.944 -2.198,-1.012 -3.688,-0.152Z" style="fill:#f6d858;fill-opacity:0.145098;"/><path d="M23.155,44.504c-0.749,0.124 -1.293,0.609 -1.215,1.083c0.078,0.474 0.749,0.759 1.497,0.636c0.749,-0.123 1.293,-0.608 1.215,-1.083c-0.078,-0.474 -0.749,-0.759 -1.497,-0.636Z" style="fill:#f6d858;fill-opacity:0.145098;"/><g><path d="M53,25.775l-9,-9l-9,9l0,134.196l9,9l9,-9l0,-134.196Z" style="fill:#96bcb8;stroke:#84a6a2;stroke-width:1.5px;"/><g><path d="M47.5,29.5c0,-0.828 -0.672,-1.5 -1.5,-1.5l-4,0c-0.828,0 -1.5,0.672 -1.5,1.5c0,0.828 0.672,1.5 1.5,1.5l4,0c0.828,0 1.5,-0.672 1.5,-1.5Z" style="fill:#39a4ef;stroke:#7ea6a2;stroke-width:0.5px;stroke-linejoin:round;stroke-miterlimit:1.41421;"/><path d="M47.5,39.5c0,-0.828 -0.672,-1.5 -1.5,-1.5l-4,0c-0.828,0 -1.5,0.672 -1.5,1.5c0,0.828 0.672,1.5 1.5,1.5l4,0c0.828,0 1.5,-0.672 1.5,-1.5Z" style="fill:#39a4ef;stroke:#7ea6a2;stroke-width:0.5px;stroke-linejoin:round;stroke-miterlimit:1.41421;"/><path d="M47.5,44.5c0,-0.828 -0.672,-1.5 -1.5,-1.5l-4,0c-0.828,0 -1.5,0.672 -1.5,1.5c0,0.828 0.672,1.5 1.5,1.5l4,0c0.828,0 1.5,-0.672 1.5,-1.5Z" style="fill:#39a4ef;stroke:#7ea6a2;stroke-width:0.5px;stroke-linejoin:round;stroke-miterlimit:1.41421;"/><path d="M47.5,54.5c0,-0.828 -0.672,-1.5 -1.5,-1.5l-4,0c-0.828,0 -1.5,0.672 -1.5,1.5c0,0.828 0.672,1.5 1.5,1.5l4,0c0.828,0 1.5,-0.672 1.5,-1.5Z" style="fill:#39a4ef;stroke:#7ea6a2;stroke-width:0.5px;stroke-linejoin:round;stroke-miterlimit:1.41421;"/><path d="M47.5,59.5c0,-0.828 -0.672,-1.5 -1.5,-1.5l-4,0c-0.828,0 -1.5,0.672 -1.5,1.5c0,0.828 0.672,1.5 1.5,1.5l4,0c0.828,0 1.5,-0.672 1.5,-1.5Z" style="fill:#39a4ef;stroke:#7ea6a2;stroke-width:0.5px;stroke-linejoin:round;stroke-miterlimit:1.41421;"/></g><path d="M44,16.775l0,-10" style="fill:none;stroke:#646464;stroke-width:1.5px;"/></g><g><path d="M73.5,35c0,-4.967 -4.033,-9 -9,-9c-4.967,0 -9,4.033 -9,9l0,120.396c0,4.967 4.033,9 9,9c4.967,0 9,-4.033 9,-9l0,-120.396Z" style="fill:#fff;stroke:#d9d9d9;stroke-width:1.5px;"/><path d="M68.376,34.174c0,-1.183 0.96,-2.143 2.143,-2.143c1.183,0 2.144,0.96 2.144,2.143l0,128.06c0,1.183 -0.961,2.144 -2.144,2.144c-1.183,0 -2.143,-0.961 -2.143,-2.144l0,-128.06Z" style="fill:#f3f3f3;"/><path d="M49.105,29.284c0,-1.767 1.432,-3.199 3.199,-3.199c0,0 0,0 0,0l0,102l-3.199,0c0,0 0,-81.511 0,-98.801Z" style="fill-opacity:0.117647;"/><g><circle cx="64.5" cy="34" r="2" style="fill:#39a4ef;stroke:#e0e0e0;stroke-width:0.5px;stroke-linejoin:round;stroke-miterlimit:1.41421;"/><circle cx="64.5" cy="40" r="2" style="fill:#39a4ef;stroke:#e0e0e0;stroke-width:0.5px;stroke-linejoin:round;stroke-miterlimit:1.41421;"/><circle cx="64.5" cy="46" r="2" style="fill:#39a4ef;stroke:#e0e0e0;stroke-width:0.5px;stroke-linejoin:round;stroke-miterlimit:1.41421;"/><circle cx="64.5" cy="58" r="2" style="fill:#39a4ef;stroke:#e0e0e0;stroke-width:0.5px;stroke-linejoin:round;stroke-miterlimit:1.41421;"/></g></g><circle cx="63.826" cy="45.959" r="0.694" style="fill:#58b5f6;"/><circle cx="64.521" cy="44.918" r="0.347" style="fill:#58b5f6;"/><circle cx="63.826" cy="57.954" r="0.694" style="fill:#58b5f6;"/><circle cx="64.521" cy="56.913" r="0.347" style="fill:#58b5f6;"/><circle cx="22.923" cy="57.498" r="0.694" style="fill:#58b5f6;"/><circle cx="23.618" cy="56.456" r="0.347" style="fill:#58b5f6;"/><circle cx="22.923" cy="63.487" r="0.694" style="fill:#58b5f6;"/><circle cx="23.618" cy="62.446" r="0.347" style="fill:#58b5f6;"/><circle cx="63.826" cy="39.959" r="0.694" style="fill:#58b5f6;"/><circle cx="64.521" cy="38.918" r="0.347" style="fill:#58b5f6;"/><circle cx="63.826" cy="33.958" r="0.694" style="fill:#58b5f6;"/><circle cx="64.521" cy="32.917" r="0.347" style="fill:#58b5f6;"/><g><path d="M94,19l-9,-9l-9,9l0,137.746l9,9l9,-9l0,-137.746Z" style="fill:#6c665b;stroke:#5f5a50;stroke-width:1.5px;"/><g><path d="M88.5,21.5c0,-0.828 -0.672,-1.5 -1.5,-1.5l-4,0c-0.828,0 -1.5,0.672 -1.5,1.5c0,0.828 0.672,1.5 1.5,1.5l4,0c0.828,0 1.5,-0.672 1.5,-1.5Z" style="fill:#39a4ef;stroke:#565656;stroke-width:0.5px;stroke-linejoin:round;stroke-miterlimit:1.41421;"/><path d="M88.5,26.5c0,-0.828 -0.672,-1.5 -1.5,-1.5l-4,0c-0.828,0 -1.5,0.672 -1.5,1.5c0,0.828 0.672,1.5 1.5,1.5l4,0c0.828,0 1.5,-0.672 1.5,-1.5Z" style="fill:#39a4ef;stroke:#565656;stroke-width:0.5px;stroke-linejoin:round;stroke-miterlimit:1.41421;"/><path d="M88.5,41.5c0,-0.828 -0.672,-1.5 -1.5,-1.5l-4,0c-0.828,0 -1.5,0.672 -1.5,1.5c0,0.828 0.672,1.5 1.5,1.5l4,0c0.828,0 1.5,-0.672 1.5,-1.5Z" style="fill:#39a4ef;stroke:#565656;stroke-width:0.5px;stroke-linejoin:round;stroke-miterlimit:1.41421;"/><path d="M88.5,46.5c0,-0.828 -0.672,-1.5 -1.5,-1.5l-4,0c-0.828,0 -1.5,0.672 -1.5,1.5c0,0.828 0.672,1.5 1.5,1.5l4,0c0.828,0 1.5,-0.672 1.5,-1.5Z" style="fill:#39a4ef;stroke:#565656;stroke-width:0.5px;stroke-linejoin:round;stroke-miterlimit:1.41421;"/><path d="M88.5,56.5c0,-0.828 -0.672,-1.5 -1.5,-1.5l-4,0c-0.828,0 -1.5,0.672 -1.5,1.5c0,0.828 0.672,1.5 1.5,1.5l4,0c0.828,0 1.5,-0.672 1.5,-1.5Z" style="fill:#39a4ef;stroke:#565656;stroke-width:0.5px;stroke-linejoin:round;stroke-miterlimit:1.41421;"/></g><path d="M85,10l0,-10" style="fill:#5f5a50;stroke:#5f5a50;stroke-width:1.5px;"/><path d="M90.801,22.47c0,-1.767 1.432,-3.199 3.199,-3.199c0,0 0,0 0,0l0,107.991l-3.199,0c0,0 0,-86.897 0,-104.792Z" style="fill-opacity:0.117647;"/></g><path d="M85.798,46.523c0,-0.437 -0.354,-0.791 -0.791,-0.791l-2.188,0c-0.437,0 -0.792,0.354 -0.792,0.791c0,0.437 0.355,0.791 0.792,0.791l2.188,0c0.437,0 0.791,-0.354 0.791,-0.791Z" style="fill:#58b5f6;"/><path d="M85.798,56.527c0,-0.437 -0.354,-0.792 -0.791,-0.792l-2.188,0c-0.437,0 -0.792,0.355 -0.792,0.792c0,0.436 0.355,0.791 0.792,0.791l2.188,0c0.437,0 0.791,-0.355 0.791,-0.791Z" style="fill:#58b5f6;"/><path d="M60.098,28.674c-1.49,0.86 -2.257,2.325 -1.712,3.269c0.545,0.944 2.197,1.012 3.687,0.151c1.49,-0.86 2.257,-2.325 1.712,-3.269c-0.545,-0.944 -2.197,-1.012 -3.687,-0.151Z" style="fill:#f6d858;fill-opacity:0.145098;"/><path d="M64.309,28.099c-0.748,0.123 -1.292,0.608 -1.214,1.083c0.078,0.474 0.749,0.759 1.497,0.635c0.749,-0.123 1.293,-0.608 1.215,-1.082c-0.078,-0.474 -0.749,-0.759 -1.498,-0.636Z" style="fill:#f6d858;fill-opacity:0.145098;"/><path d="M85.798,41.523c0,-0.437 -0.354,-0.791 -0.791,-0.791l-2.188,0c-0.437,0 -0.792,0.354 -0.792,0.791c0,0.437 0.355,0.791 0.792,0.791l2.188,0c0.437,0 0.791,-0.354 0.791,-0.791Z" style="fill:#58b5f6;"/><path d="M85.798,26.518c0,-0.436 -0.354,-0.791 -0.791,-0.791l-2.188,0c-0.437,0 -0.792,0.355 -0.792,0.791c0,0.437 0.355,0.791 0.792,0.791l2.188,0c0.437,0 0.791,-0.354 0.791,-0.791Z" style="fill:#58b5f6;"/><path d="M85.798,21.518c0,-0.436 -0.354,-0.791 -0.791,-0.791l-2.188,0c-0.437,0 -0.792,0.355 -0.792,0.791c0,0.437 0.355,0.791 0.792,0.791l2.188,0c0.437,0 0.791,-0.354 0.791,-0.791Z" style="fill:#58b5f6;"/><g><path d="M115,48c0,-4.967 -4.033,-9 -9,-9c-4.967,0 -9,4.033 -9,9l0,104.046c0,4.967 4.033,9 9,9c4.967,0 9,-4.033 9,-9l0,-104.046Z" style="fill:#fff;stroke:#d9d9d9;stroke-width:1.5px;"/><path d="M109.91,47.719c0,-1.184 0.961,-2.144 2.144,-2.144c1.183,0 2.144,0.96 2.144,2.144l0,112.32c0,1.183 -0.961,2.144 -2.144,2.144c-1.183,0 -2.144,-0.961 -2.144,-2.144l0,-112.32Z" style="fill:#f3f3f3;"/><g><circle cx="106" cy="47" r="2" style="fill:#39a4ef;stroke:#e1e1e1;stroke-width:0.5px;stroke-linejoin:round;stroke-miterlimit:1.41421;"/><circle cx="106" cy="53" r="2" style="fill:#39a4ef;stroke:#e1e1e1;stroke-width:0.5px;stroke-linejoin:round;stroke-miterlimit:1.41421;"/><circle cx="106" cy="59" r="2" style="fill:#39a4ef;stroke:#e1e1e1;stroke-width:0.5px;stroke-linejoin:round;stroke-miterlimit:1.41421;"/></g></g><path d="M101.839,41.34c-1.49,0.86 -2.258,2.325 -1.713,3.269c0.545,0.944 2.198,1.012 3.688,0.151c1.49,-0.86 2.257,-2.325 1.712,-3.269c-0.545,-0.944 -2.197,-1.012 -3.687,-0.151Z" style="fill:#f6d858;fill-opacity:0.145098;"/><path d="M106.05,40.765c-0.748,0.123 -1.293,0.608 -1.215,1.082c0.078,0.475 0.749,0.759 1.498,0.636c0.748,-0.123 1.293,-0.608 1.215,-1.082c-0.078,-0.474 -0.749,-0.759 -1.498,-0.636Z" style="fill:#f6d858;fill-opacity:0.145098;"/><circle cx="44" cy="8.21" r="1.874" style="fill:#f8e835;"/><path d="M44.048,6.336l0.048,0.002l0.048,0.003l0.047,0.004l0.048,0.006l0.046,0.006l0.047,0.008l0.045,0.009l0.046,0.01l0.045,0.011l0.045,0.012l0.044,0.013l0.044,0.014l0.043,0.015l0.043,0.017l0.042,0.017l0.042,0.018l0.041,0.02l0.041,0.02l0.04,0.021l0.04,0.022l0.038,0.023l0.039,0.024l0.037,0.025l0.038,0.026l0.036,0.026l0.036,0.028l0.035,0.028l0.034,0.029l0.034,0.03l0.033,0.03l0.032,0.032l0.031,0.032l0.031,0.033l0.03,0.034l0.029,0.034l0.028,0.035l0.028,0.036l0.026,0.036l0.026,0.037l0.025,0.038l0.024,0.038l0.023,0.039l0.022,0.04l0.021,0.04l0.02,0.041l0.019,0.041l0.019,0.042l0.017,0.042l0.016,0.043l0.015,0.043l0.015,0.044l0.013,0.044l0.012,0.045l0.011,0.045l0.01,0.045l0.009,0.046l0.007,0.046l0.007,0.047l0.005,0.047l0.005,0.048l0.003,0.047l0.001,0.048l0.001,0.049l-0.001,0.048l-0.001,0.048l-0.003,0.048l-0.005,0.047l-0.005,0.047l-0.007,0.047l-0.007,0.046l-0.009,0.046l-0.01,0.046l-0.011,0.045l-0.012,0.044l-0.013,0.045l-0.015,0.043l-0.015,0.044l-0.016,0.043l-0.017,0.042l-0.019,0.042l-0.019,0.041l-0.02,0.041l-0.021,0.04l-0.022,0.039l-0.023,0.039l-0.024,0.038l-0.025,0.038l-0.026,0.037l-0.026,0.037l-0.028,0.035l-0.028,0.035l-0.029,0.035l-0.03,0.033l-0.031,0.033l-0.031,0.033l-0.032,0.031l-0.033,0.031l-0.034,0.029l-0.034,0.03l-0.035,0.028l-0.036,0.027l-0.036,0.027l-0.038,0.025l-0.037,0.025l-0.039,0.024l-0.038,0.023l-0.04,0.022l-0.04,0.022l-0.041,0.02l-0.041,0.019l-0.042,0.018l-0.042,0.018l-0.043,0.016l-0.043,0.015l-0.044,0.014l-0.044,0.014l-0.045,0.012l-0.045,0.011l-0.046,0.01l-0.045,0.008l-0.047,0.008l-0.046,0.007l-0.048,0.005l-0.047,0.004l-0.048,0.003l-0.048,0.002l-0.048,0.001l-0.048,-0.001l-0.048,-0.002l-0.048,-0.003l-0.047,-0.004l-0.048,-0.005l-0.046,-0.007l-0.047,-0.008l-0.045,-0.008l-0.046,-0.01l-0.045,-0.011l-0.045,-0.012l-0.044,-0.014l-0.044,-0.014l-0.043,-0.015l-0.043,-0.016l-0.042,-0.018l-0.042,-0.018l-0.041,-0.019l-0.041,-0.02l-0.04,-0.022l-0.04,-0.022l-0.038,-0.023l-0.039,-0.024l-0.037,-0.025l-0.038,-0.025l-0.036,-0.027l-0.036,-0.027l-0.035,-0.028l-0.034,-0.03l-0.034,-0.029l-0.033,-0.031l-0.032,-0.031l-0.031,-0.033l-0.031,-0.033l-0.03,-0.033l-0.029,-0.035l-0.028,-0.035l-0.028,-0.035l-0.026,-0.037l-0.026,-0.037l-0.025,-0.038l-0.024,-0.038l-0.023,-0.039l-0.022,-0.039l-0.021,-0.04l-0.02,-0.041l-0.019,-0.041l-0.019,-0.042l-0.017,-0.042l-0.016,-0.043l-0.015,-0.044l-0.015,-0.043l-0.013,-0.045l-0.012,-0.044l-0.011,-0.045l-0.01,-0.046l-0.009,-0.046l-0.007,-0.046l-0.007,-0.047l-0.005,-0.047l-0.005,-0.047l-0.003,-0.048l-0.001,-0.048l-0.001,-0.048l0.001,-0.049l0.001,-0.048l0.003,-0.047l0.005,-0.048l0.005,-0.047l0.007,-0.047l0.007,-0.046l0.009,-0.046l0.01,-0.045l0.011,-0.045l0.012,-0.045l0.013,-0.044l0.015,-0.044l0.015,-0.043l0.016,-0.043l0.017,-0.042l0.019,-0.042l0.019,-0.041l0.02,-0.041l0.021,-0.04l0.022,-0.04l0.023,-0.039l0.024,-0.038l0.025,-0.038l0.026,-0.037l0.026,-0.036l0.028,-0.036l0.028,-0.035l0.029,-0.034l0.03,-0.034l0.031,-0.033l0.031,-0.032l0.032,-0.032l0.033,-0.03l0.034,-0.03l0.034,-0.029l0.035,-0.028l0.036,-0.028l0.036,-0.026l0.038,-0.026l0.037,-0.025l0.039,-0.024l0.038,-0.023l0.04,-0.022l0.04,-0.021l0.041,-0.02l0.041,-0.02l0.042,-0.018l0.042,-0.017l0.043,-0.017l0.043,-0.015l0.044,-0.014l0.044,-0.013l0.045,-0.012l0.045,-0.011l0.046,-0.01l0.045,-0.009l0.047,-0.008l0.046,-0.006l0.048,-0.006l0.047,-0.004l0.048,-0.003l0.048,-0.002l0.048,0l0.048,0Zm-0.074,0.9l-0.025,0.001l-0.025,0.002l-0.024,0.002l-0.025,0.003l-0.024,0.003l-0.024,0.004l-0.024,0.005l-0.023,0.005l-0.024,0.005l-0.023,0.007l-0.022,0.006l-0.023,0.008l-0.022,0.008l-0.023,0.008l-0.021,0.009l-0.022,0.009l-0.021,0.01l-0.021,0.011l-0.021,0.011l-0.021,0.011l-0.02,0.012l-0.02,0.013l-0.02,0.013l-0.019,0.013l-0.019,0.014l-0.018,0.014l-0.019,0.015l-0.018,0.015l-0.017,0.016l-0.018,0.016l-0.016,0.016l-0.017,0.017l-0.016,0.017l-0.016,0.018l-0.015,0.018l-0.014,0.018l-0.015,0.019l-0.014,0.019l-0.013,0.019l-0.013,0.02l-0.012,0.02l-0.012,0.02l-0.012,0.021l-0.011,0.02l-0.01,0.021l-0.01,0.022l-0.01,0.021l-0.009,0.022l-0.008,0.022l-0.008,0.023l-0.007,0.022l-0.007,0.023l-0.006,0.023l-0.006,0.023l-0.005,0.024l-0.005,0.024l-0.004,0.024l-0.003,0.024l-0.003,0.024l-0.002,0.025l-0.002,0.025l-0.001,0.025l0,0.026l0,0.025l0.001,0.025l0.002,0.025l0.002,0.025l0.003,0.025l0.003,0.024l0.004,0.024l0.005,0.024l0.005,0.023l0.006,0.023l0.006,0.023l0.007,0.023l0.007,0.023l0.008,0.022l0.008,0.022l0.009,0.022l0.01,0.022l0.01,0.021l0.01,0.021l0.011,0.021l0.012,0.02l0.012,0.021l0.012,0.02l0.013,0.019l0.013,0.02l0.014,0.019l0.015,0.018l0.014,0.018l0.015,0.018l0.016,0.018l0.016,0.017l0.017,0.017l0.016,0.017l0.018,0.016l0.017,0.015l0.018,0.015l0.019,0.015l0.018,0.014l0.019,0.014l0.019,0.014l0.02,0.013l0.02,0.012l0.02,0.012l0.021,0.012l0.021,0.011l0.021,0.01l0.021,0.01l0.022,0.009l0.021,0.009l0.023,0.009l0.022,0.008l0.023,0.007l0.022,0.007l0.023,0.006l0.024,0.006l0.023,0.005l0.024,0.004l0.024,0.004l0.024,0.004l0.025,0.003l0.024,0.002l0.025,0.001l0.025,0.001l0.026,0.001l0.026,-0.001l0.025,-0.001l0.025,-0.001l0.024,-0.002l0.025,-0.003l0.024,-0.004l0.024,-0.004l0.024,-0.004l0.023,-0.005l0.024,-0.006l0.023,-0.006l0.023,-0.007l0.022,-0.007l0.022,-0.008l0.022,-0.009l0.022,-0.009l0.022,-0.009l0.021,-0.01l0.021,-0.01l0.021,-0.011l0.021,-0.012l0.02,-0.012l0.02,-0.012l0.019,-0.013l0.02,-0.014l0.019,-0.014l0.018,-0.014l0.019,-0.015l0.018,-0.015l0.017,-0.015l0.018,-0.016l0.016,-0.017l0.017,-0.017l0.016,-0.017l0.016,-0.018l0.015,-0.017l0.014,-0.019l0.015,-0.018l0.014,-0.019l0.013,-0.02l0.013,-0.019l0.012,-0.02l0.012,-0.021l0.012,-0.02l0.011,-0.021l0.01,-0.021l0.01,-0.021l0.01,-0.022l0.009,-0.022l0.008,-0.022l0.008,-0.022l0.007,-0.023l0.007,-0.023l0.006,-0.023l0.006,-0.023l0.005,-0.023l0.005,-0.024l0.004,-0.024l0.003,-0.024l0.003,-0.025l0.002,-0.025l0.002,-0.025l0.001,-0.025l0,-0.025l0,-0.026l-0.001,-0.025l-0.002,-0.025l-0.002,-0.025l-0.003,-0.024l-0.003,-0.024l-0.004,-0.024l-0.005,-0.024l-0.005,-0.024l-0.006,-0.023l-0.006,-0.023l-0.007,-0.023l-0.007,-0.022l-0.008,-0.023l-0.008,-0.022l-0.009,-0.022l-0.01,-0.021l-0.01,-0.022l-0.01,-0.021l-0.011,-0.02l-0.012,-0.021l-0.012,-0.02l-0.012,-0.02l-0.013,-0.02l-0.013,-0.019l-0.014,-0.019l-0.015,-0.019l-0.014,-0.018l-0.015,-0.018l-0.016,-0.018l-0.016,-0.017l-0.017,-0.017l-0.016,-0.016l-0.018,-0.016l-0.017,-0.016l-0.018,-0.015l-0.019,-0.015l-0.018,-0.014l-0.019,-0.014l-0.02,-0.013l-0.019,-0.013l-0.02,-0.013l-0.02,-0.012l-0.021,-0.011l-0.021,-0.011l-0.021,-0.011l-0.021,-0.01l-0.022,-0.009l-0.022,-0.009l-0.022,-0.008l-0.022,-0.008l-0.023,-0.008l-0.022,-0.006l-0.023,-0.007l-0.024,-0.005l-0.023,-0.005l-0.024,-0.005l-0.024,-0.004l-0.024,-0.003l-0.025,-0.003l-0.024,-0.002l-0.025,-0.002l-0.025,-0.001l-0.026,0l-0.026,0Z" style="fill:#646464;"/><circle cx="105.306" cy="47" r="0.694" style="fill:#58b5f6;"/><circle cx="106" cy="45.959" r="0.347" style="fill:#58b5f6;"/><circle cx="105.306" cy="53.017" r="0.694" style="fill:#58b5f6;"/><circle cx="106" cy="51.976" r="0.347" style="fill:#58b5f6;"/><circle cx="105.306" cy="59.083" r="0.694" style="fill:#58b5f6;"/><circle cx="106" cy="58.042" r="0.347" style="fill:#58b5f6;"/><path d="M44.881,59.5c0,-0.437 -0.355,-0.791 -0.791,-0.791l-2.189,0c-0.437,0 -0.791,0.354 -0.791,0.791c0,0.437 0.354,0.791 0.791,0.791l2.189,0c0.436,0 0.791,-0.354 0.791,-0.791Z" style="fill:#58b5f6;"/><path d="M44.881,54.5c0,-0.437 -0.355,-0.791 -0.791,-0.791l-2.189,0c-0.437,0 -0.791,0.354 -0.791,0.791c0,0.437 0.354,0.791 0.791,0.791l2.189,0c0.436,0 0.791,-0.354 0.791,-0.791Z" style="fill:#58b5f6;"/><path d="M44.881,44.5c0,-0.436 -0.355,-0.791 -0.791,-0.791l-2.189,0c-0.437,0 -0.791,0.355 -0.791,0.791c0,0.437 0.354,0.791 0.791,0.791l2.189,0c0.436,0 0.791,-0.354 0.791,-0.791Z" style="fill:#58b5f6;"/><path d="M44.881,39.5c0,-0.436 -0.355,-0.791 -0.791,-0.791l-2.189,0c-0.437,0 -0.791,0.355 -0.791,0.791c0,0.437 0.354,0.791 0.791,0.791l2.189,0c0.436,0 0.791,-0.354 0.791,-0.791Z" style="fill:#58b5f6;"/><path d="M44.881,29.5c0,-0.437 -0.355,-0.791 -0.791,-0.791l-2.189,0c-0.437,0 -0.791,0.354 -0.791,0.791c0,0.437 0.354,0.791 0.791,0.791l2.189,0c0.436,0 0.791,-0.354 0.791,-0.791Z" style="fill:#58b5f6;"/></g></svg>
