<?xml version="1.0" encoding="UTF-8" standalone="no"?><!DOCTYPE svg PUBLIC "-//W3C//DTD SVG 1.1//EN" "http://www.w3.org/Graphics/SVG/1.1/DTD/svg11.dtd"><svg width="96" height="96" viewBox="0 0 96 96" version="1.1" xmlns="http://www.w3.org/2000/svg" xmlns:xlink="http://www.w3.org/1999/xlink" xml:space="preserve" xmlns:serif="http://www.serif.com/" style="fill-rule:evenodd;clip-rule:evenodd;stroke-miterlimit:1.41421;"><rect id="factory-1" x="0" y="0" width="96" height="96" style="fill:none;"/><clipPath id="_clip1"><rect x="0" y="0" width="96" height="96"/></clipPath><g clip-path="url(#_clip1)"><path d="M21,45l0,-22.3l14.786,-6.133l0,6.133l14.785,-6.133l0,6.133l14.786,-6.133l0,6.133l1.447,-20.7l6.75,0l1.446,20.7l0,22.3l1,0l0,-15l5.5,0l4.583,15l6.917,0l0,51l-90,0l0,-51l7.704,0l4.046,-7.125l5.75,0l0,7.125l0.5,0Z" style="stroke:#fff;stroke-width:1.5px;"/><g><path d="M32.045,29.208c0,-0.839 -0.681,-1.521 -1.52,-1.521l-3.004,0c-0.84,0 -1.521,0.682 -1.521,1.521c0,0.84 0.681,1.521 1.521,1.521l3.004,0c0.839,0 1.52,-0.681 1.52,-1.521Z" style="fill:#fff;"/><path d="M41.545,29.208c0,-0.839 -0.681,-1.521 -1.52,-1.521l-3.004,0c-0.84,0 -1.521,0.682 -1.521,1.521c0,0.84 0.681,1.521 1.521,1.521l3.004,0c0.839,0 1.52,-0.681 1.52,-1.521Z" style="fill:#fff;"/><path d="M60.545,29.208c0,-0.839 -0.681,-1.521 -1.52,-1.521l-3.004,0c-0.84,0 -1.521,0.682 -1.521,1.521c0,0.84 0.681,1.521 1.521,1.521l3.004,0c0.839,0 1.52,-0.681 1.52,-1.521Z" style="fill:#fff;"/><path d="M70.045,29.208c0,-0.839 -0.681,-1.521 -1.52,-1.521l-3.004,0c-0.84,0 -1.521,0.682 -1.521,1.521c0,0.84 0.681,1.521 1.521,1.521l3.004,0c0.839,0 1.52,-0.681 1.52,-1.521Z" style="fill:#fff;"/></g></g></svg>
