<?xml version="1.0" encoding="UTF-8" standalone="no"?><!DOCTYPE svg PUBLIC "-//W3C//DTD SVG 1.1//EN" "http://www.w3.org/Graphics/SVG/1.1/DTD/svg11.dtd"><svg width="96" height="96" viewBox="0 0 96 96" version="1.1" xmlns="http://www.w3.org/2000/svg" xmlns:xlink="http://www.w3.org/1999/xlink" xml:space="preserve" xmlns:serif="http://www.serif.com/" style="fill-rule:evenodd;clip-rule:evenodd;stroke-miterlimit:1.41421;"><rect id="factory-1" x="0" y="0" width="96" height="96" style="fill:none;"/><clipPath id="_clip1"><rect x="0" y="0" width="96" height="96"/></clipPath><g clip-path="url(#_clip1)"><g><path d="M32.045,29.208c0,-0.839 -0.681,-1.521 -1.52,-1.521l-3.004,0c-0.84,0 -1.521,0.682 -1.521,1.521c0,0.84 0.681,1.521 1.521,1.521l3.004,0c0.839,0 1.52,-0.681 1.52,-1.521Z" style="fill:#fff;"/><path d="M41.545,29.208c0,-0.839 -0.681,-1.521 -1.52,-1.521l-3.004,0c-0.84,0 -1.521,0.682 -1.521,1.521c0,0.84 0.681,1.521 1.521,1.521l3.004,0c0.839,0 1.52,-0.681 1.52,-1.521Z" style="fill:#fff;"/><path d="M60.545,29.208c0,-0.839 -0.681,-1.521 -1.52,-1.521l-3.004,0c-0.84,0 -1.521,0.682 -1.521,1.521c0,0.84 0.681,1.521 1.521,1.521l3.004,0c0.839,0 1.52,-0.681 1.52,-1.521Z" style="fill:#fff;"/><path d="M70.045,29.208c0,-0.839 -0.681,-1.521 -1.52,-1.521l-3.004,0c-0.84,0 -1.521,0.682 -1.521,1.521c0,0.84 0.681,1.521 1.521,1.521l3.004,0c0.839,0 1.52,-0.681 1.52,-1.521Z" style="fill:#fff;"/></g><path d="M21,44l0,-22.3l14.786,-6.133l0,6.133l14.785,-6.133l0,6.133l14.786,-6.133l0,6.133l1.447,-20.7l6.75,0l1.446,20.7l0,22.3l1,0l0,-15l5.5,0l4.583,15l6.917,0l0,51l-90,0l0,-51l7.704,0l4.046,-7.125l5.75,0l0,7.125l0.5,0Z" style="fill:#4d4d4d;stroke:#404040;stroke-width:1.5px;"/><path d="M85.215,43.673l-8.472,0l0,-2.822l7.599,0l0.873,2.822Z" style="fill:#fff;"/><path d="M11.756,43.673l8.009,0l0,-2.822l-6.426,0l-1.583,2.822Z" style="fill:#fff;"/><g><path d="M73.068,4.562l-5.805,0l0.251,-2.822l5.338,0l0.216,2.822Z" style="fill:#fff;"/><path d="M73.548,11.601l-6.884,0l0.297,-2.822l6.331,0l0.256,2.822Z" style="fill:#fff;"/><path d="M74.088,18.204l-7.846,0l0.339,-2.822l7.214,0l0.293,2.822Z" style="fill:#fff;"/></g><path d="M79.781,44.451l0,-14.655l-3.039,0l0,14.655l3.039,0Z" style="fill-opacity:0.145098;"/><path d="M19.762,44.564l0,-6.934l-3.039,0l0,6.934l3.039,0Z" style="fill-opacity:0.145098;"/><path d="M49.836,16.714c-0.839,0 -1.519,0.68 -1.519,1.519c0,1.624 0,3.967 0,3.967l1.519,0l0,-5.486c0,0 0,0 0,0Z" style="fill-opacity:0.145098;"/><path d="M64.559,16.714c-0.839,0 -1.519,0.68 -1.519,1.519c0,1.624 0,3.967 0,3.967l1.52,0l0,-5.486c0,0 -0.001,0 -0.001,0Z" style="fill-opacity:0.145098;"/><path d="M35.08,16.714c-0.839,0 -1.519,0.68 -1.519,1.519c0,1.624 0,3.967 0,3.967l1.519,0l0,-5.486c0,0 0,0 0,0Z" style="fill-opacity:0.145098;"/><path d="M36.445,32.766c0,-0.347 -0.282,-0.628 -0.628,-0.628l-10.212,0c-0.347,0 -0.628,0.281 -0.628,0.628l0,1.256c0,0.347 0.281,0.628 0.628,0.628l10.212,0c0.346,0 0.628,-0.281 0.628,-0.628l0,-1.256Z" style="fill:#404040;stroke:#39a4ef;stroke-width:4px;stroke-linecap:round;stroke-linejoin:round;stroke-miterlimit:1.5;"/><path d="M30.711,33.162c0,-0.128 -0.104,-0.233 -0.232,-0.233l-4.461,0c-0.128,0 -0.232,0.105 -0.232,0.233l0,0.464c0,0.128 0.104,0.232 0.232,0.232l4.461,0c0.128,0 0.232,-0.104 0.232,-0.232l0,-0.464Z" style="fill:#404040;stroke:#58b5f6;stroke-width:4px;stroke-linecap:round;stroke-linejoin:round;stroke-miterlimit:1.5;"/><path d="M71.023,32.766c0,-0.347 -0.281,-0.628 -0.628,-0.628l-10.212,0c-0.346,0 -0.628,0.281 -0.628,0.628l0,1.256c0,0.347 0.282,0.628 0.628,0.628l10.212,0c0.347,0 0.628,-0.281 0.628,-0.628l0,-1.256Z" style="fill:#404040;stroke:#39a4ef;stroke-width:4px;stroke-linecap:round;stroke-linejoin:round;stroke-miterlimit:1.5;"/><rect x="21.787" y="40.991" width="52.363" height="3.009" style="fill:#404040;"/><rect x="21.77" y="22.2" width="52.318" height="1.271" style="fill:#404040;"/><path d="M74.359,22.2l-4.712,0l1.178,-20.517l2.025,0l1.509,20.517Z" style="fill-opacity:0.0941176;"/><path d="M74.15,43.986l0,-2.995l-28.428,0l0,2.995l28.428,0Z" style="fill-opacity:0.145098;"/><path d="M74.15,42.489l0,-20.289l-23.149,0l0,20.289l23.149,0Z" style="fill-opacity:0.145098;"/><circle cx="48" cy="33.254" r="8.238" style="fill-opacity:0.0941176;"/></g></svg>
