<?xml version="1.0" encoding="UTF-8" standalone="no"?><!DOCTYPE svg PUBLIC "-//W3C//DTD SVG 1.1//EN" "http://www.w3.org/Graphics/SVG/1.1/DTD/svg11.dtd"><svg width="41" height="40" viewBox="0 0 41 40" version="1.1" xmlns="http://www.w3.org/2000/svg" xmlns:xlink="http://www.w3.org/1999/xlink" xml:space="preserve" xmlns:serif="http://www.serif.com/" style="fill-rule:evenodd;clip-rule:evenodd;stroke-miterlimit:1.5;"><rect id="ground-wall" x="0.25" y="0" width="40" height="40" style="fill:none;"/><clipPath id="_clip1"><rect x="0.25" y="0" width="40" height="40"/></clipPath><g clip-path="url(#_clip1)"><circle cx="20.25" cy="18.931" r="17" style="fill:#3e3e3e;"/><path d="M36.815,15.119c0.286,1.225 0.435,2.501 0.435,3.812c0,9.383 -7.617,17 -17,17c-9.383,0 -17,-7.617 -17,-17c0,-1.311 0.149,-2.587 0.435,-3.812c4.477,1.175 10.258,1.881 16.565,1.881c6.307,0 12.088,-0.706 16.565,-1.881Z" style="fill-opacity:0.0941176;"/><ellipse cx="20.25" cy="7.425" rx="8.263" ry="3.915" style="fill:#fff;fill-opacity:0.0901961;"/><rect x="1.5" y="18.931" width="37.5" height="21.069" style="fill:#4d4d4d;stroke:#404040;stroke-width:1.5px;"/><path d="M25,3c0,-0.276 -0.224,-0.5 -0.5,-0.5l-8.5,0c-0.276,0 -0.5,0.224 -0.5,0.5c0,0.276 0.224,0.5 0.5,0.5l8.5,0c0.276,0 0.5,-0.224 0.5,-0.5Z" style="fill-opacity:0.0666667;"/><g><rect x="16.25" y="0" width="8" height="3" style="fill:#3e3e3e;"/><rect x="16.25" y="0" width="8" height="1" style="fill:#adadad;"/><rect x="23.5" y="0" width="0.75" height="3" style="fill-opacity:0.113725;"/><rect x="16.25" y="0" width="0.75" height="3" style="fill:#fff;fill-opacity:0.0705882;"/></g></g></svg>
