<?xml version="1.0" encoding="UTF-8" standalone="no"?><!DOCTYPE svg PUBLIC "-//W3C//DTD SVG 1.1//EN" "http://www.w3.org/Graphics/SVG/1.1/DTD/svg11.dtd"><svg width="48" height="48" viewBox="0 0 48 48" version="1.1" xmlns="http://www.w3.org/2000/svg" xmlns:xlink="http://www.w3.org/1999/xlink" xml:space="preserve" xmlns:serif="http://www.serif.com/" style="fill-rule:evenodd;clip-rule:evenodd;stroke-linejoin:round;stroke-miterlimit:1.41421;"><rect id="ied-1" x="0" y="0" width="48" height="48" style="fill:none;"/><clipPath id="_clip1"><rect x="0" y="0" width="48" height="48"/></clipPath><g clip-path="url(#_clip1)"><path d="M24,0l-2.811,4.489c-3.264,0.471 -6.357,1.752 -8.997,3.727l-5.163,-1.187l1.187,5.163c-1.975,2.64 -3.256,5.733 -3.727,8.997l-4.489,2.811l4.489,2.811c0.471,3.264 1.752,6.357 3.727,8.997l-1.187,5.163l5.163,-1.187c2.64,1.975 5.733,3.256 8.997,3.727l2.811,4.489l2.811,-4.489c3.264,-0.471 6.357,-1.752 8.997,-3.727l5.163,1.187l-1.187,-5.163c1.975,-2.64 3.256,-5.733 3.727,-8.997l4.489,-2.811l-4.489,-2.811c-0.471,-3.264 -1.752,-6.357 -3.727,-8.997l1.187,-5.163l-5.163,1.187c-2.64,-1.975 -5.733,-3.256 -8.997,-3.727l-2.811,-4.489Z" style="fill:#7d7d7d;fill-opacity:0.99;"/><ellipse cx="24" cy="12" rx="7.916" ry="3.75" style="fill:#fff;fill-opacity:0.141176;"/><path d="M5.308,17.754l0.022,0c-0.236,0.877 -0.359,1.787 -0.359,2.718c0,7.771 8.527,14.081 19.029,14.081c10.502,0 19.029,-6.31 19.029,-14.081c0,-0.931 -0.123,-1.841 -0.359,-2.718l0.022,0c0.377,1.114 0.65,2.263 0.819,3.435l4.489,2.811l-4.489,2.811c-0.471,3.264 -1.752,6.357 -3.727,8.997l1.187,5.163l-5.163,-1.187c-2.64,1.975 -5.733,3.256 -8.997,3.727l-2.811,4.489l-2.811,-4.489c-3.264,-0.471 -6.357,-1.752 -8.997,-3.727l-5.163,1.187l1.187,-5.163c-1.975,-2.64 -3.256,-5.733 -3.727,-8.997l-4.489,-2.811l4.489,-2.811c0.169,-1.172 0.442,-2.321 0.819,-3.435Z" style="fill-opacity:0.0823529;"/></g></svg>
