<?xml version="1.0" encoding="UTF-8" standalone="no"?><!DOCTYPE svg PUBLIC "-//W3C//DTD SVG 1.1//EN" "http://www.w3.org/Graphics/SVG/1.1/DTD/svg11.dtd"><svg width="96" height="96" viewBox="0 0 96 96" version="1.1" xmlns="http://www.w3.org/2000/svg" xmlns:xlink="http://www.w3.org/1999/xlink" xml:space="preserve" xmlns:serif="http://www.serif.com/" style="fill-rule:evenodd;clip-rule:evenodd;stroke-linejoin:round;stroke-miterlimit:1.41421;"><rect id="launch-1" x="0" y="0" width="96" height="96" style="fill:none;"/><path d="M87.606,36.508c0,-4.144 -3.365,-7.508 -7.509,-7.508c-4.143,0 -7.508,3.364 -7.508,7.508l0,20.648c0,4.144 3.365,7.508 7.508,7.508c4.144,0 7.509,-3.364 7.509,-7.508l0,-20.648Z" style="fill:#fff;"/><path d="M80.194,29.001l0.097,0.001l0.096,0.004l0.097,0.004l0.095,0.005l0.096,0.007l0.095,0.008l0.095,0.009l0.094,0.01l0.094,0.011l0.094,0.013l0.093,0.014l0.093,0.014l0.093,0.016l0.092,0.017l0.092,0.019l0.091,0.019l0.091,0.02l0.091,0.022l0.09,0.023l0.09,0.023l0.089,0.025l0.089,0.026l0.088,0.027l0.088,0.028l0.087,0.029l0.087,0.03l0.087,0.031l0.086,0.032l0.085,0.033l0.085,0.034l0.085,0.035l0.084,0.037l0.083,0.037l0.083,0.038l0.082,0.039l0.082,0.04l0.081,0.041l0.081,0.042l0.08,0.043l0.08,0.044l0.078,0.044l0.079,0.046l0.077,0.047l0.078,0.047l0.076,0.049l0.076,0.049l0.075,0.05l0.075,0.051l0.074,0.052l0.073,0.053l0.072,0.053l0.072,0.055l0.072,0.055l0.07,0.056l0.07,0.057l0.069,0.058l0.069,0.059l0.068,0.059l0.067,0.06l0.066,0.061l0.066,0.062l0.064,0.063l0.064,0.063l0.064,0.064l0.062,0.065l0.062,0.066l0.061,0.066l0.06,0.067l0.06,0.068l0.058,0.068l0.058,0.069l0.057,0.07l0.056,0.071l0.056,0.071l0.054,0.072l0.054,0.073l0.053,0.073l0.052,0.074l0.051,0.075l0.05,0.075l0.049,0.076l0.048,0.076l0.048,0.077l0.047,0.078l0.045,0.078l0.045,0.079l0.044,0.08l0.043,0.08l0.042,0.08l0.041,0.082l0.04,0.081l0.039,0.083l0.038,0.083l0.037,0.083l0.036,0.084l0.035,0.084l0.034,0.085l0.034,0.086l0.032,0.086l0.031,0.086l0.03,0.087l0.029,0.088l0.028,0.088l0.027,0.088l0.026,0.089l0.024,0.089l0.024,0.09l0.023,0.09l0.021,0.09l0.021,0.091l0.019,0.092l0.018,0.092l0.017,0.092l0.016,0.092l0.015,0.093l0.014,0.094l0.012,0.093l0.012,0.095l0.01,0.094l0.009,0.095l0.008,0.095l0.006,0.095l0.006,0.096l0.004,0.096l0.003,0.097l0.002,0.096l0.001,0.097l0,20.648l-0.001,0.097l-0.002,0.096l-0.003,0.097l-0.004,0.096l-0.006,0.096l-0.006,0.095l-0.008,0.095l-0.009,0.095l-0.01,0.094l-0.012,0.095l-0.012,0.093l-0.014,0.094l-0.015,0.093l-0.016,0.092l-0.017,0.092l-0.018,0.092l-0.019,0.092l-0.021,0.091l-0.021,0.09l-0.023,0.09l-0.024,0.09l-0.024,0.089l-0.026,0.089l-0.027,0.088l-0.028,0.088l-0.029,0.088l-0.03,0.087l-0.031,0.086l-0.032,0.086l-0.034,0.086l-0.034,0.085l-0.035,0.084l-0.036,0.084l-0.037,0.084l-0.038,0.082l-0.039,0.083l-0.04,0.081l-0.041,0.082l-0.042,0.08l-0.043,0.08l-0.044,0.08l-0.045,0.079l-0.045,0.078l-0.047,0.078l-0.048,0.077l-0.048,0.076l-0.049,0.076l-0.05,0.075l-0.051,0.075l-0.052,0.074l-0.053,0.073l-0.054,0.073l-0.054,0.072l-0.056,0.071l-0.056,0.071l-0.057,0.07l-0.058,0.069l-0.058,0.068l-0.06,0.068l-0.06,0.067l-0.061,0.066l-0.062,0.066l-0.062,0.065l-0.064,0.064l-0.064,0.063l-0.064,0.063l-0.066,0.062l-0.066,0.061l-0.067,0.06l-0.068,0.059l-0.069,0.059l-0.069,0.058l-0.07,0.057l-0.07,0.056l-0.072,0.055l-0.072,0.055l-0.072,0.053l-0.073,0.053l-0.074,0.052l-0.075,0.051l-0.075,0.05l-0.076,0.049l-0.076,0.049l-0.078,0.047l-0.077,0.047l-0.079,0.046l-0.078,0.044l-0.08,0.044l-0.08,0.043l-0.081,0.042l-0.081,0.041l-0.082,0.04l-0.082,0.039l-0.083,0.038l-0.083,0.037l-0.084,0.037l-0.085,0.035l-0.085,0.034l-0.085,0.033l-0.086,0.032l-0.087,0.031l-0.087,0.03l-0.087,0.029l-0.088,0.028l-0.088,0.027l-0.089,0.026l-0.089,0.025l-0.09,0.023l-0.09,0.023l-0.091,0.022l-0.091,0.02l-0.091,0.019l-0.092,0.019l-0.092,0.017l-0.093,0.016l-0.093,0.014l-0.093,0.014l-0.094,0.013l-0.094,0.011l-0.094,0.01l-0.095,0.009l-0.095,0.008l-0.096,0.007l-0.095,0.005l-0.097,0.004l-0.096,0.004l-0.097,0.001l-0.097,0.001l-0.097,-0.001l-0.096,-0.001l-0.097,-0.004l-0.096,-0.004l-0.095,-0.005l-0.096,-0.007l-0.095,-0.008l-0.095,-0.009l-0.094,-0.01l-0.094,-0.011l-0.094,-0.013l-0.093,-0.014l-0.093,-0.014l-0.093,-0.016l-0.092,-0.017l-0.092,-0.019l-0.091,-0.019l-0.091,-0.02l-0.091,-0.022l-0.09,-0.023l-0.09,-0.023l-0.089,-0.025l-0.089,-0.026l-0.088,-0.027l-0.088,-0.028l-0.088,-0.029l-0.087,-0.03l-0.086,-0.031l-0.086,-0.032l-0.086,-0.033l-0.084,-0.034l-0.085,-0.035l-0.084,-0.037l-0.083,-0.037l-0.083,-0.038l-0.083,-0.039l-0.081,-0.04l-0.081,-0.041l-0.081,-0.042l-0.08,-0.043l-0.08,-0.044l-0.079,-0.044l-0.078,-0.046l-0.078,-0.047l-0.077,-0.047l-0.076,-0.049l-0.076,-0.049l-0.075,-0.05l-0.075,-0.051l-0.074,-0.052l-0.073,-0.053l-0.073,-0.053l-0.072,-0.055l-0.071,-0.055l-0.07,-0.056l-0.07,-0.057l-0.07,-0.058l-0.068,-0.059l-0.068,-0.059l-0.067,-0.06l-0.066,-0.061l-0.066,-0.062l-0.065,-0.063l-0.064,-0.063l-0.063,-0.064l-0.063,-0.065l-0.061,-0.066l-0.061,-0.066l-0.061,-0.067l-0.059,-0.068l-0.059,-0.068l-0.057,-0.069l-0.057,-0.07l-0.057,-0.071l-0.055,-0.071l-0.054,-0.072l-0.054,-0.073l-0.053,-0.073l-0.052,-0.074l-0.051,-0.075l-0.05,-0.075l-0.049,-0.076l-0.049,-0.076l-0.047,-0.077l-0.047,-0.078l-0.045,-0.078l-0.045,-0.079l-0.044,-0.08l-0.043,-0.08l-0.042,-0.08l-0.041,-0.082l-0.04,-0.081l-0.039,-0.083l-0.038,-0.082l-0.037,-0.084l-0.036,-0.084l-0.036,-0.084l-0.034,-0.085l-0.033,-0.086l-0.032,-0.086l-0.031,-0.086l-0.03,-0.087l-0.029,-0.088l-0.028,-0.088l-0.027,-0.088l-0.026,-0.089l-0.025,-0.089l-0.023,-0.09l-0.023,-0.09l-0.021,-0.09l-0.021,-0.091l-0.019,-0.092l-0.018,-0.092l-0.017,-0.092l-0.016,-0.092l-0.015,-0.093l-0.014,-0.094l-0.012,-0.093l-0.012,-0.095l-0.01,-0.094l-0.009,-0.095l-0.008,-0.095l-0.007,-0.095l-0.005,-0.096l-0.004,-0.096l-0.003,-0.097l-0.002,-0.096l-0.001,-0.097l0,-20.648l0.001,-0.097l0.002,-0.096l0.003,-0.097l0.004,-0.096l0.005,-0.096l0.007,-0.095l0.008,-0.095l0.009,-0.095l0.01,-0.094l0.012,-0.095l0.012,-0.093l0.014,-0.094l0.015,-0.093l0.016,-0.092l0.017,-0.092l0.018,-0.092l0.019,-0.092l0.021,-0.091l0.021,-0.09l0.023,-0.09l0.023,-0.09l0.025,-0.089l0.026,-0.089l0.027,-0.088l0.028,-0.088l0.029,-0.088l0.03,-0.087l0.031,-0.086l0.032,-0.086l0.033,-0.086l0.034,-0.085l0.036,-0.084l0.036,-0.084l0.037,-0.083l0.038,-0.083l0.039,-0.083l0.04,-0.081l0.041,-0.082l0.042,-0.08l0.043,-0.08l0.044,-0.08l0.045,-0.079l0.045,-0.078l0.047,-0.078l0.047,-0.077l0.049,-0.076l0.049,-0.076l0.05,-0.075l0.051,-0.075l0.052,-0.074l0.053,-0.073l0.054,-0.073l0.054,-0.072l0.055,-0.071l0.057,-0.071l0.057,-0.07l0.057,-0.069l0.059,-0.068l0.059,-0.068l0.061,-0.067l0.061,-0.066l0.061,-0.066l0.063,-0.065l0.063,-0.064l0.064,-0.063l0.065,-0.063l0.066,-0.062l0.066,-0.061l0.067,-0.06l0.068,-0.059l0.068,-0.059l0.07,-0.058l0.07,-0.057l0.07,-0.056l0.071,-0.055l0.072,-0.055l0.073,-0.053l0.073,-0.053l0.074,-0.052l0.075,-0.051l0.075,-0.05l0.076,-0.049l0.076,-0.049l0.077,-0.047l0.078,-0.047l0.078,-0.046l0.079,-0.044l0.08,-0.044l0.08,-0.043l0.081,-0.042l0.081,-0.041l0.081,-0.04l0.083,-0.039l0.083,-0.038l0.083,-0.037l0.084,-0.037l0.085,-0.035l0.084,-0.034l0.086,-0.033l0.086,-0.032l0.086,-0.031l0.087,-0.03l0.088,-0.029l0.088,-0.028l0.088,-0.027l0.089,-0.026l0.089,-0.025l0.09,-0.023l0.09,-0.023l0.091,-0.022l0.091,-0.02l0.091,-0.019l0.092,-0.019l0.092,-0.017l0.093,-0.016l0.093,-0.014l0.093,-0.014l0.094,-0.013l0.094,-0.011l0.094,-0.01l0.095,-0.009l0.095,-0.008l0.096,-0.007l0.095,-0.005l0.096,-0.004l0.097,-0.004l0.096,-0.001l0.097,-0.001l0.097,0.001Zm-0.175,1.5l-0.077,0.001l-0.078,0.002l-0.077,0.004l-0.076,0.004l-0.077,0.006l-0.076,0.006l-0.076,0.007l-0.076,0.008l-0.075,0.009l-0.075,0.01l-0.075,0.011l-0.074,0.012l-0.074,0.013l-0.074,0.014l-0.073,0.014l-0.073,0.016l-0.073,0.016l-0.072,0.017l-0.072,0.018l-0.072,0.019l-0.071,0.02l-0.071,0.021l-0.07,0.021l-0.071,0.022l-0.07,0.024l-0.069,0.024l-0.069,0.024l-0.069,0.026l-0.068,0.026l-0.068,0.028l-0.067,0.028l-0.067,0.029l-0.067,0.029l-0.066,0.031l-0.066,0.031l-0.065,0.032l-0.065,0.033l-0.065,0.033l-0.064,0.035l-0.063,0.035l-0.064,0.036l-0.062,0.036l-0.062,0.037l-0.062,0.038l-0.061,0.039l-0.061,0.04l-0.06,0.04l-0.06,0.041l-0.059,0.041l-0.059,0.043l-0.058,0.043l-0.058,0.043l-0.057,0.045l-0.056,0.045l-0.056,0.045l-0.056,0.047l-0.055,0.047l-0.054,0.047l-0.054,0.048l-0.053,0.049l-0.053,0.05l-0.052,0.05l-0.051,0.051l-0.051,0.051l-0.05,0.052l-0.049,0.053l-0.049,0.053l-0.049,0.054l-0.047,0.054l-0.047,0.055l-0.047,0.055l-0.045,0.056l-0.045,0.057l-0.045,0.057l-0.043,0.058l-0.043,0.058l-0.043,0.059l-0.041,0.059l-0.041,0.059l-0.04,0.061l-0.04,0.06l-0.038,0.062l-0.038,0.061l-0.038,0.063l-0.036,0.062l-0.036,0.063l-0.035,0.064l-0.034,0.064l-0.034,0.064l-0.033,0.065l-0.032,0.066l-0.031,0.066l-0.03,0.066l-0.03,0.067l-0.029,0.067l-0.028,0.067l-0.027,0.068l-0.027,0.068l-0.025,0.069l-0.025,0.069l-0.024,0.069l-0.023,0.07l-0.023,0.07l-0.021,0.071l-0.021,0.071l-0.02,0.071l-0.019,0.072l-0.018,0.072l-0.017,0.072l-0.016,0.073l-0.016,0.073l-0.014,0.073l-0.014,0.074l-0.013,0.074l-0.011,0.074l-0.011,0.075l-0.01,0.075l-0.01,0.075l-0.008,0.076l-0.007,0.076l-0.006,0.076l-0.006,0.076l-0.004,0.077l-0.003,0.077l-0.003,0.078l-0.001,0.077l-0.001,0.083l0,20.638l0.001,0.083l0.001,0.077l0.003,0.078l0.003,0.077l0.004,0.077l0.006,0.076l0.006,0.076l0.007,0.076l0.008,0.076l0.01,0.075l0.01,0.075l0.011,0.075l0.011,0.074l0.013,0.074l0.014,0.074l0.014,0.073l0.016,0.073l0.016,0.073l0.017,0.072l0.018,0.072l0.019,0.072l0.02,0.071l0.021,0.071l0.021,0.071l0.023,0.07l0.023,0.07l0.024,0.069l0.025,0.069l0.025,0.069l0.027,0.068l0.027,0.068l0.028,0.067l0.029,0.068l0.03,0.066l0.03,0.066l0.031,0.066l0.032,0.066l0.033,0.065l0.034,0.064l0.034,0.064l0.035,0.064l0.036,0.063l0.036,0.062l0.038,0.063l0.038,0.061l0.038,0.062l0.04,0.06l0.04,0.061l0.041,0.059l0.042,0.059l0.042,0.059l0.043,0.058l0.043,0.058l0.045,0.057l0.045,0.057l0.045,0.056l0.047,0.055l0.047,0.055l0.047,0.054l0.049,0.054l0.049,0.053l0.049,0.053l0.05,0.052l0.051,0.051l0.051,0.051l0.052,0.05l0.053,0.05l0.053,0.049l0.054,0.048l0.054,0.047l0.055,0.047l0.056,0.047l0.056,0.045l0.056,0.045l0.057,0.045l0.058,0.043l0.058,0.043l0.059,0.043l0.059,0.041l0.06,0.041l0.06,0.04l0.061,0.04l0.061,0.039l0.061,0.038l0.063,0.037l0.062,0.036l0.063,0.036l0.064,0.035l0.064,0.035l0.065,0.033l0.065,0.033l0.065,0.032l0.066,0.031l0.066,0.031l0.067,0.029l0.067,0.029l0.067,0.028l0.068,0.028l0.068,0.026l0.069,0.026l0.069,0.024l0.07,0.024l0.069,0.024l0.071,0.022l0.07,0.021l0.071,0.021l0.071,0.02l0.072,0.019l0.072,0.018l0.072,0.017l0.073,0.016l0.073,0.016l0.073,0.014l0.074,0.014l0.074,0.013l0.074,0.012l0.075,0.011l0.075,0.01l0.075,0.009l0.076,0.008l0.076,0.007l0.076,0.006l0.077,0.006l0.076,0.004l0.077,0.004l0.078,0.002l0.077,0.001l0.078,0.001l0.078,-0.001l0.078,-0.001l0.077,-0.002l0.077,-0.004l0.077,-0.004l0.077,-0.006l0.076,-0.006l0.076,-0.007l0.076,-0.008l0.075,-0.009l0.075,-0.01l0.074,-0.011l0.075,-0.012l0.074,-0.013l0.073,-0.014l0.074,-0.014l0.073,-0.016l0.073,-0.016l0.072,-0.017l0.072,-0.018l0.071,-0.019l0.072,-0.02l0.071,-0.021l0.07,-0.021l0.07,-0.022l0.07,-0.024l0.07,-0.024l0.069,-0.024l0.068,-0.026l0.069,-0.026l0.068,-0.028l0.067,-0.028l0.067,-0.029l0.067,-0.029l0.066,-0.031l0.066,-0.031l0.065,-0.032l0.065,-0.033l0.065,-0.033l0.064,-0.035l0.063,-0.035l0.063,-0.036l0.063,-0.036l0.062,-0.037l0.062,-0.038l0.061,-0.039l0.061,-0.04l0.06,-0.04l0.06,-0.041l0.059,-0.041l0.059,-0.043l0.058,-0.043l0.058,-0.043l0.057,-0.045l0.056,-0.045l0.056,-0.045l0.056,-0.047l0.055,-0.047l0.054,-0.047l0.054,-0.048l0.053,-0.049l0.052,-0.05l0.052,-0.05l0.052,-0.051l0.051,-0.051l0.05,-0.052l0.049,-0.053l0.049,-0.053l0.048,-0.054l0.048,-0.054l0.047,-0.055l0.046,-0.055l0.046,-0.056l0.045,-0.057l0.044,-0.057l0.044,-0.058l0.043,-0.058l0.042,-0.059l0.042,-0.059l0.041,-0.059l0.04,-0.061l0.039,-0.06l0.039,-0.062l0.038,-0.061l0.037,-0.063l0.037,-0.062l0.036,-0.063l0.035,-0.064l0.034,-0.064l0.034,-0.064l0.033,-0.065l0.032,-0.066l0.031,-0.066l0.03,-0.066l0.03,-0.066l0.029,-0.068l0.028,-0.067l0.027,-0.068l0.027,-0.068l0.025,-0.069l0.025,-0.069l0.024,-0.069l0.023,-0.07l0.023,-0.07l0.021,-0.071l0.021,-0.071l0.02,-0.071l0.018,-0.072l0.019,-0.072l0.017,-0.072l0.016,-0.073l0.015,-0.073l0.015,-0.073l0.014,-0.074l0.012,-0.074l0.012,-0.074l0.011,-0.075l0.01,-0.075l0.009,-0.075l0.008,-0.076l0.008,-0.076l0.006,-0.076l0.005,-0.076l0.005,-0.077l0.003,-0.077l0.003,-0.078l0.001,-0.077l0.001,-0.083l0,-20.638l-0.001,-0.083l-0.001,-0.077l-0.003,-0.078l-0.003,-0.077l-0.005,-0.077l-0.005,-0.076l-0.006,-0.076l-0.008,-0.076l-0.008,-0.076l-0.009,-0.075l-0.01,-0.075l-0.011,-0.075l-0.012,-0.074l-0.012,-0.074l-0.014,-0.074l-0.015,-0.073l-0.015,-0.073l-0.016,-0.073l-0.017,-0.072l-0.019,-0.072l-0.018,-0.072l-0.02,-0.071l-0.021,-0.071l-0.021,-0.071l-0.023,-0.07l-0.023,-0.07l-0.024,-0.069l-0.025,-0.069l-0.025,-0.069l-0.027,-0.068l-0.027,-0.068l-0.028,-0.067l-0.029,-0.067l-0.03,-0.067l-0.03,-0.066l-0.031,-0.066l-0.032,-0.066l-0.033,-0.065l-0.034,-0.064l-0.034,-0.064l-0.035,-0.064l-0.036,-0.063l-0.037,-0.062l-0.037,-0.063l-0.038,-0.061l-0.039,-0.062l-0.039,-0.06l-0.04,-0.061l-0.041,-0.059l-0.042,-0.059l-0.042,-0.059l-0.043,-0.058l-0.044,-0.058l-0.044,-0.057l-0.045,-0.057l-0.046,-0.056l-0.046,-0.055l-0.047,-0.055l-0.048,-0.054l-0.048,-0.054l-0.049,-0.053l-0.049,-0.053l-0.05,-0.052l-0.051,-0.051l-0.052,-0.051l-0.052,-0.05l-0.052,-0.05l-0.053,-0.049l-0.054,-0.048l-0.054,-0.047l-0.055,-0.047l-0.056,-0.047l-0.056,-0.045l-0.056,-0.045l-0.057,-0.045l-0.058,-0.043l-0.058,-0.043l-0.059,-0.043l-0.059,-0.041l-0.06,-0.041l-0.06,-0.04l-0.061,-0.04l-0.061,-0.039l-0.062,-0.038l-0.062,-0.037l-0.063,-0.036l-0.063,-0.036l-0.063,-0.035l-0.064,-0.035l-0.065,-0.033l-0.065,-0.033l-0.065,-0.032l-0.066,-0.031l-0.066,-0.031l-0.067,-0.029l-0.067,-0.029l-0.067,-0.028l-0.068,-0.028l-0.068,-0.026l-0.069,-0.026l-0.069,-0.025l-0.07,-0.023l-0.07,-0.024l-0.07,-0.022l-0.07,-0.021l-0.071,-0.021l-0.072,-0.02l-0.071,-0.019l-0.072,-0.018l-0.072,-0.017l-0.073,-0.016l-0.073,-0.016l-0.074,-0.014l-0.073,-0.014l-0.074,-0.013l-0.075,-0.012l-0.074,-0.011l-0.075,-0.01l-0.076,-0.009l-0.075,-0.008l-0.076,-0.007l-0.076,-0.006l-0.077,-0.006l-0.077,-0.004l-0.077,-0.004l-0.077,-0.002l-0.078,-0.001l-0.078,-0.001l-0.078,0.001Z" style="fill:#e0e0e0;"/><g><rect x="6" y="43.5" width="84" height="52.5" style="fill:#4d4d4d;"/><path d="M90,96l-84,0l0,-52.5l84,0l0,52.5Zm-82.5,-51l0,49.5l81,0l0,-49.5l-81,0Z" style="fill:#404040;"/></g><ellipse cx="83.151" cy="36.075" rx="3" ry="4.5" style="fill:#d2d2d2;"/><g><g><path d="M81.227,32.317l4.695,-4.695l1.971,1.971l-4.635,4.635c-0.023,0.032 -0.047,0.061 -0.075,0.088c-0.393,0.393 -1.155,0.269 -1.701,-0.277c-0.518,-0.518 -0.657,-1.23 -0.335,-1.637l-0.002,-0.003l0.039,-0.039l0.02,-0.023l0.023,-0.02Z" style="fill:#ebebeb;"/><path d="M81.656,32.867l4.526,-4.527l1.424,1.507l-4.482,4.483c-0.016,0.024 -0.035,0.045 -0.055,0.066c-0.293,0.292 -0.85,0.19 -1.245,-0.227c-0.374,-0.396 -0.468,-0.935 -0.227,-1.238l-0.002,-0.003l0.029,-0.029l0.015,-0.017l0.017,-0.015Z" style="fill:#a6a6a6;"/><path d="M85.731,27.81c0.393,-0.394 1.156,-0.269 1.702,0.277c0.546,0.546 0.671,1.309 0.278,1.702c-0.393,0.393 -1.156,0.268 -1.702,-0.278c-0.546,-0.546 -0.671,-1.308 -0.278,-1.701Z" style="fill:#58b5f6;"/></g><g><rect x="64.835" y="9.645" width="2.03" height="34.462" style="fill:#a03432;"/><rect x="61.147" y="9.645" width="2.03" height="34.462" style="fill:#a03432;"/><rect x="57.849" y="13.826" width="12.369" height="2.119" style="fill:#ff3330;"/><rect x="57.849" y="18.38" width="12.369" height="2.119" style="fill:#ff3330;"/><rect x="57.849" y="22.942" width="12.369" height="2.119" style="fill:#ff3330;"/><path d="M57.821,9.849l0,34.1l2.119,0l0,-34.1l-2.119,0Z" style="fill:#ff3330;"/><path d="M68.148,9.849l0,34.1l2.119,0l0,-34.1l-2.119,0Z" style="fill:#ff3330;"/><rect x="57.849" y="27.509" width="12.369" height="2.119" style="fill:#ff3330;"/><rect x="57.849" y="32.071" width="12.369" height="2.119" style="fill:#ff3330;"/><rect x="46.5" y="5.5" width="23.968" height="4.446" style="fill:#ff3330;"/><path d="M70.468,9.946l-23.968,0l0,-4.446l23.968,0l0,4.446Zm-23.218,-3.696l0,2.946l22.468,0l0,-2.946l-22.468,0Z" style="fill:#272727;"/><rect x="52.983" y="18.318" width="7.007" height="2.188" style="fill:#ff3330;"/><path d="M59.989,20.506l-7.006,0l0,-2.188l7.006,0l0,2.188Zm-6.256,-1.438l0,0.688l5.506,0l0,-0.688l-5.506,0Z" style="fill:#272727;"/><rect x="52.983" y="27.474" width="7.007" height="2.115" style="fill:#ff3330;"/><path d="M59.989,29.589l-7.006,0l0,-2.115l7.006,0l0,2.115Zm-6.256,-1.365l0,0.615l5.506,0l0,-0.615l-5.506,0Z" style="fill:#272727;"/></g><rect x="57.842" y="9.911" width="2.111" height="3.884" style="fill-opacity:0.145098;"/><rect x="61.151" y="9.911" width="2.026" height="3.884" style="fill-opacity:0.145098;"/><rect x="64.845" y="9.911" width="2.026" height="3.884" style="fill-opacity:0.145098;"/><rect x="68.19" y="9.911" width="2.026" height="3.884" style="fill-opacity:0.145098;"/><rect x="57.828" y="6.261" width="11.944" height="2.924" style="fill-opacity:0.145098;"/><rect x="56.406" y="18.735" width="2.857" height="1.304" style="fill-opacity:0.145098;"/><rect x="56.4" y="27.856" width="2.857" height="1.26" style="fill-opacity:0.145098;"/><rect x="68.207" y="9.913" width="2.043" height="34.088" style="fill-opacity:0.145098;"/><rect x="70.52" y="36.519" width="19.264" height="7.685" style="fill:#4d4d4d;"/><path d="M89.783,44.204l-19.263,0l0,-7.685l19.263,0l0,7.685Zm-18.463,-6.885l0,6.085l17.663,0l0,-6.085l-17.663,0Z" style="fill:#272727;"/></g><rect x="25.374" y="43.541" width="45.253" height="4.799"/><path d="M48,44.393c7.222,0 13.085,0.694 13.085,1.548c0,0.854 -5.863,1.547 -13.085,1.547c-7.222,0 -13.085,-0.693 -13.085,-1.547c0,-0.854 5.863,-1.548 13.085,-1.548Zm0,0.774c3.611,0 6.543,0.347 6.543,0.774c0,0.427 -2.932,0.774 -6.543,0.774c-3.611,0 -6.543,-0.347 -6.543,-0.774c0,-0.427 2.932,-0.774 6.543,-0.774Z" style="fill:#f2ff00;"/></svg>
