<?xml version="1.0" encoding="UTF-8" standalone="no"?><!DOCTYPE svg PUBLIC "-//W3C//DTD SVG 1.1//EN" "http://www.w3.org/Graphics/SVG/1.1/DTD/svg11.dtd"><svg width="32" height="32" viewBox="0 0 32 32" version="1.1" xmlns="http://www.w3.org/2000/svg" xmlns:xlink="http://www.w3.org/1999/xlink" xml:space="preserve" xmlns:serif="http://www.serif.com/" style="fill-rule:evenodd;clip-rule:evenodd;stroke-linejoin:round;stroke-miterlimit:1.41421;"><rect id="mine-1" x="0" y="0" width="32" height="32" style="fill:none;"/><clipPath id="_clip1"><rect x="0" y="0" width="32" height="32"/></clipPath><g clip-path="url(#_clip1)"><path d="M16,0l-1.874,2.993c-2.176,0.313 -4.238,1.168 -5.998,2.484l-3.442,-0.791l0.791,3.442c-1.316,1.76 -2.171,3.822 -2.484,5.998l-2.993,1.874l2.993,1.874c0.313,2.176 1.168,4.238 2.484,5.998l-0.791,3.442l3.442,-0.791c1.76,1.316 3.822,2.171 5.998,2.484l1.874,2.993l1.874,-2.993c2.176,-0.313 4.238,-1.168 5.998,-2.484l3.442,0.791l-0.791,-3.442c1.316,-1.76 2.171,-3.822 2.484,-5.998l2.993,-1.874l-2.993,-1.874c-0.313,-2.176 -1.168,-4.238 -2.484,-5.998l0.791,-3.442l-3.442,0.791c-1.76,-1.316 -3.822,-2.171 -5.998,-2.484l-1.874,-2.993Z"/><path d="M17.874,2.993l0.102,0.015l0.102,0.016l0.101,0.017l0.102,0.017l0.101,0.018l0.101,0.019l0.101,0.02l0.1,0.021l0.101,0.021l0.1,0.022l0.1,0.023l0.1,0.024l0.099,0.024l0.1,0.025l0.099,0.026l0.099,0.027l0.098,0.028l0.099,0.028l0.098,0.029l0.098,0.03l0.098,0.03l0.097,0.032l0.097,0.032l0.097,0.033l0.097,0.033l0.096,0.034l0.096,0.035l0.096,0.036l0.095,0.037l0.096,0.037l0.094,0.038l0.095,0.039l0.094,0.039l0.094,0.041l0.094,0.041l0.093,0.041l0.093,0.043l0.093,0.043l0.093,0.044l0.092,0.044l0.091,0.046l0.092,0.046l0.091,0.046l0.09,0.048l0.091,0.048l0.09,0.049l0.089,0.049l0.089,0.051l0.089,0.051l0.089,0.051l0.088,0.053l0.087,0.053l0.088,0.054l0.087,0.054l0.086,0.055l0.086,0.056l0.086,0.057l0.085,0.057l0.085,0.058l0.085,0.059l0.084,0.059l0.083,0.06l0.083,0.061l0.083,0.061l3.442,-0.791l-0.791,3.442l0.061,0.083l0.061,0.083l0.06,0.083l0.059,0.084l0.059,0.085l0.058,0.085l0.057,0.085l0.057,0.086l0.056,0.086l0.055,0.086l0.054,0.087l0.054,0.088l0.053,0.087l0.053,0.088l0.051,0.089l0.051,0.089l0.051,0.089l0.049,0.089l0.049,0.09l0.048,0.091l0.048,0.09l0.046,0.091l0.046,0.092l0.046,0.091l0.044,0.092l0.044,0.093l0.043,0.093l0.043,0.093l0.041,0.093l0.041,0.094l0.041,0.094l0.039,0.094l0.039,0.095l0.038,0.094l0.037,0.096l0.037,0.095l0.036,0.096l0.035,0.096l0.034,0.096l0.033,0.097l0.033,0.097l0.032,0.097l0.032,0.097l0.03,0.098l0.03,0.098l0.029,0.098l0.028,0.099l0.028,0.098l0.027,0.099l0.026,0.099l0.025,0.1l0.024,0.099l0.024,0.1l0.023,0.1l0.022,0.1l0.021,0.101l0.021,0.1l0.02,0.101l0.019,0.101l0.018,0.101l0.017,0.102l0.017,0.101l0.016,0.102l0.015,0.102l2.993,1.874l-2.993,1.874l-0.015,0.102l-0.016,0.102l-0.017,0.101l-0.017,0.102l-0.018,0.101l-0.019,0.101l-0.02,0.101l-0.021,0.1l-0.021,0.101l-0.022,0.1l-0.023,0.1l-0.024,0.1l-0.024,0.099l-0.025,0.1l-0.026,0.099l-0.027,0.099l-0.028,0.098l-0.028,0.099l-0.029,0.098l-0.03,0.098l-0.03,0.098l-0.032,0.097l-0.032,0.097l-0.033,0.097l-0.033,0.097l-0.034,0.096l-0.035,0.096l-0.036,0.096l-0.037,0.095l-0.037,0.096l-0.038,0.094l-0.039,0.095l-0.039,0.094l-0.041,0.094l-0.041,0.094l-0.041,0.093l-0.043,0.093l-0.043,0.093l-0.044,0.093l-0.044,0.092l-0.046,0.091l-0.046,0.092l-0.046,0.091l-0.048,0.09l-0.048,0.091l-0.049,0.09l-0.049,0.089l-0.051,0.089l-0.051,0.089l-0.051,0.089l-0.053,0.088l-0.053,0.087l-0.054,0.088l-0.054,0.087l-0.055,0.086l-0.056,0.086l-0.057,0.086l-0.057,0.085l-0.058,0.085l-0.059,0.085l-0.059,0.084l-0.06,0.083l-0.061,0.083l-0.061,0.083l0.791,3.442l-3.442,-0.791l-0.083,0.061l-0.083,0.061l-0.083,0.06l-0.084,0.059l-0.085,0.059l-0.085,0.058l-0.085,0.057l-0.086,0.057l-0.086,0.056l-0.086,0.055l-0.087,0.054l-0.088,0.054l-0.087,0.053l-0.088,0.053l-0.089,0.051l-0.089,0.051l-0.089,0.051l-0.089,0.049l-0.09,0.049l-0.091,0.048l-0.09,0.048l-0.091,0.046l-0.092,0.046l-0.091,0.046l-0.092,0.044l-0.093,0.044l-0.093,0.043l-0.093,0.043l-0.093,0.041l-0.094,0.041l-0.094,0.041l-0.094,0.039l-0.095,0.039l-0.094,0.038l-0.096,0.037l-0.095,0.037l-0.096,0.036l-0.096,0.035l-0.096,0.034l-0.097,0.033l-0.097,0.033l-0.097,0.032l-0.097,0.032l-0.098,0.03l-0.098,0.03l-0.098,0.029l-0.099,0.028l-0.098,0.028l-0.099,0.027l-0.099,0.026l-0.1,0.025l-0.099,0.024l-0.1,0.024l-0.1,0.023l-0.1,0.022l-0.101,0.021l-0.1,0.021l-0.101,0.02l-0.101,0.019l-0.101,0.018l-0.102,0.017l-0.101,0.017l-0.102,0.016l-0.102,0.015l-1.874,2.993l-1.874,-2.993l-0.102,-0.015l-0.102,-0.016l-0.101,-0.017l-0.102,-0.017l-0.101,-0.018l-0.101,-0.019l-0.101,-0.02l-0.1,-0.021l-0.101,-0.021l-0.1,-0.022l-0.1,-0.023l-0.1,-0.024l-0.099,-0.024l-0.1,-0.025l-0.099,-0.026l-0.099,-0.027l-0.098,-0.028l-0.099,-0.028l-0.098,-0.029l-0.098,-0.03l-0.098,-0.03l-0.097,-0.032l-0.097,-0.032l-0.097,-0.033l-0.097,-0.033l-0.096,-0.034l-0.096,-0.035l-0.096,-0.036l-0.095,-0.037l-0.096,-0.037l-0.094,-0.038l-0.095,-0.039l-0.094,-0.039l-0.094,-0.041l-0.094,-0.041l-0.093,-0.041l-0.093,-0.043l-0.093,-0.043l-0.093,-0.044l-0.092,-0.044l-0.091,-0.046l-0.092,-0.046l-0.091,-0.046l-0.09,-0.048l-0.091,-0.048l-0.09,-0.049l-0.089,-0.049l-0.089,-0.051l-0.089,-0.051l-0.089,-0.051l-0.088,-0.053l-0.087,-0.053l-0.088,-0.054l-0.087,-0.054l-0.086,-0.055l-0.086,-0.056l-0.086,-0.057l-0.085,-0.057l-0.085,-0.058l-0.085,-0.059l-0.084,-0.059l-0.083,-0.06l-0.083,-0.061l-0.083,-0.061l-3.442,0.791l0.791,-3.442l-0.061,-0.083l-0.061,-0.083l-0.06,-0.083l-0.059,-0.084l-0.059,-0.085l-0.058,-0.085l-0.057,-0.085l-0.057,-0.086l-0.056,-0.086l-0.055,-0.086l-0.054,-0.087l-0.054,-0.088l-0.053,-0.087l-0.053,-0.088l-0.051,-0.089l-0.051,-0.089l-0.051,-0.089l-0.049,-0.089l-0.049,-0.09l-0.048,-0.091l-0.048,-0.09l-0.046,-0.091l-0.046,-0.092l-0.046,-0.091l-0.044,-0.092l-0.044,-0.093l-0.043,-0.093l-0.043,-0.093l-0.041,-0.093l-0.041,-0.094l-0.041,-0.094l-0.039,-0.094l-0.039,-0.095l-0.038,-0.094l-0.037,-0.096l-0.037,-0.095l-0.036,-0.096l-0.035,-0.096l-0.034,-0.096l-0.033,-0.097l-0.033,-0.097l-0.032,-0.097l-0.032,-0.097l-0.03,-0.098l-0.03,-0.098l-0.029,-0.098l-0.028,-0.099l-0.028,-0.098l-0.027,-0.099l-0.026,-0.099l-0.025,-0.1l-0.024,-0.099l-0.024,-0.1l-0.023,-0.1l-0.022,-0.1l-0.021,-0.101l-0.021,-0.1l-0.02,-0.101l-0.019,-0.101l-0.018,-0.101l-0.017,-0.102l-0.017,-0.101l-0.016,-0.102l-0.015,-0.102l-2.993,-1.874l2.993,-1.874l0.015,-0.102l0.016,-0.102l0.017,-0.101l0.017,-0.102l0.018,-0.101l0.019,-0.101l0.02,-0.101l0.021,-0.1l0.021,-0.101l0.022,-0.1l0.023,-0.1l0.024,-0.1l0.024,-0.099l0.025,-0.1l0.026,-0.099l0.027,-0.099l0.028,-0.098l0.028,-0.099l0.029,-0.098l0.03,-0.098l0.03,-0.098l0.032,-0.097l0.032,-0.097l0.033,-0.097l0.033,-0.097l0.034,-0.096l0.035,-0.096l0.036,-0.096l0.037,-0.095l0.037,-0.096l0.038,-0.094l0.039,-0.095l0.039,-0.094l0.041,-0.094l0.041,-0.094l0.041,-0.093l0.043,-0.093l0.043,-0.093l0.044,-0.093l0.044,-0.092l0.046,-0.091l0.046,-0.092l0.046,-0.091l0.048,-0.09l0.048,-0.091l0.049,-0.09l0.049,-0.089l0.051,-0.089l0.051,-0.089l0.051,-0.089l0.053,-0.088l0.053,-0.087l0.054,-0.088l0.054,-0.087l0.055,-0.086l0.056,-0.086l0.057,-0.086l0.057,-0.085l0.058,-0.085l0.059,-0.085l0.059,-0.084l0.06,-0.083l0.061,-0.083l0.061,-0.083l-0.791,-3.442l3.442,0.791l0.083,-0.061l0.083,-0.061l0.083,-0.06l0.084,-0.059l0.085,-0.059l0.085,-0.058l0.085,-0.057l0.086,-0.057l0.086,-0.056l0.086,-0.055l0.087,-0.054l0.088,-0.054l0.087,-0.053l0.088,-0.053l0.089,-0.051l0.089,-0.051l0.089,-0.051l0.089,-0.049l0.09,-0.049l0.091,-0.048l0.09,-0.048l0.091,-0.046l0.092,-0.046l0.091,-0.046l0.092,-0.044l0.093,-0.044l0.093,-0.043l0.093,-0.043l0.093,-0.041l0.094,-0.041l0.094,-0.041l0.094,-0.039l0.095,-0.039l0.094,-0.038l0.096,-0.037l0.095,-0.037l0.096,-0.036l0.096,-0.035l0.096,-0.034l0.097,-0.033l0.097,-0.033l0.097,-0.032l0.097,-0.032l0.098,-0.03l0.098,-0.03l0.098,-0.029l0.099,-0.028l0.098,-0.028l0.099,-0.027l0.099,-0.026l0.1,-0.025l0.099,-0.024l0.1,-0.024l0.1,-0.023l0.1,-0.022l0.101,-0.021l0.1,-0.021l0.101,-0.02l0.101,-0.019l0.101,-0.018l0.102,-0.017l0.101,-0.017l0.102,-0.016l0.102,-0.015l1.874,-2.993l1.874,2.993Zm-2.844,1.382l-0.781,0.116l-0.09,0.014l-0.09,0.015l-0.089,0.015l-0.09,0.016l-0.09,0.017l-0.089,0.018l-0.089,0.018l-0.089,0.019l-0.089,0.02l-0.088,0.02l-0.089,0.021l-0.088,0.021l-0.088,0.023l-0.088,0.023l-0.087,0.024l-0.088,0.024l-0.087,0.025l-0.087,0.026l-0.087,0.026l-0.086,0.027l-0.086,0.028l-0.086,0.028l-0.086,0.029l-0.086,0.03l-0.085,0.031l-0.085,0.031l-0.085,0.031l-0.085,0.033l-0.084,0.033l-0.084,0.033l-0.084,0.035l-0.084,0.035l-0.083,0.035l-0.083,0.037l-0.082,0.037l-0.083,0.037l-0.082,0.038l-0.082,0.039l-0.081,0.04l-0.082,0.04l-0.081,0.041l-0.08,0.041l-0.081,0.042l-0.08,0.043l-0.079,0.043l-0.08,0.044l-0.079,0.044l-0.078,0.046l-0.079,0.045l-0.078,0.047l-0.077,0.047l-0.078,0.048l-0.077,0.048l-0.076,0.049l-0.077,0.049l-0.076,0.05l-0.075,0.051l-0.075,0.052l-0.075,0.051l-0.075,0.053l-0.074,0.053l-0.073,0.054l-0.634,0.47l-1.781,-0.409l0.409,1.781l-0.47,0.634l-0.054,0.073l-0.053,0.074l-0.052,0.075l-0.052,0.075l-0.052,0.075l-0.051,0.075l-0.05,0.076l-0.049,0.077l-0.049,0.076l-0.048,0.077l-0.048,0.078l-0.047,0.077l-0.047,0.078l-0.045,0.079l-0.046,0.078l-0.044,0.079l-0.044,0.08l-0.043,0.079l-0.043,0.08l-0.042,0.081l-0.041,0.08l-0.041,0.081l-0.04,0.081l-0.04,0.082l-0.039,0.082l-0.038,0.082l-0.037,0.082l-0.037,0.083l-0.037,0.083l-0.035,0.083l-0.035,0.084l-0.035,0.084l-0.033,0.084l-0.033,0.084l-0.033,0.085l-0.031,0.085l-0.032,0.085l-0.03,0.085l-0.03,0.086l-0.029,0.086l-0.028,0.086l-0.028,0.086l-0.027,0.086l-0.026,0.087l-0.026,0.087l-0.025,0.087l-0.024,0.088l-0.024,0.087l-0.023,0.088l-0.023,0.088l-0.021,0.088l-0.021,0.089l-0.02,0.088l-0.02,0.089l-0.019,0.089l-0.018,0.089l-0.018,0.089l-0.017,0.09l-0.016,0.09l-0.015,0.089l-0.015,0.09l-0.014,0.09l-0.116,0.781l-1.549,0.97l1.549,0.97l0.116,0.781l0.014,0.09l0.015,0.09l0.015,0.089l0.016,0.09l0.017,0.09l0.018,0.089l0.018,0.089l0.019,0.089l0.02,0.089l0.02,0.088l0.021,0.089l0.021,0.088l0.023,0.088l0.023,0.088l0.024,0.087l0.024,0.088l0.025,0.087l0.026,0.087l0.026,0.087l0.027,0.086l0.028,0.086l0.028,0.086l0.029,0.086l0.03,0.086l0.03,0.085l0.032,0.085l0.031,0.085l0.033,0.085l0.033,0.084l0.033,0.084l0.035,0.084l0.035,0.084l0.035,0.083l0.037,0.083l0.037,0.083l0.037,0.082l0.038,0.082l0.039,0.082l0.04,0.082l0.04,0.081l0.041,0.081l0.041,0.08l0.042,0.081l0.043,0.08l0.043,0.079l0.044,0.08l0.044,0.079l0.046,0.078l0.045,0.079l0.047,0.078l0.047,0.077l0.048,0.078l0.048,0.077l0.049,0.076l0.049,0.077l0.05,0.076l0.051,0.075l0.052,0.075l0.052,0.075l0.052,0.075l0.053,0.074l0.054,0.073l0.47,0.634l-0.409,1.781l1.781,-0.409l0.634,0.47l0.073,0.054l0.074,0.053l0.075,0.053l0.075,0.051l0.075,0.052l0.075,0.051l0.076,0.05l0.077,0.049l0.076,0.049l0.077,0.048l0.078,0.048l0.077,0.047l0.078,0.047l0.079,0.045l0.078,0.046l0.079,0.044l0.08,0.044l0.079,0.043l0.08,0.043l0.081,0.042l0.08,0.041l0.081,0.041l0.082,0.04l0.081,0.04l0.082,0.039l0.082,0.038l0.083,0.037l0.082,0.037l0.083,0.037l0.083,0.035l0.084,0.035l0.084,0.035l0.084,0.033l0.084,0.033l0.085,0.033l0.085,0.031l0.085,0.031l0.085,0.031l0.086,0.03l0.086,0.029l0.086,0.028l0.086,0.028l0.086,0.027l0.087,0.026l0.087,0.026l0.087,0.025l0.088,0.024l0.087,0.024l0.088,0.023l0.088,0.023l0.088,0.021l0.089,0.021l0.088,0.02l0.089,0.02l0.089,0.019l0.089,0.018l0.089,0.018l0.09,0.017l0.09,0.016l0.089,0.015l0.09,0.015l0.09,0.014l0.781,0.116l0.97,1.549l0.97,-1.549l0.781,-0.116l0.09,-0.014l0.09,-0.015l0.089,-0.015l0.09,-0.016l0.09,-0.017l0.089,-0.018l0.089,-0.018l0.089,-0.019l0.089,-0.02l0.088,-0.02l0.089,-0.021l0.088,-0.021l0.088,-0.023l0.088,-0.023l0.087,-0.024l0.088,-0.024l0.087,-0.025l0.087,-0.026l0.087,-0.026l0.086,-0.027l0.086,-0.028l0.086,-0.028l0.086,-0.029l0.086,-0.03l0.085,-0.031l0.085,-0.031l0.085,-0.031l0.085,-0.033l0.084,-0.033l0.084,-0.033l0.084,-0.035l0.084,-0.035l0.083,-0.035l0.083,-0.037l0.082,-0.037l0.083,-0.037l0.082,-0.038l0.082,-0.039l0.081,-0.04l0.082,-0.04l0.081,-0.041l0.08,-0.041l0.081,-0.042l0.08,-0.043l0.079,-0.043l0.08,-0.044l0.079,-0.044l0.078,-0.046l0.079,-0.045l0.078,-0.047l0.077,-0.047l0.078,-0.048l0.077,-0.048l0.076,-0.049l0.077,-0.049l0.076,-0.05l0.075,-0.051l0.075,-0.052l0.075,-0.051l0.075,-0.053l0.074,-0.053l0.073,-0.054l0.634,-0.47l1.781,0.409l-0.409,-1.781l0.47,-0.634l0.054,-0.073l0.053,-0.074l0.052,-0.075l0.052,-0.075l0.052,-0.075l0.051,-0.075l0.05,-0.076l0.049,-0.077l0.049,-0.076l0.048,-0.077l0.048,-0.078l0.047,-0.077l0.047,-0.078l0.045,-0.079l0.046,-0.078l0.044,-0.079l0.044,-0.08l0.043,-0.079l0.043,-0.08l0.042,-0.081l0.041,-0.08l0.041,-0.081l0.04,-0.081l0.04,-0.082l0.039,-0.082l0.038,-0.082l0.037,-0.082l0.037,-0.083l0.037,-0.083l0.035,-0.083l0.035,-0.084l0.035,-0.084l0.033,-0.084l0.033,-0.084l0.033,-0.085l0.031,-0.085l0.032,-0.085l0.03,-0.085l0.03,-0.086l0.029,-0.086l0.028,-0.086l0.028,-0.086l0.027,-0.086l0.026,-0.087l0.026,-0.087l0.025,-0.087l0.024,-0.088l0.024,-0.087l0.023,-0.088l0.023,-0.088l0.021,-0.088l0.021,-0.089l0.02,-0.088l0.02,-0.089l0.019,-0.089l0.018,-0.089l0.018,-0.089l0.017,-0.09l0.016,-0.09l0.015,-0.089l0.015,-0.09l0.014,-0.09l0.116,-0.781l1.549,-0.97l-1.549,-0.97l-0.116,-0.781l-0.014,-0.09l-0.015,-0.09l-0.015,-0.089l-0.016,-0.09l-0.017,-0.09l-0.018,-0.089l-0.018,-0.089l-0.019,-0.089l-0.02,-0.089l-0.02,-0.088l-0.021,-0.089l-0.021,-0.088l-0.023,-0.088l-0.023,-0.088l-0.024,-0.087l-0.024,-0.088l-0.025,-0.087l-0.026,-0.087l-0.026,-0.087l-0.027,-0.086l-0.028,-0.086l-0.028,-0.086l-0.029,-0.086l-0.03,-0.086l-0.03,-0.085l-0.032,-0.085l-0.031,-0.085l-0.033,-0.085l-0.033,-0.084l-0.033,-0.084l-0.035,-0.084l-0.035,-0.084l-0.035,-0.083l-0.037,-0.083l-0.037,-0.083l-0.037,-0.082l-0.038,-0.082l-0.039,-0.082l-0.04,-0.082l-0.04,-0.081l-0.041,-0.081l-0.041,-0.08l-0.042,-0.081l-0.043,-0.08l-0.043,-0.079l-0.044,-0.08l-0.044,-0.079l-0.046,-0.078l-0.045,-0.079l-0.047,-0.078l-0.047,-0.077l-0.048,-0.078l-0.048,-0.077l-0.049,-0.076l-0.049,-0.077l-0.05,-0.076l-0.051,-0.075l-0.052,-0.075l-0.052,-0.075l-0.052,-0.075l-0.053,-0.074l-0.054,-0.073l-0.47,-0.634l0.409,-1.781l-1.781,0.409l-0.634,-0.47l-0.073,-0.054l-0.074,-0.053l-0.075,-0.053l-0.075,-0.051l-0.075,-0.052l-0.075,-0.051l-0.076,-0.05l-0.077,-0.049l-0.076,-0.049l-0.077,-0.048l-0.078,-0.048l-0.077,-0.047l-0.078,-0.047l-0.079,-0.045l-0.078,-0.046l-0.079,-0.044l-0.08,-0.044l-0.079,-0.043l-0.08,-0.043l-0.081,-0.042l-0.08,-0.041l-0.081,-0.041l-0.082,-0.04l-0.081,-0.04l-0.082,-0.039l-0.082,-0.038l-0.083,-0.037l-0.082,-0.037l-0.083,-0.037l-0.083,-0.035l-0.084,-0.035l-0.084,-0.035l-0.084,-0.033l-0.084,-0.033l-0.085,-0.033l-0.085,-0.031l-0.085,-0.031l-0.085,-0.031l-0.086,-0.03l-0.086,-0.029l-0.086,-0.028l-0.086,-0.028l-0.086,-0.027l-0.087,-0.026l-0.087,-0.026l-0.087,-0.025l-0.088,-0.024l-0.087,-0.024l-0.088,-0.023l-0.088,-0.023l-0.088,-0.021l-0.089,-0.021l-0.088,-0.02l-0.089,-0.02l-0.089,-0.019l-0.089,-0.018l-0.089,-0.018l-0.09,-0.017l-0.09,-0.016l-0.089,-0.015l-0.09,-0.015l-0.09,-0.014l-0.781,-0.116l-0.97,-1.549l-0.97,1.549Z" style="fill:#fff;"/></g></svg>
