<?xml version="1.0" encoding="UTF-8" standalone="no"?><!DOCTYPE svg PUBLIC "-//W3C//DTD SVG 1.1//EN" "http://www.w3.org/Graphics/SVG/1.1/DTD/svg11.dtd"><svg width="64" height="64" viewBox="0 0 64 64" version="1.1" xmlns="http://www.w3.org/2000/svg" xmlns:xlink="http://www.w3.org/1999/xlink" xml:space="preserve" xmlns:serif="http://www.serif.com/" style="fill-rule:evenodd;clip-rule:evenodd;stroke-linecap:round;stroke-linejoin:round;stroke-miterlimit:1.5;"><rect id="oil-rig-1" x="0" y="0" width="64" height="64" style="fill:none;"/><clipPath id="_clip1"><rect x="0" y="0" width="64" height="64"/></clipPath><g clip-path="url(#_clip1)"><g><g><rect x="20.812" y="22.995" width="25.751" height="41.631" style="fill:#4d4d4d;"/><path d="M46.563,64.625l-25.751,0l0,-41.63l25.751,0l0,41.63Zm-24.251,-40.13l0,38.63l22.751,0l0,-38.63l-22.751,0Z" style="fill:#272727;"/><rect x="22.024" y="28.035" width="23.351" height="2.913" style="fill:none;stroke:#141414;stroke-width:1.29px;"/><rect x="22.024" y="28.035" width="23.351" height="2.913"/><rect x="32.4" y="3.739" width="2.575" height="19.256" style="fill:#191919;"/><path d="M27.438,16.128l-2.752,7.777l-1.238,-0.438l7.284,-20.587l0.885,0.313l0.116,-0.713l1.096,0.18l-1.009,6.172l3.734,0l-1.008,-6.172l1.095,-0.18l0.117,0.713l0.884,-0.313l7.309,20.655l-1.047,0.37l-2.752,-7.777l-2.28,0l1.242,7.598l-1.096,0.179l-1.271,-7.777l-6.119,0l-1.271,7.777l-1.096,-0.179l1.242,-7.598l-2.065,0Zm2.275,-1.288l0.772,-4.721l-0.921,0l-1.671,4.721l1.82,0Zm1.897,-4.721l-0.772,4.721l5.698,0l-0.771,-4.721l-4.155,0Zm5.28,0l0.771,4.721l2.036,0l-1.671,-4.721l-1.136,0Zm-6.871,-1.287l0.676,0l0.58,-3.548l-1.256,3.548Zm6.66,0l0.892,0l-1.657,-4.681l0.765,4.681Z" style="fill:#272727;"/><rect x="29.825" y="0.625" width="7.725" height="3.549" style="fill:#ffbb30;"/><path d="M37.55,4.174l-7.725,0l0,-3.549l7.725,0l0,3.549Zm-6.975,-2.799l0,2.049l6.225,0l0,-2.049l-6.225,0Z" style="fill:#272727;"/></g><path d="M36.799,3.407l0,-1.064l-6.242,0l0,1.064l6.242,0Z" style="fill-opacity:0.145098;"/><path d="M45.117,27.397l0,-2.896l-11.43,0l0,2.896l11.43,0Z" style="fill-opacity:0.145098;"/></g></g></svg>
