<?xml version="1.0" encoding="UTF-8" standalone="no"?><!DOCTYPE svg PUBLIC "-//W3C//DTD SVG 1.1//EN" "http://www.w3.org/Graphics/SVG/1.1/DTD/svg11.dtd"><svg width="48" height="48" viewBox="0 0 48 48" version="1.1" xmlns="http://www.w3.org/2000/svg" xmlns:xlink="http://www.w3.org/1999/xlink" xml:space="preserve" xmlns:serif="http://www.serif.com/" style="fill-rule:evenodd;clip-rule:evenodd;stroke-linejoin:round;stroke-miterlimit:1.41421;"><rect id="trap" x="0" y="0" width="48" height="48" style="fill:none;"/><clipPath id="_clip1"><rect x="0" y="0" width="48" height="48"/></clipPath><g clip-path="url(#_clip1)"><rect x="0" y="0" width="48" height="48" style="fill:url(#_Radial2);"/><path d="M41.384,10.09l-1.523,0.396l-0.648,2.308l-3.097,0.279l-3.513,-3.742l-5.485,0.037l-4.18,-1.043l-1.063,-2.84l0.047,2.644l-5.337,2.743l-2.203,-3.042l-5.299,-1.132l-0.803,-1.912l0.286,2.234l4.524,1.527l1.056,2l-3.667,3.759l-1.829,3.853l1.408,5.074l-1.791,4.843l-1.288,1.01l-1.986,-0.237l2.034,0.773l1.797,-1.201l2.21,1.546l1.597,2.887l-3.827,6.164l0.706,2.365l-0.216,0.873l0.853,-0.752l-0.785,-2.65l5.101,-3.808l4.045,3.658l4.879,-1.055l4.136,1.316l0.757,4.195l2.733,1.314l0.022,0.884l0.428,-0.986l-2.341,-2.135l-0.248,-4.929l4.365,-1.273l1.312,1.72l-0.937,-2.412l2.472,-3.813l1.988,-1.311l4.195,0.948l4.302,-2.185l1.118,0.477l-0.87,-0.847l-4.551,1.454l-5.437,-2.901l1.987,-3.165l3.525,-1.558l0.912,-1.443l-1.185,1.115l-3.361,0.352l-1.644,-7.04l2.781,-2.622l0.245,-2.028l1.293,-0.686Z" style="fill-opacity:0.462745;"/><path d="M14.122,9.756l1.952,0.557l1.765,2.517l4.768,-2.471l4.399,1.035l4.98,0.059l3.103,3.311l2.78,-0.384l-2.093,2.188l1.449,6.405l3.071,-0.098l-2.898,1.405l-1.883,2.686l4.778,2.685l1.082,0.284l-0.993,0.511l-3.595,-0.739l-1.738,1.042l-2.573,4.07l-3.841,1.012l0.12,4.722l0.192,0.631l-0.893,-0.315l-0.603,-3.411l-3.451,-1.453l-4.395,1.009l-3.599,-3.565l-4.905,3.621l3.395,-5.107l-1.336,-2.526l-2.6,-1.598l1.572,-4.214l-1.213,-4.449l1.598,-3.467l3.378,-3.204l-1.773,-2.749Z" style="fill-opacity:0.682353;"/></g><defs><radialGradient id="_Radial2" cx="0" cy="0" r="1" gradientUnits="userSpaceOnUse" gradientTransform="matrix(23.6886,0,0,23.6886,24,24)"><stop offset="0" style="stop-color:#fff;stop-opacity:0.0509804"/><stop offset="1" style="stop-color:#fff;stop-opacity:0"/></radialGradient></defs></svg>
