<?xml version="1.0" encoding="UTF-8" standalone="no"?><!DOCTYPE svg PUBLIC "-//W3C//DTD SVG 1.1//EN" "http://www.w3.org/Graphics/SVG/1.1/DTD/svg11.dtd"><svg width="96" height="96" viewBox="0 0 96 96" version="1.1" xmlns="http://www.w3.org/2000/svg" xmlns:xlink="http://www.w3.org/1999/xlink" xml:space="preserve" xmlns:serif="http://www.serif.com/" style="fill-rule:evenodd;clip-rule:evenodd;stroke-miterlimit:1.5;"><rect id="uranium-mine-1" x="0" y="0" width="96" height="96" style="fill:none;"/><path d="M47,31.25l0,5l11.5,5.25l0,-5.25l-11.5,-5Z" style="fill:#2b2b2b;stroke:#404040;stroke-width:1.5px;"/><path d="M47,21l0,5l11.5,5.25l0,-5.25l-11.5,-5Z" style="fill:#323232;stroke:#404040;stroke-width:1.5px;"/><rect x="46.5" y="30.75" width="12" height="5.75" style="fill:#4d4d4d;stroke:#404040;stroke-width:1.5px;"/><rect x="47.061" y="32.75" width="10.216" height="3.022" style="fill-opacity:0.203922;"/><rect x="47.061" y="32.75" width="10.216" height="3.022" style="fill-opacity:0.203922;"/><path d="M26,17l21,0l0,3l-0.5,0l0,6.5l0.5,0l0,3l-0.5,0l0,6.5l0.5,0l0,3l-0.5,0l0,2.5l0.5,0l0,3l-21,0l0,-3l0.5,0l0,-2.5l-0.5,0l0,-3l0.5,0l0,-6.5l-0.5,0l0,-3l0.5,0l0,-6.5l-0.5,0l0,-3Z" style="fill:#383838;stroke:#2c2c2c;stroke-width:1.5px;"/><path d="M14,3.5l21,0l0,3l-0.5,0l0,6.5l0.5,0l0,3l-0.5,0l0,6.5l0.5,0l0,3l-0.5,0l0,6.5l0.5,0l0,3l-0.5,0l0,6.5l0.5,0l0,3l-21,0l0,-3l0.5,0l0,-6.5l-0.5,0l0,-3l0.5,0l0,-6.5l-0.5,0l0,-3l0.5,0l0,-6.5l-0.5,0l0,-3l0.5,0l0,-6.5l-0.5,0l0,-3Z" style="fill:#4d4d4d;stroke:#404040;stroke-width:1.5px;"/><path d="M40.481,42.118l0,-22.847l-5.076,0l0,22.847l5.076,0Z" style="fill-opacity:0.145098;"/><g><rect x="14.708" y="13.718" width="19.584" height="1.514" style="fill:#404040;"/><rect x="14.789" y="4.258" width="19.584" height="1.516" style="fill:#404040;"/><rect x="14.708" y="23.204" width="19.584" height="1.551" style="fill:#404040;"/><rect x="14.708" y="32.724" width="19.584" height="1.516" style="fill:#404040;"/><rect x="14.708" y="32.724" width="19.584" height="0.334" style="fill:#888;"/><rect x="14.708" y="23.204" width="19.584" height="0.334" style="fill:#888;"/><rect x="14.708" y="13.702" width="19.584" height="0.334" style="fill:#888;"/><rect x="14.708" y="4.319" width="19.584" height="0.334" style="fill:#888;"/></g><path d="M58,13l21,0l0,3l-0.5,0l0,6.5l0.5,0l0,3l-0.5,0l0,6.5l0.5,0l0,3l-0.5,0l0,6.5l0.5,0l0,3l-21,0l0,-3l0.5,0l0,-6.5l-0.5,0l0,-3l0.5,0l0,-6.5l-0.5,0l0,-3l0.5,0l0,-6.5l-0.5,0l0,-3Z" style="fill:#4d4d4d;stroke:#404040;stroke-width:1.5px;"/><path d="M78,42.118l0,-27.056l-8.891,0l0,27.056l8.891,0Z" style="fill-opacity:0.145098;"/><rect x="10.5" y="41.5" width="75" height="51" style="fill:#4d4d4d;stroke:#404040;stroke-width:1.5px;"/><path d="M25.508,24.36l1.596,2.764c-1.609,0.929 -3.591,0.93 -5.201,0.004l1.591,-2.766c0.296,0.171 0.64,0.269 1.006,0.269c0.367,0 0.712,-0.099 1.008,-0.271Zm-1.008,-3.176c0.789,0 1.43,0.641 1.43,1.43c0,0.789 -0.641,1.43 -1.43,1.43c-0.789,0 -1.43,-0.641 -1.43,-1.43c0,-0.789 0.641,-1.43 1.43,-1.43Zm1.011,-0.315l1.6,-2.761c1.607,0.931 2.597,2.648 2.597,4.506l-3.191,0c-0.001,-0.746 -0.405,-1.396 -1.006,-1.745Zm-2.022,0c-0.6,0.348 -1.005,0.998 -1.006,1.745l-3.191,0c0,-1.858 0.99,-3.575 2.597,-4.506l1.6,2.761Z" style="fill:#ebd820;"/><rect x="35.204" y="17.735" width="11.114" height="1.514" style="fill:#2c2c2c;"/><rect x="35.204" y="17.719" width="10.565" height="0.334" style="fill:#888;"/><rect x="35.204" y="27.251" width="11.114" height="1.497" style="fill:#2c2c2c;"/><rect x="35.204" y="27.235" width="10.565" height="0.33" style="fill:#888;"/><rect x="35.204" y="36.758" width="11.114" height="1.505" style="fill:#2c2c2c;"/><rect x="35.204" y="36.742" width="10.565" height="0.332" style="fill:#888;"/><rect x="58.763" y="32.726" width="19.553" height="1.515" style="fill:#404040;"/><rect x="58.763" y="32.71" width="19.553" height="0.334" style="fill:#888;"/><rect x="58.763" y="23.251" width="19.553" height="1.515" style="fill:#404040;"/><rect x="58.763" y="23.235" width="19.553" height="0.334" style="fill:#888;"/><rect x="58.763" y="13.751" width="19.553" height="1.515" style="fill:#404040;"/><rect x="58.763" y="13.735" width="19.553" height="0.334" style="fill:#888;"/><rect x="15.239" y="23.522" width="18.515" height="3.038" style="fill-opacity:0.145098;"/><path d="M33.673,40.777l0,-34.993l-9.173,0l0,34.993l9.173,0Z" style="fill-opacity:0.145098;"/><rect x="35.192" y="17.981" width="10.577" height="3.038" style="fill-opacity:0.145098;"/><rect x="35.192" y="27.564" width="10.577" height="3.038" style="fill-opacity:0.145098;"/><rect x="35.192" y="37.073" width="10.577" height="3.038" style="fill-opacity:0.145098;"/><rect x="59.227" y="23.538" width="18.515" height="3.038" style="fill-opacity:0.145098;"/><rect x="59.242" y="14.122" width="18.515" height="3.038" style="fill-opacity:0.145098;"/><rect x="59.227" y="32.981" width="18.515" height="3.038" style="fill-opacity:0.145098;"/><rect x="15.242" y="13.981" width="18.515" height="3.038" style="fill-opacity:0.145098;"/><rect x="15.242" y="4.629" width="18.515" height="3.038" style="fill-opacity:0.145098;"/><rect x="15.239" y="33.412" width="18.515" height="3.038" style="fill-opacity:0.145098;"/></svg>
