<?xml version="1.0" encoding="UTF-8" standalone="no"?><!DOCTYPE svg PUBLIC "-//W3C//DTD SVG 1.1//EN" "http://www.w3.org/Graphics/SVG/1.1/DTD/svg11.dtd"><svg width="17" height="16" viewBox="0 0 17 16" version="1.1" xmlns="http://www.w3.org/2000/svg" xmlns:xlink="http://www.w3.org/1999/xlink" xml:space="preserve" xmlns:serif="http://www.serif.com/" style="fill-rule:evenodd;clip-rule:evenodd;stroke-linejoin:round;stroke-miterlimit:1.41421;"><rect id="wall-2" x="0.25" y="0" width="16" height="16" style="fill:none;"/><clipPath id="_clip1"><rect x="0.25" y="0" width="16" height="16"/></clipPath><g clip-path="url(#_clip1)"><circle cx="8.25" cy="8" r="8" style="fill:#3e3e3e;"/><circle cx="8.25" cy="8" r="5.889" style="fill:#7d7d7d;"/><path d="M13.081,4.635c0.668,0.954 1.058,2.114 1.058,3.365c0,3.25 -2.639,5.889 -5.889,5.889c-3.25,0 -5.889,-2.639 -5.889,-5.889c0,-1.251 0.39,-2.411 1.058,-3.365l0.045,0c-0.516,0.794 -0.813,1.725 -0.813,2.72c0,2.895 2.509,5.245 5.599,5.245c3.09,0 5.599,-2.35 5.599,-5.245c0,-0.995 -0.297,-1.926 -0.813,-2.72l0.045,0Z" style="fill-opacity:0.172549;"/><ellipse cx="8.25" cy="4.014" rx="2.863" ry="1.356" style="fill:#fff;fill-opacity:0.239216;"/></g></svg>
