<?xml version="1.0" encoding="UTF-8" standalone="no"?><!DOCTYPE svg PUBLIC "-//W3C//DTD SVG 1.1//EN" "http://www.w3.org/Graphics/SVG/1.1/DTD/svg11.dtd"><svg width="17" height="16" viewBox="0 0 17 16" version="1.1" xmlns="http://www.w3.org/2000/svg" xmlns:xlink="http://www.w3.org/1999/xlink" xml:space="preserve" xmlns:serif="http://www.serif.com/" style="fill-rule:evenodd;clip-rule:evenodd;stroke-linejoin:round;stroke-miterlimit:1.41421;"><rect id="wall-1" x="0.25" y="0" width="16" height="16" style="fill:none;"/><clipPath id="_clip1"><rect x="0.25" y="0" width="16" height="16"/></clipPath><g clip-path="url(#_clip1)"><circle cx="8.25" cy="8" r="8" style="fill:#3e3e3e;"/><path d="M14.812,3.429c0.907,1.296 1.438,2.872 1.438,4.571c0,4.415 -3.585,8 -8,8c-4.415,0 -8,-3.585 -8,-8c0,-1.699 0.531,-3.275 1.438,-4.571l0.06,0c-0.7,1.078 -1.103,2.343 -1.103,3.695c0,3.932 3.408,7.124 7.605,7.124c4.197,0 7.605,-3.192 7.605,-7.124c0,-1.352 -0.403,-2.617 -1.103,-3.695l0.06,0Z" style="fill-opacity:0.270588;"/><ellipse cx="8.25" cy="2.585" rx="3.889" ry="1.842" style="fill:#fff;fill-opacity:0.0901961;"/></g></svg>
