<?xml version="1.0" encoding="UTF-8" standalone="no"?><!DOCTYPE svg PUBLIC "-//W3C//DTD SVG 1.1//EN" "http://www.w3.org/Graphics/SVG/1.1/DTD/svg11.dtd"><svg width="64" height="64" viewBox="0 0 64 64" version="1.1" xmlns="http://www.w3.org/2000/svg" xmlns:xlink="http://www.w3.org/1999/xlink" xml:space="preserve" xmlns:serif="http://www.serif.com/" style="fill-rule:evenodd;clip-rule:evenodd;stroke-linejoin:round;stroke-miterlimit:1.41421;"><rect id="adblock" x="0" y="0" width="64" height="64" style="fill-opacity:0;"/><path d="M32,5c5.594,3.743 13.068,5.895 23,6c1.18,39.489 -11.049,43.343 -23,48l-2.238,-0.872c-11.178,-4.4 -21.869,-10.088 -20.762,-47.128c9.921,-0.105 17.39,-2.252 23,-6Zm0,22.817l8.736,-8.736l4.183,4.183l-8.736,8.736l8.736,8.736l-4.183,4.183l-8.736,-8.736l-8.736,8.736l-4.183,-4.183l8.736,-8.736l-8.736,-8.736l4.183,-4.183l8.736,8.736Z" style="fill:#ed3031;"/></svg>
