<?xml version="1.0" encoding="UTF-8" standalone="no"?><!DOCTYPE svg PUBLIC "-//W3C//DTD SVG 1.1//EN" "http://www.w3.org/Graphics/SVG/1.1/DTD/svg11.dtd"><svg width="32" height="32" viewBox="0 0 32 32" version="1.1" xmlns="http://www.w3.org/2000/svg" xmlns:xlink="http://www.w3.org/1999/xlink" xml:space="preserve" style="fill-rule:evenodd;clip-rule:evenodd;stroke-linejoin:round;stroke-miterlimit:1.41421;"><rect id="discord" x="0" y="0" width="32" height="32" style="fill:none;"/><clipPath id="_clip1"><rect x="0" y="0" width="32" height="32"/></clipPath><g clip-path="url(#_clip1)"><path d="M23.616,27.507c0,0 -0.986,-1.178 -1.808,-2.219c3.589,-1.014 4.959,-3.26 4.959,-3.26c-1.123,0.739 -2.192,1.26 -3.151,1.616c-1.369,0.575 -2.684,0.959 -3.972,1.178c-2.63,0.493 -5.041,0.356 -7.096,-0.027c-1.562,-0.302 -2.904,-0.74 -4.027,-1.178c-0.631,-0.247 -1.316,-0.548 -2,-0.932c-0.083,-0.055 -0.165,-0.082 -0.247,-0.137c-0.055,-0.027 -0.082,-0.055 -0.11,-0.082c-0.493,-0.274 -0.767,-0.466 -0.767,-0.466c0,0 1.315,2.192 4.795,3.233c-0.822,1.041 -1.836,2.274 -1.836,2.274c-6.055,-0.192 -8.356,-4.164 -8.356,-4.164c0,-8.822 3.945,-15.973 3.945,-15.973c3.945,-2.959 7.699,-2.877 7.699,-2.877l0.274,0.329c-4.932,1.425 -7.206,3.589 -7.206,3.589c0,0 0.603,-0.329 1.617,-0.794c2.931,-1.288 5.26,-1.644 6.219,-1.726c0.164,-0.028 0.301,-0.055 0.466,-0.055c1.671,-0.219 3.561,-0.274 5.534,-0.055c2.603,0.301 5.397,1.068 8.247,2.63c0,0 -2.165,-2.055 -6.822,-3.479l0.383,-0.439c0,0 3.754,-0.082 7.699,2.877c0,0 3.945,7.151 3.945,15.973c0,0 -2.329,3.972 -8.384,4.164l0,0Zm-12.739,-12.795c-1.562,0 -2.795,1.37 -2.795,3.042c0,1.671 1.26,3.041 2.795,3.041c1.561,0 2.794,-1.37 2.794,-3.041c0.028,-1.672 -1.233,-3.042 -2.794,-3.042Zm10,0c-1.562,0 -2.795,1.37 -2.795,3.042c0,1.671 1.26,3.041 2.795,3.041c1.561,0 2.794,-1.37 2.794,-3.041c0,-1.672 -1.233,-3.042 -2.794,-3.042Z" style="fill:#7289DA;"/></g></svg>
