<?xml version="1.0" encoding="UTF-8" standalone="no"?><!DOCTYPE svg PUBLIC "-//W3C//DTD SVG 1.1//EN" "http://www.w3.org/Graphics/SVG/1.1/DTD/svg11.dtd"><svg width="32" height="32" viewBox="0 0 32 32" version="1.1" xmlns="http://www.w3.org/2000/svg" xmlns:xlink="http://www.w3.org/1999/xlink" xml:space="preserve" style="fill-rule:evenodd;clip-rule:evenodd;stroke-linejoin:round;stroke-miterlimit:1.41421;"><rect id="instagram" x="0" y="0" width="32" height="32" style="fill:none;"/><clipPath id="_clip1"><rect x="0" y="0" width="32" height="32"/></clipPath><g clip-path="url(#_clip1)"><path d="M15.975,0.051c4.339,0 4.883,0.018 6.586,0.096c1.7,0.077 2.862,0.347 3.878,0.742c1.066,0.401 2.032,1.03 2.829,1.843c0.813,0.798 1.442,1.763 1.843,2.829c0.395,1.016 0.665,2.178 0.743,3.878c0.077,1.704 0.096,2.248 0.096,6.586c0,4.339 -0.019,4.883 -0.096,6.587c-0.078,1.7 -0.348,2.861 -0.743,3.877c-0.829,2.145 -2.527,3.843 -4.672,4.672c-1.016,0.395 -2.177,0.665 -3.878,0.743c-1.703,0.078 -2.248,0.096 -6.586,0.096c-4.338,0 -4.882,-0.018 -6.586,-0.096c-1.701,-0.078 -2.862,-0.348 -3.878,-0.743c-1.066,-0.401 -2.032,-1.03 -2.829,-1.842c-0.813,-0.798 -1.442,-1.764 -1.843,-2.83c-0.395,-1.016 -0.665,-2.177 -0.743,-3.877c-0.078,-1.704 -0.096,-2.248 -0.096,-6.587c0,-4.338 0.018,-4.882 0.096,-6.586c0.078,-1.7 0.348,-2.862 0.742,-3.878c0.402,-1.066 1.031,-2.031 1.843,-2.829c0.798,-0.813 1.764,-1.442 2.83,-1.843c1.016,-0.395 2.177,-0.665 3.878,-0.742c1.703,-0.078 2.247,-0.096 6.586,-0.096l0,0l0,0l0,0Zm0,2.878c4.265,0 4.77,0.016 6.455,0.093c1.558,0.071 2.403,0.331 2.966,0.55c0.694,0.256 1.322,0.665 1.837,1.195c0.531,0.515 0.939,1.143 1.195,1.837c0.219,0.563 0.479,1.409 0.55,2.966c0.077,1.685 0.093,2.19 0.093,6.456c0,4.265 -0.016,4.77 -0.093,6.455c-0.071,1.557 -0.331,2.403 -0.55,2.966c-0.537,1.393 -1.639,2.495 -3.032,3.032c-0.563,0.219 -1.408,0.479 -2.966,0.55c-1.684,0.077 -2.189,0.093 -6.455,0.093c-4.266,0 -4.771,-0.016 -6.456,-0.093c-1.557,-0.071 -2.403,-0.331 -2.966,-0.55c-0.694,-0.256 -1.321,-0.665 -1.837,-1.195c-0.53,-0.515 -0.939,-1.143 -1.195,-1.837c-0.218,-0.563 -0.479,-1.409 -0.55,-2.966c-0.077,-1.685 -0.093,-2.19 -0.093,-6.455c0,-4.266 0.016,-4.771 0.093,-6.456c0.071,-1.557 0.332,-2.403 0.55,-2.966c0.256,-0.694 0.665,-1.322 1.196,-1.837c0.515,-0.53 1.142,-0.939 1.836,-1.195c0.563,-0.219 1.409,-0.479 2.967,-0.55c1.684,-0.077 2.189,-0.093 6.455,-0.093l0,0Zm0,4.893c-4.5,0 -8.204,3.703 -8.204,8.203c0,4.5 3.704,8.204 8.204,8.204c4.5,0 8.203,-3.704 8.203,-8.204c0,-4.5 -3.703,-8.203 -8.203,-8.203l0,0Zm0,13.528c-2.921,0 -5.325,-2.404 -5.325,-5.325c0,-2.921 2.404,-5.325 5.325,-5.325c2.921,0 5.325,2.404 5.325,5.325c0,2.921 -2.404,5.325 -5.325,5.325l0,0Zm8.527,-15.769c1.058,0 1.917,0.859 1.917,1.917c0,1.058 -0.859,1.917 -1.917,1.917c-1.058,0 -1.917,-0.859 -1.917,-1.917c0,-1.058 0.859,-1.917 1.917,-1.917Z" style="fill:#E4405F;"/></g></svg>
