<?xml version="1.0" encoding="UTF-8" standalone="no"?><!DOCTYPE svg PUBLIC "-//W3C//DTD SVG 1.1//EN" "http://www.w3.org/Graphics/SVG/1.1/DTD/svg11.dtd"><svg width="32" height="32" viewBox="0 0 32 32" version="1.1" xmlns="http://www.w3.org/2000/svg" xmlns:xlink="http://www.w3.org/1999/xlink" xml:space="preserve" style="fill-rule:evenodd;clip-rule:evenodd;stroke-linejoin:round;stroke-miterlimit:1.41421;"><rect id="reddit" x="0" y="0" width="32" height="32" style="fill:none;"/><clipPath id="_clip1"><rect x="0" y="0" width="32" height="32"/></clipPath><g clip-path="url(#_clip1)"><path id="Reddit" d="M15.239,9.553c-3.359,0.147 -6.397,1.166 -8.698,2.754c-0.657,-0.971 -1.723,-1.603 -2.928,-1.603c-1.995,0 -3.613,1.734 -3.613,3.872c0,1.65 0.962,3.058 2.318,3.616c-0.104,0.505 -0.159,1.022 -0.159,1.548c0,5.636 6.232,10.205 13.918,10.205c7.687,0 13.918,-4.569 13.918,-10.205c0,-0.523 -0.053,-1.036 -0.157,-1.538c1.273,-0.599 2.162,-1.962 2.162,-3.547c0,-2.139 -1.618,-3.872 -3.613,-3.872c-1.152,0 -2.179,0.578 -2.84,1.478c-2.313,-1.575 -5.356,-2.58 -8.717,-2.711c-0.002,-0.908 0.042,-1.577 0.146,-2.222c0.211,-1.315 0.656,-2.096 1.403,-2.45l0.064,-0.03l0.058,-0.041c0.626,-0.448 1.39,-0.554 2.398,-0.358c0.682,0.133 1.295,0.339 2.413,0.801c-0.01,0.115 -0.015,0.231 -0.015,0.349c0,1.957 1.441,3.544 3.22,3.544c1.778,0 3.22,-1.587 3.22,-3.544c0,-1.958 -1.442,-3.544 -3.22,-3.544c-1.14,0 -2.141,0.651 -2.714,1.635c-1.155,-0.475 -1.82,-0.695 -2.607,-0.848c-1.395,-0.273 -2.585,-0.107 -3.604,0.621l0.122,-0.071c-1.305,0.618 -2.019,1.87 -2.308,3.669c-0.12,0.749 -0.171,1.496 -0.167,2.492Zm-2.856,8.199c0,1.13 -0.869,2.045 -1.941,2.045c-1.072,0 -1.941,-0.915 -1.941,-2.045c0,-1.13 0.869,-2.045 1.941,-2.045c1.072,0 1.941,0.915 1.941,2.045Zm10.105,-0.175c0,1.129 -0.869,2.045 -1.941,2.045c-1.073,0 -1.942,-0.916 -1.942,-2.045c0,-1.13 0.869,-2.046 1.942,-2.046c1.072,0 1.941,0.916 1.941,2.046Zm-6.318,8.327c1.669,-0.134 3.203,-0.734 5.217,-1.885l-0.772,-1.43c-1.832,1.046 -3.175,1.572 -4.569,1.684c-1.691,0.136 -3.391,-0.39 -5.268,-1.754l-0.918,1.336c2.17,1.577 4.234,2.216 6.31,2.049Z" style="fill:#FF4500;"/></g></svg>
