<?xml version="1.0" encoding="UTF-8" standalone="no"?><!DOCTYPE svg PUBLIC "-//W3C//DTD SVG 1.1//EN" "http://www.w3.org/Graphics/SVG/1.1/DTD/svg11.dtd"><svg width="32" height="32" viewBox="0 0 32 32" version="1.1" xmlns="http://www.w3.org/2000/svg" xmlns:xlink="http://www.w3.org/1999/xlink" xml:space="preserve" style="fill-rule:evenodd;clip-rule:evenodd;stroke-linejoin:round;stroke-miterlimit:1.41421;"><rect id="twitter" x="0" y="0" width="32" height="32" style="fill:none;"/><clipPath id="_clip1"><rect x="0" y="0" width="32" height="32"/></clipPath><g clip-path="url(#_clip1)"><path id="Twitter" d="M32,6.022c-1.177,0.525 -2.443,0.88 -3.771,1.039c1.356,-0.816 2.397,-2.11 2.887,-3.651c-1.269,0.756 -2.674,1.305 -4.169,1.601c-1.198,-1.283 -2.904,-2.084 -4.792,-2.084c-3.626,0 -6.565,2.955 -6.565,6.6c0,0.518 0.058,1.022 0.17,1.505c-5.457,-0.276 -10.294,-2.903 -13.532,-6.897c-0.565,0.975 -0.889,2.109 -0.889,3.318c0,2.29 1.159,4.311 2.92,5.494c-1.076,-0.034 -2.088,-0.331 -2.973,-0.825c-0.001,0.027 -0.001,0.055 -0.001,0.083c0,3.198 2.263,5.865 5.267,6.472c-0.551,0.151 -1.131,0.232 -1.73,0.232c-0.423,0 -0.834,-0.042 -1.235,-0.119c0.835,2.622 3.26,4.531 6.133,4.584c-2.247,1.77 -5.078,2.826 -8.154,2.826c-0.53,0 -1.052,-0.032 -1.566,-0.093c2.905,1.873 6.356,2.966 10.064,2.966c12.076,0 18.679,-10.058 18.679,-18.78c0,-0.287 -0.006,-0.571 -0.019,-0.854c1.283,-0.931 2.396,-2.093 3.276,-3.417l0,0Z" style="fill:#1DA1F2;"/></g></svg>
