<?xml version="1.0" encoding="UTF-8" standalone="no"?><!DOCTYPE svg PUBLIC "-//W3C//DTD SVG 1.1//EN" "http://www.w3.org/Graphics/SVG/1.1/DTD/svg11.dtd"><svg width="32" height="32" viewBox="0 0 32 32" version="1.1" xmlns="http://www.w3.org/2000/svg" xmlns:xlink="http://www.w3.org/1999/xlink" xml:space="preserve" style="fill-rule:evenodd;clip-rule:evenodd;stroke-linejoin:round;stroke-miterlimit:1.41421;"><rect id="twitch" x="0" y="0" width="32" height="32" style="fill:none;"/><path d="M29.971,0.08l0,18.195l-10.397,10.395l-5.198,0l-3.25,3.25l-3.248,0l0,-3.25l-5.849,0l0,-23.392l1.3,-5.198l26.642,0Zm-7.148,21.443l4.55,-4.549l0,-14.295l-21.444,0l0,18.844l5.848,0l0,3.898l3.899,-3.898l7.147,0Zm-9.746,-5.848l2.599,0l0,-7.798l-2.599,0l0,7.798Zm7.147,0l2.599,0l0,-7.798l-2.599,0l0,7.798Z" style="fill:#6441A4;"/></svg>
