<?xml version="1.0" encoding="UTF-8" standalone="no"?><!DOCTYPE svg PUBLIC "-//W3C//DTD SVG 1.1//EN" "http://www.w3.org/Graphics/SVG/1.1/DTD/svg11.dtd"><svg width="32" height="32" viewBox="0 0 32 32" version="1.1" xmlns="http://www.w3.org/2000/svg" xmlns:xlink="http://www.w3.org/1999/xlink" xml:space="preserve" style="fill-rule:evenodd;clip-rule:evenodd;stroke-linejoin:round;stroke-miterlimit:1.41421;"><rect id="youtube" x="0" y="0" width="32" height="32" style="fill:none;"/><clipPath id="_clip1"><rect x="0" y="0" width="32" height="32"/></clipPath><g clip-path="url(#_clip1)"><path d="M0,14.74c0,-2.588 0.32,-5.18 0.32,-5.18c0,0 0.312,-2.2 1.272,-3.174c1.216,-1.274 2.816,-1.234 3.528,-1.368c2.56,-0.248 10.88,-0.32 10.88,-0.32c0,0 6.724,0.008 11.2,0.332c0.628,0.076 1.992,0.08 3.208,1.356c0.96,0.972 1.272,3.176 1.272,3.176c0,0 0.32,2.588 0.32,5.18l0,2.516c0,2.592 -0.32,5.18 -0.32,5.18c0,0 -0.312,2.204 -1.272,3.176c-1.216,1.276 -2.58,1.28 -3.208,1.356c-4.476,0.324 -11.2,0.332 -11.2,0.332c0,0 -8.32,-0.074 -10.88,-0.32c-0.712,-0.134 -2.312,-0.094 -3.528,-1.368c-0.96,-0.974 -1.272,-3.174 -1.272,-3.174c0,0 -0.32,-2.59 -0.32,-5.18l0,-2.52l0,0Zm12.696,5.46l0,-8.99l8.646,4.51l-8.64,4.48l-0.006,0Z" style="fill:#FF0000;"/></g></svg>
