<?xml version="1.0" encoding="UTF-8" standalone="no"?><!DOCTYPE svg PUBLIC "-//W3C//DTD SVG 1.1//EN" "http://www.w3.org/Graphics/SVG/1.1/DTD/svg11.dtd"><svg width="64" height="64" viewBox="0 0 64 64" version="1.1" xmlns="http://www.w3.org/2000/svg" xmlns:xlink="http://www.w3.org/1999/xlink" xml:space="preserve" xmlns:serif="http://www.serif.com/" style="fill-rule:evenodd;clip-rule:evenodd;stroke-linejoin:round;stroke-miterlimit:1.41421;"><rect id="aluminium" x="0" y="0" width="64" height="64" style="fill:none;"/><g><path d="M53.304,25.338c0,-4.236 -3.013,-7.676 -6.724,-7.676l-28.042,0c-3.711,0 -6.724,3.44 -6.724,7.676c0,4.237 3.013,7.677 6.724,7.677l28.042,0c3.711,0 6.724,-3.44 6.724,-7.677Z" style="fill:#b3b3b3;"/><path d="M46.667,17.662l0.087,0.002l0.086,0.003l0.086,0.005l0.086,0.005l0.085,0.007l0.086,0.008l0.084,0.009l0.085,0.011l0.084,0.012l0.084,0.012l0.084,0.014l0.083,0.015l0.083,0.017l0.083,0.017l0.082,0.019l0.082,0.02l0.081,0.021l0.081,0.022l0.081,0.023l0.08,0.024l0.08,0.025l0.08,0.027l0.079,0.027l0.079,0.029l0.078,0.029l0.078,0.031l0.077,0.032l0.077,0.033l0.077,0.034l0.076,0.035l0.076,0.035l0.075,0.037l0.074,0.038l0.075,0.039l0.073,0.04l0.074,0.041l0.072,0.042l0.073,0.043l0.071,0.044l0.071,0.045l0.071,0.045l0.07,0.047l0.07,0.048l0.069,0.048l0.068,0.05l0.068,0.05l0.068,0.052l0.066,0.052l0.067,0.053l0.065,0.054l0.065,0.055l0.065,0.055l0.063,0.057l0.064,0.057l0.062,0.059l0.062,0.059l0.062,0.06l0.06,0.06l0.06,0.062l0.06,0.062l0.058,0.064l0.058,0.064l0.058,0.064l0.057,0.066l0.056,0.066l0.055,0.067l0.055,0.068l0.053,0.069l0.054,0.069l0.052,0.07l0.052,0.071l0.051,0.071l0.05,0.072l0.05,0.073l0.049,0.074l0.048,0.074l0.047,0.075l0.046,0.075l0.046,0.077l0.045,0.076l0.044,0.078l0.044,0.078l0.042,0.079l0.042,0.08l0.041,0.08l0.04,0.08l0.039,0.082l0.038,0.081l0.038,0.083l0.037,0.083l0.036,0.084l0.035,0.084l0.034,0.084l0.033,0.086l0.032,0.086l0.032,0.086l0.03,0.087l0.03,0.087l0.029,0.088l0.028,0.088l0.027,0.089l0.026,0.09l0.025,0.09l0.024,0.09l0.023,0.091l0.022,0.091l0.021,0.092l0.02,0.092l0.02,0.093l0.018,0.093l0.017,0.093l0.017,0.094l0.015,0.094l0.014,0.095l0.014,0.095l0.012,0.095l0.011,0.096l0.01,0.096l0.009,0.097l0.008,0.097l0.007,0.097l0.006,0.098l0.005,0.098l0.004,0.098l0.003,0.098l0.002,0.099l0,0.099l0,0.1l-0.002,0.098l-0.003,0.099l-0.004,0.098l-0.005,0.098l-0.006,0.098l-0.007,0.097l-0.008,0.097l-0.009,0.096l-0.01,0.097l-0.011,0.095l-0.012,0.096l-0.014,0.095l-0.014,0.095l-0.015,0.094l-0.017,0.094l-0.017,0.093l-0.018,0.093l-0.02,0.093l-0.02,0.092l-0.021,0.092l-0.022,0.091l-0.023,0.091l-0.024,0.09l-0.025,0.09l-0.026,0.089l-0.027,0.089l-0.028,0.089l-0.029,0.088l-0.03,0.087l-0.03,0.087l-0.032,0.086l-0.032,0.086l-0.033,0.085l-0.034,0.085l-0.035,0.084l-0.036,0.084l-0.037,0.083l-0.038,0.082l-0.038,0.082l-0.039,0.081l-0.04,0.081l-0.041,0.08l-0.042,0.08l-0.042,0.079l-0.044,0.078l-0.044,0.077l-0.045,0.077l-0.046,0.076l-0.046,0.076l-0.047,0.075l-0.048,0.074l-0.049,0.074l-0.05,0.073l-0.05,0.072l-0.051,0.071l-0.052,0.071l-0.052,0.07l-0.054,0.069l-0.053,0.069l-0.055,0.068l-0.055,0.067l-0.056,0.066l-0.057,0.065l-0.058,0.065l-0.058,0.064l-0.058,0.063l-0.06,0.063l-0.06,0.061l-0.06,0.061l-0.062,0.06l-0.062,0.059l-0.062,0.058l-0.064,0.058l-0.063,0.056l-0.065,0.056l-0.065,0.055l-0.065,0.054l-0.067,0.053l-0.066,0.052l-0.068,0.051l-0.068,0.051l-0.068,0.049l-0.069,0.049l-0.07,0.048l-0.07,0.046l-0.071,0.046l-0.071,0.045l-0.071,0.044l-0.073,0.043l-0.072,0.042l-0.074,0.04l-0.073,0.04l-0.075,0.039l-0.074,0.038l-0.075,0.037l-0.076,0.036l-0.076,0.035l-0.077,0.034l-0.077,0.033l-0.077,0.032l-0.078,0.03l-0.078,0.03l-0.079,0.029l-0.079,0.027l-0.08,0.026l-0.08,0.026l-0.08,0.024l-0.081,0.023l-0.081,0.022l-0.081,0.021l-0.082,0.02l-0.082,0.018l-0.083,0.018l-0.083,0.016l-0.083,0.015l-0.084,0.014l-0.084,0.013l-0.084,0.012l-0.085,0.01l-0.084,0.009l-0.086,0.009l-0.085,0.006l-0.086,0.006l-0.086,0.004l-0.086,0.003l-0.087,0.002l-0.087,0.001l-28.042,0l-0.087,-0.001l-0.087,-0.002l-0.086,-0.003l-0.086,-0.004l-0.086,-0.006l-0.085,-0.006l-0.085,-0.009l-0.085,-0.009l-0.085,-0.01l-0.084,-0.012l-0.084,-0.013l-0.084,-0.014l-0.083,-0.015l-0.083,-0.016l-0.082,-0.018l-0.083,-0.018l-0.081,-0.02l-0.082,-0.021l-0.081,-0.022l-0.081,-0.023l-0.08,-0.024l-0.08,-0.026l-0.08,-0.026l-0.079,-0.027l-0.078,-0.029l-0.079,-0.03l-0.078,-0.03l-0.077,-0.032l-0.077,-0.033l-0.077,-0.034l-0.076,-0.035l-0.075,-0.036l-0.075,-0.037l-0.075,-0.038l-0.074,-0.039l-0.074,-0.04l-0.073,-0.04l-0.073,-0.042l-0.072,-0.043l-0.072,-0.044l-0.071,-0.045l-0.071,-0.046l-0.07,-0.046l-0.07,-0.048l-0.069,-0.049l-0.068,-0.049l-0.068,-0.051l-0.067,-0.051l-0.067,-0.052l-0.066,-0.053l-0.066,-0.054l-0.065,-0.055l-0.064,-0.056l-0.064,-0.056l-0.063,-0.058l-0.063,-0.058l-0.062,-0.059l-0.061,-0.06l-0.061,-0.061l-0.06,-0.061l-0.059,-0.063l-0.059,-0.063l-0.058,-0.064l-0.058,-0.065l-0.056,-0.065l-0.056,-0.066l-0.056,-0.067l-0.054,-0.068l-0.054,-0.069l-0.053,-0.069l-0.053,-0.07l-0.052,-0.071l-0.051,-0.071l-0.05,-0.072l-0.05,-0.073l-0.048,-0.074l-0.048,-0.074l-0.048,-0.075l-0.046,-0.076l-0.046,-0.076l-0.045,-0.077l-0.044,-0.077l-0.043,-0.078l-0.043,-0.079l-0.042,-0.08l-0.04,-0.08l-0.041,-0.081l-0.039,-0.081l-0.038,-0.082l-0.038,-0.082l-0.037,-0.083l-0.035,-0.084l-0.035,-0.084l-0.034,-0.085l-0.034,-0.085l-0.032,-0.086l-0.032,-0.086l-0.03,-0.087l-0.03,-0.087l-0.029,-0.088l-0.027,-0.089l-0.027,-0.089l-0.026,-0.089l-0.025,-0.09l-0.024,-0.09l-0.024,-0.091l-0.022,-0.091l-0.021,-0.092l-0.02,-0.092l-0.02,-0.093l-0.018,-0.093l-0.017,-0.093l-0.016,-0.094l-0.016,-0.094l-0.014,-0.095l-0.013,-0.095l-0.013,-0.096l-0.011,-0.095l-0.01,-0.097l-0.009,-0.096l-0.008,-0.097l-0.007,-0.097l-0.006,-0.098l-0.005,-0.098l-0.004,-0.098l-0.003,-0.099l-0.001,-0.098l-0.001,-0.1l0.001,-0.099l0.001,-0.099l0.003,-0.098l0.004,-0.098l0.005,-0.098l0.006,-0.098l0.007,-0.097l0.008,-0.097l0.009,-0.097l0.01,-0.096l0.011,-0.096l0.013,-0.095l0.013,-0.095l0.014,-0.095l0.016,-0.094l0.016,-0.094l0.017,-0.093l0.018,-0.093l0.02,-0.093l0.02,-0.092l0.021,-0.092l0.022,-0.091l0.024,-0.091l0.024,-0.09l0.025,-0.09l0.026,-0.09l0.027,-0.089l0.027,-0.088l0.029,-0.088l0.03,-0.087l0.03,-0.087l0.032,-0.086l0.032,-0.086l0.034,-0.086l0.034,-0.084l0.035,-0.084l0.035,-0.084l0.037,-0.083l0.038,-0.083l0.038,-0.081l0.039,-0.082l0.041,-0.08l0.04,-0.08l0.042,-0.08l0.043,-0.079l0.043,-0.078l0.044,-0.078l0.045,-0.076l0.046,-0.077l0.046,-0.075l0.048,-0.075l0.048,-0.074l0.048,-0.074l0.05,-0.073l0.05,-0.072l0.051,-0.071l0.052,-0.071l0.053,-0.07l0.053,-0.069l0.054,-0.069l0.054,-0.068l0.056,-0.067l0.056,-0.066l0.056,-0.066l0.058,-0.064l0.058,-0.064l0.059,-0.064l0.059,-0.062l0.06,-0.062l0.061,-0.06l0.061,-0.06l0.062,-0.059l0.063,-0.059l0.063,-0.057l0.064,-0.057l0.064,-0.055l0.065,-0.055l0.066,-0.054l0.066,-0.053l0.067,-0.052l0.067,-0.052l0.068,-0.05l0.068,-0.05l0.069,-0.048l0.07,-0.048l0.07,-0.047l0.071,-0.045l0.071,-0.045l0.072,-0.044l0.072,-0.043l0.073,-0.042l0.073,-0.041l0.074,-0.04l0.074,-0.039l0.075,-0.038l0.075,-0.037l0.075,-0.035l0.076,-0.035l0.077,-0.034l0.077,-0.033l0.077,-0.032l0.078,-0.031l0.079,-0.029l0.078,-0.029l0.079,-0.027l0.08,-0.027l0.08,-0.025l0.08,-0.024l0.081,-0.023l0.081,-0.022l0.082,-0.021l0.081,-0.02l0.083,-0.019l0.082,-0.017l0.083,-0.017l0.083,-0.015l0.084,-0.014l0.084,-0.012l0.084,-0.012l0.085,-0.011l0.085,-0.009l0.085,-0.008l0.085,-0.007l0.086,-0.005l0.086,-0.005l0.086,-0.003l0.087,-0.002l0.087,0l28.042,0l0.087,0Zm-28.12,2.5l-0.06,0l-0.05,0.001l-0.05,0.002l-0.05,0.003l-0.05,0.003l-0.05,0.004l-0.049,0.005l-0.049,0.005l-0.049,0.006l-0.049,0.007l-0.048,0.007l-0.048,0.008l-0.049,0.009l-0.048,0.009l-0.047,0.01l-0.048,0.011l-0.048,0.012l-0.047,0.012l-0.047,0.013l-0.047,0.013l-0.047,0.014l-0.047,0.015l-0.047,0.016l-0.046,0.016l-0.047,0.017l-0.046,0.017l-0.046,0.018l-0.046,0.019l-0.046,0.02l-0.046,0.02l-0.045,0.021l-0.046,0.021l-0.045,0.023l-0.045,0.023l-0.045,0.023l-0.044,0.024l-0.045,0.025l-0.044,0.026l-0.045,0.026l-0.044,0.027l-0.044,0.028l-0.043,0.028l-0.044,0.029l-0.043,0.03l-0.043,0.03l-0.043,0.031l-0.043,0.032l-0.042,0.032l-0.042,0.033l-0.042,0.034l-0.042,0.034l-0.041,0.035l-0.041,0.035l-0.041,0.037l-0.041,0.037l-0.04,0.037l-0.04,0.038l-0.04,0.039l-0.04,0.04l-0.039,0.04l-0.039,0.041l-0.038,0.041l-0.038,0.042l-0.038,0.043l-0.037,0.043l-0.037,0.044l-0.037,0.044l-0.036,0.045l-0.036,0.046l-0.036,0.046l-0.035,0.047l-0.035,0.047l-0.034,0.048l-0.034,0.049l-0.033,0.049l-0.033,0.05l-0.033,0.05l-0.032,0.051l-0.031,0.051l-0.032,0.052l-0.03,0.052l-0.03,0.053l-0.03,0.054l-0.029,0.054l-0.029,0.055l-0.028,0.055l-0.027,0.055l-0.028,0.056l-0.026,0.057l-0.026,0.057l-0.025,0.057l-0.025,0.058l-0.025,0.058l-0.023,0.059l-0.023,0.06l-0.023,0.059l-0.022,0.061l-0.021,0.06l-0.021,0.062l-0.02,0.061l-0.02,0.062l-0.018,0.062l-0.019,0.063l-0.017,0.063l-0.017,0.064l-0.017,0.064l-0.015,0.064l-0.015,0.065l-0.015,0.065l-0.013,0.066l-0.013,0.065l-0.012,0.067l-0.012,0.066l-0.011,0.067l-0.01,0.067l-0.009,0.068l-0.009,0.068l-0.008,0.068l-0.007,0.069l-0.007,0.069l-0.006,0.069l-0.005,0.07l-0.004,0.069l-0.003,0.071l-0.003,0.07l-0.002,0.071l-0.001,0.071l-0.001,0.071l0.001,0.072l0.001,0.071l0.002,0.071l0.003,0.07l0.003,0.07l0.004,0.07l0.005,0.07l0.006,0.069l0.007,0.069l0.007,0.069l0.008,0.068l0.009,0.068l0.009,0.067l0.01,0.068l0.011,0.067l0.012,0.066l0.012,0.066l0.013,0.066l0.013,0.066l0.015,0.065l0.015,0.064l0.015,0.065l0.017,0.064l0.017,0.063l0.017,0.064l0.019,0.062l0.018,0.063l0.02,0.062l0.02,0.061l0.021,0.061l0.021,0.061l0.022,0.06l0.023,0.06l0.023,0.059l0.023,0.059l0.025,0.059l0.025,0.058l0.025,0.057l0.026,0.057l0.026,0.057l0.028,0.056l0.027,0.055l0.028,0.055l0.029,0.055l0.029,0.054l0.03,0.053l0.03,0.053l0.03,0.053l0.032,0.052l0.031,0.051l0.032,0.051l0.033,0.05l0.033,0.05l0.033,0.049l0.034,0.048l0.034,0.048l0.035,0.048l0.035,0.047l0.036,0.046l0.036,0.046l0.036,0.045l0.037,0.044l0.037,0.044l0.037,0.043l0.038,0.043l0.038,0.042l0.038,0.041l0.039,0.041l0.039,0.04l0.04,0.04l0.04,0.038l0.04,0.039l0.04,0.037l0.041,0.037l0.041,0.036l0.041,0.036l0.041,0.035l0.042,0.034l0.042,0.034l0.042,0.033l0.042,0.032l0.043,0.032l0.043,0.031l0.043,0.03l0.043,0.03l0.044,0.029l0.043,0.028l0.044,0.028l0.044,0.026l0.045,0.027l0.044,0.025l0.045,0.025l0.044,0.025l0.045,0.023l0.045,0.023l0.045,0.022l0.046,0.022l0.045,0.021l0.046,0.02l0.046,0.019l0.046,0.019l0.046,0.019l0.046,0.017l0.047,0.017l0.046,0.016l0.047,0.016l0.047,0.014l0.047,0.015l0.047,0.013l0.047,0.013l0.047,0.012l0.048,0.011l0.048,0.011l0.047,0.01l0.048,0.01l0.049,0.009l0.048,0.008l0.048,0.007l0.049,0.007l0.049,0.006l0.049,0.005l0.049,0.005l0.05,0.004l0.05,0.003l0.05,0.003l0.05,0.001l0.05,0.001l0.06,0.001l28.024,0l0.06,-0.001l0.05,-0.001l0.051,-0.001l0.05,-0.003l0.049,-0.003l0.05,-0.004l0.049,-0.005l0.049,-0.005l0.049,-0.006l0.049,-0.007l0.048,-0.007l0.049,-0.008l0.048,-0.009l0.048,-0.01l0.048,-0.01l0.047,-0.011l0.048,-0.011l0.047,-0.012l0.048,-0.013l0.047,-0.013l0.047,-0.015l0.046,-0.014l0.047,-0.016l0.047,-0.016l0.046,-0.017l0.046,-0.017l0.046,-0.019l0.046,-0.019l0.046,-0.019l0.046,-0.02l0.045,-0.021l0.046,-0.022l0.045,-0.022l0.045,-0.023l0.045,-0.023l0.045,-0.025l0.044,-0.025l0.045,-0.025l0.044,-0.026l0.044,-0.027l0.044,-0.028l0.044,-0.028l0.043,-0.029l0.043,-0.03l0.043,-0.03l0.043,-0.031l0.043,-0.032l0.042,-0.032l0.043,-0.033l0.041,-0.034l0.042,-0.034l0.042,-0.035l0.041,-0.036l0.041,-0.036l0.04,-0.037l0.041,-0.037l0.04,-0.039l0.039,-0.038l0.04,-0.04l0.039,-0.04l0.039,-0.041l0.038,-0.041l0.038,-0.042l0.038,-0.043l0.038,-0.043l0.037,-0.044l0.036,-0.044l0.037,-0.045l0.036,-0.046l0.035,-0.046l0.035,-0.047l0.035,-0.047l0.034,-0.049l0.034,-0.048l0.033,-0.049l0.033,-0.05l0.033,-0.05l0.032,-0.051l0.032,-0.051l0.031,-0.052l0.03,-0.053l0.031,-0.053l0.029,-0.053l0.029,-0.054l0.029,-0.055l0.028,-0.055l0.028,-0.055l0.027,-0.056l0.026,-0.057l0.026,-0.057l0.026,-0.057l0.024,-0.058l0.025,-0.059l0.024,-0.059l0.023,-0.059l0.022,-0.06l0.022,-0.06l0.021,-0.061l0.021,-0.061l0.02,-0.061l0.02,-0.062l0.019,-0.063l0.018,-0.062l0.018,-0.064l0.017,-0.063l0.016,-0.064l0.015,-0.065l0.015,-0.064l0.015,-0.065l0.013,-0.066l0.013,-0.066l0.013,-0.066l0.011,-0.066l0.011,-0.067l0.01,-0.068l0.01,-0.067l0.008,-0.068l0.008,-0.068l0.008,-0.069l0.006,-0.069l0.006,-0.069l0.005,-0.07l0.004,-0.07l0.004,-0.07l0.002,-0.07l0.002,-0.071l0.002,-0.071l0,-0.072l0,-0.071l-0.002,-0.071l-0.002,-0.071l-0.002,-0.07l-0.004,-0.071l-0.004,-0.069l-0.005,-0.07l-0.006,-0.069l-0.006,-0.069l-0.008,-0.069l-0.008,-0.068l-0.008,-0.068l-0.01,-0.068l-0.01,-0.067l-0.011,-0.067l-0.011,-0.066l-0.013,-0.067l-0.013,-0.065l-0.013,-0.066l-0.015,-0.065l-0.015,-0.065l-0.015,-0.064l-0.016,-0.064l-0.017,-0.064l-0.018,-0.063l-0.018,-0.063l-0.019,-0.062l-0.02,-0.062l-0.02,-0.061l-0.021,-0.062l-0.021,-0.06l-0.022,-0.06l-0.022,-0.06l-0.023,-0.06l-0.024,-0.059l-0.025,-0.058l-0.024,-0.058l-0.026,-0.057l-0.026,-0.057l-0.026,-0.057l-0.027,-0.056l-0.028,-0.055l-0.028,-0.056l-0.029,-0.054l-0.029,-0.054l-0.029,-0.054l-0.031,-0.052l-0.03,-0.053l-0.031,-0.052l-0.032,-0.051l-0.032,-0.051l-0.033,-0.05l-0.033,-0.05l-0.033,-0.049l-0.034,-0.049l-0.034,-0.048l-0.035,-0.047l-0.035,-0.047l-0.035,-0.046l-0.036,-0.046l-0.037,-0.045l-0.036,-0.044l-0.037,-0.044l-0.038,-0.043l-0.038,-0.043l-0.038,-0.042l-0.038,-0.042l-0.039,-0.04l-0.039,-0.04l-0.04,-0.04l-0.039,-0.039l-0.04,-0.038l-0.041,-0.037l-0.04,-0.037l-0.041,-0.037l-0.041,-0.035l-0.042,-0.035l-0.042,-0.034l-0.041,-0.034l-0.043,-0.033l-0.042,-0.032l-0.043,-0.032l-0.043,-0.031l-0.043,-0.03l-0.043,-0.03l-0.043,-0.029l-0.044,-0.028l-0.044,-0.028l-0.044,-0.027l-0.044,-0.026l-0.045,-0.026l-0.044,-0.025l-0.045,-0.024l-0.045,-0.023l-0.045,-0.023l-0.045,-0.023l-0.046,-0.021l-0.045,-0.021l-0.046,-0.02l-0.046,-0.02l-0.046,-0.019l-0.046,-0.018l-0.046,-0.017l-0.046,-0.017l-0.047,-0.016l-0.047,-0.016l-0.046,-0.015l-0.047,-0.014l-0.047,-0.013l-0.048,-0.013l-0.047,-0.012l-0.048,-0.012l-0.047,-0.011l-0.048,-0.01l-0.048,-0.009l-0.048,-0.009l-0.049,-0.008l-0.048,-0.007l-0.049,-0.007l-0.049,-0.006l-0.049,-0.005l-0.049,-0.005l-0.05,-0.004l-0.049,-0.003l-0.05,-0.003l-0.051,-0.002l-0.05,-0.001l-0.06,0l-28.024,0Z" style="fill:#4b4b4b;"/><path d="M60.028,38.662c0,-4.237 -3.013,-7.677 -6.724,-7.677l-42.608,0c-3.711,0 -6.724,3.44 -6.724,7.677c0,4.236 3.013,7.676 6.724,7.676l42.608,0c3.711,0 6.724,-3.44 6.724,-7.676Z" style="fill:#b3b3b3;"/><path d="M53.391,30.986l0.086,0.002l0.087,0.003l0.086,0.004l0.086,0.006l0.085,0.006l0.085,0.009l0.085,0.009l0.085,0.01l0.084,0.012l0.084,0.013l0.083,0.014l0.084,0.015l0.083,0.016l0.082,0.018l0.082,0.018l0.082,0.02l0.082,0.021l0.081,0.022l0.081,0.023l0.08,0.024l0.08,0.026l0.079,0.026l0.08,0.027l0.078,0.029l0.079,0.03l0.077,0.03l0.078,0.032l0.077,0.033l0.076,0.034l0.077,0.035l0.075,0.036l0.075,0.037l0.075,0.038l0.074,0.039l0.074,0.04l0.073,0.04l0.073,0.042l0.072,0.043l0.072,0.044l0.071,0.045l0.071,0.046l0.07,0.046l0.069,0.048l0.069,0.049l0.069,0.049l0.068,0.051l0.067,0.051l0.067,0.052l0.066,0.053l0.066,0.054l0.065,0.055l0.064,0.056l0.064,0.056l0.063,0.058l0.063,0.058l0.062,0.059l0.061,0.06l0.061,0.061l0.06,0.061l0.059,0.063l0.059,0.063l0.058,0.064l0.057,0.065l0.057,0.065l0.056,0.066l0.056,0.067l0.054,0.068l0.054,0.069l0.053,0.069l0.053,0.07l0.052,0.071l0.051,0.071l0.05,0.072l0.049,0.073l0.049,0.074l0.048,0.074l0.048,0.075l0.046,0.076l0.046,0.076l0.045,0.077l0.044,0.077l0.043,0.078l0.043,0.079l0.041,0.08l0.041,0.08l0.04,0.081l0.04,0.081l0.038,0.082l0.038,0.082l0.036,0.083l0.036,0.084l0.035,0.084l0.034,0.085l0.034,0.085l0.032,0.086l0.031,0.086l0.031,0.087l0.03,0.087l0.028,0.088l0.028,0.089l0.027,0.089l0.026,0.089l0.025,0.09l0.024,0.09l0.023,0.091l0.023,0.091l0.021,0.092l0.02,0.092l0.019,0.093l0.019,0.093l0.017,0.093l0.016,0.094l0.016,0.094l0.014,0.095l0.013,0.095l0.012,0.096l0.012,0.095l0.01,0.097l0.009,0.096l0.008,0.097l0.007,0.097l0.006,0.098l0.005,0.098l0.004,0.098l0.002,0.099l0.002,0.098l0.001,0.1l-0.001,0.099l-0.002,0.099l-0.002,0.098l-0.004,0.098l-0.005,0.098l-0.006,0.098l-0.007,0.097l-0.008,0.097l-0.009,0.097l-0.01,0.096l-0.012,0.096l-0.012,0.095l-0.013,0.095l-0.014,0.095l-0.016,0.094l-0.016,0.094l-0.017,0.093l-0.019,0.093l-0.019,0.093l-0.02,0.092l-0.021,0.092l-0.023,0.091l-0.023,0.091l-0.024,0.09l-0.025,0.09l-0.026,0.09l-0.027,0.089l-0.028,0.088l-0.028,0.088l-0.03,0.087l-0.031,0.087l-0.031,0.086l-0.032,0.086l-0.034,0.086l-0.034,0.084l-0.035,0.084l-0.036,0.084l-0.036,0.083l-0.038,0.083l-0.038,0.081l-0.04,0.082l-0.04,0.08l-0.041,0.08l-0.041,0.08l-0.043,0.079l-0.043,0.078l-0.044,0.078l-0.045,0.076l-0.046,0.077l-0.046,0.075l-0.048,0.075l-0.048,0.074l-0.049,0.074l-0.049,0.073l-0.05,0.072l-0.051,0.071l-0.052,0.071l-0.053,0.07l-0.053,0.069l-0.054,0.069l-0.054,0.068l-0.056,0.067l-0.056,0.066l-0.057,0.066l-0.057,0.064l-0.058,0.064l-0.059,0.064l-0.059,0.062l-0.06,0.062l-0.061,0.06l-0.061,0.06l-0.062,0.059l-0.063,0.059l-0.063,0.057l-0.064,0.057l-0.064,0.055l-0.065,0.055l-0.066,0.054l-0.066,0.053l-0.067,0.052l-0.067,0.052l-0.068,0.05l-0.069,0.05l-0.069,0.048l-0.069,0.048l-0.07,0.047l-0.071,0.045l-0.071,0.045l-0.072,0.044l-0.072,0.043l-0.073,0.042l-0.073,0.041l-0.074,0.04l-0.074,0.039l-0.075,0.038l-0.075,0.037l-0.075,0.035l-0.077,0.035l-0.076,0.034l-0.077,0.033l-0.078,0.032l-0.077,0.031l-0.079,0.029l-0.078,0.029l-0.08,0.027l-0.079,0.027l-0.08,0.025l-0.08,0.024l-0.081,0.023l-0.081,0.022l-0.082,0.021l-0.082,0.02l-0.082,0.019l-0.082,0.017l-0.083,0.017l-0.084,0.015l-0.083,0.014l-0.084,0.012l-0.084,0.012l-0.085,0.011l-0.085,0.009l-0.085,0.008l-0.085,0.007l-0.086,0.005l-0.086,0.005l-0.087,0.003l-0.086,0.002l-0.087,0l-42.608,0l-0.087,0l-0.086,-0.002l-0.087,-0.003l-0.086,-0.005l-0.086,-0.005l-0.085,-0.007l-0.085,-0.008l-0.085,-0.009l-0.085,-0.011l-0.084,-0.012l-0.084,-0.012l-0.083,-0.014l-0.084,-0.015l-0.083,-0.017l-0.082,-0.017l-0.082,-0.019l-0.082,-0.02l-0.082,-0.021l-0.081,-0.022l-0.081,-0.023l-0.08,-0.024l-0.08,-0.025l-0.079,-0.027l-0.08,-0.027l-0.078,-0.029l-0.079,-0.029l-0.077,-0.031l-0.078,-0.032l-0.077,-0.033l-0.076,-0.034l-0.077,-0.035l-0.075,-0.035l-0.075,-0.037l-0.075,-0.038l-0.074,-0.039l-0.074,-0.04l-0.073,-0.041l-0.073,-0.042l-0.072,-0.043l-0.072,-0.044l-0.071,-0.045l-0.071,-0.045l-0.07,-0.047l-0.069,-0.048l-0.069,-0.048l-0.069,-0.05l-0.068,-0.05l-0.067,-0.052l-0.067,-0.052l-0.066,-0.053l-0.066,-0.054l-0.065,-0.055l-0.064,-0.055l-0.064,-0.057l-0.063,-0.057l-0.063,-0.059l-0.062,-0.059l-0.061,-0.06l-0.061,-0.06l-0.06,-0.062l-0.059,-0.062l-0.059,-0.064l-0.058,-0.064l-0.057,-0.064l-0.057,-0.066l-0.056,-0.066l-0.056,-0.067l-0.054,-0.068l-0.054,-0.069l-0.053,-0.069l-0.053,-0.07l-0.052,-0.071l-0.051,-0.071l-0.05,-0.072l-0.049,-0.073l-0.049,-0.074l-0.048,-0.074l-0.048,-0.075l-0.046,-0.075l-0.046,-0.077l-0.045,-0.076l-0.044,-0.078l-0.043,-0.078l-0.043,-0.079l-0.041,-0.08l-0.041,-0.08l-0.04,-0.08l-0.04,-0.082l-0.038,-0.081l-0.038,-0.083l-0.036,-0.083l-0.036,-0.084l-0.035,-0.084l-0.034,-0.084l-0.034,-0.086l-0.032,-0.086l-0.031,-0.086l-0.031,-0.087l-0.03,-0.087l-0.028,-0.088l-0.028,-0.088l-0.027,-0.089l-0.026,-0.09l-0.025,-0.09l-0.024,-0.09l-0.023,-0.091l-0.023,-0.091l-0.021,-0.092l-0.02,-0.092l-0.019,-0.093l-0.019,-0.093l-0.017,-0.093l-0.016,-0.094l-0.016,-0.094l-0.014,-0.095l-0.013,-0.095l-0.012,-0.095l-0.012,-0.096l-0.01,-0.096l-0.009,-0.097l-0.008,-0.097l-0.007,-0.097l-0.006,-0.098l-0.005,-0.098l-0.004,-0.098l-0.002,-0.098l-0.002,-0.099l-0.001,-0.099l0.001,-0.1l0.002,-0.098l0.002,-0.099l0.004,-0.098l0.005,-0.098l0.006,-0.098l0.007,-0.097l0.008,-0.097l0.009,-0.096l0.01,-0.097l0.012,-0.095l0.012,-0.096l0.013,-0.095l0.014,-0.095l0.016,-0.094l0.016,-0.094l0.017,-0.093l0.019,-0.093l0.019,-0.093l0.02,-0.092l0.021,-0.092l0.023,-0.091l0.023,-0.091l0.024,-0.09l0.025,-0.09l0.026,-0.089l0.027,-0.089l0.028,-0.089l0.028,-0.088l0.03,-0.087l0.031,-0.087l0.031,-0.086l0.032,-0.086l0.034,-0.085l0.034,-0.085l0.035,-0.084l0.036,-0.084l0.036,-0.083l0.038,-0.082l0.038,-0.082l0.04,-0.081l0.04,-0.081l0.041,-0.08l0.041,-0.08l0.043,-0.079l0.043,-0.078l0.044,-0.077l0.045,-0.077l0.046,-0.076l0.046,-0.076l0.048,-0.075l0.048,-0.074l0.049,-0.074l0.049,-0.073l0.05,-0.072l0.051,-0.071l0.052,-0.071l0.053,-0.07l0.053,-0.069l0.054,-0.069l0.054,-0.068l0.056,-0.067l0.056,-0.066l0.057,-0.065l0.057,-0.065l0.058,-0.064l0.059,-0.063l0.059,-0.063l0.06,-0.061l0.061,-0.061l0.061,-0.06l0.062,-0.059l0.063,-0.058l0.063,-0.058l0.064,-0.056l0.064,-0.056l0.065,-0.055l0.066,-0.054l0.066,-0.053l0.067,-0.052l0.067,-0.051l0.068,-0.051l0.069,-0.049l0.069,-0.049l0.069,-0.048l0.07,-0.046l0.071,-0.046l0.071,-0.045l0.072,-0.044l0.072,-0.043l0.073,-0.042l0.073,-0.04l0.074,-0.04l0.074,-0.039l0.075,-0.038l0.075,-0.037l0.075,-0.036l0.077,-0.035l0.076,-0.034l0.077,-0.033l0.078,-0.032l0.077,-0.03l0.079,-0.03l0.078,-0.029l0.08,-0.027l0.079,-0.026l0.08,-0.026l0.08,-0.024l0.081,-0.023l0.081,-0.022l0.082,-0.021l0.082,-0.02l0.082,-0.018l0.082,-0.018l0.083,-0.016l0.084,-0.015l0.083,-0.014l0.084,-0.013l0.084,-0.012l0.085,-0.01l0.085,-0.009l0.085,-0.009l0.085,-0.006l0.086,-0.006l0.086,-0.004l0.087,-0.003l0.086,-0.002l0.087,-0.001l42.608,0l0.087,0.001Zm-42.686,2.499l-0.06,0.001l-0.05,0.001l-0.05,0.001l-0.05,0.003l-0.05,0.003l-0.049,0.004l-0.05,0.005l-0.049,0.005l-0.049,0.006l-0.048,0.007l-0.049,0.007l-0.048,0.008l-0.048,0.009l-0.048,0.01l-0.048,0.01l-0.048,0.011l-0.048,0.011l-0.047,0.012l-0.047,0.013l-0.047,0.013l-0.047,0.015l-0.047,0.014l-0.047,0.016l-0.046,0.016l-0.047,0.017l-0.046,0.017l-0.046,0.019l-0.046,0.019l-0.046,0.019l-0.045,0.02l-0.046,0.021l-0.045,0.022l-0.046,0.022l-0.045,0.023l-0.045,0.023l-0.044,0.025l-0.045,0.025l-0.044,0.025l-0.045,0.026l-0.044,0.027l-0.044,0.028l-0.043,0.028l-0.044,0.029l-0.043,0.03l-0.043,0.03l-0.043,0.031l-0.043,0.032l-0.042,0.032l-0.042,0.033l-0.042,0.034l-0.042,0.034l-0.041,0.035l-0.041,0.036l-0.041,0.036l-0.041,0.037l-0.04,0.037l-0.04,0.039l-0.04,0.038l-0.04,0.04l-0.039,0.04l-0.038,0.041l-0.039,0.041l-0.038,0.042l-0.038,0.043l-0.037,0.043l-0.037,0.044l-0.037,0.044l-0.036,0.045l-0.036,0.046l-0.036,0.046l-0.035,0.047l-0.035,0.048l-0.034,0.048l-0.034,0.048l-0.033,0.049l-0.033,0.05l-0.033,0.05l-0.032,0.051l-0.031,0.051l-0.031,0.052l-0.031,0.053l-0.03,0.053l-0.03,0.053l-0.029,0.054l-0.029,0.055l-0.028,0.055l-0.027,0.055l-0.027,0.056l-0.027,0.057l-0.026,0.057l-0.025,0.057l-0.025,0.058l-0.024,0.059l-0.024,0.059l-0.023,0.059l-0.023,0.06l-0.022,0.06l-0.021,0.061l-0.021,0.061l-0.02,0.061l-0.019,0.062l-0.019,0.063l-0.019,0.062l-0.017,0.064l-0.017,0.063l-0.016,0.064l-0.016,0.064l-0.015,0.065l-0.014,0.065l-0.014,0.066l-0.013,0.066l-0.012,0.066l-0.012,0.066l-0.011,0.067l-0.01,0.068l-0.009,0.067l-0.009,0.068l-0.008,0.068l-0.007,0.069l-0.007,0.069l-0.006,0.069l-0.005,0.07l-0.004,0.07l-0.003,0.07l-0.003,0.07l-0.002,0.071l-0.001,0.071l-0.001,0.072l0.001,0.071l0.001,0.071l0.002,0.071l0.003,0.07l0.003,0.071l0.004,0.069l0.005,0.07l0.006,0.069l0.007,0.069l0.007,0.069l0.008,0.068l0.009,0.068l0.009,0.068l0.01,0.067l0.011,0.067l0.012,0.066l0.012,0.067l0.013,0.065l0.014,0.066l0.014,0.065l0.015,0.065l0.016,0.064l0.016,0.064l0.017,0.064l0.017,0.063l0.019,0.063l0.019,0.062l0.019,0.062l0.02,0.061l0.021,0.062l0.021,0.06l0.022,0.06l0.023,0.06l0.023,0.06l0.024,0.058l0.024,0.059l0.025,0.058l0.025,0.057l0.026,0.057l0.027,0.057l0.027,0.056l0.027,0.055l0.028,0.055l0.029,0.055l0.029,0.054l0.03,0.054l0.03,0.052l0.031,0.053l0.031,0.052l0.031,0.051l0.032,0.051l0.033,0.05l0.033,0.05l0.033,0.049l0.034,0.049l0.034,0.048l0.035,0.047l0.035,0.047l0.036,0.046l0.036,0.046l0.036,0.045l0.037,0.044l0.037,0.044l0.037,0.043l0.038,0.043l0.038,0.042l0.039,0.042l0.038,0.04l0.039,0.04l0.04,0.04l0.04,0.039l0.04,0.038l0.04,0.037l0.041,0.037l0.041,0.037l0.041,0.035l0.041,0.035l0.042,0.034l0.042,0.034l0.042,0.033l0.042,0.032l0.043,0.032l0.043,0.031l0.043,0.03l0.043,0.03l0.044,0.029l0.043,0.028l0.044,0.028l0.044,0.027l0.045,0.026l0.044,0.026l0.045,0.025l0.044,0.024l0.045,0.023l0.045,0.023l0.046,0.023l0.045,0.021l0.046,0.021l0.045,0.02l0.046,0.02l0.046,0.019l0.046,0.018l0.046,0.017l0.047,0.017l0.046,0.016l0.047,0.016l0.047,0.015l0.047,0.014l0.047,0.013l0.047,0.013l0.047,0.012l0.048,0.012l0.048,0.011l0.048,0.01l0.048,0.009l0.048,0.009l0.048,0.008l0.049,0.007l0.048,0.007l0.049,0.006l0.049,0.005l0.05,0.005l0.049,0.004l0.05,0.003l0.05,0.003l0.05,0.002l0.05,0.001l0.06,0l42.59,0l0.06,0l0.05,-0.001l0.05,-0.002l0.05,-0.003l0.05,-0.003l0.049,-0.004l0.05,-0.005l0.049,-0.005l0.049,-0.006l0.048,-0.007l0.049,-0.007l0.048,-0.008l0.048,-0.009l0.049,-0.009l0.047,-0.01l0.048,-0.011l0.048,-0.012l0.047,-0.012l0.047,-0.013l0.047,-0.013l0.047,-0.014l0.047,-0.015l0.047,-0.016l0.046,-0.016l0.047,-0.017l0.046,-0.017l0.046,-0.018l0.046,-0.019l0.046,-0.02l0.045,-0.02l0.046,-0.021l0.045,-0.021l0.046,-0.023l0.045,-0.023l0.045,-0.023l0.044,-0.024l0.045,-0.025l0.044,-0.026l0.045,-0.026l0.044,-0.027l0.044,-0.028l0.043,-0.028l0.044,-0.029l0.043,-0.03l0.043,-0.03l0.043,-0.031l0.043,-0.032l0.042,-0.032l0.042,-0.033l0.042,-0.034l0.042,-0.034l0.041,-0.035l0.041,-0.035l0.041,-0.037l0.041,-0.037l0.04,-0.037l0.04,-0.038l0.04,-0.039l0.04,-0.04l0.039,-0.04l0.038,-0.04l0.039,-0.042l0.038,-0.042l0.038,-0.043l0.037,-0.043l0.037,-0.044l0.037,-0.044l0.036,-0.045l0.036,-0.046l0.036,-0.046l0.035,-0.047l0.035,-0.047l0.034,-0.048l0.034,-0.049l0.033,-0.049l0.033,-0.05l0.033,-0.05l0.032,-0.051l0.031,-0.051l0.031,-0.052l0.031,-0.053l0.03,-0.052l0.03,-0.054l0.029,-0.054l0.029,-0.055l0.028,-0.055l0.027,-0.055l0.027,-0.056l0.027,-0.057l0.026,-0.057l0.025,-0.057l0.025,-0.058l0.024,-0.059l0.024,-0.059l0.023,-0.059l0.023,-0.06l0.022,-0.06l0.021,-0.06l0.021,-0.062l0.02,-0.061l0.019,-0.062l0.019,-0.062l0.019,-0.063l0.017,-0.063l0.017,-0.064l0.016,-0.064l0.016,-0.064l0.015,-0.065l0.014,-0.065l0.014,-0.066l0.013,-0.065l0.012,-0.066l0.012,-0.067l0.011,-0.067l0.01,-0.067l0.009,-0.068l0.009,-0.068l0.008,-0.068l0.007,-0.069l0.007,-0.069l0.006,-0.069l0.005,-0.07l0.004,-0.069l0.003,-0.071l0.003,-0.07l0.002,-0.071l0.001,-0.071l0.001,-0.071l-0.001,-0.072l-0.001,-0.071l-0.002,-0.071l-0.003,-0.07l-0.003,-0.07l-0.004,-0.07l-0.005,-0.07l-0.006,-0.069l-0.007,-0.069l-0.007,-0.069l-0.008,-0.068l-0.009,-0.068l-0.009,-0.067l-0.01,-0.068l-0.011,-0.067l-0.012,-0.066l-0.012,-0.066l-0.013,-0.066l-0.014,-0.066l-0.014,-0.065l-0.015,-0.064l-0.016,-0.065l-0.016,-0.064l-0.017,-0.063l-0.017,-0.064l-0.019,-0.062l-0.019,-0.063l-0.019,-0.062l-0.02,-0.061l-0.021,-0.061l-0.021,-0.061l-0.022,-0.06l-0.023,-0.06l-0.023,-0.059l-0.024,-0.059l-0.024,-0.059l-0.025,-0.058l-0.025,-0.057l-0.026,-0.057l-0.027,-0.057l-0.027,-0.056l-0.027,-0.055l-0.028,-0.055l-0.029,-0.055l-0.029,-0.054l-0.03,-0.053l-0.03,-0.053l-0.031,-0.053l-0.031,-0.052l-0.031,-0.051l-0.032,-0.051l-0.033,-0.05l-0.033,-0.05l-0.033,-0.049l-0.034,-0.048l-0.034,-0.048l-0.035,-0.048l-0.035,-0.047l-0.036,-0.046l-0.036,-0.046l-0.036,-0.045l-0.037,-0.044l-0.037,-0.044l-0.037,-0.043l-0.038,-0.043l-0.038,-0.042l-0.039,-0.041l-0.038,-0.041l-0.039,-0.04l-0.04,-0.04l-0.04,-0.038l-0.04,-0.039l-0.04,-0.037l-0.041,-0.037l-0.041,-0.036l-0.041,-0.036l-0.041,-0.035l-0.042,-0.034l-0.042,-0.034l-0.042,-0.033l-0.042,-0.032l-0.043,-0.032l-0.043,-0.031l-0.043,-0.03l-0.043,-0.03l-0.044,-0.029l-0.043,-0.028l-0.044,-0.028l-0.044,-0.027l-0.045,-0.026l-0.044,-0.025l-0.045,-0.025l-0.044,-0.025l-0.045,-0.023l-0.045,-0.023l-0.046,-0.022l-0.045,-0.022l-0.045,-0.021l-0.046,-0.02l-0.046,-0.019l-0.046,-0.019l-0.046,-0.019l-0.046,-0.017l-0.047,-0.017l-0.046,-0.016l-0.047,-0.016l-0.047,-0.014l-0.047,-0.015l-0.047,-0.013l-0.047,-0.013l-0.047,-0.012l-0.048,-0.011l-0.048,-0.011l-0.047,-0.01l-0.049,-0.01l-0.048,-0.009l-0.048,-0.008l-0.049,-0.007l-0.048,-0.007l-0.049,-0.006l-0.049,-0.005l-0.05,-0.005l-0.049,-0.004l-0.05,-0.003l-0.05,-0.003l-0.05,-0.001l-0.05,-0.001l-0.06,-0.001l-42.59,0Z" style="fill:#4b4b4b;"/><g><ellipse cx="46.58" cy="25.338" rx="6.724" ry="7.677" style="fill:#313131;"/><ellipse cx="39.857" cy="38.662" rx="6.724" ry="7.677" style="fill:#313131;"/><ellipse cx="53.304" cy="38.662" rx="6.724" ry="7.677" style="fill:#313131;"/></g></g></svg>
