<?xml version="1.0" encoding="UTF-8" standalone="no"?><!DOCTYPE svg PUBLIC "-//W3C//DTD SVG 1.1//EN" "http://www.w3.org/Graphics/SVG/1.1/DTD/svg11.dtd"><svg width="64" height="64" viewBox="0 0 64 64" version="1.1" xmlns="http://www.w3.org/2000/svg" xmlns:xlink="http://www.w3.org/1999/xlink" xml:space="preserve" xmlns:serif="http://www.serif.com/" style="fill-rule:evenodd;clip-rule:evenodd;stroke-linejoin:round;stroke-miterlimit:1.41421;"><rect id="missile" x="0" y="0" width="64" height="64" style="fill:none;"/><path d="M34.899,21.775l5.753,-5.753l7.071,7.071l-5.753,5.753l-2.719,15.447l-6.364,-6.364l-8.485,8.485l0.707,9.193l-2.828,2.828l-4.95,-4.95l-0.721,0.721l-3.168,-0.367l-3.536,-3.535l-0.367,-3.169l0.721,-0.721l-4.95,-4.949l2.828,-2.829l9.193,0.707l8.485,-8.485l-6.364,-6.364l15.447,-2.719Zm15.653,-1.51l-2.122,2.121l-7.071,-7.071l2.121,-2.121l8.846,-1.775l-1.774,8.846Z" style="fill:#fff;"/></svg>
