<?xml version="1.0" encoding="UTF-8" standalone="no"?><!DOCTYPE svg PUBLIC "-//W3C//DTD SVG 1.1//EN" "http://www.w3.org/Graphics/SVG/1.1/DTD/svg11.dtd"><svg width="64" height="64" viewBox="0 0 64 64" version="1.1" xmlns="http://www.w3.org/2000/svg" xmlns:xlink="http://www.w3.org/1999/xlink" xml:space="preserve" xmlns:serif="http://www.serif.com/" style="fill-rule:evenodd;clip-rule:evenodd;stroke-linejoin:round;stroke-miterlimit:1.41421;"><rect id="nuke" x="0" y="0" width="64" height="64" style="fill:none;"/><path d="M37.421,41.389l8.579,14.86c-8.65,4.994 -19.306,5.002 -27.964,0.021l8.557,-14.873c1.591,0.922 3.438,1.448 5.407,1.448c1.976,0 3.828,-0.53 5.421,-1.456Zm-5.421,-17.078c4.244,0 7.689,3.445 7.689,7.689c0,4.244 -3.445,7.689 -7.689,7.689c-4.244,0 -7.689,-3.445 -7.689,-7.689c0,-4.244 3.445,-7.689 7.689,-7.689Zm5.435,-1.692l8.601,-14.847c8.643,5.007 13.964,14.239 13.964,24.228l-17.155,0c-0.006,-4.009 -2.18,-7.507 -5.41,-9.381Zm-10.87,0c-3.229,1.871 -5.405,5.368 -5.41,9.381l-17.155,0c0,-9.989 5.321,-19.221 13.964,-24.228l8.601,14.847Z" style="fill:#fff;"/></svg>
