<?xml version="1.0" encoding="UTF-8" standalone="no"?><!DOCTYPE svg PUBLIC "-//W3C//DTD SVG 1.1//EN" "http://www.w3.org/Graphics/SVG/1.1/DTD/svg11.dtd"><svg width="64" height="64" viewBox="0 0 64 64" version="1.1" xmlns="http://www.w3.org/2000/svg" xmlns:xlink="http://www.w3.org/1999/xlink" xml:space="preserve" xmlns:serif="http://www.serif.com/" style="fill-rule:evenodd;clip-rule:evenodd;stroke-linecap:round;stroke-linejoin:round;stroke-miterlimit:1.5;"><rect id="oil" x="0" y="0" width="64" height="64" style="fill:none;"/><path d="M32,4.644c0,0 -15.598,27.38 -15.598,39.114c0,8.609 6.989,15.598 15.598,15.598c8.609,0 15.598,-6.989 15.598,-15.598c0,-11.734 -15.598,-39.114 -15.598,-39.114Z" style="fill:none;stroke:#fff;stroke-opacity:0.501961;stroke-width:8.5px;"/><path d="M32,4.644c0,0 -15.598,27.38 -15.598,39.114c0,8.609 6.989,15.598 15.598,15.598c8.609,0 15.598,-6.989 15.598,-15.598c0,-11.734 -15.598,-39.114 -15.598,-39.114Z" style="fill:#040404;"/><path d="M36.429,20.531c0.856,28.668 -11.739,17.361 -11.739,26.67c0,4.314 4.275,7.528 10.31,5.92c4.168,-1.111 7.171,-3.551 7.816,-7.816c1.18,-7.813 -4.687,-21.565 -6.387,-24.774Z" style="fill:url(#_Linear1);"/><defs><linearGradient id="_Linear1" x1="0" y1="0" x2="1" y2="0" gradientUnits="userSpaceOnUse" gradientTransform="matrix(2.07513e-15,33.8894,-33.8894,2.07513e-15,36.8489,20.205)"><stop offset="0" style="stop-color:#fff;stop-opacity:0"/><stop offset="1" style="stop-color:#fff1f1;stop-opacity:0.193643"/></linearGradient></defs></svg>
