<?xml version="1.0" encoding="UTF-8" standalone="no"?><!DOCTYPE svg PUBLIC "-//W3C//DTD SVG 1.1//EN" "http://www.w3.org/Graphics/SVG/1.1/DTD/svg11.dtd"><svg width="64" height="64" viewBox="0 0 64 64" version="1.1" xmlns="http://www.w3.org/2000/svg" xmlns:xlink="http://www.w3.org/1999/xlink" xml:space="preserve" xmlns:serif="http://www.serif.com/" style="fill-rule:evenodd;clip-rule:evenodd;stroke-linejoin:round;stroke-miterlimit:1.41421;"><rect id="sniper" x="0" y="0" width="64" height="64" style="fill:none;"/><path d="M32,9c12.694,0 23,10.306 23,23c0,12.694 -10.306,23 -23,23c-12.694,0 -23,-10.306 -23,-23c0,-12.694 10.306,-23 23,-23Zm0,6c9.383,0 17,7.617 17,17c0,9.383 -7.617,17 -17,17c-9.383,0 -17,-7.617 -17,-17c0,-9.383 7.617,-17 17,-17Z" style="fill:#fff;"/><path d="M29,42l6,0l0,19l-6,0l0,-19Zm32,-13l0,6l-19,0l0,-6l19,0Zm-39,6l-19,0l0,-6l19,0l0,6Zm13,-13l-6,0l0,-19l6,0l0,19Z" style="fill:#fff;"/></svg>
