<?xml version="1.0" encoding="UTF-8" standalone="no"?><!DOCTYPE svg PUBLIC "-//W3C//DTD SVG 1.1//EN" "http://www.w3.org/Graphics/SVG/1.1/DTD/svg11.dtd"><svg width="64" height="64" viewBox="0 0 64 64" version="1.1" xmlns="http://www.w3.org/2000/svg" xmlns:xlink="http://www.w3.org/1999/xlink" xml:space="preserve" xmlns:serif="http://www.serif.com/" style="fill-rule:evenodd;clip-rule:evenodd;stroke-linejoin:round;stroke-miterlimit:1.41421;"><rect id="teleport" x="0" y="0" width="64" height="64" style="fill:none;"/><path d="M32,4c15.454,0 28,12.546 28,28c0,15.454 -12.546,28 -28,28c-15.454,0 -28,-12.546 -28,-28c0,-15.454 12.546,-28 28,-28Zm0,8c11.038,0 20,8.962 20,20c0,11.038 -8.962,20 -20,20c-11.038,0 -20,-8.962 -20,-20c0,-11.038 8.962,-20 20,-20Z" style="fill:#fff;"/><path d="M32,12c11.038,0 20,8.962 20,20c0,11.038 -8.962,20 -20,20c-11.038,0 -20,-8.962 -20,-20c0,-11.038 8.962,-20 20,-20Zm0,8c6.623,0 12,5.377 12,12c0,6.623 -5.377,12 -12,12c-6.623,0 -12,-5.377 -12,-12c0,-6.623 5.377,-12 12,-12Z" style="fill:#fff;fill-opacity:0.65;"/><circle cx="32" cy="32" r="12" style="fill:#fff;fill-opacity:0.3;"/></svg>
