<?xml version="1.0" encoding="UTF-8" standalone="no"?><!DOCTYPE svg PUBLIC "-//W3C//DTD SVG 1.1//EN" "http://www.w3.org/Graphics/SVG/1.1/DTD/svg11.dtd"><svg width="64" height="64" viewBox="0 0 64 64" version="1.1" xmlns="http://www.w3.org/2000/svg" xmlns:xlink="http://www.w3.org/1999/xlink" xml:space="preserve" xmlns:serif="http://www.serif.com/" style="fill-rule:evenodd;clip-rule:evenodd;stroke-linejoin:round;stroke-miterlimit:1.41421;"><rect id="uranium" x="0" y="0" width="64" height="64" style="fill:none;"/><clipPath id="_clip1"><rect x="0" y="0" width="64" height="64"/></clipPath><g clip-path="url(#_clip1)"><path d="M38.195,42.73l9.805,16.983c-9.886,5.708 -22.064,5.717 -31.959,0.024l9.78,-16.997c1.818,1.053 3.929,1.654 6.179,1.654c2.258,0 4.375,-0.605 6.195,-1.664Zm-6.195,-19.518c4.85,0 8.788,3.938 8.788,8.788c0,4.85 -3.938,8.788 -8.788,8.788c-4.85,0 -8.788,-3.938 -8.788,-8.788c0,-4.85 3.938,-8.788 8.788,-8.788Zm6.211,-1.933l9.83,-16.968c9.878,5.722 15.959,16.273 15.959,27.689l-19.606,0c-0.006,-4.581 -2.491,-8.579 -6.183,-10.721Zm-12.422,0c-3.691,2.139 -6.178,6.134 -6.183,10.721l-19.606,0c0,-11.416 6.081,-21.967 15.959,-27.689l9.83,16.968Z" style="fill:#ebd820;"/></g></svg>
