<?xml version="1.0" encoding="UTF-8" standalone="no"?><!DOCTYPE svg PUBLIC "-//W3C//DTD SVG 1.1//EN" "http://www.w3.org/Graphics/SVG/1.1/DTD/svg11.dtd"><svg width="32" height="32" viewBox="0 0 32 32" version="1.1" xmlns="http://www.w3.org/2000/svg" xmlns:xlink="http://www.w3.org/1999/xlink" xml:space="preserve" xmlns:serif="http://www.serif.com/" style="fill-rule:evenodd;clip-rule:evenodd;stroke-linejoin:round;stroke-miterlimit:1.41421;"><rect id="cloud-1" x="0" y="0" width="32" height="32" style="fill:none;"/><path d="M7.602,10.479c1.74,-2.668 4.723,-4.456 8.142,-4.529c3.419,-0.072 6.474,1.59 8.325,4.182c4.109,0.127 7.445,3.463 7.533,7.623c0.091,4.306 -3.331,7.875 -7.636,7.966c-1.318,0.028 -2.567,-0.274 -3.667,-0.832c-1.25,0.611 -2.651,0.965 -4.134,0.996c-1.483,0.032 -2.898,-0.263 -4.173,-0.82c-1.076,0.604 -2.311,0.957 -3.628,0.985c-4.306,0.091 -7.875,-3.331 -7.966,-7.636c-0.088,-4.161 3.105,-7.634 7.204,-7.935Z" style="fill:#fff;"/></svg>
