<?xml version="1.0" encoding="UTF-8" standalone="no"?><!DOCTYPE svg PUBLIC "-//W3C//DTD SVG 1.1//EN" "http://www.w3.org/Graphics/SVG/1.1/DTD/svg11.dtd"><svg width="32" height="32" viewBox="0 0 32 32" version="1.1" xmlns="http://www.w3.org/2000/svg" xmlns:xlink="http://www.w3.org/1999/xlink" xml:space="preserve" xmlns:serif="http://www.serif.com/" style="fill-rule:evenodd;clip-rule:evenodd;stroke-linejoin:round;stroke-miterlimit:1.41421;"><rect id="cloud-2" x="0" y="0" width="32" height="32" style="fill:none;"/><path d="M9.619,11.651c1.392,-2.039 3.732,-3.375 6.381,-3.375c2.649,0 4.989,1.336 6.381,3.375c3.18,0.166 5.71,2.804 5.71,6.028c0,3.337 -2.709,6.045 -6.046,6.045c-1.021,0 -1.983,-0.253 -2.826,-0.704c-0.979,0.453 -2.07,0.704 -3.219,0.704c-1.149,0 -2.24,-0.251 -3.219,-0.704c-0.843,0.451 -1.805,0.704 -2.826,0.704c-3.337,0 -6.046,-2.708 -6.046,-6.045c0,-3.224 2.53,-5.862 5.71,-6.028Z" style="fill:#fff;"/></svg>
