<?xml version="1.0" encoding="UTF-8" standalone="no"?><!DOCTYPE svg PUBLIC "-//W3C//DTD SVG 1.1//EN" "http://www.w3.org/Graphics/SVG/1.1/DTD/svg11.dtd"><svg width="32" height="32" viewBox="0 0 32 32" version="1.1" xmlns="http://www.w3.org/2000/svg" xmlns:xlink="http://www.w3.org/1999/xlink" xml:space="preserve" xmlns:serif="http://www.serif.com/" style="fill-rule:evenodd;clip-rule:evenodd;stroke-linejoin:round;stroke-miterlimit:1.41421;"><rect id="cloud-3" x="0" y="0" width="32" height="32" style="fill:none;"/><path d="M11.167,12.706c1.054,-1.544 2.826,-2.557 4.833,-2.557c2.007,0 3.779,1.013 4.833,2.557c2.409,0.125 4.325,2.124 4.325,4.566c0,2.527 -2.052,4.579 -4.579,4.579c-0.773,0 -1.502,-0.192 -2.141,-0.533c-0.741,0.342 -1.568,0.533 -2.438,0.533c-0.87,0 -1.697,-0.191 -2.438,-0.533c-0.639,0.341 -1.368,0.533 -2.141,0.533c-2.527,0 -4.579,-2.052 -4.579,-4.579c0,-2.442 1.916,-4.441 4.325,-4.566Z" style="fill:#fff;"/></svg>
