<?xml version="1.0" encoding="UTF-8" standalone="no"?><!DOCTYPE svg PUBLIC "-//W3C//DTD SVG 1.1//EN" "http://www.w3.org/Graphics/SVG/1.1/DTD/svg11.dtd"><svg width="32" height="32" viewBox="0 0 32 32" version="1.1" xmlns="http://www.w3.org/2000/svg" xmlns:xlink="http://www.w3.org/1999/xlink" xml:space="preserve" xmlns:serif="http://www.serif.com/" style="fill-rule:evenodd;clip-rule:evenodd;stroke-linejoin:round;stroke-miterlimit:1.41421;"><rect id="glacier-1" x="0" y="0" width="32" height="32" style="fill:none;"/><clipPath id="_clip1"><rect x="0" y="0" width="32" height="32"/></clipPath><g clip-path="url(#_clip1)"><g><path d="M7.45,33.941l-5.892,-0.594l7.876,-11.272l1.153,2.327l2.574,-1.958l3.83,4.105l1.423,-1.445l2.713,1.943l1.227,-2.334l8.283,11.231l-14.981,1.509l0.648,-1.234l-15.697,1.581l6.843,-3.859Z" style="fill:#fff;"/></g><path d="M0.023,31.916l2.866,-1.189l2.213,-2.422l2.325,-0.741l2.799,2.085l3.359,-1.056l5.449,1.616l7.344,-0.012l2.203,1.158l3.41,0.627l0.365,2.041l-32.579,-0.65l0.246,-1.457Z" style="fill:#b7f2f7;"/></g></svg>
