<?xml version="1.0" encoding="UTF-8" standalone="no"?><!DOCTYPE svg PUBLIC "-//W3C//DTD SVG 1.1//EN" "http://www.w3.org/Graphics/SVG/1.1/DTD/svg11.dtd"><svg width="32" height="32" viewBox="0 0 32 32" version="1.1" xmlns="http://www.w3.org/2000/svg" xmlns:xlink="http://www.w3.org/1999/xlink" xml:space="preserve" xmlns:serif="http://www.serif.com/" style="fill-rule:evenodd;clip-rule:evenodd;stroke-linejoin:round;stroke-miterlimit:1.41421;"><rect id="glacier-2" x="0" y="0" width="32" height="32" style="fill:none;"/><clipPath id="_clip1"><rect x="0" y="0" width="32" height="32"/></clipPath><g clip-path="url(#_clip1)"><g><path d="M21.601,26.039l11.008,6.099l-15.166,-1.447l0.65,1.198l-15.054,-1.437l8.34,-10.936l1.23,2.267l2.73,-1.896l6.262,6.152Z" style="fill:#fff;"/><path d="M12.203,26.38l2.224,-0.735l6.538,3.317l9.915,3.007l1.12,0.169l-0.572,-0.003l1.09,0.331l-4.402,-0.345l-28.116,-0.121l3.039,-1.363l0.071,0.001l0.637,-0.427l-0.098,-0.008l0.139,-0.019l2.899,-1.941l-0.097,-0.007l0.213,-0.071l4.232,-2.833l1.168,1.048Z" style="fill:#b7f2f7;"/></g></g></svg>
