<?xml version="1.0" encoding="UTF-8" standalone="no"?><!DOCTYPE svg PUBLIC "-//W3C//DTD SVG 1.1//EN" "http://www.w3.org/Graphics/SVG/1.1/DTD/svg11.dtd"><svg width="32" height="32" viewBox="0 0 32 32" version="1.1" xmlns="http://www.w3.org/2000/svg" xmlns:xlink="http://www.w3.org/1999/xlink" xml:space="preserve" xmlns:serif="http://www.serif.com/" style="fill-rule:evenodd;clip-rule:evenodd;stroke-linejoin:round;stroke-miterlimit:1.41421;"><rect id="maple-tree" x="0" y="0" width="32" height="32" style="fill:none;"/><path d="M19.072,16.456l0,15.544l-5.067,0l0,-15.544c0.802,0.254 1.652,0.39 2.533,0.39c0.882,0 1.731,-0.136 2.534,-0.39Z" style="fill:#6e552f;"/><path d="M14.005,16.456c0.31,0.098 0.627,0.179 0.949,0.236l0,15.308l-0.949,0l0,-15.544Z" style="fill-opacity:0.2;"/><path d="M12.258,1.171c1.254,-0.744 2.717,-1.171 4.28,-1.171c1.498,0 2.904,0.392 4.122,1.08l0.058,-0.003c2.901,0 5.256,2.355 5.256,5.256c0,0.893 -0.222,1.733 -0.618,2.47c0.396,0.736 0.618,1.577 0.618,2.47c0,2.901 -2.355,5.256 -5.256,5.256c-0.46,0 -0.907,-0.059 -1.335,-0.178c-0.888,0.321 -1.846,0.495 -2.845,0.495c-1.183,0 -2.31,-0.245 -3.33,-0.687c-0.595,0.241 -1.246,0.37 -1.926,0.37c-2.901,0 -5.256,-2.355 -5.256,-5.256c0,-0.893 0.222,-1.734 0.618,-2.47c-0.396,-0.737 -0.618,-1.577 -0.618,-2.47c0,-2.901 2.355,-5.256 5.256,-5.256c0.333,0 0.66,0.031 0.976,0.094Z" style="fill:#70a00d;"/><path d="M22.72,20.606c-1.435,1.187 -3.199,2.014 -5.172,2.322c-1.89,0.295 -3.743,0.077 -5.416,-0.551l-0.072,0.015c-3.662,0.572 -7.099,-1.937 -7.671,-5.599c-0.175,-1.127 -0.06,-2.232 0.294,-3.24c-0.644,-0.851 -1.091,-1.869 -1.267,-2.996c-0.571,-3.661 1.938,-7.099 5.6,-7.67c0.581,-0.091 1.156,-0.104 1.72,-0.038c1.058,-0.58 2.233,-0.988 3.493,-1.185c1.494,-0.233 2.965,-0.147 4.339,0.21c0.704,-0.42 1.5,-0.712 2.359,-0.846c3.661,-0.572 7.098,1.937 7.67,5.599c0.176,1.127 0.06,2.232 -0.294,3.24c0.644,0.851 1.091,1.869 1.267,2.996c0.572,3.662 -1.937,7.099 -5.599,7.67c-0.421,0.066 -0.839,0.091 -1.251,0.073Z" style="fill:#729b1f;"/><path d="M26.257,18.483c-0.543,0.448 -1.21,0.761 -1.956,0.877c-0.714,0.112 -1.414,0.03 -2.047,-0.208l-0.027,0.006c-1.385,0.216 -2.684,-0.733 -2.9,-2.117c-0.066,-0.426 -0.023,-0.844 0.111,-1.225c-0.243,-0.322 -0.412,-0.706 -0.479,-1.132c-0.216,-1.384 0.733,-2.684 2.117,-2.9c0.22,-0.034 0.437,-0.039 0.65,-0.014c0.4,-0.219 0.844,-0.374 1.321,-0.448c0.565,-0.088 1.121,-0.055 1.64,0.079c0.266,-0.159 0.567,-0.269 0.892,-0.32c1.384,-0.216 2.683,0.733 2.899,2.117c0.067,0.426 0.023,0.844 -0.111,1.225c0.244,0.322 0.413,0.706 0.479,1.132c0.216,1.385 -0.732,2.684 -2.117,2.9c-0.159,0.025 -0.317,0.034 -0.472,0.028Z" style="fill:#79a421;"/><path d="M25.944,10.214c-0.543,0.449 -1.209,0.761 -1.955,0.878c-0.715,0.111 -1.415,0.029 -2.047,-0.208l-0.028,0.005c-1.384,0.216 -2.683,-0.732 -2.899,-2.116c-0.067,-0.426 -0.023,-0.844 0.111,-1.225c-0.244,-0.322 -0.413,-0.707 -0.479,-1.132c-0.216,-1.385 0.732,-2.684 2.116,-2.9c0.22,-0.034 0.438,-0.039 0.651,-0.015c0.4,-0.219 0.844,-0.373 1.32,-0.448c0.565,-0.088 1.121,-0.055 1.641,0.08c0.266,-0.159 0.566,-0.269 0.891,-0.32c1.384,-0.216 2.684,0.733 2.9,2.117c0.066,0.426 0.023,0.844 -0.111,1.224c0.243,0.322 0.412,0.707 0.479,1.133c0.216,1.384 -0.733,2.684 -2.117,2.9c-0.159,0.024 -0.317,0.034 -0.473,0.027Z" style="fill:#79a421;"/><path d="M12.626,19.886c-0.543,0.449 -1.21,0.761 -1.955,0.878c-0.715,0.111 -1.415,0.029 -2.048,-0.208l-0.027,0.005c-1.384,0.216 -2.684,-0.732 -2.9,-2.116c-0.066,-0.426 -0.022,-0.844 0.111,-1.225c-0.243,-0.322 -0.412,-0.707 -0.479,-1.132c-0.216,-1.385 0.733,-2.684 2.117,-2.9c0.22,-0.034 0.437,-0.039 0.65,-0.015c0.4,-0.219 0.845,-0.373 1.321,-0.448c0.565,-0.088 1.121,-0.055 1.64,0.08c0.266,-0.159 0.567,-0.269 0.892,-0.32c1.384,-0.216 2.683,0.733 2.899,2.117c0.067,0.426 0.023,0.844 -0.111,1.224c0.244,0.322 0.413,0.707 0.479,1.133c0.216,1.384 -0.732,2.684 -2.116,2.9c-0.16,0.024 -0.318,0.034 -0.473,0.027Z" style="fill:#79a421;"/><path d="M22.917,20.046l-4.813,4.813l0.673,0.674l4.813,-4.813l-0.673,-0.674Z" style="fill:#6e552f;"/><path d="M23.882,13.832l-3.911,3.91l0.213,0.213l3.911,-3.91l-0.213,-0.213Z" style="fill:#6e552f;"/><path d="M21.747,14.9l0.279,1.191l0.293,-0.069l-0.279,-1.191l-0.293,0.069Z" style="fill:#6e552f;"/><path d="M13.284,11.045l0.422,1.798l0.293,-0.069l-0.422,-1.798l-0.293,0.069Z" style="fill:#6e552f;"/><path d="M5.518,11.321l0.421,1.798l0.293,-0.069l-0.421,-1.798l-0.293,0.069Z" style="fill:#6e552f;"/><path d="M15.556,5.453l-1.75,0.59l0.096,0.285l1.75,-0.59l-0.096,-0.285Z" style="fill:#6e552f;"/><path d="M15.086,11.754l-2.905,-1.678l-0.151,0.261l2.906,1.677l0.15,-0.26Z" style="fill:#6e552f;"/><path d="M13.487,9.459c-0.297,0.711 -0.783,1.354 -1.446,1.847c-0.635,0.472 -1.355,0.75 -2.089,0.842l-0.023,0.02c-1.23,0.915 -2.972,0.66 -3.888,-0.57c-0.281,-0.379 -0.452,-0.806 -0.517,-1.243c-0.4,-0.187 -0.76,-0.474 -1.041,-0.852c-0.916,-1.23 -0.66,-2.972 0.57,-3.888c0.195,-0.145 0.403,-0.261 0.622,-0.345c0.276,-0.416 0.627,-0.793 1.051,-1.108c0.502,-0.373 1.057,-0.625 1.628,-0.759c0.177,-0.29 0.412,-0.55 0.7,-0.765c1.231,-0.915 2.973,-0.66 3.888,0.571c0.282,0.378 0.452,0.805 0.517,1.242c0.4,0.187 0.76,0.474 1.042,0.852c0.915,1.23 0.659,2.972 -0.571,3.888c-0.141,0.105 -0.289,0.195 -0.443,0.268Z" style="fill:#79a421;"/><path d="M16.527,21.869c-0.519,0.063 -1.061,-0.008 -1.575,-0.234c-0.491,-0.216 -0.897,-0.548 -1.197,-0.95l-0.02,-0.007c-0.953,-0.419 -1.386,-1.533 -0.967,-2.486c0.129,-0.293 0.324,-0.537 0.56,-0.722c-0.024,-0.299 0.025,-0.607 0.154,-0.9c0.419,-0.953 1.532,-1.386 2.485,-0.967c0.151,0.066 0.289,0.15 0.413,0.251c0.338,0.023 0.678,0.104 1.005,0.249c0.389,0.17 0.724,0.414 0.995,0.706c0.23,0.007 0.463,0.058 0.686,0.157c0.953,0.419 1.386,1.532 0.967,2.485c-0.129,0.293 -0.324,0.537 -0.56,0.722c0.024,0.299 -0.025,0.607 -0.153,0.901c-0.419,0.952 -1.533,1.386 -2.486,0.967c-0.109,-0.049 -0.212,-0.106 -0.307,-0.172Z" style="fill:#6f961f;"/><path d="M21.291,23.183c-0.52,0.063 -1.062,-0.008 -1.575,-0.234c-0.492,-0.216 -0.897,-0.548 -1.198,-0.95l-0.019,-0.007c-0.953,-0.419 -1.387,-1.533 -0.968,-2.485c0.129,-0.294 0.324,-0.538 0.56,-0.722c-0.023,-0.299 0.025,-0.608 0.154,-0.901c0.419,-0.953 1.533,-1.386 2.485,-0.967c0.152,0.067 0.29,0.151 0.413,0.251c0.338,0.023 0.678,0.105 1.006,0.249c0.389,0.171 0.723,0.414 0.994,0.706c0.231,0.007 0.463,0.059 0.686,0.157c0.953,0.419 1.386,1.533 0.967,2.486c-0.128,0.293 -0.323,0.537 -0.559,0.721c0.023,0.299 -0.025,0.608 -0.154,0.901c-0.419,0.953 -1.533,1.386 -2.486,0.967c-0.109,-0.048 -0.212,-0.106 -0.306,-0.172Z" style="fill:#79a421;"/><path d="M16.626,13.123c-0.519,0.063 -1.062,-0.008 -1.575,-0.234c-0.492,-0.216 -0.897,-0.548 -1.198,-0.95l-0.019,-0.007c-0.953,-0.419 -1.386,-1.533 -0.967,-2.486c0.129,-0.293 0.324,-0.537 0.56,-0.721c-0.024,-0.299 0.025,-0.608 0.153,-0.901c0.419,-0.953 1.533,-1.386 2.486,-0.967c0.151,0.067 0.289,0.151 0.413,0.251c0.338,0.023 0.677,0.105 1.005,0.249c0.389,0.171 0.724,0.414 0.995,0.706c0.23,0.007 0.462,0.059 0.686,0.157c0.953,0.419 1.386,1.533 0.967,2.486c-0.129,0.293 -0.324,0.537 -0.56,0.721c0.024,0.299 -0.025,0.608 -0.154,0.901c-0.419,0.953 -1.532,1.386 -2.485,0.967c-0.11,-0.048 -0.212,-0.106 -0.307,-0.172Z" style="fill:#709523;"/><path d="M25.196,20.872c-0.556,0.149 -1.12,0.126 -1.633,-0.1c-0.492,-0.216 -0.878,-0.593 -1.144,-1.073l-0.019,-0.007c-0.953,-0.419 -1.268,-1.803 -0.703,-3.087c0.174,-0.396 0.411,-0.736 0.684,-1.005c0.014,-0.383 0.105,-0.788 0.278,-1.183c0.565,-1.285 1.798,-1.988 2.751,-1.569c0.151,0.066 0.286,0.157 0.403,0.272c0.354,-0.014 0.703,0.047 1.031,0.191c0.389,0.171 0.711,0.443 0.96,0.785c0.242,-0.02 0.481,0.017 0.704,0.115c0.953,0.419 1.268,1.802 0.703,3.087c-0.174,0.395 -0.411,0.736 -0.684,1.005c-0.014,0.383 -0.104,0.788 -0.278,1.183c-0.565,1.285 -1.798,1.988 -2.75,1.569c-0.11,-0.048 -0.211,-0.109 -0.303,-0.183Z" style="fill:#769d25;"/><path d="M6.026,11.66c0.092,0.079 0.192,0.149 0.3,0.211c0.33,0.19 0.689,0.288 1.046,0.299c0.189,0.304 0.452,0.566 0.783,0.757c1.074,0.62 2.45,0.251 3.07,-0.823c0.146,-0.252 0.237,-0.52 0.275,-0.792c0.382,-0.283 0.713,-0.648 0.966,-1.087c0.214,-0.37 0.354,-0.762 0.425,-1.159c0.136,-0.133 0.253,-0.286 0.352,-0.456c0.403,-0.699 0.388,-1.526 0.029,-2.19c0.838,0.682 1.081,1.893 0.523,2.86c-0.099,0.17 -0.216,0.323 -0.351,0.456c-0.072,0.398 -0.212,0.79 -0.426,1.159c-0.253,0.439 -0.584,0.804 -0.966,1.087c-0.038,0.272 -0.129,0.54 -0.275,0.792c-0.62,1.075 -1.996,1.443 -3.07,0.823c-0.331,-0.191 -0.594,-0.453 -0.783,-0.757c-0.357,-0.011 -0.716,-0.108 -1.046,-0.299c-0.376,-0.217 -0.665,-0.526 -0.852,-0.881Z" style="fill-opacity:0.0588235;"/><path d="M21.933,2.196c-0.131,0.046 -0.258,0.106 -0.381,0.177c-0.378,0.219 -0.68,0.519 -0.896,0.867c-0.409,0.013 -0.82,0.124 -1.199,0.343c-1.23,0.71 -1.652,2.285 -0.942,3.516c0.167,0.288 0.381,0.532 0.629,0.726c0.062,0.54 0.234,1.078 0.524,1.58c0.244,0.424 0.553,0.787 0.906,1.085c0.055,0.211 0.139,0.415 0.252,0.61c0.462,0.8 1.29,1.259 2.154,1.283c-1.156,0.441 -2.496,-0.012 -3.135,-1.119c-0.113,-0.195 -0.197,-0.399 -0.251,-0.61c-0.354,-0.298 -0.662,-0.662 -0.907,-1.085c-0.29,-0.502 -0.462,-1.04 -0.524,-1.58c-0.248,-0.194 -0.462,-0.438 -0.628,-0.727c-0.711,-1.23 -0.289,-2.805 0.942,-3.516c0.378,-0.218 0.789,-0.329 1.198,-0.342c0.216,-0.348 0.518,-0.648 0.896,-0.867c0.43,-0.248 0.902,-0.358 1.362,-0.341Z" style="fill-opacity:0.0588235;"/><path d="M12.583,16.846c-0.026,0.115 -0.04,0.233 -0.044,0.353c-0.013,0.371 0.068,0.723 0.221,1.035c-0.174,0.3 -0.279,0.646 -0.292,1.016c-0.042,1.205 0.902,2.217 2.107,2.258c0.283,0.01 0.554,-0.034 0.805,-0.125c0.417,0.198 0.881,0.315 1.373,0.332c0.414,0.015 0.815,-0.044 1.188,-0.164c0.176,0.055 0.361,0.087 0.552,0.093c0.784,0.027 1.486,-0.363 1.892,-0.974c-0.203,1.03 -1.131,1.791 -2.215,1.754c-0.191,-0.007 -0.376,-0.038 -0.552,-0.094c-0.373,0.121 -0.773,0.179 -1.188,0.165c-0.491,-0.017 -0.956,-0.135 -1.373,-0.333c-0.25,0.091 -0.522,0.135 -0.805,0.126c-1.204,-0.042 -2.148,-1.054 -2.107,-2.258c0.013,-0.371 0.118,-0.717 0.292,-1.017c-0.153,-0.312 -0.233,-0.664 -0.221,-1.034c0.015,-0.421 0.148,-0.81 0.367,-1.133Z" style="fill-opacity:0.0588235;"/><path d="M21.036,17.962c0.089,0.076 0.187,0.144 0.291,0.204c0.321,0.186 0.67,0.28 1.017,0.291c0.183,0.295 0.439,0.55 0.761,0.735c1.043,0.603 2.38,0.245 2.983,-0.799c0.141,-0.245 0.23,-0.506 0.267,-0.77c0.371,-0.275 0.693,-0.63 0.939,-1.055c0.207,-0.36 0.343,-0.741 0.413,-1.127c0.131,-0.129 0.245,-0.278 0.341,-0.443c0.392,-0.679 0.377,-1.482 0.028,-2.128c0.815,0.663 1.051,1.84 0.508,2.779c-0.095,0.166 -0.209,0.314 -0.341,0.443c-0.069,0.387 -0.206,0.767 -0.413,1.127c-0.246,0.426 -0.568,0.78 -0.939,1.055c-0.037,0.264 -0.126,0.525 -0.267,0.77c-0.603,1.044 -1.939,1.402 -2.983,0.799c-0.321,-0.185 -0.577,-0.44 -0.76,-0.735c-0.347,-0.011 -0.696,-0.105 -1.017,-0.291c-0.365,-0.21 -0.646,-0.51 -0.828,-0.855Z" style="fill-opacity:0.0588235;"/></svg>
