<?xml version="1.0" encoding="UTF-8" standalone="no"?><!DOCTYPE svg PUBLIC "-//W3C//DTD SVG 1.1//EN" "http://www.w3.org/Graphics/SVG/1.1/DTD/svg11.dtd"><svg width="32" height="32" viewBox="0 0 32 32" version="1.1" xmlns="http://www.w3.org/2000/svg" xmlns:xlink="http://www.w3.org/1999/xlink" xml:space="preserve" xmlns:serif="http://www.serif.com/" style="fill-rule:evenodd;clip-rule:evenodd;stroke-linejoin:round;stroke-miterlimit:1.41421;"><rect id="mountain-1" x="0" y="0" width="32" height="32" style="fill:none;"/><clipPath id="_clip1"><rect x="0" y="0" width="32" height="32"/></clipPath><g clip-path="url(#_clip1)"><g><path d="M0.918,30.481l6.983,-10.064l1.568,2.246l3.596,-5.183l2.88,4.125l2.852,-4.11l3.835,5.494l1.437,-2.072l7.739,11.084l-15.445,0.022l0.017,-0.023l-8.462,0l-8.062,0.012l1.059,-1.528l0,-0.003l0.003,0Z" style="fill:#c1c1c1;"/><path d="M1.715,32.134l7.053,-10.345l1.575,2.303l3.632,-5.328l2.893,4.23l2.88,-4.225l3.853,5.632l1.452,-2.129l7.773,11.363l-15.557,0.053l0.017,-0.024l-8.523,0.017l-8.121,0.027l1.07,-1.57l0,-0.004l0.003,0Z" style="fill:#b5b5b5;"/><path d="M24.061,20.917l0.493,0.705l-0.983,0.002l0.49,-0.707Z" style="fill:#fff;"/><path d="M7.899,20.423l0.442,0.632l-0.882,0.001l0.44,-0.633Z" style="fill:#fff;"/><path d="M18.804,17.506l0.963,1.379l-1.922,0.003l0.959,-1.382Z" style="fill:#fff;"/><path d="M13.058,17.482l1.097,1.571l-2.19,0.003l1.093,-1.574Z" style="fill:#fff;"/></g></g></svg>
