<?xml version="1.0" encoding="UTF-8" standalone="no"?><!DOCTYPE svg PUBLIC "-//W3C//DTD SVG 1.1//EN" "http://www.w3.org/Graphics/SVG/1.1/DTD/svg11.dtd"><svg width="32" height="32" viewBox="0 0 32 32" version="1.1" xmlns="http://www.w3.org/2000/svg" xmlns:xlink="http://www.w3.org/1999/xlink" xml:space="preserve" xmlns:serif="http://www.serif.com/" style="fill-rule:evenodd;clip-rule:evenodd;stroke-linejoin:round;stroke-miterlimit:1.41421;"><rect id="pine-tree" x="0" y="0" width="32" height="32" style="fill:none;"/><rect x="14.116" y="23.105" width="3.768" height="8.895" style="fill:#5d4228;"/><rect x="14.116" y="23.105" width="1.008" height="8.895" style="fill-opacity:0.2;"/><path d="M20.749,8.42l-1.054,0l1.472,2.767l-1.177,0l1.643,2.94l-1.313,0l1.833,3.122l-1.465,0l2.046,3.316l-1.345,0l1.547,2.54l-13.872,0l1.547,-2.54l-1.106,0l2.047,-3.316l-1.251,0l1.833,-3.122l-1.121,0l1.643,-2.94l-1.004,0l1.472,-2.767l-0.9,0l4.262,-8.42l4.263,8.42Z" style="fill:#314e30;"/><path d="M21.915,21.429l-12.198,0.603l0.883,-1.449l10.8,0l0.515,0.846Zm-11.614,-4.18l11.852,0l-1.465,0l0.48,0.778l-10.376,0.452l0.76,-1.23l-1.251,0Zm10.454,-2.382l-9.274,0.372l0.649,-1.105l8.194,0l0.431,0.733Zm-0.396,-3.021l-8.229,0.283l0.517,-0.925l7.352,0l0.36,0.642Zm-0.395,-2.919l-7.21,0.188l0.365,-0.686l6.58,0l0.265,0.498Z" style="fill-opacity:0.101961;"/></svg>
