<?xml version="1.0" encoding="UTF-8" standalone="no"?><!DOCTYPE svg PUBLIC "-//W3C//DTD SVG 1.1//EN" "http://www.w3.org/Graphics/SVG/1.1/DTD/svg11.dtd"><svg width="32" height="32" viewBox="0 0 32 32" version="1.1" xmlns="http://www.w3.org/2000/svg" xmlns:xlink="http://www.w3.org/1999/xlink" xml:space="preserve" xmlns:serif="http://www.serif.com/" style="fill-rule:evenodd;clip-rule:evenodd;stroke-linejoin:round;stroke-miterlimit:1.41421;"><rect id="tree-3" x="0" y="0" width="32" height="32" style="fill:none;"/><clipPath id="_clip1"><rect x="0" y="0" width="32" height="32"/></clipPath><g clip-path="url(#_clip1)"><path d="M9.981,13.068l4.424,5.983l-7.506,12.949l1.514,0.878l9.226,-15.916l0.045,0.047l4.072,-3.941l-0.836,0l-2.332,2.257l1.308,-2.257l-2.023,0l-2.94,5.072l-2.303,-3.114l1.131,-1.958l-0.671,0l-0.837,1.449l-1.071,-1.449l-1.201,0Z" style="fill:#4e2104;"/><path d="M19.836,11.428l0.757,0.439l-12.18,21.011l-0.757,-0.439l12.18,-21.011Z" style="fill-opacity:0.2;"/><path d="M24.054,0c1.483,0.003 2.683,1.204 2.683,2.683l-0.007,0.15c1.96,0.324 3.457,2.029 3.457,4.081l0,0.002c0.85,0.618 1.4,1.619 1.4,2.747c0,1.879 -1.526,3.405 -3.405,3.405l-21.813,0c-1.027,0 -1.949,-0.456 -2.572,-1.18l-0.378,0c-1.659,0 -3.006,-1.347 -3.006,-3.006c0,-1.158 0.657,-2.165 1.622,-2.665c0.176,-1.867 1.75,-3.33 3.667,-3.333l0.57,0c0.589,-0.766 1.515,-1.259 2.56,-1.26l1.419,0c0.411,-0.955 1.358,-1.622 2.464,-1.624l11.339,0Z" style="fill:#b7a24f;"/><path d="M4.707,3.023c-0.06,0.205 -0.1,0.421 -0.121,0.642c-0.965,0.501 -1.622,1.507 -1.622,2.666c0,1.659 1.347,3.006 3.006,3.006l0.378,0c0.623,0.724 1.545,1.18 2.572,1.18l21.813,0c0.263,-0.001 0.519,-0.031 0.764,-0.09c-0.342,1.508 -1.691,2.635 -3.315,2.641l-21.813,0c-1.027,0 -1.949,-0.456 -2.572,-1.18l-0.378,0c-1.659,0 -3.006,-1.347 -3.006,-3.006c0,-1.158 0.657,-2.165 1.622,-2.665c0.144,-1.531 1.228,-2.79 2.672,-3.194Z" style="fill-opacity:0.101961;"/></g></svg>
