<?xml version="1.0" encoding="UTF-8" standalone="no"?><!DOCTYPE svg PUBLIC "-//W3C//DTD SVG 1.1//EN" "http://www.w3.org/Graphics/SVG/1.1/DTD/svg11.dtd"><svg width="32" height="32" viewBox="0 0 32 32" version="1.1" xmlns="http://www.w3.org/2000/svg" xmlns:xlink="http://www.w3.org/1999/xlink" xml:space="preserve" xmlns:serif="http://www.serif.com/" style="fill-rule:evenodd;clip-rule:evenodd;stroke-linejoin:round;stroke-miterlimit:1.41421;"><rect id="tree-2" x="0" y="0" width="32" height="32" style="fill:none;"/><rect x="10.747" y="23.105" width="3.768" height="8.895" style="fill:#5d4228;"/><rect x="10.747" y="23.105" width="1.008" height="8.895" style="fill-opacity:0.2;"/><path d="M17.38,8.42l-1.055,0l1.472,2.767l-1.176,0l1.643,2.94l-1.314,0l1.834,3.122l-1.466,0l2.047,3.316l-1.345,0l1.547,2.54l-13.873,0l1.547,-2.54l-1.105,0l2.046,-3.316l-1.251,0l1.834,-3.122l-1.121,0l1.643,-2.94l-1.005,0l1.472,-2.767l-0.9,0l4.263,-8.42l4.263,8.42Z" style="fill:#314e30;"/><path d="M18.546,21.429l-12.198,0.603l0.883,-1.449l10.8,0l0.515,0.846Zm-11.615,-4.18l11.853,0l-1.466,0l0.481,0.778l-10.376,0.452l0.759,-1.23l-1.251,0Zm10.455,-2.382l-9.275,0.372l0.649,-1.105l8.195,0l0.431,0.733Zm-0.397,-3.021l-8.229,0.283l0.517,-0.925l7.353,0l0.359,0.642Zm-0.394,-2.919l-7.21,0.188l0.365,-0.686l6.58,0l0.265,0.498Z" style="fill-opacity:0.101961;"/></svg>
