<?xml version="1.0" encoding="UTF-8" standalone="no"?><!DOCTYPE svg PUBLIC "-//W3C//DTD SVG 1.1//EN" "http://www.w3.org/Graphics/SVG/1.1/DTD/svg11.dtd"><svg width="16" height="16" viewBox="0 0 16 16" version="1.1" xmlns="http://www.w3.org/2000/svg" xmlns:xlink="http://www.w3.org/1999/xlink" xml:space="preserve" xmlns:serif="http://www.serif.com/" style="fill-rule:evenodd;clip-rule:evenodd;stroke-linecap:round;stroke-linejoin:round;stroke-miterlimit:1.5;"><rect id="vehicle-1" x="0" y="0" width="16" height="16" style="fill:none;"/><g><path d="M10.311,8.656l0.094,0.001l0.093,0.003l0.091,0.003l0.09,0.004l0.088,0.006l0.087,0.006l0.085,0.007l0.084,0.008l0.082,0.009l0.08,0.01l0.078,0.011l0.076,0.012l0.075,0.012l0.072,0.014l0.071,0.015l0.069,0.015l0.067,0.017l0.066,0.018l0.062,0.019l0.033,0.011l0.032,0.011l0.031,0.011l0.031,0.012l0.031,0.013l0.031,0.014l0.031,0.014l0.031,0.015l0.031,0.017l0.032,0.018l0.032,0.02l0.032,0.022l0.033,0.024l0.034,0.027l0.034,0.03l0.035,0.035l0.035,0.04l0.035,0.045l0.018,0.029l0.014,0.023l0.013,0.024l0.005,0.009l0.009,0.017l0.008,0.018l0.007,0.017l0.004,0.01l0.008,0.019l0.006,0.02l0.007,0.02l0.002,0.009l0.006,0.022l0.005,0.022l0.004,0.021l0.002,0.01l0.003,0.023l0.003,0.023l0.002,0.022l0,0.01l0.001,0.023l0,0.024l-0.001,0.023l-0.001,0.009l-0.001,0.023l-0.003,0.023l-0.004,0.023l-0.001,0.01l-0.005,0.021l-0.005,0.022l-0.006,0.021l-0.003,0.01l-0.006,0.019l-0.007,0.02l-0.007,0.019l-0.004,0.01l-0.008,0.017l-0.008,0.018l-0.009,0.017l-0.017,0.033l-0.033,0.051l-0.034,0.045l-0.035,0.039l-0.035,0.035l-0.034,0.03l-0.034,0.027l-0.033,0.024l-0.032,0.022l-0.032,0.019l-0.032,0.018l-0.031,0.017l-0.031,0.015l-0.031,0.015l-0.03,0.013l-0.031,0.013l-0.031,0.012l-0.031,0.012l-0.032,0.011l-0.033,0.011l-0.062,0.019l-0.066,0.018l-0.067,0.017l-0.069,0.016l-0.071,0.015l-0.073,0.013l-0.074,0.013l-0.077,0.012l-0.078,0.011l-0.08,0.01l-0.082,0.009l-0.084,0.009l-0.085,0.007l-0.087,0.007l-0.088,0.005l-0.09,0.005l-0.091,0.004l-0.093,0.002l-0.093,0.002l-0.095,0.001l-0.095,-0.001l-0.094,-0.001l-0.092,-0.003l-0.092,-0.003l-0.09,-0.005l-0.088,-0.005l-0.087,-0.006l-0.085,-0.007l-0.084,-0.008l-0.081,-0.009l-0.08,-0.01l-0.079,-0.011l-0.076,-0.012l-0.075,-0.013l-0.072,-0.013l-0.071,-0.015l-0.069,-0.015l-0.067,-0.017l-0.066,-0.018l-0.062,-0.019l-0.033,-0.011l-0.032,-0.011l-0.031,-0.012l-0.031,-0.012l-0.031,-0.012l-0.031,-0.014l-0.031,-0.014l-0.031,-0.016l-0.031,-0.016l-0.032,-0.018l-0.032,-0.02l-0.032,-0.022l-0.033,-0.024l-0.034,-0.027l-0.034,-0.031l-0.035,-0.034l-0.035,-0.04l-0.035,-0.045l-0.033,-0.052l-0.017,-0.033l-0.008,-0.017l-0.009,-0.018l-0.007,-0.017l-0.004,-0.01l-0.008,-0.019l-0.006,-0.02l-0.006,-0.02l-0.003,-0.01l-0.006,-0.021l-0.005,-0.022l-0.004,-0.022l-0.002,-0.009l-0.003,-0.023l-0.003,-0.023l-0.002,-0.023l0,-0.009l-0.001,-0.024l0,-0.023l0.001,-0.023l0.001,-0.01l0.002,-0.023l0.002,-0.022l0.004,-0.023l0.002,-0.009l0.004,-0.022l0.005,-0.022l0.006,-0.021l0.003,-0.01l0.006,-0.02l0.007,-0.019l0.007,-0.019l0.004,-0.01l0.008,-0.018l0.008,-0.017l0.009,-0.017l0.017,-0.033l0.033,-0.051l0.034,-0.045l0.035,-0.039l0.035,-0.035l0.034,-0.03l0.034,-0.027l0.033,-0.024l0.032,-0.022l0.032,-0.02l0.032,-0.018l0.031,-0.016l0.031,-0.016l0.031,-0.014l0.031,-0.014l0.03,-0.012l0.031,-0.012l0.032,-0.012l0.031,-0.011l0.034,-0.011l0.062,-0.019l0.065,-0.018l0.067,-0.017l0.069,-0.016l0.071,-0.015l0.073,-0.013l0.074,-0.013l0.077,-0.012l0.078,-0.011l0.08,-0.01l0.082,-0.01l0.084,-0.008l0.085,-0.007l0.087,-0.007l0.088,-0.005l0.09,-0.005l0.091,-0.004l0.093,-0.002l0.094,-0.002l0.094,-0.001l0.095,0.001Zm-0.182,0.6l-0.087,0.001l-0.086,0.003l-0.084,0.003l-0.083,0.005l-0.082,0.005l-0.08,0.006l-0.078,0.007l-0.076,0.007l-0.074,0.008l-0.071,0.01l-0.07,0.009l-0.067,0.011l-0.065,0.011l-0.063,0.012l-0.059,0.012l-0.057,0.013l-0.054,0.014l-0.051,0.014l-0.048,0.015l-0.023,0.007l-0.022,0.008l-0.021,0.008l-0.02,0.008l-0.02,0.008l-0.018,0.008l-0.018,0.008l-0.017,0.008l-0.015,0.009l-0.015,0.008l-0.014,0.009l-0.013,0.009l-0.013,0.009l-0.011,0.008l-0.01,0.009l-0.009,0.009l-0.008,0.01l-0.007,0.009l-0.006,0.009l-0.005,0.01l-0.004,0.009l-0.003,0.01l-0.001,0.009l-0.001,0.01l0.001,0.009l0.001,0.01l0.003,0.009l0.004,0.01l0.005,0.009l0.006,0.009l0.007,0.01l0.008,0.009l0.009,0.009l0.01,0.009l0.011,0.009l0.012,0.008l0.013,0.009l0.014,0.009l0.015,0.008l0.015,0.009l0.017,0.008l0.018,0.008l0.018,0.008l0.02,0.008l0.02,0.008l0.021,0.008l0.022,0.007l0.023,0.008l0.047,0.014l0.051,0.014l0.054,0.014l0.057,0.013l0.06,0.012l0.062,0.012l0.065,0.011l0.067,0.01l0.069,0.01l0.072,0.009l0.074,0.008l0.076,0.007l0.078,0.007l0.08,0.005l0.081,0.005l0.083,0.004l0.085,0.004l0.086,0.002l0.087,0.001l0.088,0.001l0.088,-0.001l0.087,-0.002l0.086,-0.002l0.085,-0.004l0.083,-0.004l0.081,-0.005l0.08,-0.006l0.078,-0.007l0.076,-0.007l0.074,-0.009l0.072,-0.009l0.069,-0.01l0.068,-0.01l0.064,-0.011l0.063,-0.012l0.059,-0.012l0.057,-0.013l0.054,-0.014l0.051,-0.014l0.048,-0.015l0.023,-0.007l0.022,-0.008l0.021,-0.008l0.02,-0.008l0.02,-0.008l0.018,-0.008l0.018,-0.008l0.017,-0.009l0.016,-0.008l0.014,-0.008l0.014,-0.009l0.014,-0.009l0.012,-0.009l0.011,-0.009l0.01,-0.009l0.009,-0.009l0.008,-0.009l0.007,-0.009l0.006,-0.009l0.005,-0.01l0.004,-0.009l0.003,-0.01l0.002,-0.009l0,-0.01l0,-0.009l-0.002,-0.01l-0.003,-0.01l-0.004,-0.009l-0.005,-0.009l-0.005,-0.01l-0.008,-0.009l-0.008,-0.009l-0.009,-0.009l-0.01,-0.009l-0.011,-0.009l-0.012,-0.009l-0.013,-0.008l-0.014,-0.009l-0.015,-0.008l-0.015,-0.009l-0.017,-0.008l-0.018,-0.008l-0.018,-0.008l-0.02,-0.008l-0.02,-0.008l-0.021,-0.008l-0.022,-0.008l-0.022,-0.007l-0.048,-0.015l-0.051,-0.014l-0.054,-0.013l-0.057,-0.013l-0.059,-0.012l-0.063,-0.012l-0.065,-0.011l-0.067,-0.01l-0.069,-0.01l-0.072,-0.009l-0.074,-0.008l-0.076,-0.007l-0.078,-0.007l-0.08,-0.006l-0.081,-0.005l-0.083,-0.004l-0.085,-0.003l-0.085,-0.002l-0.087,-0.001l-0.089,-0.001l-0.088,0.001Z" style="fill:#39efdd;"/><path d="M10.311,9.402l0.094,0.001l0.093,0.003l0.091,0.003l0.09,0.005l0.088,0.005l0.087,0.006l0.085,0.007l0.084,0.009l0.082,0.009l0.08,0.009l0.078,0.011l0.076,0.012l0.075,0.013l0.072,0.013l0.071,0.015l0.069,0.015l0.067,0.017l0.066,0.018l0.062,0.019l0.033,0.011l0.032,0.011l0.031,0.012l0.031,0.012l0.031,0.012l0.031,0.014l0.031,0.014l0.031,0.016l0.031,0.016l0.032,0.018l0.032,0.02l0.032,0.022l0.033,0.024l0.034,0.027l0.034,0.031l0.035,0.034l0.035,0.04l0.035,0.045l0.018,0.03l0.014,0.022l0.013,0.024l0.005,0.009l0.009,0.017l0.008,0.018l0.007,0.018l0.004,0.009l0.008,0.019l0.006,0.02l0.007,0.02l0.002,0.01l0.006,0.021l0.005,0.022l0.004,0.022l0.002,0.009l0.003,0.023l0.003,0.023l0.002,0.023l0,0.009l0.001,0.024l0,0.023l-0.001,0.023l-0.001,0.01l-0.001,0.023l-0.003,0.023l-0.004,0.022l-0.001,0.01l-0.005,0.022l-0.005,0.021l-0.006,0.021l-0.003,0.01l-0.006,0.02l-0.007,0.019l-0.007,0.02l-0.004,0.009l-0.008,0.018l-0.008,0.017l-0.009,0.017l-0.017,0.033l-0.033,0.051l-0.034,0.045l-0.035,0.039l-0.035,0.035l-0.034,0.03l-0.034,0.027l-0.033,0.024l-0.032,0.022l-0.032,0.02l-0.032,0.018l-0.031,0.016l-0.031,0.016l-0.031,0.014l-0.03,0.014l-0.031,0.012l-0.031,0.012l-0.031,0.012l-0.032,0.011l-0.033,0.011l-0.062,0.019l-0.066,0.018l-0.067,0.017l-0.069,0.016l-0.071,0.015l-0.073,0.014l-0.074,0.012l-0.077,0.012l-0.078,0.011l-0.08,0.01l-0.082,0.01l-0.084,0.008l-0.085,0.007l-0.087,0.007l-0.088,0.005l-0.09,0.005l-0.091,0.004l-0.093,0.002l-0.093,0.002l-0.095,0.001l-0.095,-0.001l-0.094,-0.001l-0.092,-0.002l-0.092,-0.004l-0.09,-0.004l-0.088,-0.006l-0.087,-0.006l-0.085,-0.007l-0.084,-0.008l-0.081,-0.009l-0.08,-0.01l-0.079,-0.011l-0.076,-0.012l-0.075,-0.012l-0.072,-0.014l-0.071,-0.014l-0.069,-0.016l-0.067,-0.017l-0.066,-0.018l-0.062,-0.019l-0.033,-0.011l-0.032,-0.011l-0.031,-0.011l-0.031,-0.012l-0.031,-0.013l-0.031,-0.013l-0.031,-0.015l-0.031,-0.015l-0.031,-0.017l-0.032,-0.018l-0.032,-0.02l-0.032,-0.021l-0.033,-0.025l-0.034,-0.027l-0.034,-0.03l-0.035,-0.035l-0.035,-0.04l-0.035,-0.045l-0.033,-0.052l-0.017,-0.033l-0.008,-0.017l-0.009,-0.017l-0.007,-0.018l-0.004,-0.01l-0.008,-0.019l-0.006,-0.02l-0.006,-0.02l-0.003,-0.009l-0.006,-0.022l-0.005,-0.021l-0.004,-0.022l-0.002,-0.01l-0.003,-0.023l-0.003,-0.022l-0.002,-0.023l0,-0.01l-0.001,-0.023l0,-0.024l0.001,-0.023l0.001,-0.01l0.002,-0.022l0.002,-0.023l0.004,-0.023l0.002,-0.009l0.004,-0.022l0.005,-0.022l0.006,-0.021l0.003,-0.01l0.006,-0.019l0.007,-0.02l0.007,-0.019l0.004,-0.01l0.008,-0.017l0.008,-0.018l0.009,-0.017l0.017,-0.032l0.033,-0.052l0.034,-0.045l0.035,-0.039l0.035,-0.035l0.034,-0.03l0.034,-0.027l0.033,-0.024l0.032,-0.022l0.032,-0.019l0.032,-0.018l0.031,-0.017l0.031,-0.015l0.031,-0.015l0.031,-0.013l0.03,-0.013l0.031,-0.012l0.032,-0.012l0.031,-0.011l0.034,-0.011l0.062,-0.019l0.065,-0.018l0.067,-0.017l0.069,-0.016l0.071,-0.014l0.073,-0.014l0.074,-0.013l0.077,-0.012l0.078,-0.011l0.08,-0.01l0.082,-0.009l0.084,-0.009l0.085,-0.007l0.087,-0.007l0.088,-0.005l0.09,-0.005l0.091,-0.003l0.093,-0.003l0.094,-0.002l0.094,0l0.095,0Zm-0.182,0.6l-0.087,0.002l-0.086,0.002l-0.084,0.004l-0.083,0.004l-0.082,0.005l-0.08,0.006l-0.078,0.007l-0.076,0.007l-0.074,0.009l-0.071,0.009l-0.07,0.01l-0.067,0.01l-0.065,0.011l-0.063,0.012l-0.059,0.013l-0.057,0.013l-0.054,0.013l-0.051,0.014l-0.048,0.015l-0.023,0.008l-0.022,0.007l-0.021,0.008l-0.02,0.008l-0.02,0.008l-0.018,0.008l-0.018,0.008l-0.017,0.009l-0.015,0.008l-0.015,0.009l-0.014,0.008l-0.013,0.009l-0.013,0.009l-0.011,0.009l-0.01,0.009l-0.009,0.009l-0.008,0.009l-0.007,0.009l-0.006,0.009l-0.005,0.01l-0.004,0.009l-0.003,0.01l-0.001,0.009l-0.001,0.01l0.001,0.01l0.001,0.009l0.003,0.01l0.004,0.009l0.005,0.009l0.006,0.01l0.007,0.009l0.008,0.009l0.009,0.009l0.01,0.009l0.011,0.009l0.012,0.009l0.013,0.008l0.014,0.009l0.015,0.009l0.015,0.008l0.017,0.008l0.018,0.008l0.018,0.009l0.02,0.007l0.02,0.008l0.021,0.008l0.022,0.008l0.023,0.007l0.047,0.015l0.051,0.014l0.054,0.013l0.057,0.013l0.06,0.012l0.062,0.012l0.065,0.011l0.067,0.01l0.069,0.01l0.072,0.009l0.074,0.008l0.076,0.007l0.078,0.007l0.08,0.006l0.081,0.005l0.083,0.004l0.085,0.003l0.086,0.002l0.087,0.001l0.088,0.001l0.088,-0.001l0.087,-0.001l0.086,-0.003l0.085,-0.003l0.083,-0.005l0.081,-0.005l0.08,-0.006l0.078,-0.006l0.076,-0.008l0.074,-0.008l0.072,-0.009l0.069,-0.01l0.068,-0.011l0.064,-0.011l0.063,-0.012l0.059,-0.012l0.057,-0.013l0.054,-0.014l0.051,-0.014l0.048,-0.015l0.023,-0.007l0.022,-0.008l0.021,-0.008l0.02,-0.008l0.02,-0.008l0.018,-0.008l0.018,-0.008l0.017,-0.008l0.016,-0.009l0.014,-0.008l0.014,-0.009l0.014,-0.009l0.012,-0.008l0.011,-0.009l0.01,-0.009l0.009,-0.009l0.008,-0.01l0.007,-0.009l0.006,-0.009l0.005,-0.009l0.004,-0.01l0.003,-0.009l0.002,-0.01l0,-0.01l0,-0.009l-0.002,-0.01l-0.003,-0.009l-0.004,-0.01l-0.005,-0.009l-0.005,-0.009l-0.008,-0.01l-0.008,-0.009l-0.009,-0.009l-0.01,-0.009l-0.011,-0.009l-0.012,-0.008l-0.013,-0.009l-0.014,-0.009l-0.015,-0.008l-0.015,-0.009l-0.017,-0.008l-0.018,-0.008l-0.018,-0.008l-0.02,-0.008l-0.02,-0.008l-0.021,-0.008l-0.022,-0.007l-0.022,-0.008l-0.048,-0.014l-0.051,-0.014l-0.054,-0.014l-0.057,-0.013l-0.059,-0.012l-0.063,-0.012l-0.065,-0.011l-0.067,-0.01l-0.069,-0.01l-0.072,-0.008l-0.074,-0.009l-0.076,-0.007l-0.078,-0.007l-0.08,-0.005l-0.081,-0.005l-0.083,-0.004l-0.085,-0.003l-0.085,-0.003l-0.087,-0.001l-0.089,0l-0.088,0Z" style="fill:#39efdd;fill-opacity:0.8;"/><path d="M10.311,10.148l0.094,0.002l0.093,0.002l0.091,0.003l0.09,0.005l0.088,0.005l0.087,0.007l0.085,0.007l0.084,0.008l0.082,0.009l0.08,0.01l0.078,0.011l0.076,0.011l0.075,0.013l0.072,0.013l0.071,0.015l0.069,0.016l0.067,0.017l0.066,0.018l0.062,0.018l0.033,0.012l0.032,0.01l0.031,0.012l0.031,0.012l0.031,0.013l0.031,0.013l0.031,0.014l0.031,0.016l0.031,0.017l0.032,0.018l0.032,0.019l0.032,0.022l0.033,0.024l0.034,0.027l0.034,0.031l0.035,0.035l0.035,0.039l0.035,0.046l0.018,0.029l0.014,0.023l0.013,0.023l0.005,0.009l0.009,0.018l0.008,0.017l0.007,0.018l0.004,0.009l0.008,0.02l0.006,0.019l0.007,0.02l0.002,0.01l0.006,0.021l0.005,0.022l0.004,0.022l0.002,0.01l0.003,0.022l0.003,0.023l0.002,0.023l0,0.01l0.001,0.023l0,0.023l-0.001,0.023l-0.001,0.01l-0.001,0.023l-0.003,0.023l-0.004,0.023l-0.001,0.009l-0.005,0.022l-0.005,0.021l-0.006,0.022l-0.003,0.009l-0.006,0.02l-0.007,0.019l-0.007,0.02l-0.004,0.009l-0.008,0.018l-0.008,0.017l-0.009,0.017l-0.017,0.033l-0.033,0.051l-0.034,0.045l-0.035,0.04l-0.035,0.034l-0.034,0.03l-0.034,0.027l-0.033,0.025l-0.032,0.021l-0.032,0.02l-0.032,0.018l-0.031,0.017l-0.031,0.015l-0.031,0.014l-0.03,0.014l-0.031,0.013l-0.031,0.012l-0.031,0.011l-0.032,0.011l-0.034,0.011l-0.061,0.019l-0.066,0.018l-0.067,0.017l-0.069,0.016l-0.071,0.015l-0.073,0.014l-0.074,0.013l-0.077,0.012l-0.078,0.011l-0.08,0.01l-0.082,0.009l-0.084,0.008l-0.085,0.008l-0.087,0.006l-0.088,0.006l-0.09,0.004l-0.091,0.004l-0.093,0.003l-0.093,0.001l-0.095,0.001l-0.095,0l-0.094,-0.002l-0.092,-0.002l-0.092,-0.004l-0.09,-0.004l-0.088,-0.005l-0.087,-0.007l-0.085,-0.007l-0.084,-0.008l-0.081,-0.009l-0.08,-0.01l-0.079,-0.011l-0.076,-0.011l-0.075,-0.013l-0.072,-0.014l-0.071,-0.014l-0.069,-0.016l-0.067,-0.017l-0.066,-0.018l-0.062,-0.019l-0.033,-0.011l-0.032,-0.011l-0.031,-0.011l-0.031,-0.012l-0.031,-0.013l-0.031,-0.013l-0.031,-0.015l-0.031,-0.015l-0.031,-0.017l-0.032,-0.018l-0.032,-0.019l-0.032,-0.022l-0.033,-0.024l-0.034,-0.028l-0.034,-0.03l-0.035,-0.035l-0.035,-0.04l-0.035,-0.045l-0.033,-0.052l-0.017,-0.032l-0.008,-0.018l-0.009,-0.017l-0.007,-0.018l-0.004,-0.009l-0.008,-0.02l-0.006,-0.02l-0.006,-0.019l-0.003,-0.01l-0.006,-0.022l-0.005,-0.021l-0.004,-0.022l-0.002,-0.01l-0.003,-0.022l-0.003,-0.023l-0.002,-0.023l0,-0.01l-0.001,-0.023l0,-0.023l0.001,-0.024l0.001,-0.009l0.002,-0.023l0.002,-0.023l0.004,-0.022l0.002,-0.01l0.004,-0.022l0.005,-0.021l0.006,-0.022l0.003,-0.009l0.006,-0.02l0.007,-0.02l0.007,-0.019l0.004,-0.009l0.008,-0.018l0.008,-0.018l0.009,-0.017l0.017,-0.032l0.033,-0.051l0.034,-0.045l0.035,-0.04l0.035,-0.034l0.034,-0.031l0.034,-0.027l0.033,-0.024l0.032,-0.021l0.032,-0.02l0.032,-0.018l0.031,-0.017l0.031,-0.015l0.031,-0.015l0.031,-0.013l0.03,-0.013l0.031,-0.012l0.032,-0.011l0.031,-0.011l0.034,-0.011l0.062,-0.019l0.065,-0.019l0.067,-0.017l0.069,-0.015l0.071,-0.015l0.073,-0.014l0.074,-0.013l0.077,-0.012l0.078,-0.011l0.08,-0.01l0.082,-0.009l0.084,-0.008l0.085,-0.008l0.087,-0.006l0.088,-0.006l0.09,-0.005l0.091,-0.003l0.093,-0.003l0.094,-0.002l0.094,0l0.095,0Zm-0.182,0.6l-0.087,0.002l-0.086,0.002l-0.084,0.004l-0.083,0.004l-0.082,0.005l-0.08,0.006l-0.078,0.007l-0.076,0.008l-0.074,0.008l-0.071,0.009l-0.07,0.01l-0.067,0.01l-0.065,0.012l-0.063,0.011l-0.059,0.013l-0.057,0.013l-0.054,0.013l-0.051,0.015l-0.048,0.014l-0.023,0.008l-0.022,0.007l-0.021,0.008l-0.02,0.008l-0.02,0.008l-0.018,0.008l-0.018,0.009l-0.017,0.008l-0.015,0.008l-0.015,0.009l-0.014,0.008l-0.013,0.009l-0.013,0.009l-0.011,0.009l-0.01,0.009l-0.009,0.009l-0.008,0.009l-0.007,0.009l-0.006,0.01l-0.005,0.009l-0.004,0.01l-0.003,0.009l-0.001,0.01l-0.001,0.009l0.001,0.01l0.001,0.009l0.003,0.01l0.004,0.009l0.005,0.01l0.006,0.009l0.007,0.009l0.008,0.009l0.009,0.009l0.01,0.009l0.011,0.009l0.012,0.009l0.013,0.009l0.014,0.008l0.015,0.009l0.015,0.008l0.017,0.009l0.018,0.008l0.018,0.008l0.02,0.008l0.02,0.008l0.021,0.007l0.022,0.008l0.023,0.007l0.047,0.015l0.051,0.014l0.054,0.013l0.057,0.013l0.06,0.013l0.062,0.011l0.065,0.011l0.067,0.011l0.069,0.009l0.072,0.009l0.074,0.008l0.076,0.008l0.078,0.006l0.08,0.006l0.081,0.005l0.083,0.004l0.085,0.003l0.086,0.002l0.087,0.002l0.088,0l0.088,-0.001l0.087,-0.001l0.086,-0.003l0.085,-0.003l0.083,-0.004l0.081,-0.005l0.08,-0.006l0.078,-0.007l0.076,-0.008l0.074,-0.008l0.072,-0.009l0.069,-0.01l0.068,-0.01l0.064,-0.012l0.063,-0.011l0.059,-0.013l0.057,-0.013l0.054,-0.014l0.051,-0.014l0.048,-0.014l0.023,-0.008l0.022,-0.008l0.021,-0.007l0.02,-0.008l0.02,-0.008l0.018,-0.008l0.018,-0.009l0.017,-0.008l0.016,-0.008l0.014,-0.009l0.014,-0.009l0.014,-0.008l0.012,-0.009l0.011,-0.009l0.01,-0.009l0.009,-0.009l0.008,-0.009l0.007,-0.01l0.006,-0.009l0.005,-0.009l0.004,-0.01l0.003,-0.009l0.002,-0.01l0,-0.009l0,-0.01l-0.002,-0.01l-0.003,-0.009l-0.004,-0.009l-0.005,-0.01l-0.005,-0.009l-0.008,-0.009l-0.008,-0.009l-0.009,-0.01l-0.01,-0.008l-0.011,-0.009l-0.012,-0.009l-0.013,-0.009l-0.014,-0.008l-0.015,-0.009l-0.015,-0.008l-0.017,-0.009l-0.018,-0.008l-0.018,-0.008l-0.02,-0.008l-0.02,-0.008l-0.021,-0.007l-0.022,-0.008l-0.022,-0.008l-0.048,-0.014l-0.051,-0.014l-0.054,-0.014l-0.057,-0.012l-0.059,-0.013l-0.063,-0.011l-0.065,-0.011l-0.067,-0.011l-0.069,-0.009l-0.072,-0.009l-0.074,-0.008l-0.076,-0.008l-0.078,-0.006l-0.08,-0.006l-0.081,-0.005l-0.083,-0.004l-0.085,-0.003l-0.085,-0.002l-0.087,-0.002l-0.089,0l-0.088,0Z" style="fill:#39efdd;fill-opacity:0.6;"/><path d="M10.311,10.894l0.094,0.002l0.093,0.002l0.091,0.004l0.09,0.004l0.088,0.005l0.087,0.007l0.085,0.007l0.084,0.008l0.082,0.009l0.08,0.01l0.078,0.011l0.076,0.012l0.075,0.012l0.072,0.014l0.071,0.014l0.069,0.016l0.067,0.017l0.066,0.018l0.062,0.019l0.033,0.011l0.032,0.011l0.031,0.011l0.031,0.012l0.031,0.013l0.031,0.013l0.031,0.015l0.031,0.015l0.031,0.017l0.032,0.018l0.032,0.02l0.032,0.021l0.033,0.025l0.034,0.027l0.034,0.03l0.035,0.035l0.035,0.04l0.035,0.045l0.018,0.029l0.014,0.023l0.013,0.023l0.005,0.01l0.009,0.017l0.008,0.017l0.007,0.018l0.004,0.01l0.008,0.019l0.006,0.02l0.007,0.02l0.002,0.009l0.006,0.022l0.005,0.021l0.004,0.022l0.002,0.01l0.003,0.023l0.003,0.022l0.002,0.023l0,0.01l0.001,0.023l0,0.023l-0.001,0.024l-0.001,0.009l-0.001,0.023l-0.003,0.023l-0.004,0.023l-0.001,0.009l-0.005,0.022l-0.005,0.022l-0.006,0.021l-0.003,0.009l-0.006,0.02l-0.007,0.02l-0.007,0.019l-0.004,0.01l-0.008,0.017l-0.008,0.018l-0.009,0.017l-0.017,0.032l-0.033,0.052l-0.034,0.044l-0.035,0.04l-0.035,0.034l-0.034,0.031l-0.034,0.027l-0.033,0.024l-0.032,0.022l-0.032,0.019l-0.032,0.018l-0.031,0.017l-0.031,0.015l-0.031,0.015l-0.03,0.013l-0.031,0.013l-0.031,0.012l-0.031,0.011l-0.032,0.011l-0.033,0.012l-0.062,0.019l-0.066,0.018l-0.067,0.017l-0.069,0.016l-0.071,0.014l-0.073,0.014l-0.074,0.013l-0.077,0.012l-0.078,0.011l-0.08,0.01l-0.082,0.009l-0.084,0.008l-0.085,0.008l-0.087,0.006l-0.088,0.006l-0.09,0.005l-0.091,0.003l-0.093,0.003l-0.093,0.002l-0.095,0l-0.095,0l-0.094,-0.002l-0.092,-0.002l-0.092,-0.003l-0.09,-0.005l-0.088,-0.005l-0.087,-0.006l-0.085,-0.008l-0.084,-0.008l-0.081,-0.009l-0.08,-0.01l-0.079,-0.01l-0.076,-0.012l-0.075,-0.013l-0.072,-0.013l-0.071,-0.015l-0.069,-0.016l-0.067,-0.016l-0.066,-0.018l-0.062,-0.019l-0.033,-0.011l-0.032,-0.011l-0.031,-0.012l-0.031,-0.012l-0.031,-0.012l-0.031,-0.014l-0.031,-0.014l-0.031,-0.016l-0.031,-0.016l-0.032,-0.018l-0.032,-0.02l-0.032,-0.022l-0.033,-0.024l-0.034,-0.027l-0.034,-0.031l-0.035,-0.035l-0.035,-0.039l-0.035,-0.046l-0.033,-0.051l-0.017,-0.033l-0.008,-0.017l-0.009,-0.018l-0.007,-0.018l-0.004,-0.009l-0.008,-0.02l-0.006,-0.019l-0.006,-0.02l-0.003,-0.01l-0.006,-0.021l-0.005,-0.022l-0.004,-0.022l-0.002,-0.009l-0.003,-0.023l-0.003,-0.023l-0.002,-0.023l0,-0.009l-0.001,-0.024l0,-0.023l0.001,-0.024l0.001,-0.009l0.002,-0.023l0.002,-0.023l0.004,-0.022l0.002,-0.01l0.004,-0.021l0.005,-0.022l0.006,-0.021l0.003,-0.01l0.006,-0.02l0.007,-0.019l0.007,-0.02l0.004,-0.009l0.008,-0.018l0.008,-0.017l0.009,-0.018l0.017,-0.032l0.033,-0.051l0.034,-0.045l0.035,-0.039l0.035,-0.035l0.034,-0.03l0.034,-0.027l0.033,-0.024l0.032,-0.022l0.032,-0.02l0.032,-0.018l0.031,-0.016l0.031,-0.016l0.031,-0.014l0.031,-0.014l0.03,-0.012l0.031,-0.013l0.032,-0.011l0.031,-0.011l0.034,-0.011l0.062,-0.019l0.065,-0.018l0.067,-0.017l0.069,-0.016l0.071,-0.015l0.073,-0.014l0.074,-0.013l0.077,-0.011l0.078,-0.011l0.08,-0.011l0.082,-0.009l0.084,-0.008l0.085,-0.008l0.087,-0.006l0.088,-0.006l0.09,-0.004l0.091,-0.004l0.093,-0.003l0.094,-0.001l0.094,-0.001l0.095,0Zm-0.182,0.601l-0.087,0.001l-0.086,0.003l-0.084,0.003l-0.083,0.004l-0.082,0.006l-0.08,0.006l-0.078,0.006l-0.076,0.008l-0.074,0.008l-0.071,0.009l-0.07,0.01l-0.067,0.011l-0.065,0.011l-0.063,0.012l-0.059,0.012l-0.057,0.013l-0.054,0.014l-0.051,0.014l-0.048,0.015l-0.023,0.007l-0.022,0.008l-0.021,0.008l-0.02,0.007l-0.02,0.008l-0.018,0.009l-0.018,0.008l-0.017,0.008l-0.015,0.009l-0.015,0.008l-0.014,0.009l-0.013,0.008l-0.013,0.009l-0.011,0.009l-0.01,0.009l-0.009,0.009l-0.008,0.009l-0.007,0.01l-0.006,0.009l-0.005,0.009l-0.004,0.01l-0.003,0.009l-0.001,0.01l-0.001,0.009l0.001,0.01l0.001,0.01l0.003,0.009l0.004,0.01l0.005,0.009l0.006,0.009l0.007,0.009l0.008,0.01l0.009,0.009l0.01,0.009l0.011,0.008l0.012,0.009l0.013,0.009l0.014,0.009l0.015,0.008l0.015,0.008l0.017,0.009l0.018,0.008l0.018,0.008l0.02,0.008l0.02,0.008l0.021,0.008l0.022,0.007l0.023,0.008l0.047,0.014l0.051,0.014l0.054,0.014l0.057,0.013l0.06,0.012l0.062,0.012l0.065,0.011l0.067,0.01l0.069,0.009l0.072,0.009l0.074,0.008l0.076,0.008l0.078,0.006l0.08,0.006l0.081,0.005l0.083,0.004l0.085,0.003l0.086,0.003l0.087,0.001l0.088,0l0.088,0l0.087,-0.002l0.086,-0.002l0.085,-0.004l0.083,-0.004l0.081,-0.005l0.08,-0.006l0.078,-0.007l0.076,-0.007l0.074,-0.009l0.072,-0.009l0.069,-0.01l0.068,-0.01l0.064,-0.011l0.063,-0.012l0.059,-0.013l0.057,-0.013l0.054,-0.013l0.051,-0.014l0.048,-0.015l0.023,-0.008l0.022,-0.007l0.021,-0.008l0.02,-0.008l0.02,-0.008l0.018,-0.008l0.018,-0.008l0.017,-0.009l0.016,-0.008l0.014,-0.009l0.014,-0.008l0.014,-0.009l0.012,-0.009l0.011,-0.009l0.01,-0.009l0.009,-0.009l0.008,-0.009l0.007,-0.009l0.006,-0.01l0.005,-0.009l0.004,-0.009l0.003,-0.01l0.002,-0.009l0,-0.01l0,-0.01l-0.002,-0.009l-0.003,-0.01l-0.004,-0.009l-0.005,-0.01l-0.005,-0.009l-0.008,-0.009l-0.008,-0.009l-0.009,-0.009l-0.01,-0.009l-0.011,-0.009l-0.012,-0.009l-0.013,-0.009l-0.014,-0.008l-0.015,-0.009l-0.015,-0.008l-0.017,-0.008l-0.018,-0.009l-0.018,-0.008l-0.02,-0.008l-0.02,-0.007l-0.021,-0.008l-0.022,-0.008l-0.022,-0.007l-0.048,-0.015l-0.051,-0.014l-0.054,-0.013l-0.057,-0.013l-0.059,-0.012l-0.063,-0.012l-0.065,-0.011l-0.067,-0.01l-0.069,-0.01l-0.072,-0.009l-0.074,-0.008l-0.076,-0.007l-0.078,-0.007l-0.08,-0.006l-0.081,-0.005l-0.083,-0.004l-0.085,-0.003l-0.085,-0.002l-0.087,-0.002l-0.089,0l-0.088,0.001Z" style="fill:#39efdd;fill-opacity:0.4;"/><path d="M10.311,11.641l0.094,0.001l0.093,0.003l0.091,0.003l0.09,0.004l0.088,0.006l0.087,0.006l0.085,0.007l0.084,0.008l0.082,0.009l0.08,0.01l0.078,0.011l0.076,0.012l0.075,0.012l0.072,0.014l0.071,0.015l0.069,0.015l0.067,0.017l0.066,0.018l0.062,0.019l0.033,0.011l0.032,0.011l0.031,0.011l0.031,0.012l0.031,0.013l0.031,0.014l0.031,0.014l0.031,0.015l0.031,0.017l0.032,0.018l0.032,0.02l0.032,0.022l0.033,0.024l0.034,0.027l0.034,0.031l0.035,0.034l0.035,0.04l0.035,0.045l0.018,0.03l0.014,0.022l0.013,0.024l0.005,0.009l0.009,0.017l0.008,0.018l0.007,0.017l0.004,0.01l0.008,0.019l0.006,0.02l0.007,0.02l0.002,0.009l0.006,0.022l0.005,0.022l0.004,0.022l0.002,0.009l0.003,0.023l0.003,0.023l0.002,0.022l0,0.01l0.001,0.023l0,0.024l-0.001,0.023l-0.001,0.009l-0.001,0.023l-0.003,0.023l-0.004,0.023l-0.001,0.01l-0.005,0.021l-0.005,0.022l-0.006,0.021l-0.003,0.01l-0.006,0.019l-0.007,0.02l-0.007,0.019l-0.004,0.01l-0.008,0.017l-0.008,0.018l-0.009,0.017l-0.017,0.033l-0.033,0.051l-0.034,0.045l-0.035,0.039l-0.035,0.035l-0.034,0.03l-0.034,0.027l-0.033,0.024l-0.032,0.022l-0.032,0.019l-0.032,0.018l-0.031,0.017l-0.031,0.016l-0.031,0.014l-0.03,0.013l-0.031,0.013l-0.031,0.012l-0.031,0.012l-0.032,0.011l-0.034,0.011l-0.061,0.019l-0.066,0.018l-0.067,0.017l-0.069,0.016l-0.071,0.015l-0.073,0.013l-0.074,0.013l-0.077,0.012l-0.078,0.011l-0.08,0.01l-0.082,0.009l-0.084,0.009l-0.085,0.007l-0.087,0.007l-0.088,0.005l-0.09,0.005l-0.091,0.004l-0.093,0.002l-0.093,0.002l-0.095,0.001l-0.095,-0.001l-0.094,-0.001l-0.092,-0.003l-0.092,-0.003l-0.09,-0.004l-0.088,-0.006l-0.087,-0.006l-0.085,-0.007l-0.084,-0.008l-0.081,-0.009l-0.08,-0.01l-0.079,-0.011l-0.076,-0.012l-0.075,-0.013l-0.072,-0.013l-0.071,-0.015l-0.069,-0.015l-0.067,-0.017l-0.066,-0.018l-0.062,-0.019l-0.033,-0.011l-0.032,-0.011l-0.031,-0.012l-0.031,-0.012l-0.031,-0.012l-0.031,-0.014l-0.031,-0.014l-0.031,-0.015l-0.031,-0.017l-0.032,-0.018l-0.032,-0.02l-0.032,-0.022l-0.033,-0.024l-0.034,-0.027l-0.034,-0.031l-0.035,-0.034l-0.035,-0.04l-0.035,-0.045l-0.033,-0.052l-0.017,-0.033l-0.008,-0.017l-0.009,-0.018l-0.007,-0.017l-0.004,-0.01l-0.008,-0.019l-0.006,-0.02l-0.006,-0.02l-0.003,-0.009l-0.006,-0.022l-0.005,-0.022l-0.004,-0.022l-0.002,-0.009l-0.003,-0.023l-0.003,-0.023l-0.002,-0.023l0,-0.009l-0.001,-0.024l0,-0.023l0.001,-0.023l0.001,-0.01l0.002,-0.023l0.002,-0.022l0.004,-0.023l0.002,-0.009l0.004,-0.022l0.005,-0.022l0.006,-0.021l0.003,-0.01l0.006,-0.02l0.007,-0.019l0.007,-0.019l0.004,-0.01l0.008,-0.018l0.008,-0.017l0.009,-0.017l0.017,-0.033l0.033,-0.051l0.034,-0.045l0.035,-0.039l0.035,-0.035l0.034,-0.03l0.034,-0.027l0.033,-0.024l0.032,-0.022l0.032,-0.02l0.032,-0.018l0.031,-0.016l0.031,-0.016l0.031,-0.014l0.031,-0.013l0.03,-0.013l0.031,-0.012l0.032,-0.012l0.031,-0.011l0.034,-0.011l0.062,-0.019l0.065,-0.018l0.067,-0.017l0.069,-0.016l0.071,-0.015l0.073,-0.013l0.074,-0.013l0.077,-0.012l0.078,-0.011l0.08,-0.01l0.082,-0.01l0.084,-0.008l0.085,-0.007l0.087,-0.007l0.088,-0.005l0.09,-0.005l0.091,-0.004l0.093,-0.002l0.094,-0.002l0.094,-0.001l0.095,0.001Zm-0.182,0.6l-0.087,0.001l-0.086,0.003l-0.084,0.003l-0.083,0.005l-0.082,0.005l-0.08,0.006l-0.078,0.007l-0.076,0.007l-0.074,0.008l-0.071,0.01l-0.07,0.009l-0.067,0.011l-0.065,0.011l-0.063,0.012l-0.059,0.012l-0.057,0.013l-0.054,0.014l-0.051,0.014l-0.048,0.015l-0.023,0.007l-0.022,0.008l-0.021,0.008l-0.02,0.008l-0.02,0.008l-0.018,0.008l-0.018,0.008l-0.017,0.008l-0.015,0.009l-0.015,0.008l-0.014,0.009l-0.013,0.009l-0.013,0.009l-0.011,0.008l-0.01,0.009l-0.009,0.01l-0.008,0.009l-0.007,0.009l-0.006,0.009l-0.005,0.01l-0.004,0.009l-0.003,0.01l-0.001,0.009l-0.001,0.01l0.001,0.009l0.001,0.01l0.003,0.009l0.004,0.01l0.005,0.009l0.006,0.009l0.007,0.01l0.008,0.009l0.009,0.009l0.01,0.009l0.011,0.009l0.012,0.009l0.013,0.008l0.014,0.009l0.015,0.008l0.015,0.009l0.017,0.008l0.018,0.008l0.018,0.008l0.02,0.008l0.02,0.008l0.021,0.008l0.022,0.007l0.023,0.008l0.047,0.014l0.051,0.014l0.054,0.014l0.057,0.013l0.06,0.012l0.062,0.012l0.065,0.011l0.067,0.01l0.069,0.01l0.072,0.009l0.074,0.008l0.076,0.007l0.078,0.007l0.08,0.005l0.081,0.005l0.083,0.004l0.085,0.004l0.086,0.002l0.087,0.001l0.088,0.001l0.088,-0.001l0.087,-0.002l0.086,-0.002l0.085,-0.003l0.083,-0.005l0.081,-0.005l0.08,-0.006l0.078,-0.007l0.076,-0.007l0.074,-0.009l0.072,-0.009l0.069,-0.009l0.068,-0.011l0.064,-0.011l0.063,-0.012l0.059,-0.012l0.057,-0.013l0.054,-0.014l0.051,-0.014l0.048,-0.015l0.023,-0.007l0.022,-0.008l0.021,-0.008l0.02,-0.008l0.02,-0.008l0.018,-0.008l0.018,-0.008l0.017,-0.008l0.016,-0.009l0.014,-0.008l0.014,-0.009l0.014,-0.009l0.012,-0.009l0.011,-0.009l0.01,-0.009l0.009,-0.009l0.008,-0.009l0.007,-0.009l0.006,-0.009l0.005,-0.01l0.004,-0.009l0.003,-0.01l0.002,-0.009l0,-0.01l0,-0.009l-0.002,-0.01l-0.003,-0.01l-0.004,-0.009l-0.005,-0.009l-0.005,-0.01l-0.008,-0.009l-0.008,-0.009l-0.009,-0.009l-0.01,-0.009l-0.011,-0.009l-0.012,-0.009l-0.013,-0.008l-0.014,-0.009l-0.015,-0.008l-0.015,-0.009l-0.017,-0.008l-0.018,-0.008l-0.018,-0.008l-0.02,-0.008l-0.02,-0.008l-0.021,-0.008l-0.022,-0.008l-0.022,-0.007l-0.048,-0.015l-0.051,-0.014l-0.054,-0.013l-0.057,-0.013l-0.059,-0.012l-0.063,-0.012l-0.065,-0.011l-0.067,-0.01l-0.069,-0.01l-0.072,-0.009l-0.074,-0.008l-0.076,-0.007l-0.078,-0.007l-0.08,-0.006l-0.081,-0.004l-0.083,-0.005l-0.085,-0.003l-0.085,-0.002l-0.087,-0.001l-0.089,-0.001l-0.088,0.001Z" style="fill:#39efdd;fill-opacity:0.2;"/></g><g><path d="M3.047,8.656l0.094,0.001l0.093,0.003l0.091,0.003l0.09,0.004l0.088,0.006l0.087,0.006l0.085,0.007l0.084,0.008l0.081,0.009l0.08,0.01l0.079,0.011l0.076,0.012l0.075,0.012l0.072,0.014l0.071,0.015l0.069,0.015l0.067,0.017l0.066,0.018l0.062,0.019l0.033,0.011l0.032,0.011l0.031,0.011l0.031,0.012l0.031,0.013l0.031,0.014l0.031,0.014l0.031,0.015l0.031,0.017l0.032,0.018l0.032,0.02l0.032,0.022l0.033,0.024l0.034,0.027l0.034,0.03l0.035,0.035l0.035,0.04l0.034,0.045l0.034,0.052l0.017,0.033l0.009,0.017l0.008,0.018l0.007,0.017l0.004,0.01l0.008,0.019l0.006,0.02l0.007,0.02l0.002,0.01l0.006,0.021l0.005,0.021l0.004,0.022l0.002,0.01l0.003,0.023l0.003,0.022l0.002,0.023l0,0.01l0.001,0.023l0,0.024l-0.001,0.023l-0.001,0.01l-0.002,0.023l-0.002,0.022l-0.004,0.023l-0.002,0.01l-0.004,0.021l-0.005,0.022l-0.006,0.021l-0.002,0.009l-0.007,0.02l-0.007,0.02l-0.007,0.02l-0.004,0.009l-0.012,0.026l-0.013,0.026l-0.017,0.032l-0.033,0.052l-0.034,0.045l-0.035,0.039l-0.035,0.035l-0.034,0.03l-0.034,0.027l-0.033,0.024l-0.032,0.022l-0.032,0.019l-0.032,0.018l-0.031,0.017l-0.031,0.015l-0.031,0.015l-0.031,0.013l-0.03,0.013l-0.031,0.012l-0.032,0.012l-0.031,0.011l-0.034,0.011l-0.062,0.019l-0.065,0.018l-0.067,0.017l-0.069,0.016l-0.071,0.015l-0.073,0.013l-0.074,0.013l-0.077,0.012l-0.078,0.011l-0.08,0.01l-0.082,0.009l-0.084,0.009l-0.085,0.007l-0.087,0.007l-0.088,0.005l-0.09,0.005l-0.091,0.004l-0.093,0.002l-0.094,0.002l-0.094,0.001l-0.095,-0.001l-0.094,-0.001l-0.093,-0.003l-0.091,-0.003l-0.09,-0.005l-0.088,-0.005l-0.087,-0.006l-0.085,-0.007l-0.084,-0.008l-0.081,-0.009l-0.081,-0.01l-0.078,-0.011l-0.076,-0.012l-0.075,-0.013l-0.072,-0.013l-0.071,-0.015l-0.069,-0.015l-0.067,-0.017l-0.066,-0.018l-0.062,-0.019l-0.033,-0.011l-0.032,-0.011l-0.031,-0.012l-0.031,-0.012l-0.031,-0.012l-0.031,-0.014l-0.031,-0.014l-0.031,-0.016l-0.031,-0.016l-0.032,-0.018l-0.032,-0.02l-0.032,-0.022l-0.033,-0.024l-0.034,-0.027l-0.034,-0.031l-0.035,-0.034l-0.035,-0.04l-0.035,-0.045l-0.018,-0.03l-0.014,-0.022l-0.013,-0.024l-0.005,-0.009l-0.009,-0.017l-0.008,-0.018l-0.007,-0.017l-0.004,-0.01l-0.008,-0.019l-0.006,-0.02l-0.007,-0.02l-0.002,-0.01l-0.006,-0.021l-0.005,-0.022l-0.004,-0.022l-0.002,-0.009l-0.003,-0.023l-0.003,-0.023l-0.002,-0.023l0,-0.009l-0.001,-0.024l0,-0.023l0.001,-0.023l0.001,-0.01l0.002,-0.023l0.002,-0.022l0.004,-0.023l0.002,-0.01l0.004,-0.021l0.005,-0.022l0.006,-0.021l0.003,-0.01l0.006,-0.02l0.007,-0.019l0.007,-0.019l0.004,-0.01l0.008,-0.018l0.008,-0.017l0.009,-0.017l0.017,-0.033l0.033,-0.051l0.034,-0.045l0.035,-0.039l0.035,-0.035l0.034,-0.03l0.034,-0.027l0.033,-0.024l0.032,-0.022l0.032,-0.02l0.032,-0.018l0.031,-0.016l0.031,-0.016l0.031,-0.014l0.031,-0.014l0.03,-0.012l0.031,-0.012l0.032,-0.012l0.031,-0.011l0.034,-0.011l0.061,-0.019l0.066,-0.018l0.067,-0.017l0.069,-0.016l0.071,-0.015l0.073,-0.013l0.074,-0.013l0.077,-0.012l0.078,-0.011l0.08,-0.01l0.082,-0.01l0.084,-0.008l0.085,-0.007l0.087,-0.007l0.088,-0.005l0.09,-0.005l0.091,-0.004l0.093,-0.002l0.094,-0.002l0.094,-0.001l0.095,0.001Zm-0.182,0.6l-0.087,0.001l-0.086,0.003l-0.084,0.003l-0.084,0.005l-0.081,0.005l-0.08,0.006l-0.078,0.007l-0.076,0.007l-0.074,0.008l-0.072,0.01l-0.069,0.009l-0.068,0.011l-0.064,0.011l-0.063,0.012l-0.059,0.012l-0.057,0.013l-0.054,0.014l-0.051,0.014l-0.048,0.015l-0.023,0.007l-0.022,0.008l-0.021,0.008l-0.02,0.008l-0.02,0.008l-0.018,0.008l-0.018,0.008l-0.017,0.008l-0.016,0.009l-0.014,0.008l-0.014,0.009l-0.014,0.009l-0.012,0.009l-0.011,0.008l-0.01,0.009l-0.009,0.009l-0.008,0.01l-0.007,0.009l-0.006,0.009l-0.005,0.01l-0.004,0.009l-0.003,0.01l-0.001,0.009l-0.001,0.01l0,0.009l0.002,0.01l0.003,0.009l0.004,0.01l0.005,0.009l0.006,0.009l0.007,0.01l0.008,0.009l0.009,0.009l0.01,0.009l0.011,0.009l0.012,0.008l0.013,0.009l0.014,0.009l0.015,0.008l0.015,0.009l0.017,0.008l0.018,0.008l0.018,0.008l0.02,0.008l0.02,0.008l0.021,0.008l0.022,0.007l0.023,0.008l0.047,0.014l0.051,0.014l0.054,0.014l0.057,0.013l0.06,0.012l0.062,0.012l0.065,0.011l0.067,0.01l0.069,0.01l0.072,0.009l0.074,0.008l0.076,0.007l0.078,0.007l0.08,0.005l0.081,0.005l0.083,0.004l0.085,0.004l0.085,0.002l0.088,0.001l0.088,0.001l0.088,-0.001l0.087,-0.002l0.086,-0.002l0.084,-0.004l0.083,-0.004l0.082,-0.005l0.08,-0.006l0.078,-0.007l0.076,-0.007l0.074,-0.009l0.072,-0.009l0.069,-0.01l0.068,-0.01l0.064,-0.011l0.063,-0.012l0.059,-0.012l0.057,-0.013l0.054,-0.014l0.051,-0.014l0.048,-0.015l0.023,-0.007l0.022,-0.008l0.021,-0.008l0.02,-0.008l0.02,-0.008l0.018,-0.008l0.018,-0.008l0.017,-0.009l0.015,-0.008l0.015,-0.008l0.014,-0.009l0.013,-0.009l0.013,-0.009l0.011,-0.009l0.01,-0.009l0.009,-0.009l0.008,-0.009l0.007,-0.009l0.006,-0.009l0.005,-0.01l0.004,-0.009l0.003,-0.01l0.001,-0.009l0.001,-0.01l0,-0.009l-0.002,-0.01l-0.003,-0.01l-0.004,-0.009l-0.005,-0.009l-0.006,-0.01l-0.007,-0.009l-0.008,-0.009l-0.009,-0.009l-0.01,-0.009l-0.011,-0.009l-0.012,-0.009l-0.013,-0.008l-0.014,-0.009l-0.015,-0.008l-0.015,-0.009l-0.017,-0.008l-0.018,-0.008l-0.018,-0.008l-0.02,-0.008l-0.02,-0.008l-0.021,-0.008l-0.022,-0.008l-0.023,-0.007l-0.047,-0.015l-0.051,-0.014l-0.054,-0.013l-0.057,-0.013l-0.06,-0.012l-0.062,-0.012l-0.065,-0.011l-0.067,-0.01l-0.069,-0.01l-0.072,-0.009l-0.074,-0.008l-0.076,-0.007l-0.078,-0.007l-0.08,-0.006l-0.081,-0.005l-0.083,-0.004l-0.085,-0.003l-0.085,-0.002l-0.088,-0.001l-0.088,-0.001l-0.088,0.001Z" style="fill:#39efdd;"/><path d="M3.047,9.402l0.094,0.001l0.093,0.003l0.091,0.003l0.09,0.005l0.088,0.005l0.087,0.006l0.085,0.007l0.084,0.009l0.081,0.009l0.08,0.009l0.079,0.011l0.076,0.012l0.075,0.013l0.072,0.013l0.071,0.015l0.069,0.015l0.067,0.017l0.066,0.018l0.062,0.019l0.033,0.011l0.032,0.011l0.031,0.012l0.031,0.012l0.031,0.012l0.031,0.014l0.031,0.014l0.031,0.016l0.031,0.016l0.032,0.018l0.032,0.02l0.032,0.022l0.033,0.024l0.034,0.027l0.034,0.031l0.035,0.035l0.035,0.039l0.034,0.045l0.034,0.052l0.017,0.033l0.009,0.017l0.008,0.018l0.007,0.018l0.004,0.009l0.008,0.02l0.006,0.019l0.007,0.02l0.002,0.01l0.006,0.021l0.005,0.022l0.004,0.021l0.002,0.01l0.003,0.023l0.003,0.023l0.002,0.023l0,0.009l0.001,0.024l0,0.023l-0.001,0.023l-0.001,0.01l-0.002,0.023l-0.002,0.023l-0.004,0.022l-0.002,0.01l-0.004,0.021l-0.005,0.022l-0.006,0.021l-0.002,0.01l-0.007,0.02l-0.007,0.019l-0.007,0.02l-0.004,0.009l-0.012,0.026l-0.013,0.026l-0.017,0.033l-0.033,0.051l-0.034,0.045l-0.035,0.039l-0.035,0.035l-0.034,0.03l-0.034,0.027l-0.033,0.024l-0.032,0.022l-0.032,0.02l-0.032,0.018l-0.031,0.016l-0.031,0.016l-0.031,0.014l-0.031,0.014l-0.03,0.012l-0.031,0.012l-0.032,0.012l-0.031,0.011l-0.034,0.011l-0.062,0.019l-0.065,0.018l-0.067,0.017l-0.069,0.016l-0.071,0.015l-0.073,0.014l-0.074,0.012l-0.077,0.012l-0.078,0.011l-0.08,0.01l-0.082,0.01l-0.084,0.008l-0.085,0.007l-0.087,0.007l-0.088,0.005l-0.09,0.005l-0.091,0.004l-0.093,0.002l-0.094,0.002l-0.094,0.001l-0.095,-0.001l-0.094,-0.001l-0.093,-0.002l-0.091,-0.004l-0.09,-0.004l-0.088,-0.006l-0.087,-0.006l-0.085,-0.007l-0.084,-0.008l-0.081,-0.009l-0.081,-0.01l-0.078,-0.011l-0.076,-0.012l-0.075,-0.012l-0.072,-0.014l-0.071,-0.014l-0.069,-0.016l-0.067,-0.017l-0.066,-0.018l-0.062,-0.019l-0.033,-0.011l-0.032,-0.011l-0.031,-0.011l-0.031,-0.012l-0.031,-0.013l-0.031,-0.013l-0.031,-0.015l-0.031,-0.015l-0.031,-0.017l-0.032,-0.018l-0.032,-0.02l-0.032,-0.021l-0.033,-0.025l-0.034,-0.027l-0.034,-0.03l-0.035,-0.035l-0.035,-0.04l-0.035,-0.045l-0.018,-0.029l-0.014,-0.023l-0.013,-0.023l-0.005,-0.01l-0.009,-0.017l-0.008,-0.017l-0.007,-0.018l-0.004,-0.01l-0.008,-0.019l-0.006,-0.02l-0.007,-0.02l-0.002,-0.01l-0.006,-0.021l-0.005,-0.022l-0.004,-0.021l-0.002,-0.01l-0.003,-0.023l-0.003,-0.022l-0.002,-0.023l0,-0.01l-0.001,-0.023l0,-0.024l0.001,-0.023l0.001,-0.009l0.002,-0.023l0.002,-0.023l0.004,-0.023l0.002,-0.01l0.004,-0.021l0.005,-0.022l0.006,-0.021l0.003,-0.01l0.006,-0.019l0.007,-0.02l0.007,-0.019l0.004,-0.01l0.008,-0.017l0.008,-0.018l0.009,-0.017l0.017,-0.032l0.033,-0.052l0.034,-0.045l0.035,-0.039l0.035,-0.034l0.034,-0.031l0.034,-0.027l0.033,-0.024l0.032,-0.022l0.032,-0.019l0.032,-0.018l0.031,-0.017l0.031,-0.015l0.031,-0.015l0.031,-0.013l0.03,-0.013l0.031,-0.012l0.032,-0.012l0.031,-0.011l0.034,-0.011l0.061,-0.019l0.066,-0.018l0.067,-0.017l0.069,-0.016l0.071,-0.014l0.073,-0.014l0.074,-0.013l0.077,-0.012l0.078,-0.011l0.08,-0.01l0.082,-0.009l0.084,-0.009l0.085,-0.007l0.087,-0.007l0.088,-0.005l0.09,-0.005l0.091,-0.003l0.093,-0.003l0.094,-0.002l0.094,0l0.095,0Zm-0.182,0.6l-0.087,0.002l-0.086,0.002l-0.084,0.004l-0.084,0.004l-0.081,0.005l-0.08,0.006l-0.078,0.007l-0.076,0.007l-0.074,0.009l-0.072,0.009l-0.069,0.01l-0.068,0.01l-0.064,0.011l-0.063,0.012l-0.059,0.013l-0.057,0.013l-0.054,0.013l-0.051,0.014l-0.048,0.015l-0.023,0.008l-0.022,0.007l-0.021,0.008l-0.02,0.008l-0.02,0.008l-0.018,0.008l-0.018,0.008l-0.017,0.009l-0.016,0.008l-0.014,0.009l-0.014,0.008l-0.014,0.009l-0.012,0.009l-0.011,0.009l-0.01,0.009l-0.009,0.009l-0.008,0.009l-0.007,0.009l-0.006,0.009l-0.005,0.01l-0.004,0.009l-0.003,0.01l-0.001,0.009l-0.001,0.01l0,0.01l0.002,0.009l0.003,0.01l0.004,0.009l0.005,0.009l0.006,0.01l0.007,0.009l0.008,0.009l0.009,0.009l0.01,0.009l0.011,0.009l0.012,0.009l0.013,0.008l0.014,0.009l0.015,0.009l0.015,0.008l0.017,0.008l0.018,0.008l0.018,0.009l0.02,0.007l0.02,0.008l0.021,0.008l0.022,0.008l0.023,0.007l0.047,0.015l0.051,0.014l0.054,0.013l0.057,0.013l0.06,0.012l0.062,0.012l0.065,0.011l0.067,0.01l0.069,0.01l0.072,0.009l0.074,0.008l0.076,0.007l0.078,0.007l0.08,0.006l0.081,0.005l0.083,0.004l0.085,0.003l0.085,0.002l0.088,0.001l0.088,0.001l0.088,-0.001l0.087,-0.001l0.086,-0.003l0.084,-0.003l0.083,-0.005l0.082,-0.005l0.08,-0.006l0.078,-0.006l0.076,-0.008l0.074,-0.008l0.072,-0.009l0.069,-0.01l0.068,-0.011l0.064,-0.011l0.063,-0.012l0.059,-0.012l0.057,-0.013l0.054,-0.014l0.051,-0.014l0.048,-0.015l0.023,-0.007l0.022,-0.008l0.021,-0.008l0.02,-0.008l0.02,-0.008l0.018,-0.008l0.018,-0.008l0.017,-0.008l0.015,-0.009l0.015,-0.008l0.014,-0.009l0.013,-0.009l0.013,-0.008l0.011,-0.009l0.01,-0.009l0.009,-0.009l0.008,-0.01l0.007,-0.009l0.006,-0.009l0.005,-0.009l0.004,-0.01l0.003,-0.009l0.001,-0.01l0.001,-0.01l0,-0.009l-0.002,-0.01l-0.003,-0.009l-0.004,-0.01l-0.005,-0.009l-0.006,-0.009l-0.007,-0.01l-0.008,-0.009l-0.009,-0.009l-0.01,-0.009l-0.011,-0.009l-0.012,-0.008l-0.013,-0.009l-0.014,-0.009l-0.015,-0.008l-0.015,-0.009l-0.017,-0.008l-0.018,-0.008l-0.018,-0.008l-0.02,-0.008l-0.02,-0.008l-0.021,-0.008l-0.022,-0.007l-0.023,-0.008l-0.047,-0.014l-0.051,-0.014l-0.054,-0.014l-0.057,-0.013l-0.06,-0.012l-0.062,-0.012l-0.065,-0.011l-0.067,-0.01l-0.069,-0.01l-0.072,-0.008l-0.074,-0.009l-0.076,-0.007l-0.078,-0.007l-0.08,-0.005l-0.081,-0.005l-0.083,-0.004l-0.085,-0.003l-0.085,-0.003l-0.088,-0.001l-0.088,0l-0.088,0Z" style="fill:#39efdd;fill-opacity:0.8;"/><path d="M3.047,10.148l0.094,0.002l0.093,0.002l0.091,0.003l0.09,0.005l0.088,0.005l0.087,0.007l0.085,0.007l0.084,0.008l0.081,0.009l0.08,0.01l0.079,0.011l0.076,0.011l0.075,0.013l0.072,0.013l0.071,0.015l0.069,0.016l0.067,0.017l0.066,0.018l0.062,0.018l0.033,0.012l0.032,0.01l0.031,0.012l0.031,0.012l0.031,0.013l0.031,0.013l0.031,0.014l0.031,0.016l0.031,0.017l0.032,0.018l0.032,0.019l0.032,0.022l0.033,0.024l0.034,0.027l0.034,0.031l0.035,0.035l0.035,0.039l0.034,0.046l0.034,0.051l0.017,0.033l0.009,0.017l0.008,0.018l0.007,0.018l0.004,0.009l0.008,0.02l0.006,0.02l0.007,0.02l0.002,0.009l0.006,0.021l0.005,0.022l0.004,0.022l0.002,0.009l0.003,0.023l0.003,0.023l0.002,0.023l0,0.01l0.001,0.023l0,0.023l-0.001,0.024l-0.001,0.009l-0.002,0.023l-0.002,0.023l-0.004,0.023l-0.002,0.009l-0.004,0.022l-0.005,0.021l-0.006,0.021l-0.002,0.01l-0.007,0.02l-0.007,0.02l-0.007,0.019l-0.004,0.01l-0.012,0.026l-0.013,0.025l-0.017,0.033l-0.033,0.051l-0.034,0.045l-0.035,0.04l-0.035,0.034l-0.034,0.03l-0.034,0.027l-0.033,0.025l-0.032,0.021l-0.032,0.02l-0.032,0.018l-0.031,0.017l-0.031,0.015l-0.031,0.014l-0.031,0.014l-0.03,0.013l-0.031,0.012l-0.032,0.011l-0.031,0.011l-0.034,0.011l-0.062,0.019l-0.065,0.018l-0.067,0.017l-0.069,0.016l-0.071,0.015l-0.073,0.014l-0.074,0.013l-0.077,0.012l-0.078,0.011l-0.08,0.01l-0.082,0.009l-0.084,0.008l-0.085,0.008l-0.087,0.006l-0.088,0.006l-0.09,0.004l-0.091,0.004l-0.093,0.003l-0.094,0.001l-0.094,0.001l-0.095,0l-0.094,-0.002l-0.093,-0.002l-0.091,-0.004l-0.09,-0.004l-0.088,-0.005l-0.087,-0.007l-0.085,-0.007l-0.084,-0.008l-0.081,-0.009l-0.081,-0.01l-0.078,-0.011l-0.076,-0.011l-0.075,-0.013l-0.072,-0.014l-0.071,-0.014l-0.069,-0.016l-0.067,-0.017l-0.066,-0.018l-0.062,-0.019l-0.033,-0.011l-0.032,-0.011l-0.031,-0.011l-0.031,-0.012l-0.031,-0.013l-0.031,-0.013l-0.031,-0.015l-0.031,-0.015l-0.031,-0.017l-0.032,-0.018l-0.032,-0.019l-0.032,-0.022l-0.033,-0.024l-0.034,-0.028l-0.034,-0.03l-0.035,-0.035l-0.035,-0.04l-0.035,-0.045l-0.018,-0.029l-0.014,-0.023l-0.013,-0.023l-0.005,-0.009l-0.009,-0.018l-0.008,-0.017l-0.007,-0.018l-0.004,-0.009l-0.008,-0.02l-0.006,-0.02l-0.007,-0.02l-0.002,-0.009l-0.006,-0.022l-0.005,-0.021l-0.004,-0.022l-0.002,-0.01l-0.003,-0.022l-0.003,-0.023l-0.002,-0.023l0,-0.01l-0.001,-0.023l0,-0.023l0.001,-0.023l0.001,-0.01l0.002,-0.023l0.002,-0.023l0.004,-0.023l0.002,-0.009l0.004,-0.022l0.005,-0.021l0.006,-0.022l0.003,-0.009l0.006,-0.02l0.007,-0.02l0.007,-0.019l0.004,-0.009l0.008,-0.018l0.008,-0.017l0.009,-0.018l0.017,-0.032l0.033,-0.051l0.034,-0.045l0.035,-0.04l0.035,-0.034l0.034,-0.031l0.034,-0.027l0.033,-0.024l0.032,-0.021l0.032,-0.02l0.032,-0.018l0.031,-0.017l0.031,-0.015l0.031,-0.015l0.031,-0.013l0.03,-0.013l0.031,-0.012l0.032,-0.011l0.031,-0.011l0.034,-0.011l0.061,-0.019l0.066,-0.019l0.067,-0.017l0.069,-0.015l0.071,-0.015l0.073,-0.014l0.074,-0.013l0.077,-0.012l0.078,-0.011l0.08,-0.01l0.082,-0.009l0.084,-0.008l0.085,-0.008l0.087,-0.006l0.088,-0.006l0.09,-0.005l0.091,-0.003l0.093,-0.003l0.094,-0.002l0.094,0l0.095,0Zm-0.182,0.6l-0.087,0.002l-0.086,0.002l-0.084,0.004l-0.084,0.004l-0.081,0.005l-0.08,0.006l-0.078,0.007l-0.076,0.008l-0.074,0.008l-0.072,0.009l-0.069,0.01l-0.068,0.01l-0.064,0.012l-0.063,0.011l-0.059,0.013l-0.057,0.013l-0.054,0.013l-0.051,0.015l-0.048,0.014l-0.023,0.008l-0.022,0.007l-0.021,0.008l-0.02,0.008l-0.02,0.008l-0.018,0.008l-0.018,0.009l-0.017,0.008l-0.016,0.008l-0.014,0.009l-0.014,0.008l-0.014,0.009l-0.012,0.009l-0.011,0.009l-0.01,0.009l-0.009,0.009l-0.008,0.009l-0.007,0.009l-0.006,0.01l-0.005,0.009l-0.004,0.01l-0.003,0.009l-0.001,0.01l-0.001,0.009l0,0.01l0.002,0.009l0.003,0.01l0.004,0.009l0.005,0.01l0.006,0.009l0.007,0.009l0.008,0.009l0.009,0.009l0.01,0.009l0.011,0.009l0.012,0.009l0.013,0.009l0.014,0.008l0.015,0.009l0.015,0.008l0.017,0.009l0.018,0.008l0.018,0.008l0.02,0.008l0.02,0.008l0.021,0.007l0.022,0.008l0.023,0.007l0.047,0.015l0.051,0.014l0.054,0.013l0.057,0.013l0.06,0.013l0.062,0.011l0.065,0.011l0.067,0.011l0.069,0.009l0.072,0.009l0.074,0.008l0.076,0.008l0.078,0.006l0.08,0.006l0.081,0.005l0.083,0.004l0.085,0.003l0.085,0.002l0.088,0.002l0.088,0l0.088,-0.001l0.087,-0.001l0.086,-0.003l0.084,-0.003l0.083,-0.004l0.082,-0.005l0.08,-0.006l0.078,-0.007l0.076,-0.008l0.074,-0.008l0.072,-0.009l0.069,-0.01l0.068,-0.01l0.064,-0.012l0.063,-0.011l0.059,-0.013l0.057,-0.013l0.054,-0.014l0.051,-0.014l0.048,-0.014l0.023,-0.008l0.022,-0.008l0.021,-0.007l0.02,-0.008l0.02,-0.008l0.018,-0.008l0.018,-0.009l0.017,-0.008l0.015,-0.008l0.015,-0.009l0.014,-0.009l0.013,-0.008l0.013,-0.009l0.011,-0.009l0.01,-0.009l0.009,-0.009l0.008,-0.009l0.007,-0.01l0.006,-0.009l0.005,-0.009l0.004,-0.01l0.003,-0.009l0.001,-0.01l0.001,-0.009l0,-0.01l-0.002,-0.01l-0.003,-0.009l-0.004,-0.009l-0.005,-0.01l-0.006,-0.009l-0.007,-0.009l-0.008,-0.009l-0.009,-0.01l-0.01,-0.008l-0.011,-0.009l-0.012,-0.009l-0.013,-0.009l-0.014,-0.008l-0.015,-0.009l-0.015,-0.008l-0.017,-0.009l-0.018,-0.008l-0.018,-0.008l-0.02,-0.008l-0.02,-0.008l-0.021,-0.007l-0.022,-0.008l-0.023,-0.008l-0.047,-0.014l-0.051,-0.014l-0.054,-0.014l-0.057,-0.012l-0.06,-0.013l-0.062,-0.011l-0.065,-0.011l-0.067,-0.011l-0.069,-0.009l-0.072,-0.009l-0.074,-0.008l-0.076,-0.008l-0.078,-0.006l-0.08,-0.006l-0.081,-0.005l-0.083,-0.004l-0.085,-0.003l-0.085,-0.002l-0.088,-0.002l-0.088,0l-0.088,0Z" style="fill:#39efdd;fill-opacity:0.6;"/><path d="M3.047,10.894l0.094,0.002l0.093,0.002l0.091,0.004l0.09,0.004l0.088,0.005l0.087,0.007l0.085,0.007l0.084,0.008l0.081,0.009l0.08,0.01l0.079,0.011l0.076,0.012l0.075,0.012l0.072,0.014l0.071,0.014l0.069,0.016l0.067,0.017l0.066,0.018l0.062,0.019l0.033,0.011l0.032,0.011l0.031,0.011l0.031,0.012l0.031,0.013l0.031,0.013l0.031,0.015l0.031,0.015l0.031,0.017l0.032,0.018l0.032,0.02l0.032,0.021l0.033,0.025l0.034,0.027l0.034,0.03l0.035,0.035l0.035,0.04l0.035,0.045l0.033,0.052l0.017,0.032l0.009,0.018l0.008,0.017l0.007,0.018l0.004,0.01l0.008,0.019l0.006,0.02l0.007,0.02l0.002,0.009l0.006,0.022l0.005,0.021l0.004,0.022l0.002,0.009l0.003,0.023l0.003,0.023l0.002,0.023l0,0.01l0.001,0.023l0,0.024l-0.001,0.023l-0.001,0.01l-0.002,0.022l-0.002,0.023l-0.004,0.023l-0.002,0.009l-0.004,0.022l-0.005,0.021l-0.006,0.022l-0.002,0.009l-0.007,0.02l-0.007,0.02l-0.007,0.019l-0.004,0.01l-0.012,0.026l-0.013,0.026l-0.017,0.032l-0.033,0.052l-0.034,0.045l-0.035,0.039l-0.035,0.034l-0.034,0.031l-0.034,0.027l-0.033,0.024l-0.032,0.021l-0.032,0.02l-0.032,0.018l-0.031,0.017l-0.031,0.015l-0.031,0.015l-0.031,0.013l-0.03,0.013l-0.031,0.012l-0.032,0.011l-0.031,0.011l-0.034,0.012l-0.062,0.019l-0.065,0.018l-0.067,0.017l-0.069,0.016l-0.071,0.014l-0.073,0.014l-0.074,0.013l-0.077,0.012l-0.078,0.011l-0.08,0.01l-0.082,0.009l-0.084,0.008l-0.085,0.008l-0.087,0.006l-0.088,0.006l-0.09,0.005l-0.091,0.003l-0.093,0.003l-0.094,0.002l-0.094,0l-0.095,0l-0.094,-0.002l-0.093,-0.002l-0.091,-0.003l-0.09,-0.005l-0.088,-0.005l-0.087,-0.006l-0.085,-0.008l-0.084,-0.008l-0.081,-0.009l-0.081,-0.01l-0.078,-0.01l-0.076,-0.012l-0.075,-0.013l-0.072,-0.013l-0.071,-0.015l-0.069,-0.016l-0.067,-0.016l-0.066,-0.018l-0.062,-0.019l-0.033,-0.011l-0.032,-0.011l-0.031,-0.012l-0.031,-0.012l-0.031,-0.012l-0.031,-0.014l-0.031,-0.014l-0.031,-0.016l-0.031,-0.016l-0.032,-0.018l-0.032,-0.02l-0.032,-0.022l-0.033,-0.024l-0.034,-0.027l-0.034,-0.031l-0.035,-0.035l-0.035,-0.039l-0.035,-0.046l-0.033,-0.051l-0.017,-0.033l-0.009,-0.017l-0.008,-0.018l-0.007,-0.018l-0.004,-0.009l-0.008,-0.02l-0.006,-0.019l-0.007,-0.021l-0.002,-0.009l-0.006,-0.021l-0.005,-0.022l-0.004,-0.022l-0.002,-0.009l-0.003,-0.023l-0.003,-0.023l-0.002,-0.023l0,-0.009l-0.001,-0.024l0,-0.023l0.001,-0.023l0.001,-0.01l0.002,-0.023l0.002,-0.023l0.004,-0.022l0.002,-0.01l0.004,-0.022l0.005,-0.021l0.006,-0.021l0.003,-0.01l0.006,-0.02l0.007,-0.019l0.007,-0.02l0.004,-0.009l0.008,-0.018l0.008,-0.017l0.009,-0.017l0.017,-0.033l0.033,-0.051l0.034,-0.045l0.035,-0.039l0.035,-0.035l0.034,-0.03l0.034,-0.027l0.033,-0.024l0.032,-0.022l0.032,-0.02l0.032,-0.018l0.031,-0.016l0.031,-0.016l0.031,-0.014l0.031,-0.014l0.03,-0.012l0.031,-0.013l0.032,-0.011l0.031,-0.011l0.034,-0.011l0.061,-0.019l0.066,-0.018l0.067,-0.017l0.069,-0.016l0.071,-0.015l0.073,-0.014l0.074,-0.013l0.077,-0.011l0.078,-0.011l0.08,-0.011l0.082,-0.009l0.084,-0.008l0.085,-0.008l0.087,-0.006l0.088,-0.006l0.09,-0.004l0.091,-0.004l0.093,-0.003l0.094,-0.001l0.094,-0.001l0.095,0Zm-0.182,0.601l-0.087,0.001l-0.086,0.003l-0.084,0.003l-0.084,0.004l-0.081,0.006l-0.08,0.006l-0.078,0.006l-0.076,0.008l-0.074,0.008l-0.072,0.009l-0.069,0.01l-0.068,0.011l-0.064,0.011l-0.063,0.012l-0.059,0.012l-0.057,0.013l-0.054,0.014l-0.051,0.014l-0.048,0.015l-0.023,0.007l-0.022,0.008l-0.021,0.008l-0.02,0.007l-0.02,0.008l-0.018,0.009l-0.018,0.008l-0.017,0.008l-0.016,0.009l-0.014,0.008l-0.014,0.009l-0.014,0.008l-0.012,0.009l-0.011,0.009l-0.01,0.009l-0.009,0.009l-0.008,0.009l-0.007,0.01l-0.006,0.009l-0.005,0.009l-0.004,0.01l-0.003,0.009l-0.001,0.01l-0.001,0.009l0,0.01l0.002,0.01l0.003,0.009l0.004,0.01l0.005,0.009l0.006,0.009l0.007,0.009l0.008,0.01l0.009,0.009l0.01,0.009l0.011,0.008l0.012,0.009l0.013,0.009l0.014,0.009l0.015,0.008l0.015,0.008l0.017,0.009l0.018,0.008l0.018,0.008l0.02,0.008l0.02,0.008l0.021,0.008l0.022,0.007l0.023,0.008l0.047,0.014l0.051,0.014l0.054,0.014l0.057,0.013l0.06,0.012l0.062,0.012l0.065,0.011l0.067,0.01l0.069,0.009l0.072,0.009l0.074,0.008l0.076,0.008l0.078,0.006l0.08,0.006l0.081,0.005l0.083,0.004l0.085,0.003l0.085,0.003l0.088,0.001l0.088,0l0.088,0l0.087,-0.002l0.086,-0.002l0.084,-0.004l0.083,-0.004l0.082,-0.005l0.08,-0.006l0.078,-0.007l0.076,-0.007l0.074,-0.009l0.072,-0.009l0.069,-0.01l0.068,-0.01l0.064,-0.011l0.063,-0.012l0.059,-0.013l0.057,-0.013l0.054,-0.013l0.051,-0.014l0.048,-0.015l0.023,-0.008l0.022,-0.007l0.021,-0.008l0.02,-0.008l0.02,-0.008l0.018,-0.008l0.018,-0.008l0.017,-0.009l0.015,-0.008l0.015,-0.009l0.014,-0.008l0.013,-0.009l0.013,-0.009l0.011,-0.009l0.01,-0.009l0.009,-0.009l0.008,-0.009l0.007,-0.009l0.006,-0.01l0.005,-0.009l0.004,-0.009l0.003,-0.01l0.001,-0.009l0.001,-0.01l0,-0.01l-0.002,-0.009l-0.003,-0.01l-0.004,-0.009l-0.005,-0.01l-0.006,-0.009l-0.007,-0.009l-0.008,-0.009l-0.009,-0.009l-0.01,-0.009l-0.011,-0.009l-0.012,-0.009l-0.013,-0.009l-0.014,-0.008l-0.015,-0.009l-0.015,-0.008l-0.017,-0.008l-0.018,-0.009l-0.018,-0.008l-0.02,-0.008l-0.02,-0.007l-0.021,-0.008l-0.022,-0.008l-0.023,-0.007l-0.047,-0.015l-0.051,-0.014l-0.054,-0.013l-0.057,-0.013l-0.06,-0.012l-0.062,-0.012l-0.065,-0.011l-0.067,-0.01l-0.069,-0.01l-0.072,-0.009l-0.074,-0.008l-0.076,-0.007l-0.078,-0.007l-0.08,-0.006l-0.081,-0.005l-0.083,-0.004l-0.085,-0.003l-0.085,-0.002l-0.088,-0.002l-0.088,0l-0.088,0.001Z" style="fill:#39efdd;fill-opacity:0.4;"/><path d="M3.047,11.641l0.094,0.001l0.093,0.003l0.091,0.003l0.09,0.004l0.088,0.006l0.087,0.006l0.085,0.007l0.084,0.008l0.081,0.009l0.08,0.01l0.079,0.011l0.076,0.012l0.075,0.012l0.072,0.014l0.071,0.015l0.069,0.015l0.067,0.017l0.066,0.018l0.062,0.019l0.033,0.011l0.032,0.011l0.031,0.011l0.031,0.012l0.031,0.013l0.031,0.014l0.031,0.014l0.031,0.015l0.031,0.017l0.032,0.018l0.032,0.02l0.032,0.022l0.033,0.024l0.034,0.027l0.034,0.031l0.035,0.034l0.035,0.04l0.035,0.045l0.033,0.052l0.017,0.033l0.009,0.017l0.008,0.018l0.007,0.017l0.004,0.01l0.008,0.019l0.006,0.02l0.007,0.02l0.002,0.01l0.006,0.021l0.005,0.021l0.004,0.022l0.002,0.01l0.003,0.023l0.003,0.022l0.002,0.023l0,0.01l0.001,0.023l0,0.024l-0.001,0.023l-0.001,0.01l-0.002,0.023l-0.002,0.022l-0.004,0.023l-0.002,0.01l-0.004,0.021l-0.005,0.022l-0.006,0.021l-0.002,0.009l-0.007,0.02l-0.007,0.02l-0.007,0.02l-0.004,0.009l-0.012,0.026l-0.013,0.026l-0.017,0.032l-0.033,0.052l-0.035,0.045l-0.034,0.039l-0.035,0.035l-0.034,0.03l-0.034,0.027l-0.033,0.024l-0.032,0.022l-0.032,0.019l-0.032,0.018l-0.031,0.017l-0.031,0.016l-0.031,0.014l-0.031,0.013l-0.03,0.013l-0.031,0.012l-0.032,0.012l-0.031,0.011l-0.034,0.011l-0.062,0.019l-0.065,0.018l-0.067,0.017l-0.069,0.016l-0.071,0.015l-0.073,0.013l-0.074,0.013l-0.077,0.012l-0.078,0.011l-0.08,0.01l-0.082,0.009l-0.084,0.009l-0.085,0.007l-0.087,0.007l-0.088,0.005l-0.09,0.005l-0.091,0.004l-0.093,0.002l-0.094,0.002l-0.094,0.001l-0.095,-0.001l-0.094,-0.001l-0.093,-0.003l-0.091,-0.003l-0.09,-0.004l-0.088,-0.006l-0.087,-0.006l-0.085,-0.007l-0.084,-0.008l-0.081,-0.009l-0.081,-0.01l-0.078,-0.011l-0.076,-0.012l-0.075,-0.013l-0.072,-0.013l-0.071,-0.015l-0.069,-0.015l-0.067,-0.017l-0.066,-0.018l-0.062,-0.019l-0.033,-0.011l-0.032,-0.011l-0.031,-0.012l-0.031,-0.012l-0.031,-0.012l-0.031,-0.014l-0.031,-0.014l-0.031,-0.015l-0.031,-0.017l-0.032,-0.018l-0.032,-0.02l-0.032,-0.022l-0.033,-0.024l-0.034,-0.027l-0.034,-0.031l-0.035,-0.034l-0.035,-0.04l-0.034,-0.045l-0.019,-0.03l-0.014,-0.022l-0.013,-0.023l-0.005,-0.01l-0.009,-0.017l-0.008,-0.018l-0.007,-0.017l-0.004,-0.01l-0.008,-0.019l-0.006,-0.02l-0.007,-0.02l-0.002,-0.01l-0.006,-0.021l-0.005,-0.022l-0.004,-0.022l-0.002,-0.009l-0.003,-0.023l-0.003,-0.023l-0.002,-0.023l0,-0.009l-0.001,-0.023l0,-0.024l0.001,-0.023l0.001,-0.01l0.002,-0.023l0.002,-0.022l0.004,-0.023l0.002,-0.01l0.004,-0.021l0.005,-0.022l0.006,-0.021l0.003,-0.01l0.006,-0.02l0.007,-0.019l0.007,-0.019l0.004,-0.01l0.008,-0.018l0.008,-0.017l0.009,-0.017l0.017,-0.033l0.033,-0.051l0.034,-0.045l0.035,-0.039l0.035,-0.035l0.034,-0.03l0.034,-0.027l0.033,-0.024l0.032,-0.022l0.032,-0.02l0.032,-0.018l0.031,-0.016l0.031,-0.016l0.031,-0.014l0.031,-0.014l0.03,-0.012l0.031,-0.012l0.032,-0.012l0.031,-0.011l0.034,-0.011l0.061,-0.019l0.066,-0.018l0.067,-0.017l0.069,-0.016l0.071,-0.015l0.073,-0.013l0.074,-0.013l0.077,-0.012l0.078,-0.011l0.08,-0.01l0.082,-0.01l0.084,-0.008l0.085,-0.007l0.087,-0.007l0.088,-0.005l0.09,-0.005l0.091,-0.004l0.093,-0.002l0.094,-0.002l0.094,-0.001l0.095,0.001Zm-0.182,0.6l-0.087,0.001l-0.086,0.003l-0.084,0.003l-0.084,0.005l-0.081,0.005l-0.08,0.006l-0.078,0.007l-0.076,0.007l-0.074,0.008l-0.072,0.01l-0.069,0.009l-0.068,0.011l-0.064,0.011l-0.063,0.012l-0.059,0.012l-0.057,0.013l-0.054,0.014l-0.051,0.014l-0.048,0.015l-0.023,0.007l-0.022,0.008l-0.021,0.008l-0.02,0.008l-0.02,0.008l-0.018,0.008l-0.018,0.008l-0.017,0.008l-0.016,0.009l-0.014,0.008l-0.014,0.009l-0.014,0.009l-0.012,0.009l-0.011,0.008l-0.01,0.009l-0.009,0.01l-0.008,0.009l-0.007,0.009l-0.006,0.009l-0.005,0.01l-0.004,0.009l-0.003,0.01l-0.001,0.009l-0.001,0.01l0,0.009l0.002,0.01l0.003,0.009l0.004,0.01l0.005,0.009l0.006,0.009l0.007,0.01l0.008,0.009l0.009,0.009l0.01,0.009l0.011,0.009l0.012,0.009l0.013,0.008l0.014,0.009l0.015,0.008l0.015,0.009l0.017,0.008l0.018,0.008l0.018,0.008l0.02,0.008l0.02,0.008l0.021,0.008l0.022,0.007l0.023,0.008l0.047,0.014l0.051,0.014l0.054,0.014l0.057,0.013l0.06,0.012l0.062,0.012l0.065,0.011l0.067,0.01l0.069,0.01l0.072,0.009l0.074,0.008l0.076,0.007l0.078,0.007l0.08,0.005l0.081,0.005l0.083,0.004l0.085,0.004l0.085,0.002l0.088,0.001l0.088,0.001l0.088,-0.001l0.087,-0.002l0.086,-0.002l0.084,-0.003l0.083,-0.005l0.082,-0.005l0.08,-0.006l0.078,-0.007l0.076,-0.007l0.074,-0.009l0.072,-0.009l0.069,-0.009l0.068,-0.011l0.064,-0.011l0.063,-0.012l0.059,-0.012l0.057,-0.013l0.054,-0.014l0.051,-0.014l0.048,-0.015l0.023,-0.007l0.022,-0.008l0.021,-0.008l0.02,-0.008l0.02,-0.008l0.018,-0.008l0.018,-0.008l0.017,-0.008l0.015,-0.009l0.015,-0.008l0.014,-0.009l0.013,-0.009l0.013,-0.009l0.011,-0.009l0.01,-0.009l0.009,-0.009l0.008,-0.009l0.007,-0.009l0.006,-0.009l0.005,-0.01l0.004,-0.009l0.003,-0.01l0.001,-0.009l0.001,-0.01l0,-0.009l-0.002,-0.01l-0.003,-0.01l-0.004,-0.009l-0.005,-0.009l-0.006,-0.01l-0.007,-0.009l-0.008,-0.009l-0.009,-0.009l-0.01,-0.009l-0.011,-0.009l-0.012,-0.009l-0.013,-0.008l-0.014,-0.009l-0.015,-0.008l-0.015,-0.009l-0.017,-0.008l-0.018,-0.008l-0.018,-0.008l-0.02,-0.008l-0.02,-0.008l-0.021,-0.008l-0.022,-0.008l-0.023,-0.007l-0.047,-0.015l-0.051,-0.014l-0.054,-0.013l-0.057,-0.013l-0.06,-0.012l-0.062,-0.012l-0.065,-0.011l-0.067,-0.01l-0.069,-0.01l-0.072,-0.009l-0.074,-0.008l-0.076,-0.007l-0.078,-0.007l-0.08,-0.006l-0.081,-0.004l-0.083,-0.005l-0.085,-0.003l-0.085,-0.002l-0.088,-0.001l-0.088,-0.001l-0.088,0.001Z" style="fill:#39efdd;fill-opacity:0.2;"/></g><g><path d="M11.023,3.561l-10.377,0.014l-0.019,6.026l10.376,-0.014l0.02,-6.026Z" style="fill:none;stroke:#000;stroke-width:1.12px;"/><path d="M11.023,3.561l-10.377,0.014l-0.019,6.026l10.376,-0.014l0.02,-6.026Z" style="fill:#111;"/><path d="M15.365,7.911c0.004,-1.153 -0.452,-2.261 -1.267,-3.077c-0.815,-0.816 -1.921,-1.275 -3.075,-1.273c0,0 0,0 0,0l-0.02,6.026l4.357,-0.005c0,0 0.002,-0.725 0.005,-1.671Z" style="fill:none;stroke:#000;stroke-width:1.08px;"/><path d="M15.365,7.911c0.004,-1.153 -0.452,-2.261 -1.267,-3.077c-0.815,-0.816 -1.921,-1.275 -3.075,-1.273c0,0 0,0 0,0l-0.02,6.026l4.357,-0.005c0,0 0.002,-0.725 0.005,-1.671Z" style="fill:#39a4ef;"/><path d="M15.368,6.887l-4.356,0.006l-0.009,2.694l4.357,-0.005l0.008,-2.695Z" style="fill:none;stroke:#000;stroke-width:1.12px;"/><path d="M15.368,6.887l-4.356,0.006l-0.009,2.694l4.357,-0.005l0.008,-2.695Z" style="fill:#111;"/></g><path d="M15.286,7.969c0,-0.093 -0.075,-0.168 -0.168,-0.168l-0.676,0c-0.093,0 -0.168,0.075 -0.168,0.168l0,0.336c0,0.093 0.075,0.168 0.168,0.168l0.676,0c0.093,0 0.168,-0.075 0.168,-0.168l0,-0.336Z" style="fill:#ffbf25;"/><path d="M15.286,7.927c0,-0.069 -0.057,-0.126 -0.127,-0.126l-0.253,0c-0.069,0 -0.126,0.057 -0.126,0.126l0,0.419c0,0.07 0.057,0.127 0.126,0.127l0.253,0c0.07,0 0.127,-0.057 0.127,-0.127l0,-0.419Z" style="fill:#ffd980;"/><rect x="0.627" y="8.681" width="1.358" height="0.526" style="fill:#888;"/><path d="M9.242,6.505l-1.923,1.923l-1.442,-1.442l0.241,-0.241l1.201,1.201l1.441,-1.441l-1.441,-1.441l-0.359,0.36l-0.241,-0.241l0.6,-0.601c0.641,0.641 1.282,1.282 1.923,1.923Zm-3.844,-0.481l-0.241,0.241l-1.202,-1.201l-1.44,1.441l1.44,1.441l0.361,-0.36l0.241,0.241l-0.602,0.601l-1.923,-1.923l1.923,-1.923c0.481,0.481 0.962,0.961 1.443,1.442Zm-0.842,0.122l-0.359,0.359l1.44,1.441l0.36,-0.36l0.241,0.242l-0.601,0.6l-1.923,-1.923l0.601,-0.6c0.08,0.08 0.161,0.16 0.241,0.241Zm3.004,0.359l-0.602,0.602l-0.241,-0.241l0.361,-0.361l-1.441,-1.441l-0.36,0.361l-0.242,-0.241l0.602,-0.602c0.641,0.641 1.282,1.282 1.923,1.923Zm-1.321,-0.361l-0.962,0.962l-0.241,-0.241l0.962,-0.962c0.08,0.081 0.161,0.161 0.241,0.241Z" style="fill:#fff;"/></svg>
