<?xml version="1.0" encoding="UTF-8" standalone="no"?><!DOCTYPE svg PUBLIC "-//W3C//DTD SVG 1.1//EN" "http://www.w3.org/Graphics/SVG/1.1/DTD/svg11.dtd"><svg width="100%" height="100%" viewBox="0 0 256 128" version="1.1" xmlns="http://www.w3.org/2000/svg" xmlns:xlink="http://www.w3.org/1999/xlink" xml:space="preserve" xmlns:serif="http://www.serif.com/" style="fill-rule:evenodd;clip-rule:evenodd;stroke-linecap:square;"><rect id="controls" x="0" y="0" width="256" height="128" style="fill:none;"/><rect x="75.302" y="87.553" width="79.758" height="13.394" style="fill:#fff;"/><rect x="89.61" y="31.583" width="13.49" height="13.394" style="fill:#fff;"/><rect x="103.61" y="31.583" width="13.49" height="13.394" style="fill:#fff;"/><rect x="117.578" y="31.583" width="13.49" height="13.394" style="fill:#fff;"/><rect x="131.578" y="31.583" width="13.49" height="13.394" style="fill:#fff;"/><rect x="33.713" y="31.583" width="13.49" height="13.394" style="fill:#fff;"/><rect x="47.713" y="31.583" width="13.49" height="13.394" style="fill:#fff;"/><rect x="54.66" y="45.569" width="13.49" height="13.394" style="fill:#fff;"/><rect x="44.16" y="59.553" width="13.49" height="13.394" style="fill:#fff;"/><rect x="58.16" y="59.553" width="13.49" height="13.394" style="fill:#fff;"/><rect x="72.16" y="59.553" width="13.49" height="13.394" style="fill:#fff;"/><rect x="61.681" y="31.583" width="13.49" height="13.394" style="fill:#fff;"/><rect x="75.681" y="31.583" width="13.49" height="13.394" style="fill:#fff;"/><rect x="145.702" y="31.583" width="13.49" height="13.394" style="fill:#fff;"/><rect x="159.702" y="31.583" width="13.49" height="13.394" style="fill:#fff;"/><rect x="19.784" y="73.61" width="30.449" height="13.394" style="fill:#fff;"/><g><g><path id="rect5336" d="M57.655,46l7.5,0c1.385,0 2.5,1.115 2.5,2.5l0,7.5c0,1.385 -1.115,2.5 -2.5,2.5l-7.5,0c-1.385,0 -2.5,-1.115 -2.5,-2.5l0,-7.5c0,-1.385 1.115,-2.5 2.5,-2.5Z" style="fill:#fff;fill-rule:nonzero;stroke:#fcfcfc;stroke-width:0.75px;"/><path id="rect5362" d="M47.155,60l7.5,0c1.385,0 2.5,1.115 2.5,2.5l0,7.5c0,1.385 -1.115,2.5 -2.5,2.5l-7.5,0c-1.385,0 -2.5,-1.115 -2.5,-2.5l0,-7.5c0,-1.385 1.115,-2.5 2.5,-2.5Z" style="fill:#fff;fill-rule:nonzero;stroke:#fcfcfc;stroke-width:0.75px;"/><path id="rect5364" d="M61.155,60l7.5,0c1.385,0 2.5,1.115 2.5,2.5l0,7.5c0,1.385 -1.115,2.5 -2.5,2.5l-7.5,0c-1.385,0 -2.5,-1.115 -2.5,-2.5l0,-7.5c0,-1.385 1.115,-2.5 2.5,-2.5Z" style="fill:#fff;fill-rule:nonzero;stroke:#fcfcfc;stroke-width:0.75px;"/><path id="rect5366" d="M75.155,60l7.5,0c1.385,0 2.5,1.115 2.5,2.5l0,7.5c0,1.385 -1.115,2.5 -2.5,2.5l-7.5,0c-1.385,0 -2.5,-1.115 -2.5,-2.5l0,-7.5c0,-1.385 1.115,-2.5 2.5,-2.5Z" style="fill:#fff;fill-rule:nonzero;stroke:#fcfcfc;stroke-width:0.75px;"/></g></g><path id="rect5388" d="M22.655,74l24.5,0c1.385,0 2.5,1.115 2.5,2.5l0,7.5c0,1.385 -1.115,2.5 -2.5,2.5l-24.5,0c-1.385,0 -2.5,-1.115 -2.5,-2.5l0,-7.5c0,-1.385 1.115,-2.5 2.5,-2.5Z" style="fill:#fff;fill-rule:nonzero;stroke:#fff;stroke-width:0.75px;"/><g><path id="rect5422" d="M78.155,88l74,0c1.385,0 2.5,1.115 2.5,2.5l0,7.5c0,1.385 -1.115,2.5 -2.5,2.5l-74,0c-1.385,0 -2.5,-1.115 -2.5,-2.5l0,-7.5c0,-0.655 0.249,-1.249 0.658,-1.694c0.456,-0.496 1.112,-0.806 1.842,-0.806Z" style="fill:#fff;fill-rule:nonzero;stroke:#fff;stroke-width:0.75px;"/></g><rect x="191.625" y="27.584" width="44.592" height="65.64" style="fill:#fff;stroke:#fff;stroke-width:0.8px;stroke-linecap:round;stroke-linejoin:round;stroke-miterlimit:1.5;"/><rect x="211.648" y="32" width="4.545" height="16.463" style="fill:none;stroke:#000;stroke-width:0.8px;stroke-linecap:round;stroke-linejoin:round;stroke-miterlimit:1.5;"/><path d="M213.92,27.584l0,4.416" style="stroke:#000;stroke-width:0.8px;stroke-linecap:round;stroke-linejoin:round;stroke-miterlimit:1.5;"/><path d="M213.92,48.463l0,19.395" style="stroke:#000;stroke-width:0.8px;stroke-linecap:round;stroke-linejoin:round;stroke-miterlimit:1.5;"/><path d="M88.614,24.649l0,2.899l0.479,0l0,-2.899l-0.479,0Zm0.479,3.379l0.487,0l0,-0.48l-0.487,0l0,0.48Zm0.487,-0.48l0.48,0l0,-0.486l-0.48,0l0,0.486Zm0.48,-0.966l0,0.48l0.486,0l0,-0.48l-0.486,0Zm0.486,0.48l0,0.486l0.48,0l0,-0.486l-0.48,0Zm0.48,0.966l0.487,0l0,-0.48l-0.487,0l0,0.48Zm0.487,-3.379l0,2.899l0.48,0l0,-2.899l-0.48,0Z" style="fill:#fff;fill-rule:nonzero;"/><path d="M94.405,25.615l-1.453,0l0,0.48l1.453,0l0,-0.48Zm0,0.48l0,0.487l-1.453,0l0,-0.487l-0.479,0l0,1.453l0.479,0l0,-0.486l1.933,0l0,-0.967l-0.48,0Zm0.48,1.933l0,-0.48l-1.933,0l0,0.48l1.933,0Z" style="fill:#fff;fill-rule:nonzero;"/><path d="M95.365,27.062l0,0.486l0.48,0l0,-0.486l-0.48,0Zm1.933,-0.967l0,0.487l-1.453,0l0,0.48l1.453,0l0,0.486l-1.453,0l0,0.48l1.933,0l0,-1.933l-0.48,0Zm-1.453,-0.48l0,0.48l1.453,0l0,-0.48l-1.453,0Z" style="fill:#fff;fill-rule:nonzero;"/><path d="M98.737,26.095l1.453,0l0,-0.48l-1.932,0l0,3.379l0.479,0l0,-0.966l1.453,0l0,-0.48l-1.453,0l0,-1.453Zm1.453,0l0,1.453l0.48,0l0,-1.453l-0.48,0Z" style="fill:#fff;fill-rule:nonzero;"/><path d="M101.15,26.095l0,1.453l0.48,0l0,-1.453l-0.48,0Zm0.48,1.933l1.453,0l0,-0.48l-1.453,0l0,0.48Zm1.453,-1.933l0,1.453l0.48,0l0,-1.453l-0.48,0Zm0,-0.48l-1.453,0l0,0.48l1.453,0l0,-0.48Z" style="fill:#fff;fill-rule:nonzero;"/><path d="M105.976,26.095l0,1.933l0.479,0l0,-1.933l-0.479,0Zm0,0l0,-0.48l-1.933,0l0,2.413l0.48,0l0,-1.933l1.453,0Z" style="fill:#fff;fill-rule:nonzero;"/><path d="M108.868,28.028l1.933,0l0,-0.48l-1.933,0l0,0.48Zm2.413,-0.48l0,-0.966l-0.48,0l0,0.966l0.48,0Zm-0.48,-0.966l0,-0.487l-1.453,0l0,0.487l1.453,0Zm-1.933,-1.453l0,0.966l0.48,0l0,-0.966l-0.48,0Zm2.413,-0.48l-1.933,0l0,0.48l1.933,0l0,-0.48Z" style="fill:#fff;fill-rule:nonzero;"/><path d="M111.761,25.615l0,1.933l0.48,0l0,-1.933l-0.48,0Zm0.48,2.413l0.486,0l0,-0.48l-0.486,0l0,0.48Zm0.486,-0.48l0.48,0l0,-0.486l-0.48,0l0,0.486Zm0.48,-0.966l0,0.48l0.487,0l0,-0.48l-0.487,0Zm0.487,0.48l0,0.486l0.479,0l0,-0.486l-0.479,0Zm0.479,0.966l0.487,0l0,-0.48l-0.487,0l0,0.48Zm0.487,-2.413l0,1.933l0.48,0l0,-1.933l-0.48,0Z" style="fill:#fff;fill-rule:nonzero;"/><path d="M115.62,28.028l0.479,0l0,-2.413l-0.479,0l0,2.413Zm0,-3.379l0,0.48l0.479,0l0,-0.48l-0.479,0Z" style="fill:#fff;fill-rule:nonzero;"/><path d="M118.026,28.028l0,-0.48l-0.967,0l0,0.48l0.967,0Zm0,-1.933l0,-0.48l-0.967,0l0,-0.486l-0.48,0l0,2.419l0.48,0l0,-1.453l0.967,0Z" style="fill:#fff;fill-rule:nonzero;"/><path d="M118.505,26.095l0,1.453l0.48,0l0,-1.453l-0.48,0Zm2.413,-0.48l-1.933,0l0,0.48l1.933,0l0,-0.48Zm0,2.413l0,-0.48l-1.933,0l0,0.48l1.933,0Z" style="fill:#fff;fill-rule:nonzero;"/><path d="M121.878,26.095l1.453,0l0,-0.48l-1.453,0l0,-0.966l-0.48,0l0,3.379l0.48,0l0,-1.933Zm1.453,0l0,1.933l0.48,0l0,-1.933l-0.48,0Z" style="fill:#fff;fill-rule:nonzero;"/><path d="M101.877,56.71l0,-0.48l-2.413,0l0,3.379l0.48,0l0,-1.446l1.933,0l0,-0.487l-1.933,0l0,-0.966l1.933,0Z" style="fill:#fff;fill-rule:nonzero;"/><path d="M102.836,59.129l0,0.48l0.487,0l0,-0.48l-0.487,0Zm-0.479,-2.899l0,2.899l0.479,0l0,-2.899l-0.479,0Z" style="fill:#fff;fill-rule:nonzero;"/><path d="M103.803,57.196l0,1.933l0.48,0l0,-1.933l-0.48,0Zm1.933,0l0,1.933l-1.453,0l0,0.48l1.453,0l0,0.48l0.479,0l0,-2.893l-0.479,0Zm-1.453,3.38l1.453,0l0,-0.487l-1.453,0l0,0.487Z" style="fill:#fff;fill-rule:nonzero;"/><path d="M106.695,59.609l0.48,0l0,-2.413l-0.48,0l0,2.413Zm0,-3.379l0,0.48l0.48,0l0,-0.48l-0.48,0Z" style="fill:#fff;fill-rule:nonzero;"/><path d="M109.588,57.676l0,1.933l0.48,0l0,-1.933l-0.48,0Zm0,0l0,-0.48l-1.933,0l0,2.413l0.48,0l0,-1.933l1.453,0Z" style="fill:#fff;fill-rule:nonzero;"/><path d="M110.548,57.676l0,1.453l0.479,0l0,-1.453l-0.479,0Zm0.479,-0.48l0,0.48l1.453,0l0,1.453l-1.453,0l0,0.48l1.453,0l0,0.48l0.48,0l0,-2.893l-1.933,0Zm0,3.38l1.453,0l0,-0.487l-1.453,0l0,0.487Z" style="fill:#fff;fill-rule:nonzero;"/><path d="M29.84,91.947l-2.412,0l0,0.48l0.966,0l0,2.899l0.48,0l0,-2.899l0.966,0l0,-0.48Z" style="fill:#fff;fill-rule:nonzero;"/><path d="M30.8,93.393l1.453,0l0,-0.48l-1.453,0l0,-0.966l-0.48,0l0,3.379l0.48,0l0,-1.933Zm1.453,0l0,1.933l0.48,0l0,-1.933l-0.48,0Z" style="fill:#fff;fill-rule:nonzero;"/><path d="M33.213,95.326l0.48,0l0,-1.933l-0.48,0l0,1.933Zm0.48,-2.413l0,0.48l0.966,0l0,-0.48l-0.966,0Z" style="fill:#fff;fill-rule:nonzero;"/><path d="M35.139,92.913l0,1.933l0.48,0l0,-1.933l-0.48,0Zm0.48,2.413l1.453,0l0,-0.48l-1.453,0l0,0.48Zm1.453,-2.413l0,1.933l0.48,0l0,-1.933l-0.48,0Z" style="fill:#fff;fill-rule:nonzero;"/><path d="M38.032,95.326l1.932,0l0,-0.48l-1.932,0l0,0.48Zm2.412,-0.48l0,-0.486l-0.48,0l0,0.486l0.48,0Zm-0.48,-0.486l0,-0.48l-1.453,0l0,0.48l1.453,0Zm-1.932,-0.967l0,0.487l0.479,0l0,-0.487l-0.479,0Zm2.412,-0.48l-1.933,0l0,0.48l1.933,0l0,-0.48Z" style="fill:#fff;fill-rule:nonzero;"/><path d="M42.37,95.326l0,-0.48l-0.966,0l0,0.48l0.966,0Zm0,-1.933l0,-0.48l-0.966,0l0,-0.486l-0.48,0l0,2.419l0.48,0l0,-1.453l0.966,0Z" style="fill:#fff;fill-rule:nonzero;"/><path d="M112.86,103.556l0,-0.48l-2.413,0l0,3.379l0.48,0l0,-1.446l1.933,0l0,-0.487l-1.933,0l0,-0.966l1.933,0Z" style="fill:#fff;fill-rule:nonzero;"/><path d="M113.339,106.455l0.48,0l0,-2.412l-0.48,0l0,2.412Zm0,-3.379l0,0.48l0.48,0l0,-0.48l-0.48,0Z" style="fill:#fff;fill-rule:nonzero;"/><path d="M114.299,106.455l0.48,0l0,-1.933l-0.48,0l0,1.933Zm0.48,-2.412l0,0.479l0.966,0l0,-0.479l-0.966,0Z" style="fill:#fff;fill-rule:nonzero;"/><path d="M118.158,104.043l-1.453,0l0,0.479l1.453,0l0,-0.479Zm0,0.479l0,0.487l-1.453,0l0,-0.487l-0.48,0l0,1.453l0.48,0l0,-0.486l1.933,0l0,-0.967l-0.48,0Zm0.48,1.933l0,-0.48l-1.933,0l0,0.48l1.933,0Z" style="fill:#fff;fill-rule:nonzero;"/><path d="M202.837,99.826l0,-0.966l-0.48,0l0,0.966l0.48,0Zm-1.933,0l0,-0.966l1.453,0l0,-0.48l-1.933,0l0,3.379l0.48,0l0,-1.446l1.453,0l0,1.446l0.48,0l0,-1.446l-0.48,0l0,-0.487l-1.453,0Z" style="fill:#fff;fill-rule:nonzero;"/><path d="M203.317,99.826l0,1.453l0.48,0l0,-1.453l-0.48,0Zm0.48,1.933l1.453,0l0,-0.48l-1.453,0l0,0.48Zm1.453,-1.933l0,1.453l0.479,0l0,-1.453l-0.479,0Zm0,-0.48l-1.453,0l0,0.48l1.453,0l0,-0.48Z" style="fill:#fff;fill-rule:nonzero;"/><path d="M207.655,101.759l0,-0.48l-0.966,0l0,0.48l0.966,0Zm0,-1.933l0,-0.48l-0.966,0l0,-0.486l-0.48,0l0,2.419l0.48,0l0,-1.453l0.966,0Z" style="fill:#fff;fill-rule:nonzero;"/><path d="M208.135,100.793l0,0.486l0.48,0l0,-0.486l-0.48,0Zm1.933,-0.967l0,0.487l-1.453,0l0,0.48l1.453,0l0,0.486l-1.453,0l0,0.48l1.933,0l0,-1.933l-0.48,0Zm-1.453,-0.48l0,0.48l1.453,0l0,-0.48l-1.453,0Z" style="fill:#fff;fill-rule:nonzero;"/><path d="M212.474,101.759l0,-0.48l-0.966,0l0,0.48l0.966,0Zm0,-1.933l0,-0.48l-0.966,0l0,-0.486l-0.48,0l0,2.419l0.48,0l0,-1.453l0.966,0Z" style="fill:#fff;fill-rule:nonzero;"/><path d="M214.887,99.346l-1.453,0l0,0.48l1.453,0l0,-0.48Zm0,0.48l0,0.487l-1.453,0l0,-0.487l-0.48,0l0,1.453l0.48,0l0,-0.486l1.933,0l0,-0.967l-0.48,0Zm0.48,1.933l0,-0.48l-1.933,0l0,0.48l1.933,0Z" style="fill:#fff;fill-rule:nonzero;"/><path d="M215.847,102.239l0.479,0l0,-0.48l-0.479,0l0,0.48Zm0.479,-0.48l0.487,0l0,-0.48l-0.487,0l0,0.48Zm0.487,-0.48l0.48,0l0,-0.486l-0.48,0l0,0.486Zm0.48,-0.486l0.486,0l0,-0.48l-0.486,0l0,0.48Zm0.486,-0.48l0.48,0l0,-0.487l-0.48,0l0,0.487Zm0.48,-0.487l0.487,0l0,-0.48l-0.487,0l0,0.48Zm0.487,-0.48l0.48,0l0,-0.486l-0.48,0l0,0.486Zm0.48,-0.966l0,0.48l0.479,0l0,-0.48l-0.479,0Z" style="fill:#fff;fill-rule:nonzero;"/><path d="M222.118,98.38l-1.453,0l0,0.48l1.453,0l0,-0.48Zm0,0.48l0,0.966l-1.453,0l0,-0.966l-0.48,0l0,2.899l0.48,0l0,-1.446l1.453,0l0,1.446l0.48,0l0,-2.899l-0.48,0Z" style="fill:#fff;fill-rule:nonzero;"/><path d="M223.078,101.759l0.48,0l0,-2.413l-0.48,0l0,2.413Zm0,-3.379l0,0.48l0.48,0l0,-0.48l-0.48,0Z" style="fill:#fff;fill-rule:nonzero;"/><path d="M226.937,99.826l0,1.933l0.48,0l0,-1.933l-0.48,0Zm-2.899,-0.48l0,2.413l0.479,0l0,-1.933l0.967,0l0,1.933l0.486,0l0,-1.933l0.967,0l0,-0.48l-2.899,0Z" style="fill:#fff;fill-rule:nonzero;"/><path d="M200.473,43.147l0,-0.48l-2.413,0l0,3.379l0.48,0l0,-1.446l1.933,0l0,-0.487l-1.933,0l0,-0.966l1.933,0Z" style="fill-rule:nonzero;"/><path d="M200.953,46.046l0.479,0l0,-2.412l-0.479,0l0,2.412Zm0,-3.379l0,0.48l0.479,0l0,-0.48l-0.479,0Z" style="fill-rule:nonzero;"/><path d="M201.912,46.046l0.48,0l0,-1.933l-0.48,0l0,1.933Zm0.48,-2.412l0,0.479l0.966,0l0,-0.479l-0.966,0Z" style="fill-rule:nonzero;"/><path d="M205.771,43.634l-1.453,0l0,0.479l1.453,0l0,-0.479Zm0,0.479l0,0.487l-1.453,0l0,-0.487l-0.48,0l0,1.453l0.48,0l0,-0.486l1.933,0l0,-0.967l-0.48,0Zm0.48,1.933l0,-0.48l-1.933,0l0,0.48l1.933,0Z" style="fill-rule:nonzero;"/><path d="M221.344,42.667l-2.413,0l0,0.48l0.967,0l0,2.899l0.48,0l0,-2.899l0.966,0l0,-0.48Z" style="fill-rule:nonzero;"/><path d="M222.304,44.113l1.453,0l0,-0.479l-1.453,0l0,-0.967l-0.48,0l0,3.379l0.48,0l0,-1.933Zm1.453,0l0,1.933l0.48,0l0,-1.933l-0.48,0Z" style="fill-rule:nonzero;"/><path d="M224.716,46.046l0.48,0l0,-1.933l-0.48,0l0,1.933Zm0.48,-2.412l0,0.479l0.967,0l0,-0.479l-0.967,0Z" style="fill-rule:nonzero;"/><path d="M226.643,43.634l0,1.932l0.479,0l0,-1.932l-0.479,0Zm0.479,2.412l1.453,0l0,-0.48l-1.453,0l0,0.48Zm1.453,-2.412l0,1.932l0.48,0l0,-1.932l-0.48,0Z" style="fill-rule:nonzero;"/><path d="M229.535,46.046l1.933,0l0,-0.48l-1.933,0l0,0.48Zm2.413,-0.48l0,-0.486l-0.48,0l0,0.486l0.48,0Zm-0.48,-0.486l0,-0.48l-1.453,0l0,0.48l1.453,0Zm-1.933,-0.967l0,0.487l0.48,0l0,-0.487l-0.48,0Zm2.413,-0.479l-1.933,0l0,0.479l1.933,0l0,-0.479Z" style="fill-rule:nonzero;"/><path d="M233.874,46.046l0,-0.48l-0.966,0l0,0.48l0.966,0Zm0,-1.933l0,-0.479l-0.966,0l0,-0.487l-0.48,0l0,2.419l0.48,0l0,-1.453l0.966,0Z" style="fill-rule:nonzero;"/><path d="M34.166,88l0,2.961" style="fill:none;stroke:#fff;stroke-width:0.8px;stroke-linecap:round;stroke-linejoin:round;stroke-miterlimit:1.5;"/><path d="M91.061,58.403l6.488,0" style="fill:none;stroke:#fff;stroke-width:0.8px;stroke-linecap:round;stroke-linejoin:round;stroke-miterlimit:1.5;"/><path d="M84.401,26.822l-49.922,0l0,4.204" style="fill:none;stroke:#fff;stroke-width:0.8px;stroke-linecap:round;stroke-linejoin:round;stroke-miterlimit:1.5;"/><path d="M126.006,26.822l49.922,0l0,4.204" style="fill:none;stroke:#fff;stroke-width:0.8px;stroke-linecap:round;stroke-linejoin:round;stroke-miterlimit:1.5;"/><path d="M39.814,36.03l0,0.639l0.639,0l0,3.861l0.648,0l0,-4.5l-1.287,0Z" style="fill-rule:nonzero;"/><path d="M59.155,50.643l0,2.574l0.639,0l0,-2.574l-0.639,0Zm0.639,3.213l0.648,0l0,-0.639l-0.648,0l0,0.639Zm0.648,-0.639l0.639,0l0,-0.648l-0.639,0l0,0.648Zm0.639,-1.287l0,0.639l0.648,0l0,-0.639l-0.648,0Zm0.648,0.639l0,0.648l0.639,0l0,-0.648l-0.639,0Zm0.639,1.287l0.648,0l0,-0.639l-0.648,0l0,0.639Zm0.648,-3.213l0,2.574l0.639,0l0,-2.574l-0.639,0Z" style="fill-rule:nonzero;"/><path d="M51.872,64l-1.935,0l0,0.639l1.935,0l0,-0.639Zm0,0.639l0,1.287l-1.935,0l0,-1.287l-0.639,0l0,3.861l0.639,0l0,-1.926l1.935,0l0,1.926l0.639,0l0,-3.861l-0.639,0Z" style="fill-rule:nonzero;"/><path d="M27.844,82.556l2.574,0l0,-0.639l-2.574,0l0,0.639Zm3.213,-0.639l0,-1.287l-0.639,0l0,1.287l0.639,0Zm-0.639,-1.287l0,-0.648l-1.935,0l0,0.648l1.935,0Zm-2.574,-1.935l0,1.287l0.639,0l0,-1.287l-0.639,0Zm3.213,-0.639l-2.574,0l0,0.639l2.574,0l0,-0.639Z" style="fill-rule:nonzero;"/><path d="M32.335,79.982l1.935,0l0,-0.639l-1.935,0l0,-1.287l-0.639,0l0,4.5l0.639,0l0,-2.574Zm1.935,0l0,2.574l0.639,0l0,-2.574l-0.639,0Z" style="fill-rule:nonzero;"/><path d="M35.548,82.556l0.639,0l0,-3.213l-0.639,0l0,3.213Zm0,-4.5l0,0.639l0.639,0l0,-0.639l-0.639,0Z" style="fill-rule:nonzero;"/><path d="M36.826,82.556l0.639,0l0,-1.926l1.287,0l0,-0.648l-1.287,0l0,-1.287l-0.639,0l0,3.861Zm0.639,-4.5l0,0.639l1.287,0l0,-0.639l-1.287,0Zm1.287,0.639l0,0.648l0.648,0l0,-0.648l-0.648,0Z" style="fill-rule:nonzero;"/><path d="M41.965,82.556l0,-0.639l-1.287,0l0,0.639l1.287,0Zm0,-2.574l0,-0.639l-1.287,0l0,-0.648l-0.639,0l0,3.222l0.639,0l0,-1.935l1.287,0Z" style="fill-rule:nonzero;"/><path d="M105.844,95.856l2.574,0l0,-0.639l-2.574,0l0,0.639Zm3.213,-0.639l0,-1.287l-0.639,0l0,1.287l0.639,0Zm-0.639,-1.287l0,-0.648l-1.935,0l0,0.648l1.935,0Zm-2.574,-1.935l0,1.287l0.639,0l0,-1.287l-0.639,0Zm3.213,-0.639l-2.574,0l0,0.639l2.574,0l0,-0.639Z" style="fill-rule:nonzero;"/><path d="M110.335,93.282l1.935,0l0,-0.639l-2.574,0l0,4.5l0.639,0l0,-1.287l1.935,0l0,-0.639l-1.935,0l0,-1.935Zm1.935,0l0,1.935l0.639,0l0,-1.935l-0.639,0Z" style="fill-rule:nonzero;"/><path d="M113.548,94.569l0,0.648l0.639,0l0,-0.648l-0.639,0Zm2.574,-1.287l0,0.648l-1.935,0l0,0.639l1.935,0l0,0.648l-1.935,0l0,0.639l2.574,0l0,-2.574l-0.639,0Zm-1.935,-0.639l0,0.639l1.935,0l0,-0.639l-1.935,0Z" style="fill-rule:nonzero;"/><path d="M117.4,93.282l0,1.935l0.639,0l0,-1.935l-0.639,0Zm3.213,-0.639l-2.574,0l0,0.639l2.574,0l0,-0.639Zm0,3.213l0,-0.639l-2.574,0l0,0.639l2.574,0Z" style="fill-rule:nonzero;"/><path d="M123.826,92.643l-1.935,0l0,0.639l1.935,0l0,-0.639Zm0,0.639l0,0.648l-1.935,0l0,-0.648l-0.639,0l0,1.935l0.639,0l0,-0.648l2.574,0l0,-1.287l-0.639,0Zm0.639,2.574l0,-0.639l-2.574,0l0,0.639l2.574,0Z" style="fill-rule:nonzero;"/><path d="M63.298,68.5l2.574,0l0,-0.639l-2.574,0l0,0.639Zm3.213,-0.639l0,-1.287l-0.639,0l0,1.287l0.639,0Zm-0.639,-1.287l0,-0.648l-1.935,0l0,0.648l1.935,0Zm-2.574,-1.935l0,1.287l0.639,0l0,-1.287l-0.639,0Zm3.213,-0.639l-2.574,0l0,0.639l2.574,0l0,-0.639Z" style="fill-rule:nonzero;"/><path d="M77.937,64.639l1.935,0l0,-0.639l-2.574,0l0,4.5l2.574,0l0,-0.639l-1.935,0l0,-3.222Zm1.935,0l0,3.222l0.639,0l0,-3.222l-0.639,0Z" style="fill-rule:nonzero;"/><path d="M52.851,36.03l0,0.639l2.574,0l0,-0.639l-2.574,0Zm3.213,0.639l-0.639,0l0,1.287l0.639,0l0,-1.287Zm-0.639,1.287l-1.935,0l0,0.648l1.935,0l0,-0.648Zm-2.574,0.648l0,1.926l3.213,0l0,-0.639l-2.574,0l0,-1.287l-0.639,0Z" style="fill-rule:nonzero;"/><path d="M66.82,36.03l0,0.639l2.574,0l0,-0.639l-2.574,0Zm3.213,0.639l-0.639,0l0,1.287l0.639,0l0,-1.287Zm-3.213,1.287l0,0.648l2.574,0l0,-0.648l-2.574,0Zm3.213,1.935l0,-1.287l-0.639,0l0,1.287l0.639,0Zm-3.213,0.639l2.574,0l0,-0.639l-2.574,0l0,0.639Z" style="fill-rule:nonzero;"/><path d="M80.82,36.03l0,2.574l0.639,0l0,-2.574l-0.639,0Zm2.574,0l0,2.574l-1.935,0l0,0.639l1.935,0l0,1.287l0.639,0l0,-4.5l-0.639,0Z" style="fill-rule:nonzero;"/><path d="M94.748,40.53l2.574,0l0,-0.639l-2.574,0l0,0.639Zm3.213,-0.639l0,-1.287l-0.639,0l0,1.287l0.639,0Zm0,-3.222l0,-0.639l-3.213,0l0,2.574l2.574,0l0,-0.648l-1.935,0l0,-1.287l2.574,0Z" style="fill-rule:nonzero;"/><path d="M108.748,36.669l0,3.222l0.639,0l0,-1.287l1.935,0l0,-0.648l-1.935,0l0,-1.287l-0.639,0Zm0.639,3.861l1.935,0l0,-0.639l-1.935,0l0,0.639Zm2.574,-0.639l0,-1.287l-0.639,0l0,1.287l0.639,0Zm-0.639,-3.861l-1.935,0l0,0.639l1.935,0l0,-0.639Z" style="fill-rule:nonzero;"/><path d="M122.717,36.03l0,0.639l2.574,0l0,1.287l0.639,0l0,-1.926l-3.213,0Zm1.926,2.574l0.648,0l0,-0.648l-0.648,0l0,0.648Zm-0.639,1.926l0.639,0l0,-1.926l-0.639,0l0,1.926Z" style="fill-rule:nonzero;"/><path d="M137.356,40.53l1.935,0l0,-0.639l-1.935,0l0,0.639Zm-0.639,-1.926l0,1.287l0.639,0l0,-1.287l-0.639,0Zm0.639,-0.648l0,0.648l1.935,0l0,-0.648l-1.935,0Zm2.574,1.935l0,-1.287l-0.639,0l0,1.287l0.639,0Zm-0.639,-3.861l-1.935,0l0,0.639l1.935,0l0,-0.639Zm-2.574,0.639l0,1.287l0.639,0l0,-1.287l-0.639,0Zm3.213,1.287l0,-1.287l-0.639,0l0,1.287l0.639,0Z" style="fill-rule:nonzero;"/><path d="M154.053,39.891l0,-3.222l-0.639,0l0,1.287l-1.935,0l0,0.648l1.935,0l0,1.287l0.639,0Zm-0.639,-3.861l-1.935,0l0,0.639l1.935,0l0,-0.639Zm-2.574,0.639l0,1.287l0.639,0l0,-1.287l-0.639,0Zm0.639,3.861l1.935,0l0,-0.639l-1.935,0l0,0.639Z" style="fill-rule:nonzero;"/><path d="M165.479,40.53l1.935,0l0,-0.639l-1.935,0l0,0.639Zm-0.639,-3.861l0,3.222l0.639,0l0,-3.222l-0.639,0Zm2.574,-0.639l-1.935,0l0,0.639l1.935,0l0,-0.639Zm0,0.639l0,3.222l0.639,0l0,-3.222l-0.639,0Z" style="fill-rule:nonzero;"/></svg>