<?xml version="1.0" encoding="UTF-8" standalone="no"?><!DOCTYPE svg PUBLIC "-//W3C//DTD SVG 1.1//EN" "http://www.w3.org/Graphics/SVG/1.1/DTD/svg11.dtd"><svg width="32" height="32" viewBox="0 0 32 32" version="1.1" xmlns="http://www.w3.org/2000/svg" xmlns:xlink="http://www.w3.org/1999/xlink" xml:space="preserve" xmlns:serif="http://www.serif.com/" style="fill-rule:evenodd;clip-rule:evenodd;stroke-linejoin:round;stroke-miterlimit:1.41421;"><rect id="alien-mask" x="0" y="0" width="32" height="32" style="fill:none;"/><path d="M10.809,8.08l0.678,-1.617c0.762,-1.818 2.541,-3.001 4.513,-3.001c1.972,0 3.751,1.183 4.513,3.001l0.677,1.616l0.122,-0.005c2.158,0 3.909,2.884 3.909,6.436c0,0.874 -0.106,1.708 -0.3,2.469l1.67,3.984c0.349,0.831 0.258,1.782 -0.241,2.533c-0.499,0.751 -1.341,1.202 -2.243,1.202c-4.498,0 -11.716,0 -16.214,0c-0.902,0 -1.744,-0.451 -2.243,-1.202c-0.499,-0.751 -0.59,-1.702 -0.241,-2.533l1.65,-3.938c-0.2,-0.772 -0.31,-1.623 -0.31,-2.515c0,-3.552 1.751,-6.436 3.909,-6.436l0.151,0.006Z" style="fill:#fff;"/></svg>
