<?xml version="1.0" encoding="UTF-8" standalone="no"?><!DOCTYPE svg PUBLIC "-//W3C//DTD SVG 1.1//EN" "http://www.w3.org/Graphics/SVG/1.1/DTD/svg11.dtd"><svg width="32" height="32" viewBox="0 0 32 32" version="1.1" xmlns="http://www.w3.org/2000/svg" xmlns:xlink="http://www.w3.org/1999/xlink" xml:space="preserve" xmlns:serif="http://www.serif.com/" style="fill-rule:evenodd;clip-rule:evenodd;stroke-linecap:round;stroke-linejoin:round;stroke-miterlimit:1.5;"><rect id="alien-overlay" x="0" y="0" width="32" height="32" style="fill:none;"/><path d="M10.809,8.08l-3.75,8.945c-0.2,-0.772 -0.31,-1.623 -0.31,-2.515c0,-3.552 1.751,-6.436 3.909,-6.436l0.151,0.006Zm10.381,-0.001l0.122,-0.005c2.158,0 3.909,2.884 3.909,6.436c0,0.874 -0.106,1.708 -0.3,2.469l-3.731,-8.9Z" style="fill-opacity:0.121569;"/><path d="M5.568,23.354l9.132,-15.395c0.272,-0.459 0.766,-0.74 1.3,-0.74c0.534,0 1.028,0.281 1.3,0.74l9.132,15.395l-0.082,0.142c-0.496,0.746 -1.331,1.197 -2.243,1.202l-16.214,0c-0.912,-0.005 -1.747,-0.456 -2.243,-1.202l-0.082,-0.142Z" style="fill-opacity:0.133333;"/><path d="M11.601,6.191c0.743,-1.772 2.477,-2.926 4.399,-2.926c1.922,0 3.656,1.154 4.399,2.926c2.186,5.214 4.686,11.179 6.244,14.895c0.337,0.804 0.25,1.724 -0.233,2.45c-0.483,0.726 -1.297,1.162 -2.169,1.162c-4.822,0 -12.912,0 -17.315,0c-0.687,0 -1.327,-0.343 -1.708,-0.915c-0.38,-0.572 -0.449,-1.295 -0.183,-1.928c1.517,-3.619 4.222,-10.073 6.566,-15.664Z" style="fill:none;"/><path d="M21.683,24.698c0,-1.128 -0.916,-2.045 -2.045,-2.045l-7.251,0c-1.129,0 -2.045,0.917 -2.045,2.045l11.341,0Z" style="fill:#2a2f3e;"/><path d="M17.118,5.26c-0.177,-0.458 -0.617,-0.76 -1.108,-0.761c-0.491,0 -0.932,0.301 -1.11,0.759c-1.01,2.325 -2.344,5.746 -2.344,7.61c0,1.9 1.543,3.443 3.444,3.443c1.901,0 3.444,-1.543 3.444,-3.443c0,-1.863 -1.323,-5.283 -2.326,-7.608Z" style="fill:#191919;stroke:#2a2f3e;stroke-width:0.6px;"/><path d="M16.536,6.073c-0.103,-0.201 -0.309,-0.327 -0.534,-0.326c-0.225,0 -0.431,0.127 -0.533,0.328c-0.597,1.133 -1.485,3.052 -1.485,4.459c0,1.342 0.909,2.431 2.028,2.431c1.12,0 2.029,-1.089 2.029,-2.431c0,-1.408 -0.9,-3.329 -1.505,-4.461Z" style="fill:#3b3b3b;"/></svg>
