<?xml version="1.0" encoding="UTF-8" standalone="no"?><!DOCTYPE svg PUBLIC "-//W3C//DTD SVG 1.1//EN" "http://www.w3.org/Graphics/SVG/1.1/DTD/svg11.dtd"><svg width="32" height="32" viewBox="0 0 32 32" version="1.1" xmlns="http://www.w3.org/2000/svg" xmlns:xlink="http://www.w3.org/1999/xlink" xml:space="preserve" xmlns:serif="http://www.serif.com/" style="fill-rule:evenodd;clip-rule:evenodd;stroke-linejoin:round;stroke-miterlimit:1.41421;"><rect id="ship-3-mask" x="0" y="0" width="32" height="32" style="fill:none;"/><clipPath id="_clip1"><rect x="0" y="0" width="32" height="32"/></clipPath><g clip-path="url(#_clip1)"><g><path d="M18.073,0c0.681,0 1.233,0.552 1.233,1.234l0,5.735l0.295,0c-0.048,0.191 -0.07,0.39 -0.07,0.593c0,1.553 1.293,2.883 3.12,3.416l0,2.571c0,2.012 1.632,3.646 3.649,3.649l0,1.772l0.604,-0.162l0.01,0.003l0.038,-0.011l1.515,0.344l2.58,0.555l-0.063,0.017l0.01,0.002l-4.694,1.257l0,1.85c0,0.221 -0.044,0.432 -0.123,0.625l0.556,0.276l0.041,0.05l0.011,0.005l4.158,5.023l-2.237,-1.111l0,0.007l-0.652,-0.324l0,-0.007l-0.003,-0.002l-5.836,-2.898l-12.176,0l-5.828,2.895l0,0.003l-0.01,0.005l0,0.022l-0.651,0.324l0,-0.022l-2.232,1.108l0.006,-0.006l-0.014,0.006l4.159,-5.023l0.698,-0.347c-0.075,-0.188 -0.116,-0.394 -0.116,-0.609l0,-1.85l-3.004,-0.805l-2.094,-0.561l4.143,-0.89l0.955,0.256l0,-1.777c2.017,-0.003 3.649,-1.637 3.649,-3.649l0,-2.559c1.85,-0.526 3.161,-1.863 3.161,-3.428c0,-0.203 -0.022,-0.402 -0.069,-0.593l0.252,0l0,-5.735c0,-0.68 0.551,-1.232 1.23,-1.234l0.004,0l3.795,0Z" style="fill:#fff;"/></g></g></svg>
