<svg id="ninja" xmlns="http://www.w3.org/2000/svg" width="32" height="32" viewBox="0 0 32 32">
  <metadata><?xpacket begin="﻿" id="W5M0MpCehiHzreSzNTczkc9d"?>
<x:xmpmeta xmlns:x="adobe:ns:meta/" x:xmptk="Adobe XMP Core 5.6-c138 79.159824, 2016/09/14-01:09:01        ">
   <rdf:RDF xmlns:rdf="http://www.w3.org/1999/02/22-rdf-syntax-ns#">
      <rdf:Description rdf:about=""/>
   </rdf:RDF>
</x:xmpmeta>
                                                                                                    
                                                                                                    
                                                                                                    
                                                                                                    
                                                                                                    
                                                                                                    
                                                                                                    
                                                                                                    
                                                                                                    
                                                                                                    
                                                                                                    
                                                                                                    
                                                                                                    
                                                                                                    
                                                                                                    
                                                                                                    
                                                                                                    
                                                                                                    
                                                                                                    
                                                                                                    
                           
<?xpacket end="w"?></metadata>
<defs>
    <style>
      .cls-1 {
        fill: #fff;
        fill-rule: evenodd;
      }
    </style>
  </defs>
  <path id="mask" class="cls-1" d="M24,8.941A0.941,0.941,0,0,1,25,8s2.014-.184,2.2.941l0.1,1.178L30,20a18.13,18.13,0,0,1-2,2s-2.093-.032-4.139.093l-1.093.729C22.9,22.924,23,23,23,23l-2,3v2H20a0.954,0.954,0,0,1-1,1,1.068,1.068,0,0,1-1-1H17V27H15v1H14a1.068,1.068,0,0,1-1,1,0.954,0.954,0,0,1-1-1H11V26L9,23.037s0.108-.084.26-0.2l-1.121-.747C6.093,21.968,4,22,4,22a18.13,18.13,0,0,1-2-2l2.695-9.881L4.8,8.941C4.986,7.816,7,8,7,8a0.941,0.941,0,0,1,1,.941V11l1,1,4.111-3.289C13.334,6.315,14,3,16,3s2.666,3.315,2.889,5.711L23,12l1-1V8.941Z"/>
</svg>
