<?xml version="1.0" encoding="UTF-8" standalone="no"?><!DOCTYPE svg PUBLIC "-//W3C//DTD SVG 1.1//EN" "http://www.w3.org/Graphics/SVG/1.1/DTD/svg11.dtd"><svg width="32" height="32" viewBox="0 0 32 32" version="1.1" xmlns="http://www.w3.org/2000/svg" xmlns:xlink="http://www.w3.org/1999/xlink" xml:space="preserve" xmlns:serif="http://www.serif.com/" style="fill-rule:evenodd;clip-rule:evenodd;stroke-linejoin:round;stroke-miterlimit:1.41421;"><rect id="ship-3-overlay" x="0" y="0" width="32" height="32" style="fill:none;"/><g><path d="M5.95,18.975l0,0.55l-3.004,0.645l-2.094,-0.561l4.143,-0.89l0.955,0.256Z" style="fill:#4a4a4a;"/><path d="M26.199,18.975l0.652,-0.175l4.042,0.918l-4.694,1.257l0,-2Z" style="fill:#b1b1b1;"/><path d="M26.199,18.97l0.604,-0.162l4.143,0.891l-2.094,0.561l-2.653,-0.57l0,-0.72Z" style="fill:#4a4a4a;"/><path d="M22.55,11.997l0,1.552c0,2.012 1.632,3.646 3.649,3.649l0,0.181c-0.44,0.228 -0.945,0.355 -1.479,0.355c-1.811,0 -3.281,-1.47 -3.281,-3.281c0,-0.98 0.43,-1.86 1.111,-2.456Zm-12.951,-0.146c0.759,0.601 1.244,1.529 1.244,2.569c0,1.811 -1.47,3.281 -3.282,3.281c-0.586,0 -1.136,-0.154 -1.611,-0.425l0,-0.078c2.017,-0.003 3.649,-1.637 3.649,-3.649l0,-1.698Zm3.16,-4.262c0.54,0.428 0.884,1.086 0.884,1.823c0,1.285 -1.043,2.328 -2.328,2.328c-0.675,0 -1.284,-0.289 -1.709,-0.752c1.835,-0.524 3.139,-1.848 3.153,-3.399Zm6.696,0.327c0.18,1.401 1.41,2.57 3.095,3.062l0,0.355c-0.372,0.256 -0.825,0.407 -1.314,0.407c-1.284,0 -2.327,-1.043 -2.327,-2.328c0,-0.569 0.204,-1.091 0.546,-1.496Z" style="fill-opacity:0.309804;"/><g><path d="M30.79,28.749l-6.781,-3.368l2.702,-1.56l4.079,4.928Z" style="fill:#a3a3a3;"/><path d="M30.842,28.804l-2.892,-1.437l0,-2.057l2.892,3.494Z" style="fill:#4a4a4a;"/></g><g><path d="M5.289,23.876l2.702,1.56l-6.781,3.368l4.079,-4.928Z" style="fill:#a3a3a3;"/><g><path d="M1.217,28.804l2.893,-1.437l0,-2.057l-2.893,3.494Z" style="fill:#4a4a4a;"/><path d="M3.449,26.124l0.652,-0.787l0,2.057l-0.652,0.324l0,-1.594Z" style="fill:#696969;"/><clipPath id="_clip1"><path d="M3.449,26.124l0.652,-0.787l0,2.057l-0.652,0.324l0,-1.594Z"/></clipPath><g clip-path="url(#_clip1)"><path d="M17.841,20.57l-16.633,8.261l4.158,-5.023l12.475,-6.196l0,2.958Z" style="fill:#fff;"/><rect x="4.101" y="15.746" width="16.875" height="12.25" style="fill:#4a4a4a;"/></g><path d="M4.101,27.394l-0.652,0.324l0,-1.594l0.652,-0.787l0,2.057Z" style="fill:#8d8d8d;"/></g></g><path d="M20.745,24.469c0,-0.703 -0.571,-1.274 -1.274,-1.274l-6.793,0c-0.703,0 -1.274,0.571 -1.274,1.274l9.341,0Z" style="fill:#2a2f3e;"/><g><path d="M16.994,12.205c-0.227,-0.264 -0.558,-0.416 -0.907,-0.417c-0.348,-0.001 -0.68,0.15 -0.908,0.414c-1.118,1.29 -2.867,3.684 -2.867,6.032c0,2.186 1.686,3.96 3.763,3.96c2.076,0 3.762,-1.774 3.762,-3.96c0,-2.346 -1.733,-4.738 -2.843,-6.029Z" style="fill:#39a4ef;"/><path d="M16.601,14.044c-0.102,-0.202 -0.31,-0.33 -0.536,-0.329c-0.227,0 -0.434,0.129 -0.534,0.332c-0.551,1.055 -1.331,2.774 -1.331,4.041c0,1.24 0.84,2.247 1.875,2.247c1.034,0 1.874,-1.007 1.874,-2.247c0,-1.268 -0.791,-2.989 -1.348,-4.044Z" style="fill:#67b5ec;"/></g><path d="M16.976,1.692c0,-0.252 -0.205,-0.456 -0.456,-0.456l-0.911,0c-0.251,0 -0.455,0.204 -0.455,0.456l0,8.192c0,0.252 0.204,0.456 0.455,0.456l0.911,0c0.251,0 0.456,-0.204 0.456,-0.456l0,-8.192Z" style="fill:#696969;"/><path d="M16.544,1.237l0.023,0.002l0.022,0.002l0.023,0.004l0.022,0.006l0.021,0.006l0.022,0.007l0.02,0.008l0.02,0.009l0.02,0.01l0.019,0.011l0.019,0.012l0.018,0.013l0.017,0.013l0.016,0.015l0.016,0.015l0.015,0.015l0.014,0.017l0.014,0.017l0.013,0.018l0.012,0.019l0.011,0.019l0.01,0.019l0.009,0.02l0.008,0.021l0.007,0.021l0.006,0.022l0.005,0.022l0.004,0.022l0.003,0.023l0.002,0.023l0.001,0.024l0,8.192l-0.001,0.024l-0.002,0.023l-0.003,0.022l-0.004,0.023l-0.005,0.022l-0.006,0.022l-0.007,0.021l-0.008,0.02l-0.009,0.021l-0.01,0.019l-0.011,0.019l-0.012,0.019l-0.013,0.018l-0.014,0.017l-0.014,0.016l-0.015,0.016l-0.016,0.015l-0.016,0.015l-0.017,0.013l-0.018,0.013l-0.019,0.012l-0.019,0.011l-0.02,0.01l-0.02,0.009l-0.02,0.008l-0.022,0.007l-0.021,0.006l-0.022,0.005l-0.023,0.004l-0.022,0.003l-0.023,0.002l-0.024,0.001l-0.911,0l-0.023,-0.001l-0.023,-0.002l-0.023,-0.003l-0.022,-0.004l-0.023,-0.005l-0.021,-0.006l-0.021,-0.007l-0.021,-0.008l-0.02,-0.009l-0.02,-0.01l-0.019,-0.011l-0.018,-0.012l-0.018,-0.013l-0.017,-0.013l-0.017,-0.015l-0.016,-0.015l-0.015,-0.016l-0.014,-0.016l-0.014,-0.017l-0.012,-0.018l-0.012,-0.019l-0.011,-0.019l-0.01,-0.019l-0.009,-0.021l-0.009,-0.02l-0.007,-0.021l-0.006,-0.022l-0.005,-0.022l-0.004,-0.023l-0.003,-0.022l-0.002,-0.023l0,-0.024l0,-8.192l0,-0.024l0.002,-0.023l0.003,-0.023l0.004,-0.022l0.005,-0.022l0.006,-0.022l0.007,-0.021l0.009,-0.021l0.009,-0.02l0.01,-0.019l0.011,-0.019l0.012,-0.019l0.012,-0.018l0.014,-0.017l0.014,-0.017l0.015,-0.015l0.016,-0.015l0.017,-0.015l0.017,-0.013l0.018,-0.013l0.018,-0.012l0.019,-0.011l0.02,-0.01l0.02,-0.009l0.021,-0.008l0.021,-0.007l0.021,-0.006l0.023,-0.006l0.022,-0.004l0.023,-0.002l0.023,-0.002l0.023,-0.001l0.911,0l0.024,0.001Zm-0.93,0.399l-0.008,0l-0.003,0.001l-0.003,0l-0.002,0l-0.003,0.001l-0.002,0.001l-0.003,0.001l-0.002,0.001l-0.002,0.001l-0.003,0.001l-0.002,0.001l-0.002,0.002l-0.003,0.001l-0.002,0.002l-0.002,0.002l-0.002,0.002l-0.002,0.002l-0.002,0.002l-0.001,0.002l-0.002,0.002l-0.001,0.002l-0.002,0.003l-0.001,0.002l-0.001,0.002l-0.001,0.003l-0.001,0.002l0,0.003l-0.001,0.002l0,0.003l-0.001,0.003l0,0.002l0,0.009l0,8.182l0,0.008l0.001,0.006l0.001,0.005l0.001,0.005l0.002,0.005l0.003,0.004l0.003,0.005l0.003,0.004l0.004,0.004l0.004,0.004l0.005,0.003l0.005,0.002l0.004,0.002l0.005,0.002l0.005,0.001l0.006,0l0.008,0.001l0.901,0l0.008,-0.001l0.003,0l0.003,0l0.003,-0.001l0.002,0l0.003,-0.001l0.002,-0.001l0.002,-0.001l0.003,-0.001l0.002,-0.001l0.002,-0.001l0.003,-0.002l0.002,-0.001l0.002,-0.002l0.002,-0.002l0.002,-0.002l0.002,-0.002l0.002,-0.002l0.002,-0.002l0.001,-0.002l0.002,-0.003l0.001,-0.002l0.001,-0.002l0.001,-0.003l0.001,-0.002l0.001,-0.002l0.001,-0.003l0,-0.002l0.001,-0.003l0,-0.003l0,-0.003l0.001,-0.008l0,-8.182l-0.001,-0.009l0,-0.002l0,-0.003l-0.001,-0.003l0,-0.002l-0.001,-0.003l-0.001,-0.002l-0.001,-0.003l-0.001,-0.002l-0.001,-0.002l-0.001,-0.003l-0.002,-0.002l-0.001,-0.002l-0.002,-0.002l-0.002,-0.002l-0.002,-0.002l-0.002,-0.002l-0.002,-0.002l-0.002,-0.002l-0.002,-0.001l-0.003,-0.002l-0.002,-0.001l-0.002,-0.001l-0.003,-0.001l-0.002,-0.001l-0.002,-0.001l-0.003,-0.001l-0.002,-0.001l-0.003,0l-0.003,0l-0.003,-0.001l-0.008,0l-0.901,0Z" style="fill:#8d8d8d;"/><path d="M28.605,26.106l-0.652,-0.787l0,2.057l0.652,0.324l0,-1.594Z" style="fill:#696969;"/><clipPath id="_clip2"><path d="M28.605,26.106l-0.652,-0.787l0,2.057l0.652,0.324l0,-1.594Z"/></clipPath><g clip-path="url(#_clip2)"><path d="M14.213,20.551l16.633,8.262l-4.158,-5.023l-12.475,-6.196l0,2.957Z" style="fill:#fff;"/><rect x="11.078" y="15.727" width="16.875" height="12.25" style="fill:#4a4a4a;"/></g><path d="M28.605,26.106l0,1.594l-0.652,-0.324l0,-2.057l0.652,0.787Z" style="fill:#8d8d8d;"/><path d="M24.724,16.883c0.451,0.203 0.95,0.314 1.475,0.315l0,5.627c0,0.895 -0.716,1.624 -1.644,1.644l-3.879,0c-0.143,-0.513 -0.215,-1.054 -0.215,-1.612c0,-2.766 1.779,-5.12 4.263,-5.974Z" style="fill:#0f0014;fill-opacity:0.160784;"/><path d="M5.95,18.975l0,2l-5.098,-1.366l4.143,-0.89l0.955,0.256Z" style="fill:#b1b1b1;"/><path d="M7.446,16.883c2.484,0.854 4.263,3.208 4.263,5.974c0,0.558 -0.072,1.099 -0.215,1.612l-3.879,0c-0.919,-0.011 -1.644,-0.744 -1.644,-1.644l0,-5.627c0.525,-0.001 1.024,-0.112 1.475,-0.315Z" style="fill-opacity:0.160784;"/></g></svg>
