<?xml version="1.0" encoding="UTF-8" standalone="no"?><!DOCTYPE svg PUBLIC "-//W3C//DTD SVG 1.1//EN" "http://www.w3.org/Graphics/SVG/1.1/DTD/svg11.dtd"><svg width="32" height="32" viewBox="0 0 32 32" version="1.1" xmlns="http://www.w3.org/2000/svg" xmlns:xlink="http://www.w3.org/1999/xlink" xml:space="preserve" xmlns:serif="http://www.serif.com/" style="fill-rule:evenodd;clip-rule:evenodd;stroke-linejoin:round;stroke-miterlimit:1.41421;"><rect id="ship-1-mask" x="0" y="0" width="32" height="32" style="fill:none;"/><path d="M24.94,12.698l-1.663,0l1.68,0l2.908,5.331l0.002,0.001l0,0.003l0.076,0.14l-0.076,0l0,4.934l-0.459,0.212l-0.911,2.736l-2.595,0l-0.321,-0.962l-1.19,0.552l0,-0.206c-0.634,0.341 -1.35,0.527 -2.092,0.527l-0.036,0c-0.197,0.038 -0.402,0.057 -0.631,0.058l-7.361,0c-0.231,0 -0.456,-0.021 -0.673,-0.065c-0.707,-0.013 -1.389,-0.195 -1.995,-0.521l0,0.151l-1.174,-0.544l-0.336,1.01l-2.595,0l-0.934,-2.802l-0.436,-0.202l0,-4.882l-0.077,0l0.077,-0.14l0,-0.055l0.04,-0.019l2.782,-5.097l1.114,-10.636l2.245,0l0.575,5.488l0.601,-1.202c0.855,-1.709 2.601,-2.788 4.512,-2.788c1.911,0 3.658,1.079 4.512,2.788l0.552,1.104l0.568,-5.39l2.208,0l1.103,10.476Z" style="fill:#fff;"/></svg>
