<?xml version="1.0" encoding="UTF-8" standalone="no"?><!DOCTYPE svg PUBLIC "-//W3C//DTD SVG 1.1//EN" "http://www.w3.org/Graphics/SVG/1.1/DTD/svg11.dtd"><svg width="32" height="32" viewBox="0 0 32 32" version="1.1" xmlns="http://www.w3.org/2000/svg" xmlns:xlink="http://www.w3.org/1999/xlink" xml:space="preserve" xmlns:serif="http://www.serif.com/" style="fill-rule:evenodd;clip-rule:evenodd;stroke-linejoin:round;stroke-miterlimit:1.41421;"><rect id="ship-0-overlay" x="0" y="0" width="32" height="32" style="fill:none;"/><path d="M4.788,23.397l9.978,-14.103c0.283,-0.401 0.743,-0.639 1.234,-0.639c0.491,0 0.951,0.238 1.234,0.639l9.978,14.103c-0.014,0.216 -0.086,0.431 -0.206,0.624c-0.273,0.443 -0.756,0.712 -1.276,0.712c-4.658,0 -14.802,0 -19.46,0c-0.52,0 -1.003,-0.269 -1.276,-0.712c-0.12,-0.193 -0.192,-0.408 -0.206,-0.624Z" style="fill-opacity:0.129412;"/><path d="M14.658,3.101c0.254,-0.508 0.774,-0.829 1.342,-0.829c0.568,0 1.088,0.321 1.342,0.829c2.427,4.856 7.504,15.009 9.73,19.461c0.232,0.465 0.208,1.017 -0.066,1.459c-0.273,0.443 -0.756,0.712 -1.276,0.712c-4.658,0 -14.802,0 -19.46,0c-0.52,0 -1.003,-0.269 -1.276,-0.712c-0.274,-0.442 -0.298,-0.994 -0.066,-1.459c2.226,-4.452 7.303,-14.605 9.73,-19.461Z" style="fill:none;"/><path d="M22.05,24.733c0,-1.129 -0.917,-2.045 -2.045,-2.045l-7.251,0c-1.129,0 -2.045,0.916 -2.045,2.045l11.341,0Z" style="fill:#2a2f3e;"/><path d="M17.118,9.98c-0.177,-0.458 -0.617,-0.761 -1.108,-0.761c-0.491,-0.001 -0.932,0.3 -1.11,0.758c-1.01,2.325 -2.344,5.747 -2.344,7.61c0,1.901 1.543,3.444 3.444,3.444c1.901,0 3.444,-1.543 3.444,-3.444c0,-1.863 -1.323,-5.282 -2.326,-7.607Z" style="fill:#39a4ef;"/><path d="M16.536,10.792c-0.103,-0.2 -0.309,-0.326 -0.534,-0.326c-0.225,0.001 -0.431,0.128 -0.533,0.328c-0.597,1.133 -1.485,3.053 -1.485,4.459c0,1.342 0.909,2.432 2.028,2.432c1.12,0 2.029,-1.09 2.029,-2.432c0,-1.407 -0.9,-3.329 -1.505,-4.461Z" style="fill:#67b5ec;"/></svg>
