<?xml version="1.0" encoding="UTF-8" standalone="no"?><!DOCTYPE svg PUBLIC "-//W3C//DTD SVG 1.1//EN" "http://www.w3.org/Graphics/SVG/1.1/DTD/svg11.dtd"><svg width="32" height="32" viewBox="0 0 32 32" version="1.1" xmlns="http://www.w3.org/2000/svg" xmlns:xlink="http://www.w3.org/1999/xlink" xml:space="preserve" xmlns:serif="http://www.serif.com/" style="fill-rule:evenodd;clip-rule:evenodd;stroke-linejoin:round;stroke-miterlimit:1.41421;"><rect id="ship-0-mask" x="0" y="0" width="32" height="32" style="fill:none;"/><path d="M14.658,3.101c0.254,-0.508 0.774,-0.829 1.342,-0.829c0.568,0 1.088,0.321 1.342,0.829c2.427,4.856 7.504,15.009 9.73,19.461c0.232,0.465 0.208,1.017 -0.066,1.459c-0.273,0.443 -0.756,0.712 -1.276,0.712c-4.658,0 -14.802,0 -19.46,0c-0.52,0 -1.003,-0.269 -1.276,-0.712c-0.274,-0.442 -0.298,-0.994 -0.066,-1.459c2.226,-4.452 7.303,-14.605 9.73,-19.461Z" style="fill:#fff;"/></svg>
