<?xml version="1.0" encoding="UTF-8" standalone="no"?><!DOCTYPE svg PUBLIC "-//W3C//DTD SVG 1.1//EN" "http://www.w3.org/Graphics/SVG/1.1/DTD/svg11.dtd"><svg width="32" height="32" viewBox="0 0 32 32" version="1.1" xmlns="http://www.w3.org/2000/svg" xmlns:xlink="http://www.w3.org/1999/xlink" xml:space="preserve" xmlns:serif="http://www.serif.com/" style="fill-rule:evenodd;clip-rule:evenodd;stroke-linejoin:round;stroke-miterlimit:1.41421;"><rect id="ship-2-overlay" x="0" y="0" width="32" height="32" style="fill:none;"/><g><path d="M5.553,16.197c0,5.724 4.642,10.372 10.382,10.382c-5.73,0 -10.382,-4.652 -10.382,-10.382Zm5.82,-9.313c1.368,-0.687 2.921,-1.069 4.562,-1.069c1.696,0 3.299,0.408 4.713,1.142l0.075,9.451c0,2.58 -2.095,4.675 -4.675,4.675c-2.58,0 -4.675,-2.095 -4.675,-4.675l0,-9.524Z" style="fill:#acacac;"/><path d="M16.96,7.698c-0.222,-0.301 -0.574,-0.479 -0.947,-0.48c-0.374,0 -0.726,0.176 -0.949,0.476c-1.161,1.57 -2.973,4.475 -2.973,7.324c0,2.656 1.751,4.813 3.909,4.813c2.158,0 3.909,-2.157 3.909,-4.813c0,-2.847 -1.797,-5.75 -2.949,-7.32Z" style="fill:#39a4ef;"/><path d="M16.541,9.916c-0.095,-0.22 -0.312,-0.362 -0.551,-0.362c-0.239,0.001 -0.456,0.144 -0.55,0.364c-0.572,1.281 -1.388,3.378 -1.388,4.922c0,1.508 0.873,2.731 1.948,2.731c1.075,0 1.948,-1.223 1.948,-2.731c0,-1.545 -0.827,-3.644 -1.407,-4.924Z" style="fill:#67b5ec;"/><path d="M7.006,4.769l0,11.486c0,5.108 4.147,9.254 9.254,9.254c5.107,0 9.254,-4.146 9.254,-9.254l-0.09,-11.383c0.525,0.21 0.892,0.72 0.892,1.315l0,10.01c0,5.73 -4.652,10.382 -10.381,10.382c-5.73,0 -10.382,-4.652 -10.382,-10.382c0,-0.101 0,-0.378 0,-0.416l0,-9.557c0,-0.797 0.642,-1.445 1.453,-1.455Z" style="fill-opacity:0.25;"/><path d="M5.553,7.13l0,-0.906c0,-0.803 0.652,-1.455 1.455,-1.455l2.91,0c0.803,0 1.455,0.652 1.455,1.455l0,0.906l-5.82,0Z" style="fill:#393939;"/><path d="M24.992,4.81c0.804,0.001 1.455,0.652 1.455,1.455l0,0.906l-5.82,0l0,-0.906c0,-0.803 0.651,-1.454 1.455,-1.455l2.91,0Z" style="fill:#393939;"/><path d="M19.182,23.935c0.892,0.006 1.675,0.443 2.151,1.116c-1.562,0.969 -3.406,1.524 -5.398,1.528c-1.983,-0.004 -3.835,-0.561 -5.398,-1.528c0.471,-0.672 1.252,-1.111 2.15,-1.116l6.495,0Z" style="fill:#393939;"/><path d="M10.89,5.148c0.299,0.265 0.483,0.649 0.483,1.076l0,10.184c0,2.58 2.095,4.675 4.675,4.675c2.58,0 4.675,-2.095 4.675,-4.675l-0.081,-10.221c0,-0.374 0.146,-0.715 0.384,-0.964c0.773,1.795 1.225,4.01 1.225,6.406c0,5.991 -2.827,10.855 -6.31,10.855c-3.482,0 -6.309,-4.864 -6.309,-10.855c0,-2.429 0.464,-4.672 1.258,-6.481Z" style="fill-opacity:0.160784;"/><path d="M10.42,5.682c0,-0.07 -0.028,-0.138 -0.078,-0.188c-0.05,-0.05 -0.118,-0.078 -0.188,-0.078c-0.729,0 -2.752,0 -3.481,0c-0.07,0 -0.138,0.028 -0.188,0.078c-0.05,0.05 -0.078,0.118 -0.078,0.188c0,0.001 0,0.001 0,0.001c0,0.071 0.028,0.139 0.078,0.188c0.05,0.05 0.118,0.078 0.188,0.078c0.729,0 2.752,0 3.481,0c0.07,0 0.138,-0.028 0.188,-0.078c0.05,-0.049 0.078,-0.117 0.078,-0.188c0,0 0,0 0,-0.001Z" style="fill:#e4e4e4;"/><path d="M25.593,5.682c0,-0.07 -0.028,-0.138 -0.078,-0.188c-0.05,-0.05 -0.118,-0.078 -0.188,-0.078c-0.729,0 -2.752,0 -3.481,0c-0.07,0 -0.138,0.028 -0.188,0.078c-0.05,0.05 -0.078,0.118 -0.078,0.188c0,0.001 0,0.001 0,0.001c0,0.071 0.028,0.139 0.078,0.188c0.05,0.05 0.118,0.078 0.188,0.078c0.729,0 2.752,0 3.481,0c0.07,0 0.138,-0.028 0.188,-0.078c0.05,-0.049 0.078,-0.117 0.078,-0.188c0,0 0,0 0,-0.001Z" style="fill:#e4e4e4;"/></g></svg>
