<svg id="valkryie" xmlns="http://www.w3.org/2000/svg" width="32" height="32" viewBox="0 0 32 32">
  <metadata><?xpacket begin="﻿" id="W5M0MpCehiHzreSzNTczkc9d"?>
<x:xmpmeta xmlns:x="adobe:ns:meta/" x:xmptk="Adobe XMP Core 5.6-c138 79.159824, 2016/09/14-01:09:01        ">
   <rdf:RDF xmlns:rdf="http://www.w3.org/1999/02/22-rdf-syntax-ns#">
      <rdf:Description rdf:about=""/>
   </rdf:RDF>
</x:xmpmeta>
                                                                                                    
                                                                                                    
                                                                                                    
                                                                                                    
                                                                                                    
                                                                                                    
                                                                                                    
                                                                                                    
                                                                                                    
                                                                                                    
                                                                                                    
                                                                                                    
                                                                                                    
                                                                                                    
                                                                                                    
                                                                                                    
                                                                                                    
                                                                                                    
                                                                                                    
                                                                                                    
                           
<?xpacket end="w"?></metadata>
<defs>
    <style>
      .cls-1 {
        fill: #111;
      }

      .cls-1, .cls-2, .cls-3, .cls-4, .cls-5, .cls-6, .cls-7, .cls-8, .cls-9 {
        fill-rule: evenodd;
      }

      .cls-2 {
        fill: #fff;
        opacity: 0.15;
      }

      .cls-3 {
        fill: #575757;
      }

      .cls-4 {
        fill: #1a1a1a;
      }

      .cls-5 {
        fill: #e01b37;
      }

      .cls-6 {
        fill: #67114a;
      }

      .cls-7, .cls-8 {
        fill: #e2e2e2;
      }

      .cls-7 {
        opacity: 0.75;
      }

      .cls-8 {
        opacity: 0.5;
      }

      .cls-9 {
        fill: #f0f0f0;
      }
    </style>
  </defs>
  <g id="overlay">
    <g>
      <path class="cls-1" d="M16,24s-2.906-.094-4-2V16l4-5,4,5v6C18.906,23.906,16,24,16,24Z"/>
      <path class="cls-2" d="M23,11V21l-3,3V16l-4-5-4,5v8L9,21V11a4.171,4.171,0,0,1,1-3l6-7,6,7A4.171,4.171,0,0,1,23,11Z"/>
    </g>
    <g>
      <path id="Shape_812_copy_2" data-name="Shape 812 copy 2" class="cls-3" d="M12,22a4.689,4.689,0,0,0,4,2,4.689,4.689,0,0,0,4-2v5a4.689,4.689,0,0,1-4,2,4.689,4.689,0,0,1-4-2V22Z"/>
      <path class="cls-4" d="M12,9l-1,3,5-5,5,5L20,9a11.486,11.486,0,0,0-4-5S13.938,5.25,12,9Z"/>
      <path id="Shape_809_copy" data-name="Shape 809 copy" class="cls-5" d="M16,21s-2.18-.077-3-1.636V16.455L16,13l3,3.454v2.909C18.18,20.923,16,21,16,21Z"/>
      <path id="Shape_809_copy_2" data-name="Shape 809 copy 2" class="cls-6" d="M16,22s-2.18-.077-3-1.636V17.455a3.411,3.411,0,0,0,3,1.4,3.411,3.411,0,0,0,3-1.4v2.909C18.18,21.923,16,22,16,22Z"/>
      <path class="cls-7" d="M9,12v7L3,23l1-6Zm14,0v7l6,4-1-6Z"/>
      <path class="cls-8" d="M20,26v1l6,2,1-2-6-4-1,1m-8,2v1L6,29,5,27l6-4,1,1"/>
      <path id="Shape_812_copy" data-name="Shape 812 copy" class="cls-9" d="M12,21a4.689,4.689,0,0,0,4,2,4.689,4.689,0,0,0,4-2v2a4.689,4.689,0,0,1-4,2,4.689,4.689,0,0,1-4-2V21Zm8-11L16,6l-4,4a4.574,4.574,0,0,0-1,3l5-5,5,5A4.574,4.574,0,0,0,20,10Z"/>
    </g>
  </g>
</svg>
