<?xml version="1.0" encoding="UTF-8" standalone="no"?><!DOCTYPE svg PUBLIC "-//W3C//DTD SVG 1.1//EN" "http://www.w3.org/Graphics/SVG/1.1/DTD/svg11.dtd"><svg width="32" height="32" viewBox="0 0 32 32" version="1.1" xmlns="http://www.w3.org/2000/svg" xmlns:xlink="http://www.w3.org/1999/xlink" xml:space="preserve" xmlns:serif="http://www.serif.com/" style="fill-rule:evenodd;clip-rule:evenodd;stroke-linejoin:round;stroke-miterlimit:1.41421;"><rect id="ship-1-overlay" x="0" y="0" width="32" height="32" style="fill:none;"/><g><g><path d="M8.627,12.698l-0.036,0.49l0,4.642l-0.17,0.339l-4.37,0l2.987,-5.471l1.589,0Z" style="fill:#dadada;"/><path d="M8.591,14.349l-2.372,0l0.773,-1.415l1.617,0l-0.018,0.254l0,1.161Z" style="fill-opacity:0.160784;"/></g><g><path d="M27.943,18.173l-4.368,0l-0.263,-0.527l0,-4.458c0,-0.168 -0.011,-0.333 -0.035,-0.49l1.68,0l2.986,5.475Z" style="fill:#dadada;"/><path d="M25.684,14.113l-2.372,0l0,-0.925c0,-0.168 -0.011,-0.333 -0.035,-0.49l1.634,0l0.773,1.415Z" style="fill-opacity:0.160784;"/></g><g><path d="M10.884,7.71l-1.501,3.003l-0.207,0.489c-0.326,0.501 -0.532,1.091 -0.567,1.732l-1.667,0l1.122,-10.712l2.245,0l0.575,5.488Z" style="fill:#797979;"/><path d="M10.396,8.687l-1.013,2.026l-0.207,0.489c-0.326,0.501 -0.532,1.091 -0.567,1.732l-1.667,0l0.445,-4.247l3.009,0Z" style="fill-opacity:0.321569;"/></g><g><path d="M24.94,12.698l-1.663,0c-0.054,-0.416 -0.178,-0.807 -0.361,-1.162c-0.067,-0.283 -0.172,-0.558 -0.304,-0.823l-1.551,-3.101l0.568,-5.39l2.208,0l1.103,10.476Z" style="fill:#797979;"/><path d="M24.885,12.698l-1.608,0c-0.054,-0.416 -0.178,-0.807 -0.361,-1.162c-0.067,-0.283 -0.172,-0.558 -0.304,-0.823l-1.131,-2.262l2.959,0l0.445,4.247Z" style="fill-opacity:0.321569;"/></g><path d="M8.591,17.83l0,1.345l-0.537,0.995c-0.539,0.998 -0.667,2.148 -0.387,3.209c-0.556,-1.213 -0.54,-2.621 0.064,-3.829l0.86,-1.72Zm14.721,-0.184l0.952,1.904c0.604,1.208 0.62,2.616 0.063,3.829c0.281,-1.061 0.152,-2.211 -0.386,-3.209l-0.629,-1.165l0,-1.359Zm-14.721,-4.458c0,-0.734 0.215,-1.418 0.585,-1.986l0.207,-0.489c0.672,-1.344 1.392,-2.786 2.102,-4.205c0.855,-1.709 2.601,-2.788 4.512,-2.788c1.911,0 3.658,1.079 4.512,2.788c0.71,1.419 1.431,2.861 2.103,4.205c0.132,0.265 0.237,0.54 0.304,0.823c0.254,0.494 0.396,1.056 0.396,1.652l0,1.961c0,-0.741 -0.22,-1.431 -0.599,-2.007c-0.084,-0.402 -0.226,-0.789 -0.424,-1.155c-0.601,-1.113 -1.232,-2.282 -1.853,-3.431c-0.88,-1.631 -2.585,-2.648 -4.439,-2.648c-1.854,0 -3.558,1.017 -4.439,2.648c-0.621,1.149 -1.251,2.318 -1.852,3.431c-0.166,0.306 -0.293,0.627 -0.374,0.955c-0.467,0.613 -0.741,1.378 -0.741,2.207l0,-1.961Z" style="fill-opacity:0.16;"/><path d="M7.654,16.781c2.258,-1.661 5.153,-2.659 8.309,-2.659c2.582,0 4.989,0.668 7.018,1.825l0,1.955l0.609,1.081c0.773,1.373 0.759,3.052 -0.036,4.412c-0.784,1.341 -2.211,2.173 -3.764,2.194c-0.199,0.038 -0.403,0.055 -0.626,0.056l-7.693,0c-0.223,0 -0.441,-0.019 -0.652,-0.06c-1.503,-0.06 -2.879,-0.883 -3.642,-2.19c-0.795,-1.36 -0.809,-3.039 -0.036,-4.412l0.513,-0.911l0,-1.291Z" style="fill-opacity:0.160784;"/><g><path d="M9.391,22.16l-5.191,0l1.298,3.895l2.595,0l1.298,-3.895Z" style="fill:#797979;"/><path d="M8.202,25.707l-3.205,-1.134l-0.803,-2.413l5.19,0l-1.182,3.547Z" style="fill-opacity:0.160784;"/></g><g><path d="M27.795,22.16l-5.191,0l1.298,3.895l2.595,0l1.298,-3.895Z" style="fill:#797979;"/><path d="M23.786,25.707l3.205,-1.134l0.804,-2.413l-5.191,0l1.182,3.547Z" style="fill-opacity:0.160784;"/></g><g><path d="M22.391,15.491l0,10.154l5.476,-2.538l0,-5.077l-5.476,-2.539Z" style="fill:#a2a2a2;"/><path d="M27.867,20.633l0,2.474l-5.476,2.538l0,-2.474l5.476,-2.538Z" style="fill-opacity:0.0784314;"/></g><g><path d="M9.603,15.435l0,10.154l-5.475,-2.538l0,-5.077l5.475,-2.539Z" style="fill:#a2a2a2;"/><path d="M4.128,20.577l0,2.474l5.475,2.538l0,-2.474l-5.475,-2.538Z" style="fill-opacity:0.0784314;"/></g><path d="M21.292,26.037c0,-1.065 -0.865,-1.93 -1.93,-1.93l-6.844,0c-1.065,0 -1.929,0.865 -1.929,1.93l10.703,0Z" style="fill:#2a2f3e;"/><g><path d="M16.835,11.08c-0.227,-0.265 -0.559,-0.419 -0.909,-0.419c-0.35,-0.001 -0.682,0.151 -0.911,0.416c-1.087,1.262 -2.761,3.571 -2.761,5.837c0,2.126 1.64,3.852 3.66,3.852c2.02,0 3.66,-1.726 3.66,-3.852c0,-2.263 -1.659,-4.571 -2.739,-5.834Z" style="fill:#39a4ef;"/><path d="M16.435,12.636c-0.103,-0.199 -0.309,-0.324 -0.533,-0.323c-0.224,0 -0.429,0.126 -0.531,0.325c-0.634,1.194 -1.613,3.283 -1.613,4.804c0,1.427 0.966,2.585 2.156,2.585c1.19,0 2.156,-1.158 2.156,-2.585c0,-1.522 -0.992,-3.613 -1.635,-4.806Z" style="fill:#67b5ec;"/></g></g></svg>
