<?xml version="1.0" encoding="UTF-8" standalone="no"?><!DOCTYPE svg PUBLIC "-//W3C//DTD SVG 1.1//EN" "http://www.w3.org/Graphics/SVG/1.1/DTD/svg11.dtd"><svg width="32" height="32" viewBox="0 0 32 32" version="1.1" xmlns="http://www.w3.org/2000/svg" xmlns:xlink="http://www.w3.org/1999/xlink" xml:space="preserve" xmlns:serif="http://www.serif.com/" style="fill-rule:evenodd;clip-rule:evenodd;stroke-linejoin:round;stroke-miterlimit:1.41421;"><rect id="ship-2-mask" x="0" y="0" width="32" height="32" style="fill:none;"/><g><path d="M5.557,16.202l0,-0.415l0,-9.553c0,-0.802 0.656,-1.454 1.464,-1.454l2.927,0c0.808,0 1.464,0.652 1.464,1.454l0,0.647c1.386,-0.675 2.944,-1.055 4.59,-1.055c1.708,0 3.32,0.408 4.743,1.131l-0.006,-0.759c0,-0.782 0.64,-1.418 1.427,-1.418l2.855,0c0.788,0 1.427,0.636 1.427,1.418l0,10.004c0,5.705 -4.644,10.34 -10.378,10.376l-0.068,0.001c-5.765,0 -10.445,-4.65 -10.445,-10.377l0,0Z" style="fill:#fff;"/></g></svg>
