<?xml version="1.0" encoding="UTF-8" standalone="no"?><!DOCTYPE svg PUBLIC "-//W3C//DTD SVG 1.1//EN" "http://www.w3.org/Graphics/SVG/1.1/DTD/svg11.dtd"><svg width="64" height="64" viewBox="0 0 64 64" version="1.1" xmlns="http://www.w3.org/2000/svg" xmlns:xlink="http://www.w3.org/1999/xlink" xml:space="preserve" style="fill-rule:evenodd;clip-rule:evenodd;stroke-linejoin:round;stroke-miterlimit:1.41421;"><rect id="fluxr.-logo" x="0" y="0" width="64" height="64" style="fill:none;"/><path d="M58.562,23.975l-14.169,14.169l-10.627,-10.626l1.777,-1.777l8.85,8.85l10.616,-10.616l-10.616,-10.617l-2.649,2.649l-1.776,-1.776l4.425,-4.426c4.723,4.723 9.446,9.447 14.169,14.17Zm-28.328,-3.543l-1.777,1.776l-8.85,-8.85l-10.616,10.617l10.616,10.616l2.653,-2.653l1.777,1.776l-4.43,4.43l-14.169,-14.169l14.169,-14.17c3.542,3.542 7.084,7.085 10.627,10.627Zm-6.203,0.895l-2.647,2.648l10.616,10.616l2.648,-2.648l1.777,1.777l-4.425,4.424l-14.169,-14.169l4.424,-4.424c0.592,0.592 1.184,1.184 1.776,1.776Zm22.138,2.648l-4.435,4.435l-1.776,-1.777l2.658,-2.658l-10.616,-10.617l-2.659,2.659l-1.776,-1.777l4.435,-4.435c4.723,4.723 9.446,9.447 14.169,14.17Zm-9.735,-2.658l-7.088,7.088l-1.776,-1.777l7.088,-7.087c0.592,0.592 1.184,1.184 1.776,1.776Z" style="fill:#fff;"/><path d="M12.348,45.495l0,0.948l-4.128,0l0,3.006l3.528,0l0,0.948l-3.528,0l0,3.696l-1.17,0l0,-8.598l5.298,0Z" style="fill:#fff;fill-rule:nonzero;"/><path d="M18.522,53.115l3.72,0l0,0.978l-4.884,0l0,-8.598l1.164,0l0,7.62Z" style="fill:#fff;fill-rule:nonzero;"/><path d="M30.384,53.169c0.356,0 0.674,-0.06 0.954,-0.18c0.28,-0.12 0.517,-0.288 0.711,-0.504c0.194,-0.216 0.342,-0.474 0.444,-0.774c0.102,-0.3 0.153,-0.63 0.153,-0.99l0,-5.226l1.158,0l0,5.226c0,0.496 -0.079,0.956 -0.237,1.38c-0.158,0.424 -0.384,0.791 -0.678,1.101c-0.294,0.31 -0.653,0.553 -1.077,0.729c-0.424,0.176 -0.9,0.264 -1.428,0.264c-0.528,0 -1.004,-0.088 -1.428,-0.264c-0.424,-0.176 -0.784,-0.419 -1.08,-0.729c-0.296,-0.31 -0.523,-0.677 -0.681,-1.101c-0.158,-0.424 -0.237,-0.884 -0.237,-1.38l0,-5.226l1.158,0l0,5.22c0,0.36 0.051,0.69 0.153,0.99c0.102,0.3 0.25,0.558 0.444,0.774c0.194,0.216 0.432,0.385 0.714,0.507c0.282,0.122 0.601,0.183 0.957,0.183Z" style="fill:#fff;fill-rule:nonzero;"/><path d="M41.316,49.677l-2.838,-4.182l1.158,0c0.084,0 0.146,0.014 0.186,0.042c0.04,0.028 0.076,0.068 0.108,0.12l2.244,3.444c0.028,-0.084 0.07,-0.176 0.126,-0.276l2.118,-3.144c0.036,-0.056 0.075,-0.101 0.117,-0.135c0.042,-0.034 0.093,-0.051 0.153,-0.051l1.11,0l-2.85,4.128l2.946,4.47l-1.152,0c-0.088,0 -0.157,-0.023 -0.207,-0.069c-0.05,-0.046 -0.091,-0.097 -0.123,-0.153l-2.304,-3.606c-0.028,0.084 -0.064,0.164 -0.108,0.24l-2.244,3.366c-0.036,0.056 -0.077,0.107 -0.123,0.153c-0.046,0.046 -0.111,0.069 -0.195,0.069l-1.08,0l2.958,-4.416Z" style="fill:#fff;fill-rule:nonzero;"/><path d="M51.828,50.505l0,3.588l-1.158,0l0,-8.598l2.43,0c0.544,0 1.014,0.055 1.41,0.165c0.396,0.11 0.723,0.269 0.981,0.477c0.258,0.208 0.449,0.459 0.573,0.753c0.124,0.294 0.186,0.623 0.186,0.987c0,0.304 -0.048,0.588 -0.144,0.852c-0.096,0.264 -0.235,0.501 -0.417,0.711c-0.182,0.21 -0.404,0.389 -0.666,0.537c-0.262,0.148 -0.559,0.26 -0.891,0.336c0.144,0.084 0.272,0.206 0.384,0.366l2.508,3.414l-1.032,0c-0.212,0 -0.368,-0.082 -0.468,-0.246l-2.232,-3.072c-0.068,-0.096 -0.142,-0.165 -0.222,-0.207c-0.08,-0.042 -0.2,-0.063 -0.36,-0.063l-0.882,0Zm0,-0.846l1.218,0c0.34,0 0.639,-0.041 0.897,-0.123c0.258,-0.082 0.474,-0.198 0.648,-0.348c0.174,-0.15 0.305,-0.329 0.393,-0.537c0.088,-0.208 0.132,-0.438 0.132,-0.69c0,-0.512 -0.169,-0.898 -0.507,-1.158c-0.338,-0.26 -0.841,-0.39 -1.509,-0.39l-1.272,0l0,3.246Z" style="fill:#fff;fill-rule:nonzero;"/></svg>
